<?xml version="1.0" encoding="UTF-8" standalone="no"?><!DOCTYPE svg PUBLIC "-//W3C//DTD SVG 1.1//EN" "http://www.w3.org/Graphics/SVG/1.1/DTD/svg11.dtd"><!-- Generated by graphviz version 2.40.1 (20161225.0304)
 --><!-- Title: G Pages: 1 --><svg xmlns="http://www.w3.org/2000/svg" xmlns:xlink="http://www.w3.org/1999/xlink" width="2776pt" height="620pt" viewBox="0.00 0.00 2775.58 620.00">
<g id="graph0" class="graph" transform="scale(1 1) rotate(0) translate(4 616)">
<title>G</title>
<polygon fill="#ffffff" stroke="transparent" points="-4,4 -4,-616 2771.58,-616 2771.58,4 -4,4"/>
<!-- Data_Cons -->
<g id="node1" class="node">
<title>Data_Cons</title>
<ellipse fill="none" stroke="#000000" cx="1158" cy="-522" rx="53.8924" ry="18"/>
<text text-anchor="middle" x="1158" y="-517.8" font-family="Times,serif" font-size="14.00" fill="#000000">Data_Cons</text>
</g>
<!-- Data_other_SPD -->
<g id="node2" class="node">
<title>Data_other_SPD</title>
<ellipse fill="none" stroke="#000000" cx="352" cy="-378" rx="76.4439" ry="18"/>
<text text-anchor="middle" x="352" y="-373.8" font-family="Times,serif" font-size="14.00" fill="#000000">Data_other_SPD</text>
</g>
<!-- Data_Cons&#45;&gt;Data_other_SPD -->
<g id="edge1" class="edge">
<title>Data_Cons-&gt;Data_other_SPD</title>
<path fill="none" stroke="#000000" d="M1107.0401,-515.8382C1077.0537,-512.2638 1038.3867,-507.7432 1004,-504 845.4652,-486.7427 800.6325,-510.7569 647,-468 610.9928,-457.979 606.2103,-444.537 571,-432 522.2295,-414.6348 465.4268,-400.8039 421.8941,-391.4881"/>
<polygon fill="#000000" stroke="#000000" points="422.4801,-388.0347 411.9728,-389.3937 421.0342,-394.8838 422.4801,-388.0347"/>
</g>
<!-- Train_sens_SPD -->
<g id="node3" class="node">
<title>Train_sens_SPD</title>
<ellipse fill="none" stroke="#000000" cx="1072" cy="-450" rx="75.8817" ry="18"/>
<text text-anchor="middle" x="1072" y="-445.8" font-family="Times,serif" font-size="14.00" fill="#000000">Train_sens_SPD</text>
</g>
<!-- Data_Cons&#45;&gt;Train_sens_SPD -->
<g id="edge2" class="edge">
<title>Data_Cons-&gt;Train_sens_SPD</title>
<path fill="none" stroke="#000000" d="M1137.6192,-504.937C1126.5364,-495.6584 1112.6512,-484.0336 1100.5109,-473.8696"/>
<polygon fill="#000000" stroke="#000000" points="1102.7463,-471.1764 1092.8319,-467.4407 1098.2527,-476.5437 1102.7463,-471.1764"/>
</g>
<!-- Test_sens_AOD -->
<g id="node4" class="node">
<title>Test_sens_AOD</title>
<ellipse fill="none" stroke="#000000" cx="1095" cy="-306" rx="74.7188" ry="18"/>
<text text-anchor="middle" x="1095" y="-301.8" font-family="Times,serif" font-size="14.00" fill="#000000">Test_sens_AOD</text>
</g>
<!-- Data_Cons&#45;&gt;Test_sens_AOD -->
<g id="edge3" class="edge">
<title>Data_Cons-&gt;Test_sens_AOD</title>
<path fill="none" stroke="#000000" d="M1160.1312,-503.783C1161.742,-485.3955 1162.8018,-456.319 1157,-432 1156.3703,-429.3605 1126.6133,-369.4186 1108.5584,-333.1762"/>
<polygon fill="#000000" stroke="#000000" points="1111.6209,-331.4745 1104.0276,-324.0858 1105.3559,-334.597 1111.6209,-331.4745"/>
</g>
<!-- Train_TI -->
<g id="node5" class="node">
<title>Train_TI</title>
<ellipse fill="none" stroke="#000000" cx="606" cy="-378" rx="45.7848" ry="18"/>
<text text-anchor="middle" x="606" y="-373.8" font-family="Times,serif" font-size="14.00" fill="#000000">Train_TI</text>
</g>
<!-- Data_Cons&#45;&gt;Train_TI -->
<g id="edge4" class="edge">
<title>Data_Cons-&gt;Train_TI</title>
<path fill="none" stroke="#000000" d="M1114.4571,-511.365C1010.0878,-485.8084 747.8805,-421.1982 661,-396 657.6167,-395.0187 654.1285,-393.9686 650.6274,-392.8869"/>
<polygon fill="#000000" stroke="#000000" points="651.3935,-389.4585 640.8037,-389.7856 649.2861,-396.1338 651.3935,-389.4585"/>
</g>
<!-- Train_Loss -->
<g id="node6" class="node">
<title>Train_Loss</title>
<ellipse fill="none" stroke="#000000" cx="1357" cy="-378" rx="55.0343" ry="18"/>
<text text-anchor="middle" x="1357" y="-373.8" font-family="Times,serif" font-size="14.00" fill="#000000">Train_Loss</text>
</g>
<!-- Data_Cons&#45;&gt;Train_Loss -->
<g id="edge5" class="edge">
<title>Data_Cons-&gt;Train_Loss</title>
<path fill="none" stroke="#000000" d="M1209.6177,-516.5544C1267.6888,-509.2385 1356.5941,-494.0487 1377,-468 1391.0812,-450.025 1383.2583,-424.1356 1373.5708,-404.7341"/>
<polygon fill="#000000" stroke="#000000" points="1376.5782,-402.9369 1368.7532,-395.7941 1370.416,-406.2576 1376.5782,-402.9369"/>
</g>
<!-- Test_Acc -->
<g id="node7" class="node">
<title>Test_Acc</title>
<ellipse fill="none" stroke="#000000" cx="1509" cy="-90" rx="48.0703" ry="18"/>
<text text-anchor="middle" x="1509" y="-85.8" font-family="Times,serif" font-size="14.00" fill="#000000">Test_Acc</text>
</g>
<!-- Data_Cons&#45;&gt;Test_Acc -->
<g id="edge6" class="edge">
<title>Data_Cons-&gt;Test_Acc</title>
<path fill="none" stroke="#000000" d="M1208.818,-515.7752C1269.463,-507.4408 1366.1784,-490.9946 1394,-468 1447.4425,-423.8297 1502.4683,-248.3676 1514,-180 1517.465,-159.4573 1515.9741,-135.942 1513.7447,-118.1009"/>
<polygon fill="#000000" stroke="#000000" points="1517.1918,-117.4786 1512.3389,-108.0606 1510.2595,-118.4493 1517.1918,-117.4786"/>
</g>
<!-- Test_Loss -->
<g id="node8" class="node">
<title>Test_Loss</title>
<ellipse fill="none" stroke="#000000" cx="1557" cy="-306" rx="50.9599" ry="18"/>
<text text-anchor="middle" x="1557" y="-301.8" font-family="Times,serif" font-size="14.00" fill="#000000">Test_Loss</text>
</g>
<!-- Data_Cons&#45;&gt;Test_Loss -->
<g id="edge7" class="edge">
<title>Data_Cons-&gt;Test_Loss</title>
<path fill="none" stroke="#000000" d="M1210.8334,-518.0596C1271.2389,-512.2683 1372.3135,-498.6172 1454,-468 1512.5975,-446.0369 1544.0683,-450.3992 1575,-396 1585.9996,-376.6551 1579.641,-351.6323 1571.5896,-332.8836"/>
<polygon fill="#000000" stroke="#000000" points="1574.7104,-331.2944 1567.3079,-323.7145 1568.3678,-334.2562 1574.7104,-331.2944"/>
</g>
<!-- Train_other_DP -->
<g id="node12" class="node">
<title>Train_other_DP</title>
<ellipse fill="none" stroke="#000000" cx="814" cy="-306" rx="73.5772" ry="18"/>
<text text-anchor="middle" x="814" y="-301.8" font-family="Times,serif" font-size="14.00" fill="#000000">Train_other_DP</text>
</g>
<!-- Data_other_SPD&#45;&gt;Train_other_DP -->
<g id="edge14" class="edge">
<title>Data_other_SPD-&gt;Train_other_DP</title>
<path fill="none" stroke="#000000" d="M416.2391,-367.9887C501.7075,-354.669 652.3917,-331.1857 741.7336,-317.2623"/>
<polygon fill="#000000" stroke="#000000" points="742.4409,-320.6944 751.7826,-315.6962 741.3629,-313.7779 742.4409,-320.6944"/>
</g>
<!-- Train_F1 -->
<g id="node14" class="node">
<title>Train_F1</title>
<ellipse fill="none" stroke="#000000" cx="523" cy="-306" rx="46.9497" ry="18"/>
<text text-anchor="middle" x="523" y="-301.8" font-family="Times,serif" font-size="14.00" fill="#000000">Train_F1</text>
</g>
<!-- Data_other_SPD&#45;&gt;Train_F1 -->
<g id="edge16" class="edge">
<title>Data_other_SPD-&gt;Train_F1</title>
<path fill="none" stroke="#000000" d="M389.5267,-362.1993C416.7895,-350.7202 453.674,-335.1899 481.7605,-323.364"/>
<polygon fill="#000000" stroke="#000000" points="483.4397,-326.4546 491.2979,-319.3483 480.7233,-320.0032 483.4397,-326.4546"/>
</g>
<!-- Train_other_SPD -->
<g id="node15" class="node">
<title>Train_other_SPD</title>
<ellipse fill="none" stroke="#000000" cx="599" cy="-234" rx="79.3135" ry="18"/>
<text text-anchor="middle" x="599" y="-229.8" font-family="Times,serif" font-size="14.00" fill="#000000">Train_other_SPD</text>
</g>
<!-- Data_other_SPD&#45;&gt;Train_other_SPD -->
<g id="edge15" class="edge">
<title>Data_other_SPD-&gt;Train_other_SPD</title>
<path fill="none" stroke="#000000" d="M371.1529,-360.2876C393.0574,-340.7042 430.6076,-309.1367 467,-288 491.3833,-273.8382 520.1948,-261.5899 544.6693,-252.3552"/>
<polygon fill="#000000" stroke="#000000" points="546.0031,-255.5937 554.166,-248.8396 543.5729,-249.029 546.0031,-255.5937"/>
</g>
<!-- Train_sens_SPD&#45;&gt;Test_sens_AOD -->
<g id="edge19" class="edge">
<title>Train_sens_SPD-&gt;Test_sens_AOD</title>
<path fill="none" stroke="#000000" d="M1074.913,-431.7623C1078.8532,-407.0928 1085.9182,-362.8598 1090.5321,-333.9731"/>
<polygon fill="#000000" stroke="#000000" points="1093.9896,-334.5165 1092.1107,-324.0896 1087.0772,-333.4124 1093.9896,-334.5165"/>
</g>
<!-- Train_sens_SPD&#45;&gt;Test_Acc -->
<g id="edge20" class="edge">
<title>Train_sens_SPD-&gt;Test_Acc</title>
<path fill="none" stroke="#000000" d="M1054.9252,-432.407C1025.5294,-400.021 972.0947,-330.4088 1011,-288 1073.8769,-219.461 1351.058,-304.2594 1428,-252 1451.9105,-235.7598 1483.252,-159.2992 1499.0207,-117.4859"/>
<polygon fill="#000000" stroke="#000000" points="1502.3794,-118.4956 1502.5907,-107.9029 1495.8198,-116.0519 1502.3794,-118.4956"/>
</g>
<!-- Train_sens_AOD -->
<g id="node18" class="node">
<title>Train_sens_AOD</title>
<ellipse fill="none" stroke="#000000" cx="749" cy="-378" rx="79.2942" ry="18"/>
<text text-anchor="middle" x="749" y="-373.8" font-family="Times,serif" font-size="14.00" fill="#000000">Train_sens_AOD</text>
</g>
<!-- Train_sens_SPD&#45;&gt;Train_sens_AOD -->
<g id="edge18" class="edge">
<title>Train_sens_SPD-&gt;Train_sens_AOD</title>
<path fill="none" stroke="#000000" d="M1016.4743,-437.6228C960.8035,-425.2132 875.0533,-406.0986 815.7192,-392.8724"/>
<polygon fill="#000000" stroke="#000000" points="816.2197,-389.3981 805.6977,-390.6385 814.6966,-396.2304 816.2197,-389.3981"/>
</g>
<!-- Test_sens_SPD -->
<g id="node21" class="node">
<title>Test_sens_SPD</title>
<ellipse fill="none" stroke="#000000" cx="1421" cy="-18" rx="71.8066" ry="18"/>
<text text-anchor="middle" x="1421" y="-13.8" font-family="Times,serif" font-size="14.00" fill="#000000">Test_sens_SPD</text>
</g>
<!-- Test_sens_AOD&#45;&gt;Test_sens_SPD -->
<g id="edge31" class="edge">
<title>Test_sens_AOD-&gt;Test_sens_SPD</title>
<path fill="none" stroke="#000000" d="M1076.3547,-288.1267C1046.5575,-257.3314 994.5173,-192.873 1025,-144 1059.8256,-88.1639 1246.1055,-47.9229 1350.303,-29.4042"/>
<polygon fill="#000000" stroke="#000000" points="1351.1862,-32.8028 1360.4306,-27.6267 1349.9761,-25.9082 1351.1862,-32.8028"/>
</g>
<!-- Train_TI&#45;&gt;Train_F1 -->
<g id="edge41" class="edge">
<title>Train_TI-&gt;Train_F1</title>
<path fill="none" stroke="#000000" d="M586.7495,-361.3008C575.7501,-351.7591 561.7899,-339.6491 549.7392,-329.1954"/>
<polygon fill="#000000" stroke="#000000" points="551.9935,-326.5176 542.1461,-322.6087 547.4065,-331.8053 551.9935,-326.5176"/>
</g>
<!-- Train_TI&#45;&gt;Train_other_SPD -->
<g id="edge40" class="edge">
<title>Train_TI-&gt;Train_other_SPD</title>
<path fill="none" stroke="#000000" d="M605.1134,-359.7623C603.9195,-335.201 601.7829,-291.2474 600.3783,-262.3541"/>
<polygon fill="#000000" stroke="#000000" points="603.8609,-261.9079 599.8794,-252.0896 596.8691,-262.2478 603.8609,-261.9079"/>
</g>
<!-- Test_TI -->
<g id="node28" class="node">
<title>Test_TI</title>
<ellipse fill="none" stroke="#000000" cx="1344" cy="-234" rx="41.7095" ry="18"/>
<text text-anchor="middle" x="1344" y="-229.8" font-family="Times,serif" font-size="14.00" fill="#000000">Test_TI</text>
</g>
<!-- Train_TI&#45;&gt;Test_TI -->
<g id="edge49" class="edge">
<title>Train_TI-&gt;Test_TI</title>
<path fill="none" stroke="#000000" d="M640.0774,-365.8822C646.9462,-363.7138 654.1585,-361.6296 661,-360 764.2147,-335.4155 800.3017,-367.6706 897,-324 919.7155,-313.7413 917.1841,-298.0335 940,-288 1051.6263,-238.9114 1091.1429,-268.2381 1212,-252 1239.0775,-248.3619 1269.2711,-244.2488 1293.94,-240.8736"/>
<polygon fill="#000000" stroke="#000000" points="1294.7161,-244.3001 1304.1489,-239.4758 1293.7665,-237.3648 1294.7161,-244.3001"/>
</g>
<!-- Train_Loss&#45;&gt;Test_Loss -->
<g id="edge73" class="edge">
<title>Train_Loss-&gt;Test_Loss</title>
<path fill="none" stroke="#000000" d="M1394.1497,-364.6261C1427.2955,-352.6936 1475.9336,-335.1839 1511.422,-322.4081"/>
<polygon fill="#000000" stroke="#000000" points="1512.8357,-325.6191 1521.0591,-318.9387 1510.4647,-319.0329 1512.8357,-325.6191"/>
</g>
<!-- Train_Loss&#45;&gt;Train_F1 -->
<g id="edge67" class="edge">
<title>Train_Loss-&gt;Train_F1</title>
<path fill="none" stroke="#000000" d="M1303.4074,-373.382C1195.2102,-364.0577 942.9246,-342.3103 731,-324 679.4575,-319.5467 620.7314,-314.4638 578.8544,-310.8377"/>
<polygon fill="#000000" stroke="#000000" points="579.1176,-307.3475 568.8529,-309.9717 578.5137,-314.3214 579.1176,-307.3475"/>
</g>
<!-- Train_Loss&#45;&gt;Test_TI -->
<g id="edge51" class="edge">
<title>Train_Loss-&gt;Test_TI</title>
<path fill="none" stroke="#000000" d="M1355.3535,-359.7623C1353.1362,-335.201 1349.1682,-291.2474 1346.5597,-262.3541"/>
<polygon fill="#000000" stroke="#000000" points="1350.0181,-261.7344 1345.6331,-252.0896 1343.0465,-262.3638 1350.0181,-261.7344"/>
</g>
<!-- Test_other_SPD -->
<g id="node13" class="node">
<title>Test_other_SPD</title>
<ellipse fill="none" stroke="#000000" cx="1148" cy="-18" rx="74.7381" ry="18"/>
<text text-anchor="middle" x="1148" y="-13.8" font-family="Times,serif" font-size="14.00" fill="#000000">Test_other_SPD</text>
</g>
<!-- Test_Acc&#45;&gt;Test_other_SPD -->
<g id="edge71" class="edge">
<title>Test_Acc-&gt;Test_other_SPD</title>
<path fill="none" stroke="#000000" d="M1466.5272,-81.529C1404.758,-69.2094 1289.4963,-46.2209 1215.8726,-31.5369"/>
<polygon fill="#000000" stroke="#000000" points="1216.2616,-28.0456 1205.7702,-29.522 1214.8924,-34.9104 1216.2616,-28.0456"/>
</g>
<!-- Test_Acc&#45;&gt;Test_sens_SPD -->
<g id="edge70" class="edge">
<title>Test_Acc-&gt;Test_sens_SPD</title>
<path fill="none" stroke="#000000" d="M1488.5898,-73.3008C1477.1777,-63.9636 1462.7596,-52.1669 1450.1741,-41.8697"/>
<polygon fill="#000000" stroke="#000000" points="1452.1741,-38.9839 1442.2182,-35.3603 1447.7415,-44.4016 1452.1741,-38.9839"/>
</g>
<!-- Test_CDS -->
<g id="node27" class="node">
<title>Test_CDS</title>
<ellipse fill="none" stroke="#000000" cx="1959" cy="-18" rx="51.0415" ry="18"/>
<text text-anchor="middle" x="1959" y="-13.8" font-family="Times,serif" font-size="14.00" fill="#000000">Test_CDS</text>
</g>
<!-- Test_Acc&#45;&gt;Test_CDS -->
<g id="edge72" class="edge">
<title>Test_Acc-&gt;Test_CDS</title>
<path fill="none" stroke="#000000" d="M1553.3793,-82.8993C1635.5792,-69.7473 1811.3908,-41.6175 1902.1623,-27.094"/>
<polygon fill="#000000" stroke="#000000" points="1902.9466,-30.5131 1912.268,-25.4771 1901.8406,-23.6011 1902.9466,-30.5131"/>
</g>
<!-- MI_Rule -->
<g id="node31" class="node">
<title>MI_Rule</title>
<ellipse fill="none" stroke="#000000" cx="2413" cy="-18" rx="45.806" ry="18"/>
<text text-anchor="middle" x="2413" y="-13.8" font-family="Times,serif" font-size="14.00" fill="#000000">MI_Rule</text>
</g>
<!-- Test_Acc&#45;&gt;MI_Rule -->
<g id="edge80" class="edge">
<title>Test_Acc-&gt;MI_Rule</title>
<path fill="none" stroke="#000000" d="M1556.0143,-86.2555C1709.1282,-74.0606 2193.0504,-35.5181 2357.6018,-22.4122"/>
<polygon fill="#000000" stroke="#000000" points="2358.2812,-25.8693 2367.9717,-21.5863 2357.7254,-18.8914 2358.2812,-25.8693"/>
</g>
<!-- Data_sens_DP -->
<g id="node9" class="node">
<title>Data_sens_DP</title>
<ellipse fill="none" stroke="#000000" cx="473" cy="-522" rx="67.776" ry="18"/>
<text text-anchor="middle" x="473" y="-517.8" font-family="Times,serif" font-size="14.00" fill="#000000">Data_sens_DP</text>
</g>
<!-- Data_sens_SPD -->
<g id="node10" class="node">
<title>Data_sens_SPD</title>
<ellipse fill="none" stroke="#000000" cx="489" cy="-450" rx="73.0132" ry="18"/>
<text text-anchor="middle" x="489" y="-445.8" font-family="Times,serif" font-size="14.00" fill="#000000">Data_sens_SPD</text>
</g>
<!-- Data_sens_DP&#45;&gt;Data_sens_SPD -->
<g id="edge8" class="edge">
<title>Data_sens_DP-&gt;Data_sens_SPD</title>
<path fill="none" stroke="#000000" d="M477.0375,-503.8314C478.7487,-496.131 480.7835,-486.9743 482.6852,-478.4166"/>
<polygon fill="#000000" stroke="#000000" points="486.1554,-478.9344 484.9082,-468.4133 479.3221,-477.4159 486.1554,-478.9344"/>
</g>
<!-- Data_sens_SPD&#45;&gt;Data_other_SPD -->
<g id="edge9" class="edge">
<title>Data_sens_SPD-&gt;Data_other_SPD</title>
<path fill="none" stroke="#000000" d="M457.9126,-433.6621C438.5194,-423.4701 413.3551,-410.245 392.4216,-399.2435"/>
<polygon fill="#000000" stroke="#000000" points="393.9189,-396.0765 383.4386,-394.5225 390.6624,-402.2729 393.9189,-396.0765"/>
</g>
<!-- Data_other_DP -->
<g id="node11" class="node">
<title>Data_other_DP</title>
<ellipse fill="none" stroke="#000000" cx="213" cy="-450" rx="71.2075" ry="18"/>
<text text-anchor="middle" x="213" y="-445.8" font-family="Times,serif" font-size="14.00" fill="#000000">Data_other_DP</text>
</g>
<!-- Data_other_DP&#45;&gt;Data_other_SPD -->
<g id="edge10" class="edge">
<title>Data_other_DP-&gt;Data_other_SPD</title>
<path fill="none" stroke="#000000" d="M244.5413,-433.6621C264.2175,-423.4701 289.7492,-410.245 310.9883,-399.2435"/>
<polygon fill="#000000" stroke="#000000" points="312.8328,-402.2298 320.1024,-394.5225 309.6131,-396.0142 312.8328,-402.2298"/>
</g>
<!-- Data_other_DP&#45;&gt;Train_other_DP -->
<g id="edge11" class="edge">
<title>Data_other_DP-&gt;Train_other_DP</title>
<path fill="none" stroke="#000000" d="M218.3267,-431.9634C225.6022,-410.8208 240.8271,-376.5696 267,-360 286.3892,-347.7251 585.5523,-323.403 733.0417,-312.0727"/>
<polygon fill="#000000" stroke="#000000" points="733.6895,-315.5335 743.3929,-311.2798 733.1548,-308.5539 733.6895,-315.5335"/>
</g>
<!-- Data_other_DP&#45;&gt;Test_other_SPD -->
<g id="edge12" class="edge">
<title>Data_other_DP-&gt;Test_other_SPD</title>
<path fill="none" stroke="#000000" d="M169.2915,-435.6961C117.4578,-415.6575 38,-373.8709 38,-306 38,-306 38,-306 38,-162 38,-58.6886 803.9675,-27.6498 1063.3256,-20.1012"/>
<polygon fill="#000000" stroke="#000000" points="1063.5506,-23.5963 1073.4462,-19.8111 1063.35,-16.5991 1063.5506,-23.5963"/>
</g>
<!-- Data_other_DP&#45;&gt;Train_F1 -->
<g id="edge13" class="edge">
<title>Data_other_DP-&gt;Train_F1</title>
<path fill="none" stroke="#000000" d="M211.8285,-431.6454C211.5996,-411.1772 214.6364,-378.5204 234,-360 266.5872,-328.832 391.8614,-314.9641 466.3553,-309.3628"/>
<polygon fill="#000000" stroke="#000000" points="466.794,-312.8403 476.5148,-308.6264 466.2879,-305.8586 466.794,-312.8403"/>
</g>
<!-- Train_other_DP&#45;&gt;Test_Acc -->
<g id="edge69" class="edge">
<title>Train_other_DP-&gt;Test_Acc</title>
<path fill="none" stroke="#000000" d="M866.5491,-293.2827C875.3514,-291.3666 884.4129,-289.5247 893,-288 1016.9707,-265.9886 1054.4783,-291.5956 1174,-252 1266.9397,-221.2106 1277.2825,-185.4124 1366,-144 1397.728,-129.1897 1434.7373,-115.3013 1463.1555,-105.3188"/>
<polygon fill="#000000" stroke="#000000" points="1464.5308,-108.5462 1472.8263,-101.9556 1462.2315,-101.9346 1464.5308,-108.5462"/>
</g>
<!-- Test_other_DP -->
<g id="node22" class="node">
<title>Test_other_DP</title>
<ellipse fill="none" stroke="#000000" cx="780" cy="-90" rx="69.5012" ry="18"/>
<text text-anchor="middle" x="780" y="-85.8" font-family="Times,serif" font-size="14.00" fill="#000000">Test_other_DP</text>
</g>
<!-- Train_other_DP&#45;&gt;Test_other_DP -->
<g id="edge32" class="edge">
<title>Train_other_DP-&gt;Test_other_DP</title>
<path fill="none" stroke="#000000" d="M812.791,-287.8798C810.5788,-257.7837 805.1464,-195.6845 795,-144 793.321,-135.4473 790.9804,-126.2683 788.6468,-117.9484"/>
<polygon fill="#000000" stroke="#000000" points="792.0018,-116.951 785.8487,-108.326 785.2802,-118.9056 792.0018,-116.951"/>
</g>
<!-- Test_other_AOD -->
<g id="node23" class="node">
<title>Test_other_AOD</title>
<ellipse fill="none" stroke="#000000" cx="708" cy="-162" rx="78.1501" ry="18"/>
<text text-anchor="middle" x="708" y="-157.8" font-family="Times,serif" font-size="14.00" fill="#000000">Test_other_AOD</text>
</g>
<!-- Train_other_DP&#45;&gt;Test_other_AOD -->
<g id="edge34" class="edge">
<title>Train_other_DP-&gt;Test_other_AOD</title>
<path fill="none" stroke="#000000" d="M800.7894,-288.0535C782.3812,-263.0462 748.8818,-217.5376 727.5698,-188.5853"/>
<polygon fill="#000000" stroke="#000000" points="730.124,-186.1512 721.3771,-180.1727 724.4867,-190.301 730.124,-186.1512"/>
</g>
<!-- Train_other_DP&#45;&gt;Test_TI -->
<g id="edge46" class="edge">
<title>Train_other_DP-&gt;Test_TI</title>
<path fill="none" stroke="#000000" d="M869.2598,-293.9398C880.085,-291.7917 891.3753,-289.7003 902,-288 1038.961,-266.0818 1074.3884,-269.3712 1212,-252 1239.1057,-248.5783 1269.3015,-244.4819 1293.9645,-241.062"/>
<polygon fill="#000000" stroke="#000000" points="1294.7484,-244.4867 1304.1705,-239.6416 1293.7835,-237.5535 1294.7484,-244.4867"/>
</g>
<!-- Train_F1&#45;&gt;Train_other_SPD -->
<g id="edge68" class="edge">
<title>Train_F1-&gt;Train_other_SPD</title>
<path fill="none" stroke="#000000" d="M540.627,-289.3008C550.2246,-280.2083 562.284,-268.7836 572.9465,-258.6823"/>
<polygon fill="#000000" stroke="#000000" points="575.5559,-261.0315 580.4083,-251.6132 570.7416,-255.9498 575.5559,-261.0315"/>
</g>
<!-- Test_F1 -->
<g id="node20" class="node">
<title>Test_F1</title>
<ellipse fill="none" stroke="#000000" cx="1077" cy="-162" rx="42.8751" ry="18"/>
<text text-anchor="middle" x="1077" y="-157.8" font-family="Times,serif" font-size="14.00" fill="#000000">Test_F1</text>
</g>
<!-- Train_F1&#45;&gt;Test_F1 -->
<g id="edge76" class="edge">
<title>Train_F1-&gt;Test_F1</title>
<path fill="none" stroke="#000000" d="M561.9562,-295.8742C661.3317,-270.0437 923.9387,-201.7849 1030.791,-174.011"/>
<polygon fill="#000000" stroke="#000000" points="1031.8367,-177.3556 1040.6346,-171.4524 1030.0757,-170.5807 1031.8367,-177.3556"/>
</g>
<!-- Train_F1&#45;&gt;Test_TI -->
<g id="edge52" class="edge">
<title>Train_F1-&gt;Test_TI</title>
<path fill="none" stroke="#000000" d="M568.8997,-301.9747C711.0335,-289.5099 1143.2888,-251.602 1292.6136,-238.5065"/>
<polygon fill="#000000" stroke="#000000" points="1293.2122,-241.9675 1302.8681,-237.6072 1292.6006,-234.9943 1293.2122,-241.9675"/>
</g>
<!-- MI_BlackBox -->
<g id="node33" class="node">
<title>MI_BlackBox</title>
<ellipse fill="none" stroke="#000000" cx="310" cy="-162" rx="66.0743" ry="18"/>
<text text-anchor="middle" x="310" y="-157.8" font-family="Times,serif" font-size="14.00" fill="#000000">MI_BlackBox</text>
</g>
<!-- Train_F1&#45;&gt;MI_BlackBox -->
<g id="edge79" class="edge">
<title>Train_F1-&gt;MI_BlackBox</title>
<path fill="none" stroke="#000000" d="M499.7998,-290.3154C461.9726,-264.742 386.8702,-213.9686 343.3363,-184.5372"/>
<polygon fill="#000000" stroke="#000000" points="345.0554,-181.4746 334.8107,-178.7734 341.1348,-187.2737 345.0554,-181.4746"/>
</g>
<!-- Train_other_SPD&#45;&gt;Test_other_SPD -->
<g id="edge33" class="edge">
<title>Train_other_SPD-&gt;Test_other_SPD</title>
<path fill="none" stroke="#000000" d="M600.7521,-215.8035C603.1698,-196.9175 608.7171,-166.9813 621,-144 641.4623,-105.715 648.3506,-91.7654 687,-72 750.81,-39.3674 948.5212,-26.0123 1063.2429,-20.9002"/>
<polygon fill="#000000" stroke="#000000" points="1063.5586,-24.3899 1073.3974,-20.4596 1063.255,-17.3965 1063.5586,-24.3899"/>
</g>
<!-- Train_other_SPD&#45;&gt;Test_F1 -->
<g id="edge74" class="edge">
<title>Train_other_SPD-&gt;Test_F1</title>
<path fill="none" stroke="#000000" d="M660.6345,-222.671C673.6219,-220.3805 687.2505,-218.0486 700,-216 816.3551,-197.3042 953.4353,-178.4659 1025.9807,-168.746"/>
<polygon fill="#000000" stroke="#000000" points="1026.7576,-172.1733 1036.2057,-167.3791 1025.8301,-165.235 1026.7576,-172.1733"/>
</g>
<!-- Train_other_SPD&#45;&gt;Test_other_AOD -->
<g id="edge35" class="edge">
<title>Train_other_SPD-&gt;Test_other_AOD</title>
<path fill="none" stroke="#000000" d="M624.8315,-216.937C639.3858,-207.3231 657.7534,-195.1904 673.5232,-184.7737"/>
<polygon fill="#000000" stroke="#000000" points="675.5613,-187.6221 681.9762,-179.19 671.7031,-181.7813 675.5613,-187.6221"/>
</g>
<!-- Train_other_SPD&#45;&gt;MI_BlackBox -->
<g id="edge78" class="edge">
<title>Train_other_SPD-&gt;MI_BlackBox</title>
<path fill="none" stroke="#000000" d="M545.3186,-220.6261C495.2767,-208.1589 420.797,-189.6034 369.0844,-176.72"/>
<polygon fill="#000000" stroke="#000000" points="369.609,-173.2438 359.0594,-174.2224 367.9167,-180.0361 369.609,-173.2438"/>
</g>
<!-- Train_sens_DP -->
<g id="node16" class="node">
<title>Train_sens_DP</title>
<ellipse fill="none" stroke="#000000" cx="2474" cy="-306" rx="70.6451" ry="18"/>
<text text-anchor="middle" x="2474" y="-301.8" font-family="Times,serif" font-size="14.00" fill="#000000">Train_sens_DP</text>
</g>
<!-- Test_sens_DP -->
<g id="node17" class="node">
<title>Test_sens_DP</title>
<ellipse fill="none" stroke="#000000" cx="2517" cy="-234" rx="66.0704" ry="18"/>
<text text-anchor="middle" x="2517" y="-229.8" font-family="Times,serif" font-size="14.00" fill="#000000">Test_sens_DP</text>
</g>
<!-- Train_sens_DP&#45;&gt;Test_sens_DP -->
<g id="edge17" class="edge">
<title>Train_sens_DP-&gt;Test_sens_DP</title>
<path fill="none" stroke="#000000" d="M2484.6292,-288.2022C2489.5908,-279.8944 2495.6006,-269.8316 2501.0884,-260.6427"/>
<polygon fill="#000000" stroke="#000000" points="2504.2215,-262.2226 2506.344,-251.8425 2498.2117,-258.6334 2504.2215,-262.2226"/>
</g>
<!-- Train_sens_AOD&#45;&gt;Test_sens_AOD -->
<g id="edge30" class="edge">
<title>Train_sens_AOD-&gt;Test_sens_AOD</title>
<path fill="none" stroke="#000000" d="M807.6942,-365.7862C868.8204,-353.0663 964.4074,-333.1753 1028.3402,-319.8714"/>
<polygon fill="#000000" stroke="#000000" points="1029.2419,-323.2588 1038.3191,-317.7949 1027.8157,-316.4056 1029.2419,-323.2588"/>
</g>
<!-- Train_sens_AOD&#45;&gt;Train_F1 -->
<g id="edge21" class="edge">
<title>Train_sens_AOD-&gt;Train_F1</title>
<path fill="none" stroke="#000000" d="M702.9931,-363.3429C663.8494,-350.8724 607.9199,-333.0541 568.8276,-320.5999"/>
<polygon fill="#000000" stroke="#000000" points="569.8627,-317.2564 559.2721,-317.5557 567.7378,-323.9262 569.8627,-317.2564"/>
</g>
<!-- Train_sens_AOD&#45;&gt;Test_sens_SPD -->
<g id="edge29" class="edge">
<title>Train_sens_AOD-&gt;Test_sens_SPD</title>
<path fill="none" stroke="#000000" d="M738.6657,-360.0195C729.2434,-341.0443 718.5386,-310.7885 731,-288 816.3543,-131.9102 901.5574,-134.8191 1068,-72 1117.219,-53.4237 1256.3147,-35.7453 1344.4932,-25.9382"/>
<polygon fill="#000000" stroke="#000000" points="1344.8973,-29.4149 1354.4534,-24.8397 1344.1299,-22.4571 1344.8973,-29.4149"/>
</g>
<!-- Train_other_AOD -->
<g id="node19" class="node">
<title>Train_other_AOD</title>
<ellipse fill="none" stroke="#000000" cx="1286" cy="-450" rx="82.2256" ry="18"/>
<text text-anchor="middle" x="1286" y="-445.8" font-family="Times,serif" font-size="14.00" fill="#000000">Train_other_AOD</text>
</g>
<!-- Train_other_AOD&#45;&gt;Test_sens_AOD -->
<g id="edge24" class="edge">
<title>Train_other_AOD-&gt;Test_sens_AOD</title>
<path fill="none" stroke="#000000" d="M1249.0013,-433.7843C1228.8951,-424.1608 1204.1052,-410.9361 1184,-396 1158.5327,-377.0804 1133.4837,-350.8757 1116.4813,-331.6205"/>
<polygon fill="#000000" stroke="#000000" points="1118.9131,-329.0832 1109.7094,-323.8352 1113.6316,-333.6773 1118.9131,-329.0832"/>
</g>
<!-- Train_other_AOD&#45;&gt;Train_Loss -->
<g id="edge26" class="edge">
<title>Train_other_AOD-&gt;Train_Loss</title>
<path fill="none" stroke="#000000" d="M1303.5506,-432.2022C1312.3859,-423.2425 1323.2342,-412.2414 1332.8435,-402.4968"/>
<polygon fill="#000000" stroke="#000000" points="1335.367,-404.9225 1339.8963,-395.3446 1330.3827,-400.0074 1335.367,-404.9225"/>
</g>
<!-- Train_other_AOD&#45;&gt;Test_Acc -->
<g id="edge27" class="edge">
<title>Train_other_AOD-&gt;Test_Acc</title>
<path fill="none" stroke="#000000" d="M1282.8983,-431.9987C1280.5475,-412.7317 1279.6717,-381.9766 1293,-360 1340.0034,-282.4978 1412.1544,-324.9147 1466,-252 1495.5583,-211.9737 1504.8145,-153.1416 1507.7024,-118.4841"/>
<polygon fill="#000000" stroke="#000000" points="1511.22,-118.3575 1508.434,-108.1355 1504.2374,-117.8638 1511.22,-118.3575"/>
</g>
<!-- Train_other_AOD&#45;&gt;Train_other_DP -->
<g id="edge22" class="edge">
<title>Train_other_AOD-&gt;Train_other_DP</title>
<path fill="none" stroke="#000000" d="M1237.7059,-435.2662C1149.635,-408.3971 963.4179,-351.5851 869.9679,-323.075"/>
<polygon fill="#000000" stroke="#000000" points="870.7176,-319.6445 860.1315,-320.074 868.6749,-326.3398 870.7176,-319.6445"/>
</g>
<!-- Train_other_AOD&#45;&gt;Test_other_SPD -->
<g id="edge25" class="edge">
<title>Train_other_AOD-&gt;Test_other_SPD</title>
<path fill="none" stroke="#000000" d="M1280.246,-431.9875C1258.7218,-364.6074 1182.8554,-127.1125 1156.8355,-45.6588"/>
<polygon fill="#000000" stroke="#000000" points="1160.1556,-44.5501 1153.7786,-36.0894 1153.4876,-46.6802 1160.1556,-44.5501"/>
</g>
<!-- Train_other_AOD&#45;&gt;Train_other_SPD -->
<g id="edge23" class="edge">
<title>Train_other_AOD-&gt;Train_other_SPD</title>
<path fill="none" stroke="#000000" d="M1218.9315,-439.5474C1158.7052,-429.7386 1068.0212,-413.9226 990,-396 931.7783,-382.6256 785.1802,-349.1625 731,-324 692.8651,-306.2893 653.6077,-277.9947 627.9294,-257.8614"/>
<polygon fill="#000000" stroke="#000000" points="630.0959,-255.1126 620.088,-251.6351 625.743,-260.5946 630.0959,-255.1126"/>
</g>
<!-- Train_other_AOD&#45;&gt;Test_F1 -->
<g id="edge28" class="edge">
<title>Train_other_AOD-&gt;Test_F1</title>
<path fill="none" stroke="#000000" d="M1259.9574,-432.6936C1247.1444,-423.1156 1232.2841,-410.2713 1222,-396 1191.7952,-354.0845 1205.1055,-332.5841 1179,-288 1156.4153,-249.429 1122.5975,-210.223 1100.1753,-186.0139"/>
<polygon fill="#000000" stroke="#000000" points="1102.7154,-183.6059 1093.3245,-178.7006 1097.6068,-188.3915 1102.7154,-183.6059"/>
</g>
<!-- Test_F1&#45;&gt;Test_sens_SPD -->
<g id="edge75" class="edge">
<title>Test_F1-&gt;Test_sens_SPD</title>
<path fill="none" stroke="#000000" d="M1101.8001,-147.103C1134.4647,-127.9168 1194.0877,-94.3829 1248,-72 1284.763,-56.737 1327.4405,-43.3717 1361.2086,-33.7559"/>
<polygon fill="#000000" stroke="#000000" points="1362.2555,-37.0973 1370.9339,-31.0197 1360.3597,-30.3589 1362.2555,-37.0973"/>
</g>
<!-- Test_other_AOD&#45;&gt;Test_Acc -->
<g id="edge38" class="edge">
<title>Test_other_AOD-&gt;Test_Acc</title>
<path fill="none" stroke="#000000" d="M780.8511,-155.4516C938.6836,-141.2644 1309.4329,-107.9386 1451.8719,-95.1351"/>
<polygon fill="#000000" stroke="#000000" points="1452.4832,-98.5944 1462.1297,-94.2131 1451.8565,-91.6225 1452.4832,-98.5944"/>
</g>
<!-- Test_other_AOD&#45;&gt;Test_other_SPD -->
<g id="edge37" class="edge">
<title>Test_other_AOD-&gt;Test_other_SPD</title>
<path fill="none" stroke="#000000" d="M699.7549,-144.0315C691.9072,-123.9175 683.6384,-91.5852 701,-72 724.6415,-45.3306 941.4541,-29.2542 1064.2115,-22.2128"/>
<polygon fill="#000000" stroke="#000000" points="1064.5487,-25.6994 1074.3351,-21.6403 1064.1535,-18.7106 1064.5487,-25.6994"/>
</g>
<!-- Test_other_AOD&#45;&gt;Test_other_DP -->
<g id="edge36" class="edge">
<title>Test_other_AOD-&gt;Test_other_DP</title>
<path fill="none" stroke="#000000" d="M725.7978,-144.2022C734.6912,-135.3088 745.5958,-124.4042 755.2865,-114.7135"/>
<polygon fill="#000000" stroke="#000000" points="757.8108,-117.139 762.407,-107.593 752.861,-112.1892 757.8108,-117.139"/>
</g>
<!-- Train_Cons -->
<g id="node24" class="node">
<title>Train_Cons</title>
<ellipse fill="none" stroke="#000000" cx="2415" cy="-522" rx="56.7619" ry="18"/>
<text text-anchor="middle" x="2415" y="-517.8" font-family="Times,serif" font-size="14.00" fill="#000000">Train_Cons</text>
</g>
<!-- Test_Cons -->
<g id="node25" class="node">
<title>Test_Cons</title>
<ellipse fill="none" stroke="#000000" cx="2191" cy="-162" rx="52.1867" ry="18"/>
<text text-anchor="middle" x="2191" y="-157.8" font-family="Times,serif" font-size="14.00" fill="#000000">Test_Cons</text>
</g>
<!-- Train_Cons&#45;&gt;Test_Cons -->
<g id="edge39" class="edge">
<title>Train_Cons-&gt;Test_Cons</title>
<path fill="none" stroke="#000000" d="M2438.3082,-505.3086C2503.3817,-456.7792 2676.8341,-313.0239 2592,-216 2580.9136,-203.3206 2361.3184,-179.326 2251.8961,-168.0907"/>
<polygon fill="#000000" stroke="#000000" points="2251.9657,-164.5796 2241.6615,-167.044 2251.2535,-171.5433 2251.9657,-164.5796"/>
</g>
<!-- Train_CDS -->
<g id="node26" class="node">
<title>Train_CDS</title>
<ellipse fill="none" stroke="#000000" cx="1946" cy="-378" rx="55.6159" ry="18"/>
<text text-anchor="middle" x="1946" y="-373.8" font-family="Times,serif" font-size="14.00" fill="#000000">Train_CDS</text>
</g>
<!-- Train_CDS&#45;&gt;Train_other_DP -->
<g id="edge42" class="edge">
<title>Train_CDS-&gt;Train_other_DP</title>
<path fill="none" stroke="#000000" d="M1906.0934,-365.4062C1897.8702,-363.2485 1889.2131,-361.2897 1881,-360 1498.6871,-299.9668 1397.1489,-349.6147 1011,-324 971.8455,-321.4027 928.3992,-317.5383 892.2918,-314.0551"/>
<polygon fill="#000000" stroke="#000000" points="892.6039,-310.5691 882.3119,-313.0842 891.926,-317.5362 892.6039,-310.5691"/>
</g>
<!-- Train_CDS&#45;&gt;Test_sens_SPD -->
<g id="edge43" class="edge">
<title>Train_CDS-&gt;Test_sens_SPD</title>
<path fill="none" stroke="#000000" d="M1935.8923,-360.1059C1911.719,-318.4295 1846.9653,-213.183 1772,-144 1727.9616,-103.3585 1713.342,-94.9864 1658,-72 1605.3337,-50.125 1542.2283,-36.2972 1494.381,-28.1164"/>
<polygon fill="#000000" stroke="#000000" points="1494.851,-24.6465 1484.4118,-26.4555 1493.7007,-31.5513 1494.851,-24.6465"/>
</g>
<!-- Train_CDS&#45;&gt;Test_other_DP -->
<g id="edge44" class="edge">
<title>Train_CDS-&gt;Test_other_DP</title>
<path fill="none" stroke="#000000" d="M1909.2765,-364.2424C1859.1929,-345.7208 1766.4837,-312.2908 1686,-288 1441.2112,-214.1203 1379.4314,-195.6127 1129,-144 1034.277,-124.478 923.7792,-108.5115 852.9111,-99.131"/>
<polygon fill="#000000" stroke="#000000" points="853.1202,-95.6284 842.7493,-97.7951 852.2078,-102.5687 853.1202,-95.6284"/>
</g>
<!-- Train_CDS&#45;&gt;Test_CDS -->
<g id="edge45" class="edge">
<title>Train_CDS-&gt;Test_CDS</title>
<path fill="none" stroke="#000000" d="M1949.3397,-359.5746C1951.0722,-349.169 1953.0254,-335.9016 1954,-324 1962.3371,-222.1918 1960.9719,-100.7163 1959.7751,-46.5329"/>
<polygon fill="#000000" stroke="#000000" points="1963.2692,-46.2352 1959.5334,-36.3209 1956.2711,-46.4009 1963.2692,-46.2352"/>
</g>
<!-- Test_TI&#45;&gt;Test_Acc -->
<g id="edge53" class="edge">
<title>Test_TI-&gt;Test_Acc</title>
<path fill="none" stroke="#000000" d="M1351.5106,-216.0636C1360.5495,-196.2795 1377.3808,-164.5327 1400,-144 1418.2383,-127.4441 1442.4839,-114.7648 1463.4769,-105.8665"/>
<polygon fill="#000000" stroke="#000000" points="1464.9197,-109.0581 1472.8601,-102.0438 1462.2786,-102.5754 1464.9197,-109.0581"/>
</g>
<!-- Test_TI&#45;&gt;Test_other_SPD -->
<g id="edge48" class="edge">
<title>Test_TI-&gt;Test_other_SPD</title>
<path fill="none" stroke="#000000" d="M1328.6202,-217.0508C1294.3116,-179.2414 1211.3688,-87.8351 1170.9322,-43.2722"/>
<polygon fill="#000000" stroke="#000000" points="1173.4399,-40.8274 1164.128,-35.7737 1168.256,-45.5313 1173.4399,-40.8274"/>
</g>
<!-- Test_TI&#45;&gt;Test_F1 -->
<g id="edge54" class="edge">
<title>Test_TI-&gt;Test_F1</title>
<path fill="none" stroke="#000000" d="M1310.9365,-223.007C1303.4224,-220.6107 1295.4573,-218.1506 1288,-216 1232.1653,-199.8978 1167.3281,-183.6681 1124.4185,-173.2668"/>
<polygon fill="#000000" stroke="#000000" points="1125.0793,-169.8258 1114.5371,-170.8806 1123.4361,-176.6302 1125.0793,-169.8258"/>
</g>
<!-- Test_TI&#45;&gt;Test_sens_SPD -->
<g id="edge47" class="edge">
<title>Test_TI-&gt;Test_sens_SPD</title>
<path fill="none" stroke="#000000" d="M1347.4873,-215.8102C1351.2309,-197.4438 1357.7661,-168.3834 1366,-144 1377.7974,-109.0636 1395.3864,-70.4059 1407.4801,-45.2421"/>
<polygon fill="#000000" stroke="#000000" points="1410.7605,-46.4991 1411.9793,-35.9746 1404.4633,-43.4419 1410.7605,-46.4991"/>
</g>
<!-- Test_TI&#45;&gt;Test_Cons -->
<g id="edge50" class="edge">
<title>Test_TI-&gt;Test_Cons</title>
<path fill="none" stroke="#000000" d="M1385.9005,-232.3299C1527.1259,-226.5116 1984.9421,-206.0616 2130,-180 2134.398,-179.2098 2138.9299,-178.2197 2143.4435,-177.1125"/>
<polygon fill="#000000" stroke="#000000" points="2144.4569,-180.465 2153.236,-174.534 2142.6744,-173.6958 2144.4569,-180.465"/>
</g>
<!-- AE_PGD -->
<g id="node29" class="node">
<title>AE_PGD</title>
<ellipse fill="none" stroke="#000000" cx="2073" cy="-162" rx="48.0935" ry="18"/>
<text text-anchor="middle" x="2073" y="-157.8" font-family="Times,serif" font-size="14.00" fill="#000000">AE_PGD</text>
</g>
<!-- Test_TI&#45;&gt;AE_PGD -->
<g id="edge55" class="edge">
<title>Test_TI-&gt;AE_PGD</title>
<path fill="none" stroke="#000000" d="M1384.7563,-229.9747C1507.6187,-217.8401 1874.6214,-181.593 2016.3125,-167.5988"/>
<polygon fill="#000000" stroke="#000000" points="2016.9118,-171.0567 2026.5193,-166.5907 2016.2237,-164.0906 2016.9118,-171.0567"/>
</g>
<!-- AE_FGSM -->
<g id="node32" class="node">
<title>AE_FGSM</title>
<ellipse fill="none" stroke="#000000" cx="2506" cy="-90" rx="55.0555" ry="18"/>
<text text-anchor="middle" x="2506" y="-85.8" font-family="Times,serif" font-size="14.00" fill="#000000">AE_FGSM</text>
</g>
<!-- AE_PGD&#45;&gt;AE_FGSM -->
<g id="edge77" class="edge">
<title>AE_PGD-&gt;AE_FGSM</title>
<path fill="none" stroke="#000000" d="M2108.6344,-149.7671C2115.66,-147.634 2123.0188,-145.5924 2130,-144 2238.5384,-119.2427 2367.4283,-103.6554 2442.6341,-95.9095"/>
<polygon fill="#000000" stroke="#000000" points="2443.2869,-99.3613 2452.8819,-94.8685 2442.5794,-92.3972 2443.2869,-99.3613"/>
</g>
<!-- Train_Acc -->
<g id="node30" class="node">
<title>Train_Acc</title>
<ellipse fill="none" stroke="#000000" cx="1784" cy="-522" rx="52.1463" ry="18"/>
<text text-anchor="middle" x="1784" y="-517.8" font-family="Times,serif" font-size="14.00" fill="#000000">Train_Acc</text>
</g>
<!-- Train_Acc&#45;&gt;Train_sens_SPD -->
<g id="edge56" class="edge">
<title>Train_Acc-&gt;Train_sens_SPD</title>
<path fill="none" stroke="#000000" d="M1732.6921,-518.2315C1630.2862,-510.5033 1393.3264,-491.5857 1195,-468 1178.9388,-466.0899 1161.7398,-463.7555 1145.4457,-461.409"/>
<polygon fill="#000000" stroke="#000000" points="1145.8358,-457.9289 1135.4356,-459.95 1144.8262,-464.8557 1145.8358,-457.9289"/>
</g>
<!-- Train_Acc&#45;&gt;Test_sens_AOD -->
<g id="edge60" class="edge">
<title>Train_Acc-&gt;Test_sens_AOD</title>
<path fill="none" stroke="#000000" d="M1751.1524,-507.943C1697.6838,-484.9798 1588.5889,-437.7866 1497,-396 1462.9962,-380.4861 1456.6701,-371.1617 1421,-360 1339.4992,-334.4971 1242.5542,-320.3946 1175.6827,-313.0574"/>
<polygon fill="#000000" stroke="#000000" points="1175.9441,-309.5654 1165.6281,-311.9803 1175.1984,-316.5256 1175.9441,-309.5654"/>
</g>
<!-- Train_Acc&#45;&gt;Test_Acc -->
<g id="edge63" class="edge">
<title>Train_Acc-&gt;Test_Acc</title>
<path fill="none" stroke="#000000" d="M1831.0301,-513.8082C1883.2451,-503.9858 1963.419,-486.5163 1988,-468 2029.2667,-436.9147 2054.2954,-406.1147 2031,-360 1940.2343,-180.3235 1679.3273,-117.227 1564.4406,-97.7374"/>
<polygon fill="#000000" stroke="#000000" points="1564.8822,-94.2631 1554.4461,-96.0899 1563.7436,-101.1699 1564.8822,-94.2631"/>
</g>
<!-- Train_Acc&#45;&gt;Test_Loss -->
<g id="edge64" class="edge">
<title>Train_Acc-&gt;Test_Loss</title>
<path fill="none" stroke="#000000" d="M1750.591,-508.1015C1731.9546,-498.9687 1709.4546,-485.4687 1694,-468 1659.1948,-428.659 1680.7078,-399.4269 1646,-360 1633.1027,-345.3491 1615.2474,-333.4491 1598.9129,-324.5864"/>
<polygon fill="#000000" stroke="#000000" points="1600.5236,-321.4791 1590.0357,-319.977 1597.2977,-327.6915 1600.5236,-321.4791"/>
</g>
<!-- Train_Acc&#45;&gt;Train_other_SPD -->
<g id="edge57" class="edge">
<title>Train_Acc-&gt;Train_other_SPD</title>
<path fill="none" stroke="#000000" d="M1772.7163,-504.3915C1739.0427,-452.1107 1640.1699,-300.6323 1617,-288 1576.5483,-265.9456 928.2008,-244.037 687.7875,-236.6326"/>
<polygon fill="#000000" stroke="#000000" points="687.7861,-233.131 677.6834,-236.3225 687.5713,-240.1277 687.7861,-233.131"/>
</g>
<!-- Train_Acc&#45;&gt;Test_sens_DP -->
<g id="edge59" class="edge">
<title>Train_Acc-&gt;Test_sens_DP</title>
<path fill="none" stroke="#000000" d="M1832.3624,-515.0166C1891.6165,-506.0526 1994.8738,-489.1079 2082,-468 2295.157,-416.3587 2423.4894,-500.266 2554,-324 2568.4491,-304.4853 2555.0101,-278.5135 2540.4438,-259.4867"/>
<polygon fill="#000000" stroke="#000000" points="2543.0108,-257.0957 2533.9897,-251.5395 2537.577,-261.5086 2543.0108,-257.0957"/>
</g>
<!-- Train_Acc&#45;&gt;Train_other_AOD -->
<g id="edge58" class="edge">
<title>Train_Acc-&gt;Train_other_AOD</title>
<path fill="none" stroke="#000000" d="M1735.3429,-514.9652C1649.245,-502.5173 1469.3335,-476.506 1365.1687,-461.4461"/>
<polygon fill="#000000" stroke="#000000" points="1365.4189,-457.9459 1355.0209,-459.9789 1364.4172,-464.8739 1365.4189,-457.9459"/>
</g>
<!-- Train_Acc&#45;&gt;Test_F1 -->
<g id="edge65" class="edge">
<title>Train_Acc-&gt;Test_F1</title>
<path fill="none" stroke="#000000" d="M1826.4206,-511.3013C1907.4345,-488.9029 2071.0101,-433.0429 2011,-360 1908.5737,-235.3291 1449.4113,-291.6168 1293,-252 1226.9146,-235.2615 1154.6559,-201.7958 1112.7129,-180.7245"/>
<polygon fill="#000000" stroke="#000000" points="1114.234,-177.5716 1103.7324,-176.1689 1111.0672,-183.8143 1114.234,-177.5716"/>
</g>
<!-- Train_Acc&#45;&gt;Train_CDS -->
<g id="edge61" class="edge">
<title>Train_Acc-&gt;Train_CDS</title>
<path fill="none" stroke="#000000" d="M1802.9005,-505.1995C1831.6006,-479.6884 1886.2953,-431.0709 1919.1235,-401.8902"/>
<polygon fill="#000000" stroke="#000000" points="1921.8206,-404.1757 1926.9695,-394.916 1917.1701,-398.9438 1921.8206,-404.1757"/>
</g>
<!-- Train_Acc&#45;&gt;Test_TI -->
<g id="edge62" class="edge">
<title>Train_Acc-&gt;Test_TI</title>
<path fill="none" stroke="#000000" d="M1780.4508,-503.8044C1770.1814,-456.917 1735.5384,-332.536 1650,-288 1606.4142,-265.3068 1469.8934,-247.5649 1394.7846,-239.2199"/>
<polygon fill="#000000" stroke="#000000" points="1394.9318,-235.7152 1384.6101,-238.1052 1394.1694,-242.6735 1394.9318,-235.7152"/>
</g>
<!-- Train_Acc&#45;&gt;MI_Rule -->
<g id="edge66" class="edge">
<title>Train_Acc-&gt;MI_Rule</title>
<path fill="none" stroke="#000000" d="M1835.6506,-518.6641C1983.5201,-508.2672 2405.0417,-472.4667 2517,-396 2659.914,-298.3907 2844.732,-204.1664 2733,-72 2716.0743,-51.9788 2554.5983,-32.5251 2467.7164,-23.3975"/>
<polygon fill="#000000" stroke="#000000" points="2468.0692,-19.9154 2457.7609,-22.3625 2467.3453,-26.8779 2468.0692,-19.9154"/>
</g>
<!-- Model_Width -->
<g id="node34" class="node">
<title>Model_Width</title>
<ellipse fill="none" stroke="#000000" cx="2551" cy="-594" rx="65.4324" ry="18"/>
<text text-anchor="middle" x="2551" y="-589.8" font-family="Times,serif" font-size="14.00" fill="#000000">Model_Width</text>
</g>
<!-- Model_Width&#45;&gt;Train_Cons -->
<g id="edge81" class="edge">
<title>Model_Width-&gt;Train_Cons</title>
<path fill="none" stroke="#000000" d="M2520.8172,-578.0209C2500.823,-567.4357 2474.4329,-553.4645 2453.0093,-542.1226"/>
<polygon fill="#000000" stroke="#000000" points="2454.6405,-539.026 2444.165,-537.4403 2451.3652,-545.2125 2454.6405,-539.026"/>
</g>
<!-- Model_Width&#45;&gt;AE_FGSM -->
<g id="edge82" class="edge">
<title>Model_Width-&gt;AE_FGSM</title>
<path fill="none" stroke="#000000" d="M2597.9823,-581.4757C2620.6348,-573.1825 2646.4211,-560.0437 2663,-540 2689.3854,-508.1003 2687,-491.3978 2687,-450 2687,-450 2687,-450 2687,-306 2687,-264.6022 2685.6022,-250.6831 2663,-216 2632.7439,-169.572 2579.7371,-132.3192 2543.7698,-110.6873"/>
<polygon fill="#000000" stroke="#000000" points="2545.409,-107.5907 2535.0169,-105.5281 2541.8545,-113.6212 2545.409,-107.5907"/>
</g>
<!-- LTDD -->
<g id="node35" class="node">
<title>LTDD</title>
<ellipse fill="none" stroke="#000000" cx="1162" cy="-594" rx="36.5575" ry="18"/>
<text text-anchor="middle" x="1162" y="-589.8" font-family="Times,serif" font-size="14.00" fill="#000000">LTDD</text>
</g>
<!-- LTDD&#45;&gt;Data_Cons -->
<g id="edge83" class="edge">
<title>LTDD-&gt;Data_Cons</title>
<path fill="none" stroke="#000000" d="M1160.9906,-575.8314C1160.5628,-568.131 1160.0541,-558.9743 1159.5787,-550.4166"/>
<polygon fill="#000000" stroke="#000000" points="1163.0724,-550.2037 1159.023,-540.4133 1156.0831,-550.592 1163.0724,-550.2037"/>
</g>
<!-- LTDD&#45;&gt;Data_sens_DP -->
<g id="edge84" class="edge">
<title>LTDD-&gt;Data_sens_DP</title>
<path fill="none" stroke="#000000" d="M1134.8139,-581.6301C1129.0349,-579.4269 1122.8959,-577.3934 1117,-576 1062.977,-563.2322 707.6067,-537.9331 549.0973,-527.1081"/>
<polygon fill="#000000" stroke="#000000" points="549.1614,-523.6044 538.9465,-526.4163 548.6854,-530.5882 549.1614,-523.6044"/>
</g>
<!-- LTDD&#45;&gt;Train_Cons -->
<g id="edge85" class="edge">
<title>LTDD-&gt;Train_Cons</title>
<path fill="none" stroke="#000000" d="M1198.7346,-591.807C1257.3538,-588.3271 1375.6741,-581.3837 1476,-576 1795.9394,-558.8315 1876.2975,-561.1256 2196,-540 2247.804,-536.5769 2306.4192,-531.7064 2349.9641,-527.8948"/>
<polygon fill="#000000" stroke="#000000" points="2350.4804,-531.363 2360.1351,-526.9998 2349.8668,-524.3899 2350.4804,-531.363"/>
</g>
<!-- FairMask -->
<g id="node36" class="node">
<title>FairMask</title>
<ellipse fill="none" stroke="#000000" cx="2676" cy="-90" rx="48.0897" ry="18"/>
<text text-anchor="middle" x="2676" y="-85.8" font-family="Times,serif" font-size="14.00" fill="#000000">FairMask</text>
</g>
<!-- FairMask&#45;&gt;Test_CDS -->
<g id="edge86" class="edge">
<title>FairMask-&gt;Test_CDS</title>
<path fill="none" stroke="#000000" d="M2639.573,-78.1091C2631.2445,-75.7594 2622.377,-73.5452 2614,-72 2398.3368,-32.2196 2137.3016,-21.7336 2020.5854,-18.9778"/>
<polygon fill="#000000" stroke="#000000" points="2020.4934,-15.4749 2010.4171,-18.7488 2020.3358,-22.4732 2020.4934,-15.4749"/>
</g>
<!-- Fairway -->
<g id="node37" class="node">
<title>Fairway</title>
<ellipse fill="none" stroke="#000000" cx="1065" cy="-594" rx="42.8538" ry="18"/>
<text text-anchor="middle" x="1065" y="-589.8" font-family="Times,serif" font-size="14.00" fill="#000000">Fairway</text>
</g>
<!-- Fairway&#45;&gt;Data_Cons -->
<g id="edge87" class="edge">
<title>Fairway-&gt;Data_Cons</title>
<path fill="none" stroke="#000000" d="M1085.6397,-578.0209C1098.1366,-568.3458 1114.2874,-555.842 1128.159,-545.1027"/>
<polygon fill="#000000" stroke="#000000" points="1130.6838,-547.5744 1136.4485,-538.6851 1126.3986,-542.0393 1130.6838,-547.5744"/>
</g>
<!-- Fairway&#45;&gt;Data_other_SPD -->
<g id="edge90" class="edge">
<title>Fairway-&gt;Data_other_SPD</title>
<path fill="none" stroke="#000000" d="M1022.2369,-593.3589C882.2833,-590.8802 444.1258,-579.9686 396,-540 356.6167,-507.292 350.5643,-443.1958 350.6442,-406.1868"/>
<polygon fill="#000000" stroke="#000000" points="354.1455,-406.1348 350.8209,-396.0751 347.1466,-406.0124 354.1455,-406.1348"/>
</g>
<!-- Fairway&#45;&gt;Train_sens_SPD -->
<g id="edge91" class="edge">
<title>Fairway-&gt;Train_sens_SPD</title>
<path fill="none" stroke="#000000" d="M1065.8866,-575.7623C1067.0805,-551.201 1069.2171,-507.2474 1070.6217,-478.3541"/>
<polygon fill="#000000" stroke="#000000" points="1074.1309,-478.2478 1071.1206,-468.0896 1067.1391,-477.9079 1074.1309,-478.2478"/>
</g>
<!-- Fairway&#45;&gt;Test_sens_AOD -->
<g id="edge94" class="edge">
<title>Fairway-&gt;Test_sens_AOD</title>
<path fill="none" stroke="#000000" d="M1023.6901,-589.3751C992.7218,-583.5011 952.3202,-570.1815 932,-540 923.0642,-526.7278 928.1954,-519.5411 932,-504 949.1588,-433.9094 957.7973,-412.7845 1007,-360 1019.3625,-346.7376 1035.6938,-335.5253 1050.9277,-326.8136"/>
<polygon fill="#000000" stroke="#000000" points="1052.6529,-329.8592 1059.7321,-321.9766 1049.2824,-323.7241 1052.6529,-329.8592"/>
</g>
<!-- Fairway&#45;&gt;Train_TI -->
<g id="edge96" class="edge">
<title>Fairway-&gt;Train_TI</title>
<path fill="none" stroke="#000000" d="M1022.5074,-591.4019C949.176,-586.1176 802.9659,-571.8143 764,-540 723.9801,-507.3252 756.4184,-469.6135 721,-432 710.3696,-420.7107 676.725,-405.5326 648.5537,-394.143"/>
<polygon fill="#000000" stroke="#000000" points="649.8363,-390.8865 639.251,-390.4368 647.2455,-397.3894 649.8363,-390.8865"/>
</g>
<!-- Fairway&#45;&gt;Train_Loss -->
<g id="edge99" class="edge">
<title>Fairway-&gt;Train_Loss</title>
<path fill="none" stroke="#000000" d="M1097.2476,-582.1876C1103.4426,-580.0409 1109.9002,-577.8865 1116,-576 1242.6336,-536.8349 1324.471,-580.8525 1394,-468 1406.6028,-447.5444 1393.7836,-422.0403 1379.8989,-403.4101"/>
<polygon fill="#000000" stroke="#000000" points="1382.4863,-401.0398 1373.5319,-395.3768 1377.0004,-405.3878 1382.4863,-401.0398"/>
</g>
<!-- Fairway&#45;&gt;Test_Acc -->
<g id="edge101" class="edge">
<title>Fairway-&gt;Test_Acc</title>
<path fill="none" stroke="#000000" d="M1096.5067,-581.6562C1102.8836,-579.5065 1109.5978,-577.4869 1116,-576 1315.5053,-529.6657 1414.2569,-607.7363 1564,-468 1628.4077,-407.8964 1673.3994,-372.0468 1647,-288 1624.6455,-216.8308 1566.6401,-148.888 1533.3824,-114.1051"/>
<polygon fill="#000000" stroke="#000000" points="1535.7637,-111.5332 1526.2873,-106.7951 1530.7406,-116.4086 1535.7637,-111.5332"/>
</g>
<!-- Fairway&#45;&gt;Test_Loss -->
<g id="edge102" class="edge">
<title>Fairway-&gt;Test_Loss</title>
<path fill="none" stroke="#000000" d="M1096.5478,-581.8264C1102.9212,-579.6626 1109.6237,-577.5944 1116,-576 1219.3595,-550.1556 1252.8243,-576.2758 1353,-540 1469.2452,-497.9051 1530.2856,-503.6973 1591,-396 1602.613,-375.4004 1590.9821,-350.0589 1578.2651,-331.5208"/>
<polygon fill="#000000" stroke="#000000" points="1580.9587,-329.2749 1572.2293,-323.2709 1575.3092,-333.4082 1580.9587,-329.2749"/>
</g>
<!-- Fairway&#45;&gt;Data_sens_SPD -->
<g id="edge88" class="edge">
<title>Fairway-&gt;Data_sens_SPD</title>
<path fill="none" stroke="#000000" d="M1022.1673,-592.325C920.9136,-587.8528 669.5616,-573.6075 593,-540 590.7044,-538.9923 546.6388,-500.5528 516.6109,-474.2412"/>
<polygon fill="#000000" stroke="#000000" points="518.7638,-471.4739 508.937,-467.5133 514.1491,-476.7375 518.7638,-471.4739"/>
</g>
<!-- Fairway&#45;&gt;Data_other_DP -->
<g id="edge89" class="edge">
<title>Fairway-&gt;Data_other_DP</title>
<path fill="none" stroke="#000000" d="M1022.2677,-593.2785C889.6973,-590.6392 486.8852,-579.4921 363,-540 317.4399,-525.4764 271.1788,-494.7711 242.3147,-473.2842"/>
<polygon fill="#000000" stroke="#000000" points="244.3794,-470.4575 234.2929,-467.215 240.1559,-476.0398 244.3794,-470.4575"/>
</g>
<!-- Fairway&#45;&gt;Train_F1 -->
<g id="edge100" class="edge">
<title>Fairway-&gt;Train_F1</title>
<path fill="none" stroke="#000000" d="M1022.4021,-592.4235C958.7392,-588.8677 835.8943,-577.3307 739,-540 656.1704,-508.0881 647.3457,-477.2818 571,-432 542.2615,-414.9547 522.0563,-424.732 505,-396 493.6404,-376.8643 500.0318,-351.8224 508.1873,-333.0132"/>
<polygon fill="#000000" stroke="#000000" points="511.4279,-334.3472 512.5283,-323.8097 505.0967,-331.361 511.4279,-334.3472"/>
</g>
<!-- Fairway&#45;&gt;Train_other_SPD -->
<g id="edge92" class="edge">
<title>Fairway-&gt;Train_other_SPD</title>
<path fill="none" stroke="#000000" d="M1022.3848,-592.4817C869.641,-586.8432 354.9921,-566.0809 286,-540 261.3875,-530.6958 262.2099,-516.3954 239,-504 195.1126,-480.5618 161.9775,-508.4445 133,-468 29.749,-323.8904 357.1346,-263.3298 516.7478,-242.8217"/>
<polygon fill="#000000" stroke="#000000" points="517.5284,-246.2512 527.0123,-241.5284 516.6532,-239.3061 517.5284,-246.2512"/>
</g>
<!-- Fairway&#45;&gt;Train_other_AOD -->
<g id="edge93" class="edge">
<title>Fairway-&gt;Train_other_AOD</title>
<path fill="none" stroke="#000000" d="M1097.9062,-582.3372C1103.9222,-580.2189 1110.147,-578.0362 1116,-576 1162.5942,-559.7903 1181.3653,-569.3747 1221,-540 1243.3241,-523.4548 1261.1187,-497.0016 1272.4055,-477.0472"/>
<polygon fill="#000000" stroke="#000000" points="1275.5581,-478.5763 1277.2704,-468.1207 1269.4117,-475.2264 1275.5581,-478.5763"/>
</g>
<!-- Fairway&#45;&gt;Train_Cons -->
<g id="edge95" class="edge">
<title>Fairway-&gt;Train_Cons</title>
<path fill="none" stroke="#000000" d="M1095.8707,-581.4113C1102.4159,-579.2239 1109.3566,-577.2522 1116,-576 1351.9778,-531.5199 1956.2658,-553.8394 2196,-540 2248.007,-536.9977 2306.843,-532.0769 2350.4254,-528.1385"/>
<polygon fill="#000000" stroke="#000000" points="2350.9605,-531.6043 2360.6018,-527.2117 2350.3255,-524.6331 2350.9605,-531.6043"/>
</g>
<!-- Fairway&#45;&gt;Test_Cons -->
<g id="edge97" class="edge">
<title>Fairway-&gt;Test_Cons</title>
<path fill="none" stroke="#000000" d="M1095.8719,-581.4176C1102.417,-579.2297 1109.3573,-577.2563 1116,-576 1172.9145,-565.2362 2112.6835,-576.0769 2158,-540 2190.3876,-514.2159 2182,-491.3978 2182,-450 2182,-450 2182,-450 2182,-306 2182,-265.7977 2185.5375,-219.4047 2188.1768,-190.385"/>
<polygon fill="#000000" stroke="#000000" points="2191.6864,-190.4457 2189.1352,-180.1626 2184.717,-189.7923 2191.6864,-190.4457"/>
</g>
<!-- Fairway&#45;&gt;Test_CDS -->
<g id="edge98" class="edge">
<title>Fairway-&gt;Test_CDS</title>
<path fill="none" stroke="#000000" d="M1095.8866,-581.4937C1102.4306,-579.3004 1109.3668,-577.3054 1116,-576 1434.2896,-513.3603 1528.3414,-610.4223 1845,-540 1927.4991,-521.6529 1961.7622,-528.2793 2021,-468 2145.2275,-341.5885 2020.0521,-243.1477 1974,-72 1971.6993,-63.4498 1969.1389,-54.155 1966.7942,-45.7252"/>
<polygon fill="#000000" stroke="#000000" points="1970.1335,-44.6703 1964.0729,-35.9801 1963.3915,-46.553 1970.1335,-44.6703"/>
</g>
<!-- Fairway&#45;&gt;MI_BlackBox -->
<g id="edge103" class="edge">
<title>Fairway-&gt;MI_BlackBox</title>
<path fill="none" stroke="#000000" d="M1022.2083,-593.7179C874.6354,-592.3547 387.8741,-584.5094 239,-540 141.1418,-510.743 76,-480.1381 76,-378 76,-378 76,-378 76,-306 76,-227.0044 173.9231,-189.9524 243.0772,-173.6353"/>
<polygon fill="#000000" stroke="#000000" points="244.0762,-176.9977 253.0564,-171.3758 242.5303,-170.1706 244.0762,-176.9977"/>
</g>
<!-- FairSmote -->
<g id="node38" class="node">
<title>FairSmote</title>
<ellipse fill="none" stroke="#000000" cx="339" cy="-594" rx="51.0396" ry="18"/>
<text text-anchor="middle" x="339" y="-589.8" font-family="Times,serif" font-size="14.00" fill="#000000">FairSmote</text>
</g>
<!-- FairSmote&#45;&gt;Data_Cons -->
<g id="edge104" class="edge">
<title>FairSmote-&gt;Data_Cons</title>
<path fill="none" stroke="#000000" d="M390.1392,-591.3695C506.0342,-585.1219 797.4643,-567.801 1040,-540 1059.546,-537.7595 1080.8232,-534.7053 1099.8595,-531.749"/>
<polygon fill="#000000" stroke="#000000" points="1100.5496,-535.1835 1109.883,-530.1698 1099.4601,-528.2688 1100.5496,-535.1835"/>
</g>
<!-- FairSmote&#45;&gt;Data_other_SPD -->
<g id="edge107" class="edge">
<title>FairSmote-&gt;Data_other_SPD</title>
<path fill="none" stroke="#000000" d="M333.0302,-575.7319C329.9592,-565.3756 326.5437,-552.105 325,-540 318.979,-492.7847 332.2912,-438.2614 342.283,-406.0376"/>
<polygon fill="#000000" stroke="#000000" points="345.6539,-406.9878 345.3817,-396.3965 338.9897,-404.8458 345.6539,-406.9878"/>
</g>
<!-- FairSmote&#45;&gt;Train_sens_SPD -->
<g id="edge108" class="edge">
<title>FairSmote-&gt;Train_sens_SPD</title>
<path fill="none" stroke="#000000" d="M390.2731,-592.2419C536.8672,-586.8814 950.6709,-569.2993 1004,-540 1029.303,-526.0984 1048.014,-498.3617 1059.3342,-477.3344"/>
<polygon fill="#000000" stroke="#000000" points="1062.5602,-478.7139 1064.0124,-468.2191 1056.3325,-475.5176 1062.5602,-478.7139"/>
</g>
<!-- FairSmote&#45;&gt;Data_sens_DP -->
<g id="edge105" class="edge">
<title>FairSmote-&gt;Data_sens_DP</title>
<path fill="none" stroke="#000000" d="M367.0908,-578.9064C386.4304,-568.515 412.3889,-554.5672 433.7659,-543.081"/>
<polygon fill="#000000" stroke="#000000" points="435.4619,-546.143 442.6143,-538.3267 432.1487,-539.9767 435.4619,-546.143"/>
</g>
<!-- FairSmote&#45;&gt;Data_other_DP -->
<g id="edge106" class="edge">
<title>FairSmote-&gt;Data_other_DP</title>
<path fill="none" stroke="#000000" d="M293.7189,-585.4521C249.6824,-576.1097 187.3809,-559.8008 173,-540 158.5811,-520.1469 172.8957,-494.2719 188.2614,-475.3641"/>
<polygon fill="#000000" stroke="#000000" points="190.9639,-477.5894 194.8303,-467.7252 185.6564,-473.0253 190.9639,-477.5894"/>
</g>
<!-- FairSmote&#45;&gt;Train_sens_AOD -->
<g id="edge109" class="edge">
<title>FairSmote-&gt;Train_sens_AOD</title>
<path fill="none" stroke="#000000" d="M340.8591,-575.9288C345.409,-541.7748 360.3887,-467.9581 407,-432 452.138,-397.1785 604.8256,-405.7167 661,-396 667.5041,-394.875 674.2632,-393.6299 681.0151,-392.3352"/>
<polygon fill="#000000" stroke="#000000" points="681.7277,-395.7622 690.8718,-390.411 680.3865,-388.8919 681.7277,-395.7622"/>
</g>
<!-- FairSmote&#45;&gt;MI_BlackBox -->
<g id="edge110" class="edge">
<title>FairSmote-&gt;MI_BlackBox</title>
<path fill="none" stroke="#000000" d="M294.6817,-584.9229C202.7917,-564.8264 0,-513.3044 0,-450 0,-450 0,-450 0,-306 0,-257.4273 21.6655,-243.0635 62,-216 90.6822,-196.7549 177.2409,-180.8296 240.0334,-171.3754"/>
<polygon fill="#000000" stroke="#000000" points="240.906,-174.7845 250.2853,-169.8572 239.8804,-167.86 240.906,-174.7845"/>
</g>
<!-- DIR -->
<g id="node39" class="node">
<title>DIR</title>
<ellipse fill="none" stroke="#000000" cx="684" cy="-450" rx="27.8267" ry="18"/>
<text text-anchor="middle" x="684" y="-445.8" font-family="Times,serif" font-size="14.00" fill="#000000">DIR</text>
</g>
<!-- DIR&#45;&gt;Train_TI -->
<g id="edge111" class="edge">
<title>DIR-&gt;Train_TI</title>
<path fill="none" stroke="#000000" d="M667.8383,-435.0816C657.3695,-425.418 643.5108,-412.6253 631.5669,-401.6002"/>
<polygon fill="#000000" stroke="#000000" points="633.7715,-398.872 624.0494,-394.661 629.0235,-404.0156 633.7715,-398.872"/>
</g>
<!-- DIR&#45;&gt;Train_F1 -->
<g id="edge113" class="edge">
<title>DIR-&gt;Train_F1</title>
<path fill="none" stroke="#000000" d="M661.0949,-439.5834C654.9527,-436.9556 648.274,-434.2457 642,-432 587.97,-412.661 552.4605,-441.888 518,-396 504.7771,-378.3922 507.6008,-352.9502 512.8258,-333.6057"/>
<polygon fill="#000000" stroke="#000000" points="516.2324,-334.4334 515.7965,-323.8475 509.5358,-332.3947 516.2324,-334.4334"/>
</g>
<!-- DIR&#45;&gt;Test_CDS -->
<g id="edge112" class="edge">
<title>DIR-&gt;Test_CDS</title>
<path fill="none" stroke="#000000" d="M659.2768,-441.6384C622.5947,-428.9879 557.3675,-405.4576 551,-396 542.0642,-382.7278 542.0299,-373.2491 551,-360 599.3053,-288.6515 649.286,-315.328 731,-288 904.8227,-229.8677 953.5694,-233.0828 1129,-180 1273.8805,-136.1612 1304.0977,-104.2043 1452,-72 1610.349,-37.521 1801.5124,-24.7396 1897.569,-20.2556"/>
<polygon fill="#000000" stroke="#000000" points="1897.8526,-23.7464 1907.6841,-19.7979 1897.5361,-16.7536 1897.8526,-23.7464"/>
</g>
<!-- RW -->
<g id="node40" class="node">
<title>RW</title>
<ellipse fill="none" stroke="#000000" cx="968" cy="-522" rx="27" ry="18"/>
<text text-anchor="middle" x="968" y="-517.8" font-family="Times,serif" font-size="14.00" fill="#000000">RW</text>
</g>
<!-- RW&#45;&gt;Train_sens_SPD -->
<g id="edge114" class="edge">
<title>RW-&gt;Train_sens_SPD</title>
<path fill="none" stroke="#000000" d="M987.0752,-508.7941C1001.4568,-498.8376 1021.5462,-484.9295 1038.5756,-473.14"/>
<polygon fill="#000000" stroke="#000000" points="1040.9258,-475.7699 1047.1555,-467.2 1036.9413,-470.0145 1040.9258,-475.7699"/>
</g>
<!-- RW&#45;&gt;Test_sens_AOD -->
<g id="edge117" class="edge">
<title>RW-&gt;Test_sens_AOD</title>
<path fill="none" stroke="#000000" d="M969.1739,-503.892C970.9853,-485.0783 975.5533,-455.2003 987,-432 1006.8706,-391.7259 1042.5836,-353.7829 1067.4796,-330.2636"/>
<polygon fill="#000000" stroke="#000000" points="1069.8814,-332.8096 1074.8292,-323.441 1065.119,-327.6793 1069.8814,-332.8096"/>
</g>
<!-- RW&#45;&gt;Test_Acc -->
<g id="edge118" class="edge">
<title>RW-&gt;Test_Acc</title>
<path fill="none" stroke="#000000" d="M963.2373,-504.0007C952.7262,-459.707 933.0435,-344.8978 994,-288 1059.4044,-226.9504 1317.7965,-297.2151 1395,-252 1420.1047,-237.2972 1452.1163,-167.6931 1469,-144 1475.6701,-134.6397 1483.1302,-124.4867 1489.7845,-115.5372"/>
<polygon fill="#000000" stroke="#000000" points="1492.6884,-117.498 1495.8654,-107.3907 1487.0788,-113.3108 1492.6884,-117.498"/>
</g>
<!-- RW&#45;&gt;Train_sens_AOD -->
<g id="edge115" class="edge">
<title>RW-&gt;Train_sens_AOD</title>
<path fill="none" stroke="#000000" d="M948.5652,-509.221C911.4894,-484.8423 830.2132,-431.4005 783.6288,-400.7696"/>
<polygon fill="#000000" stroke="#000000" points="785.3538,-397.715 775.0752,-395.1454 781.5079,-403.5639 785.3538,-397.715"/>
</g>
<!-- RW&#45;&gt;Train_other_AOD -->
<g id="edge116" class="edge">
<title>RW-&gt;Train_other_AOD</title>
<path fill="none" stroke="#000000" d="M993.7539,-516.1689C1042.2338,-505.1923 1148.469,-481.1391 1218.6078,-465.2586"/>
<polygon fill="#000000" stroke="#000000" points="1219.7028,-468.5994 1228.683,-462.9774 1218.157,-461.7722 1219.7028,-468.5994"/>
</g>
<!-- PR -->
<g id="node41" class="node">
<title>PR</title>
<ellipse fill="none" stroke="#000000" cx="1512" cy="-594" rx="27" ry="18"/>
<text text-anchor="middle" x="1512" y="-589.8" font-family="Times,serif" font-size="14.00" fill="#000000">PR</text>
</g>
<!-- PR&#45;&gt;Train_TI -->
<g id="edge119" class="edge">
<title>PR-&gt;Train_TI</title>
<path fill="none" stroke="#000000" d="M1485.0744,-592.1367C1377.9713,-584.6374 985.3824,-556.2848 932,-540 868.0815,-520.5011 857.4771,-502.0905 800,-468 774.5514,-452.9061 770.3508,-445.4571 744,-432 713.9007,-416.6286 678.3535,-402.8133 650.8755,-393.0049"/>
<polygon fill="#000000" stroke="#000000" points="651.737,-389.5976 641.1422,-389.577 649.4117,-396.2001 651.737,-389.5976"/>
</g>
<!-- PR&#45;&gt;Train_Acc -->
<g id="edge120" class="edge">
<title>PR-&gt;Train_Acc</title>
<path fill="none" stroke="#000000" d="M1537.1016,-587.3555C1581.3606,-575.6398 1674.1046,-551.09 1732.4753,-535.6389"/>
<polygon fill="#000000" stroke="#000000" points="1733.4732,-538.9954 1742.2446,-533.0529 1731.6819,-532.2284 1733.4732,-538.9954"/>
</g>
<!-- EGR -->
<g id="node42" class="node">
<title>EGR</title>
<ellipse fill="none" stroke="#000000" cx="1536" cy="-378" rx="30.1958" ry="18"/>
<text text-anchor="middle" x="1536" y="-373.8" font-family="Times,serif" font-size="14.00" fill="#000000">EGR</text>
</g>
<!-- EGR&#45;&gt;Test_sens_AOD -->
<g id="edge121" class="edge">
<title>EGR-&gt;Test_sens_AOD</title>
<path fill="none" stroke="#000000" d="M1511.7113,-366.7845C1505.401,-364.2275 1498.5372,-361.7513 1492,-360 1385.6853,-331.5182 1259.1252,-317.615 1177.9636,-311.1498"/>
<polygon fill="#000000" stroke="#000000" points="1178.0451,-307.6457 1167.804,-310.3605 1177.5029,-314.6247 1178.0451,-307.6457"/>
</g>
<!-- EGR&#45;&gt;Test_Loss -->
<g id="edge123" class="edge">
<title>EGR-&gt;Test_Loss</title>
<path fill="none" stroke="#000000" d="M1541.191,-360.2022C1543.5207,-352.2146 1546.3237,-342.6045 1548.9183,-333.7087"/>
<polygon fill="#000000" stroke="#000000" points="1552.2828,-334.6731 1551.7228,-324.0931 1545.5628,-332.7131 1552.2828,-334.6731"/>
</g>
<!-- EGR&#45;&gt;Test_CDS -->
<g id="edge122" class="edge">
<title>EGR-&gt;Test_CDS</title>
<path fill="none" stroke="#000000" d="M1520.2955,-362.2033C1504.0067,-343.819 1482.7612,-312.8135 1497,-288 1509.2009,-266.7379 1815.4234,-96.951 1922.4714,-38.0436"/>
<polygon fill="#000000" stroke="#000000" points="1924.2359,-41.0676 1931.3116,-33.1819 1920.8626,-34.934 1924.2359,-41.0676"/>
</g>
<!-- AdDebias -->
<g id="node43" class="node">
<title>AdDebias</title>
<ellipse fill="none" stroke="#000000" cx="2291" cy="-594" rx="49.7981" ry="18"/>
<text text-anchor="middle" x="2291" y="-589.8" font-family="Times,serif" font-size="14.00" fill="#000000">AdDebias</text>
</g>
<!-- AdDebias&#45;&gt;Test_Acc -->
<g id="edge125" class="edge">
<title>AdDebias-&gt;Test_Acc</title>
<path fill="none" stroke="#000000" d="M2335.6171,-585.8185C2431.5853,-566.9486 2649,-516.8248 2649,-450 2649,-450 2649,-450 2649,-306 2649,-263.2408 2647.4426,-243.8536 2615,-216 2498.1349,-115.6656 2428.5251,-165.4605 2276,-144 2013.1264,-107.0133 1695.8218,-94.9044 1567.2804,-91.3417"/>
<polygon fill="#000000" stroke="#000000" points="1567.3483,-87.8424 1557.2574,-91.0708 1567.1591,-94.8398 1567.3483,-87.8424"/>
</g>
<!-- AdDebias&#45;&gt;Train_sens_AOD -->
<g id="edge126" class="edge">
<title>AdDebias-&gt;Train_sens_AOD</title>
<path fill="none" stroke="#000000" d="M2241.1091,-592.7315C2141.6224,-589.4411 1911.8737,-578.0253 1723,-540 1565.0737,-508.2053 1535.0679,-463.083 1377,-432 1275.8783,-412.1151 983.5961,-392.2587 836.1913,-383.1534"/>
<polygon fill="#000000" stroke="#000000" points="836.0291,-379.6369 825.8332,-382.5166 835.5995,-386.6238 836.0291,-379.6369"/>
</g>
<!-- AdDebias&#45;&gt;Test_sens_SPD -->
<g id="edge127" class="edge">
<title>AdDebias-&gt;Test_sens_SPD</title>
<path fill="none" stroke="#000000" d="M2339.2941,-589.6322C2459.591,-577.4252 2763,-537.9221 2763,-450 2763,-450 2763,-450 2763,-306 2763,-272.2974 2600.1385,-87.0842 2570,-72 2546.1268,-60.0516 1760.0419,-30.3726 1502.0932,-20.9325"/>
<polygon fill="#000000" stroke="#000000" points="1502.1619,-17.4327 1492.0407,-20.565 1501.9062,-24.4281 1502.1619,-17.4327"/>
</g>
<!-- AdDebias&#45;&gt;Train_Acc -->
<g id="edge124" class="edge">
<title>AdDebias-&gt;Train_Acc</title>
<path fill="none" stroke="#000000" d="M2244.6631,-587.4196C2152.1382,-574.28 1944.6585,-544.8154 1842.7522,-530.3435"/>
<polygon fill="#000000" stroke="#000000" points="1843.0281,-526.8477 1832.6353,-528.9068 1842.0438,-533.7781 1843.0281,-526.8477"/>
</g>
<!-- EO -->
<g id="node44" class="node">
<title>EO</title>
<ellipse fill="none" stroke="#000000" cx="2237" cy="-378" rx="27" ry="18"/>
<text text-anchor="middle" x="2237" y="-373.8" font-family="Times,serif" font-size="14.00" fill="#000000">EO</text>
</g>
<!-- EO&#45;&gt;Test_sens_AOD -->
<g id="edge128" class="edge">
<title>EO-&gt;Test_sens_AOD</title>
<path fill="none" stroke="#000000" d="M2209.8787,-375.6584C2167.4674,-372.0377 2082.8572,-364.9791 2011,-360 1704.454,-338.7589 1339.8209,-318.8699 1178.6694,-310.3546"/>
<polygon fill="#000000" stroke="#000000" points="1178.5222,-306.8421 1168.3517,-309.8103 1178.1534,-313.8323 1178.5222,-306.8421"/>
</g>
<!-- EO&#45;&gt;Test_Acc -->
<g id="edge131" class="edge">
<title>EO-&gt;Test_Acc</title>
<path fill="none" stroke="#000000" d="M2245.4797,-360.7831C2265.3035,-317.7879 2308.8553,-204.8096 2252,-144 2211.3102,-100.4801 1776.4035,-112.5685 1717,-108 1665.7516,-104.0586 1607.4561,-98.9606 1565.6461,-95.1967"/>
<polygon fill="#000000" stroke="#000000" points="1565.9278,-91.708 1555.6535,-94.2943 1565.2981,-98.6796 1565.9278,-91.708"/>
</g>
<!-- EO&#45;&gt;Test_Cons -->
<g id="edge129" class="edge">
<title>EO-&gt;Test_Cons</title>
<path fill="none" stroke="#000000" d="M2233.1572,-359.9555C2225.141,-322.3144 2206.5861,-235.1867 2196.9895,-190.1246"/>
<polygon fill="#000000" stroke="#000000" points="2200.3705,-189.1967 2194.8642,-180.1451 2193.524,-190.6548 2200.3705,-189.1967"/>
</g>
<!-- EO&#45;&gt;Test_CDS -->
<g id="edge130" class="edge">
<title>EO-&gt;Test_CDS</title>
<path fill="none" stroke="#000000" d="M2252.3066,-362.8865C2261.5921,-352.7696 2272.8094,-338.6616 2279,-324 2310.1228,-250.2901 2326.6549,-205.9343 2276,-144 2211.6746,-65.3512 2091.1948,-35.5285 2018.7161,-24.4116"/>
<polygon fill="#000000" stroke="#000000" points="2018.7838,-20.8845 2008.3832,-22.9036 2017.7729,-27.8111 2018.7838,-20.8845"/>
</g>
<!-- EO&#45;&gt;AE_PGD -->
<g id="edge132" class="edge">
<title>EO-&gt;AE_PGD</title>
<path fill="none" stroke="#000000" d="M2224.6733,-361.7649C2196.3306,-324.4354 2126.3535,-232.2704 2092.2725,-187.3833"/>
<polygon fill="#000000" stroke="#000000" points="2094.9858,-185.169 2086.1511,-179.321 2089.4107,-189.402 2094.9858,-185.169"/>
</g>
<!-- CEO -->
<g id="node45" class="node">
<title>CEO</title>
<ellipse fill="none" stroke="#000000" cx="1842" cy="-378" rx="30.1958" ry="18"/>
<text text-anchor="middle" x="1842" y="-373.8" font-family="Times,serif" font-size="14.00" fill="#000000">CEO</text>
</g>
<!-- CEO&#45;&gt;Test_sens_AOD -->
<g id="edge134" class="edge">
<title>CEO-&gt;Test_sens_AOD</title>
<path fill="none" stroke="#000000" d="M1811.7915,-375.0883C1704.2479,-364.7227 1337.751,-329.3977 1174.532,-313.6657"/>
<polygon fill="#000000" stroke="#000000" points="1174.8412,-310.1794 1164.5515,-312.7038 1174.1696,-317.1471 1174.8412,-310.1794"/>
</g>
<!-- CEO&#45;&gt;Test_Acc -->
<g id="edge136" class="edge">
<title>CEO-&gt;Test_Acc</title>
<path fill="none" stroke="#000000" d="M1836.9311,-360.1898C1823.5068,-316.3279 1782.7673,-202.4261 1707,-144 1684.4495,-126.6107 1612.8668,-109.8842 1562.2739,-99.7723"/>
<polygon fill="#000000" stroke="#000000" points="1562.9437,-96.337 1552.456,-97.8399 1561.5918,-103.2053 1562.9437,-96.337"/>
</g>
<!-- CEO&#45;&gt;Test_sens_SPD -->
<g id="edge133" class="edge">
<title>CEO-&gt;Test_sens_SPD</title>
<path fill="none" stroke="#000000" d="M1841.5847,-359.6971C1840.746,-341.2427 1838.2655,-312.1153 1831,-288 1809.022,-215.052 1798.7065,-190.0344 1738,-144 1660.6391,-85.3363 1552.3613,-50.1358 1484.4885,-32.405"/>
<polygon fill="#000000" stroke="#000000" points="1485.3321,-29.0081 1474.7762,-29.915 1483.5937,-35.7888 1485.3321,-29.0081"/>
</g>
<!-- CEO&#45;&gt;Test_CDS -->
<g id="edge135" class="edge">
<title>CEO-&gt;Test_CDS</title>
<path fill="none" stroke="#000000" d="M1855.2046,-361.3379C1862.7926,-351.0707 1871.982,-337.3542 1878,-324 1921.7099,-227.005 1945.6328,-101.7158 1954.6988,-46.3952"/>
<polygon fill="#000000" stroke="#000000" points="1958.1912,-46.7206 1956.3154,-36.2931 1951.2791,-45.6144 1958.1912,-46.7206"/>
</g>
<!-- ROC -->
<g id="node46" class="node">
<title>ROC</title>
<ellipse fill="none" stroke="#000000" cx="2355" cy="-306" rx="30.777" ry="18"/>
<text text-anchor="middle" x="2355" y="-301.8" font-family="Times,serif" font-size="14.00" fill="#000000">ROC</text>
</g>
<!-- ROC&#45;&gt;Test_other_SPD -->
<g id="edge138" class="edge">
<title>ROC-&gt;Test_other_SPD</title>
<path fill="none" stroke="#000000" d="M2352.0212,-287.9861C2345.2964,-253.5915 2325.4834,-178.892 2276,-144 2254.4697,-128.8184 1481.3469,-51.0343 1227.7039,-25.867"/>
<polygon fill="#000000" stroke="#000000" points="1227.7558,-22.355 1217.4592,-24.851 1227.0649,-29.3209 1227.7558,-22.355"/>
</g>
<!-- ROC&#45;&gt;Test_sens_DP -->
<g id="edge137" class="edge">
<title>ROC-&gt;Test_sens_DP</title>
<path fill="none" stroke="#000000" d="M2379.3087,-294.6954C2384.1674,-292.4599 2389.2402,-290.143 2394,-288 2419.8862,-276.3452 2448.965,-263.5646 2472.3474,-253.3641"/>
<polygon fill="#000000" stroke="#000000" points="2473.895,-256.5077 2481.6645,-249.3045 2471.0989,-250.0903 2473.895,-256.5077"/>
</g>
<!-- ROC&#45;&gt;Test_CDS -->
<g id="edge140" class="edge">
<title>ROC-&gt;Test_CDS</title>
<path fill="none" stroke="#000000" d="M2359.783,-287.9603C2370.7493,-241.999 2391.7628,-120.6997 2323,-72 2275.4978,-38.3577 2111.1854,-25.2487 2020.4286,-20.4872"/>
<polygon fill="#000000" stroke="#000000" points="2020.4383,-16.9833 2010.2741,-19.9732 2020.0843,-23.9744 2020.4383,-16.9833"/>
</g>
<!-- ROC&#45;&gt;Test_TI -->
<g id="edge139" class="edge">
<title>ROC-&gt;Test_TI</title>
<path fill="none" stroke="#000000" d="M2324.1908,-303.8059C2180.5436,-293.5758 1575.9382,-250.5179 1395.2236,-237.648"/>
<polygon fill="#000000" stroke="#000000" points="1395.4083,-234.1524 1385.1849,-236.933 1394.911,-241.1347 1395.4083,-234.1524"/>
</g>
<!-- ROC&#45;&gt;AE_FGSM -->
<g id="edge141" class="edge">
<title>ROC-&gt;AE_FGSM</title>
<path fill="none" stroke="#000000" d="M2368.9165,-289.7942C2377.7989,-279.2415 2389.4045,-265.0584 2399,-252 2433.1154,-205.5729 2469.3757,-148.9219 2489.7075,-116.3978"/>
<polygon fill="#000000" stroke="#000000" points="2492.6889,-118.2313 2495.0047,-107.8927 2486.7471,-114.5306 2492.6889,-118.2313"/>
</g>
</g>
</svg>