<?xml version="1.0" encoding="UTF-8" standalone="no"?><!DOCTYPE svg PUBLIC "-//W3C//DTD SVG 1.1//EN" "http://www.w3.org/Graphics/SVG/1.1/DTD/svg11.dtd"><!-- Generated by graphviz version 2.40.1 (20161225.0304)
 --><!-- Title: G Pages: 1 --><svg xmlns="http://www.w3.org/2000/svg" xmlns:xlink="http://www.w3.org/1999/xlink" width="2932pt" height="692pt" viewBox="0.00 0.00 2932.05 692.00">
<g id="graph0" class="graph" transform="scale(1 1) rotate(0) translate(4 688)">
<title>G</title>
<polygon fill="#ffffff" stroke="transparent" points="-4,4 -4,-688 2928.0467,-688 2928.0467,4 -4,4"/>
<!-- Data_Cons -->
<g id="node1" class="node">
<title>Data_Cons</title>
<ellipse fill="none" stroke="#000000" cx="1741" cy="-594" rx="53.8924" ry="18"/>
<text text-anchor="middle" x="1741" y="-589.8" font-family="Times,serif" font-size="14.00" fill="#000000">Data_Cons</text>
</g>
<!-- Data_other_DP -->
<g id="node2" class="node">
<title>Data_other_DP</title>
<ellipse fill="none" stroke="#000000" cx="1675" cy="-450" rx="71.2075" ry="18"/>
<text text-anchor="middle" x="1675" y="-445.8" font-family="Times,serif" font-size="14.00" fill="#000000">Data_other_DP</text>
</g>
<!-- Data_Cons&#45;&gt;Data_other_DP -->
<g id="edge1" class="edge">
<title>Data_Cons-&gt;Data_other_DP</title>
<path fill="none" stroke="#000000" d="M1732.7745,-576.0535C1721.4117,-551.2618 1700.8137,-506.3207 1687.5298,-477.3378"/>
<polygon fill="#000000" stroke="#000000" points="1690.6775,-475.8051 1683.3292,-468.1727 1684.314,-478.7217 1690.6775,-475.8051"/>
</g>
<!-- Data_other_SPD -->
<g id="node3" class="node">
<title>Data_other_SPD</title>
<ellipse fill="none" stroke="#000000" cx="786" cy="-522" rx="76.4439" ry="18"/>
<text text-anchor="middle" x="786" y="-517.8" font-family="Times,serif" font-size="14.00" fill="#000000">Data_other_SPD</text>
</g>
<!-- Data_Cons&#45;&gt;Data_other_SPD -->
<g id="edge2" class="edge">
<title>Data_Cons-&gt;Data_other_SPD</title>
<path fill="none" stroke="#000000" d="M1687.1085,-593.1613C1550.7391,-590.492 1181.1116,-579.8495 876,-540 868.2233,-538.9843 860.1102,-537.6938 852.0774,-536.2718"/>
<polygon fill="#000000" stroke="#000000" points="852.4455,-532.7807 841.9768,-534.4109 851.1771,-539.6649 852.4455,-532.7807"/>
</g>
<!-- Train_sens_SPD -->
<g id="node4" class="node">
<title>Train_sens_SPD</title>
<ellipse fill="none" stroke="#000000" cx="801" cy="-378" rx="75.8817" ry="18"/>
<text text-anchor="middle" x="801" y="-373.8" font-family="Times,serif" font-size="14.00" fill="#000000">Train_sens_SPD</text>
</g>
<!-- Data_Cons&#45;&gt;Train_sens_SPD -->
<g id="edge3" class="edge">
<title>Data_Cons-&gt;Train_sens_SPD</title>
<path fill="none" stroke="#000000" d="M1687.4249,-591.8119C1520.2985,-584.7853 1015.4555,-561.9683 945,-540 930.0646,-535.3431 833.3694,-480.5287 824,-468 810.697,-450.2114 805.0509,-425.5119 802.6733,-406.4872"/>
<polygon fill="#000000" stroke="#000000" points="806.1322,-405.9046 801.6392,-396.3097 799.1681,-406.6123 806.1322,-405.9046"/>
</g>
<!-- Test_sens_AOD -->
<g id="node5" class="node">
<title>Test_sens_AOD</title>
<ellipse fill="none" stroke="#000000" cx="644" cy="-90" rx="74.7188" ry="18"/>
<text text-anchor="middle" x="644" y="-85.8" font-family="Times,serif" font-size="14.00" fill="#000000">Test_sens_AOD</text>
</g>
<!-- Data_Cons&#45;&gt;Test_sens_AOD -->
<g id="edge4" class="edge">
<title>Data_Cons-&gt;Test_sens_AOD</title>
<path fill="none" stroke="#000000" d="M1686.8165,-593.2811C1486.1911,-590.3336 792.4253,-577.5017 701,-540 656.4369,-521.7207 654.3184,-501.7971 620,-468 604.5352,-452.7701 603.8139,-445.7261 587,-432 562.9096,-412.3337 543.615,-422.2879 527,-396 492.6453,-341.6449 516.1148,-316.2263 513,-252 510.6526,-203.5961 497.8969,-181.9769 528,-144 541.6993,-126.7174 562.2187,-114.7182 582.2082,-106.5037"/>
<polygon fill="#000000" stroke="#000000" points="583.558,-109.7346 591.6364,-102.8797 581.0465,-103.2006 583.558,-109.7346"/>
</g>
<!-- Train_TI -->
<g id="node6" class="node">
<title>Train_TI</title>
<ellipse fill="none" stroke="#000000" cx="1914" cy="-306" rx="45.7848" ry="18"/>
<text text-anchor="middle" x="1914" y="-301.8" font-family="Times,serif" font-size="14.00" fill="#000000">Train_TI</text>
</g>
<!-- Data_Cons&#45;&gt;Train_TI -->
<g id="edge5" class="edge">
<title>Data_Cons-&gt;Train_TI</title>
<path fill="none" stroke="#000000" d="M1773.0237,-579.4639C1828.0982,-552.4519 1939.0646,-488.7144 1983,-396 1989.8517,-381.5413 1990.008,-374.3836 1983,-360 1976.1791,-346.0004 1963.7789,-334.562 1951.3527,-325.8751"/>
<polygon fill="#000000" stroke="#000000" points="1953.1014,-322.837 1942.814,-320.3031 1949.2759,-328.6992 1953.1014,-322.837"/>
</g>
<!-- Test_Acc -->
<g id="node7" class="node">
<title>Test_Acc</title>
<ellipse fill="none" stroke="#000000" cx="2160" cy="-162" rx="48.0703" ry="18"/>
<text text-anchor="middle" x="2160" y="-157.8" font-family="Times,serif" font-size="14.00" fill="#000000">Test_Acc</text>
</g>
<!-- Data_Cons&#45;&gt;Test_Acc -->
<g id="edge6" class="edge">
<title>Data_Cons-&gt;Test_Acc</title>
<path fill="none" stroke="#000000" d="M1794.0047,-589.925C1919.9088,-577.0456 2236.1594,-525.1646 2367,-324 2413.2556,-252.8831 2283.1706,-199.6244 2208.4642,-175.7903"/>
<polygon fill="#000000" stroke="#000000" points="2209.3463,-172.3992 2198.7576,-172.759 2207.2596,-179.0809 2209.3463,-172.3992"/>
</g>
<!-- Test_F1 -->
<g id="node8" class="node">
<title>Test_F1</title>
<ellipse fill="none" stroke="#000000" cx="2046" cy="-90" rx="42.8751" ry="18"/>
<text text-anchor="middle" x="2046" y="-85.8" font-family="Times,serif" font-size="14.00" fill="#000000">Test_F1</text>
</g>
<!-- Data_Cons&#45;&gt;Test_F1 -->
<g id="edge7" class="edge">
<title>Data_Cons-&gt;Test_F1</title>
<path fill="none" stroke="#000000" d="M1790.6835,-586.8908C1860.3315,-576.8513 1990.9273,-557.7585 2102,-540 2290.3123,-509.8922 2351.8806,-547.9855 2525,-468 2547.6263,-457.5461 2547.7867,-446.5828 2568,-432 2586.5302,-418.6314 2731.8668,-343.9534 2743,-324 2772.1054,-271.8361 2714.895,-245.5822 2663,-216 2569.9434,-162.9542 2537.5085,-167.481 2433,-144 2314.6298,-117.4046 2172.778,-101.6143 2098.0201,-94.5117"/>
<polygon fill="#000000" stroke="#000000" points="2098.2088,-91.0142 2087.9261,-93.5669 2097.5564,-97.9837 2098.2088,-91.0142"/>
</g>
<!-- Data_other_DP&#45;&gt;Train_sens_SPD -->
<g id="edge14" class="edge">
<title>Data_other_DP-&gt;Train_sens_SPD</title>
<path fill="none" stroke="#000000" d="M1608.8967,-443.13C1574.3755,-439.6265 1531.4279,-435.3993 1493,-432 1273.2836,-412.5643 1013.9876,-393.315 884.0399,-383.922"/>
<polygon fill="#000000" stroke="#000000" points="883.9964,-380.4098 873.7704,-383.1807 883.4924,-387.3916 883.9964,-380.4098"/>
</g>
<!-- Train_other_DP -->
<g id="node13" class="node">
<title>Train_other_DP</title>
<ellipse fill="none" stroke="#000000" cx="1530" cy="-378" rx="73.5772" ry="18"/>
<text text-anchor="middle" x="1530" y="-373.8" font-family="Times,serif" font-size="14.00" fill="#000000">Train_other_DP</text>
</g>
<!-- Data_other_DP&#45;&gt;Train_other_DP -->
<g id="edge15" class="edge">
<title>Data_other_DP-&gt;Train_other_DP</title>
<path fill="none" stroke="#000000" d="M1642.4592,-433.8418C1621.544,-423.4563 1594.1765,-409.8669 1571.6761,-398.6944"/>
<polygon fill="#000000" stroke="#000000" points="1573.196,-395.5413 1562.6828,-394.2287 1570.0827,-401.811 1573.196,-395.5413"/>
</g>
<!-- Train_other_AOD -->
<g id="node14" class="node">
<title>Train_other_AOD</title>
<ellipse fill="none" stroke="#000000" cx="1742" cy="-378" rx="82.2256" ry="18"/>
<text text-anchor="middle" x="1742" y="-373.8" font-family="Times,serif" font-size="14.00" fill="#000000">Train_other_AOD</text>
</g>
<!-- Data_other_DP&#45;&gt;Train_other_AOD -->
<g id="edge16" class="edge">
<title>Data_other_DP-&gt;Train_other_AOD</title>
<path fill="none" stroke="#000000" d="M1691.5618,-432.2022C1699.6953,-423.4617 1709.6366,-412.7786 1718.5366,-403.2144"/>
<polygon fill="#000000" stroke="#000000" points="1721.1464,-405.5476 1725.3965,-395.8425 1716.0219,-400.7789 1721.1464,-405.5476"/>
</g>
<!-- Train_F1 -->
<g id="node15" class="node">
<title>Train_F1</title>
<ellipse fill="none" stroke="#000000" cx="1927" cy="-378" rx="46.9497" ry="18"/>
<text text-anchor="middle" x="1927" y="-373.8" font-family="Times,serif" font-size="14.00" fill="#000000">Train_F1</text>
</g>
<!-- Data_other_DP&#45;&gt;Train_F1 -->
<g id="edge17" class="edge">
<title>Data_other_DP-&gt;Train_F1</title>
<path fill="none" stroke="#000000" d="M1722.3993,-436.4574C1767.3337,-423.6189 1834.4737,-404.4361 1879.4558,-391.5841"/>
<polygon fill="#000000" stroke="#000000" points="1880.6087,-394.8948 1889.2624,-388.7822 1878.6856,-388.1641 1880.6087,-394.8948"/>
</g>
<!-- Data_other_SPD&#45;&gt;Train_sens_SPD -->
<g id="edge18" class="edge">
<title>Data_other_SPD-&gt;Train_sens_SPD</title>
<path fill="none" stroke="#000000" d="M782.957,-503.93C780.4027,-485.6569 777.7869,-456.6675 782,-432 783.4988,-423.2245 786.2751,-413.9785 789.2513,-405.6659"/>
<polygon fill="#000000" stroke="#000000" points="792.6126,-406.6742 792.9083,-396.0835 786.0727,-404.1782 792.6126,-406.6742"/>
</g>
<!-- Data_other_SPD&#45;&gt;Test_sens_AOD -->
<g id="edge21" class="edge">
<title>Data_other_SPD-&gt;Test_sens_AOD</title>
<path fill="none" stroke="#000000" d="M755.7867,-505.4321C722.577,-487.2649 667.6111,-457.3249 620,-432 589.4617,-415.7563 572.6219,-422.9989 551,-396 525.1224,-363.6871 527,-347.3978 527,-306 527,-306 527,-306 527,-234 527,-192.6022 525.8588,-176.8892 551,-144 562.0897,-129.4927 578.2802,-118.1885 594.0553,-109.7574"/>
<polygon fill="#000000" stroke="#000000" points="595.8981,-112.7481 603.2538,-105.1228 592.7484,-106.4967 595.8981,-112.7481"/>
</g>
<!-- Train_sens_AOD -->
<g id="node11" class="node">
<title>Train_sens_AOD</title>
<ellipse fill="none" stroke="#000000" cx="1017" cy="-450" rx="79.2942" ry="18"/>
<text text-anchor="middle" x="1017" y="-445.8" font-family="Times,serif" font-size="14.00" fill="#000000">Train_sens_AOD</text>
</g>
<!-- Data_other_SPD&#45;&gt;Train_sens_AOD -->
<g id="edge19" class="edge">
<title>Data_other_SPD-&gt;Train_sens_AOD</title>
<path fill="none" stroke="#000000" d="M832.1911,-507.6028C869.0898,-496.1019 920.9645,-479.9332 960.3654,-467.6523"/>
<polygon fill="#000000" stroke="#000000" points="961.5917,-470.9363 970.0972,-464.6191 959.5086,-464.2534 961.5917,-470.9363"/>
</g>
<!-- Data_other_SPD&#45;&gt;Train_F1 -->
<g id="edge22" class="edge">
<title>Data_other_SPD-&gt;Train_F1</title>
<path fill="none" stroke="#000000" d="M853.2104,-513.3619C881.5067,-509.9928 914.8127,-506.3768 945,-504 1124.6218,-489.8577 1581.0294,-514.8853 1755,-468 1807.8728,-453.7507 1862.9168,-421.3344 1896.0772,-399.552"/>
<polygon fill="#000000" stroke="#000000" points="1898.0456,-402.4462 1904.4256,-393.9877 1894.1633,-396.6215 1898.0456,-402.4462"/>
</g>
<!-- Train_other_SPD -->
<g id="node16" class="node">
<title>Train_other_SPD</title>
<ellipse fill="none" stroke="#000000" cx="259" cy="-450" rx="79.3135" ry="18"/>
<text text-anchor="middle" x="259" y="-445.8" font-family="Times,serif" font-size="14.00" fill="#000000">Train_other_SPD</text>
</g>
<!-- Data_other_SPD&#45;&gt;Train_other_SPD -->
<g id="edge20" class="edge">
<title>Data_other_SPD-&gt;Train_other_SPD</title>
<path fill="none" stroke="#000000" d="M719.7887,-512.9541C622.4045,-499.6492 440.8978,-474.8513 337.1254,-460.6737"/>
<polygon fill="#000000" stroke="#000000" points="337.4049,-457.1794 327.0232,-459.2935 336.4573,-464.115 337.4049,-457.1794"/>
</g>
<!-- Train_sens_SPD&#45;&gt;Test_sens_AOD -->
<g id="edge25" class="edge">
<title>Train_sens_SPD-&gt;Test_sens_AOD</title>
<path fill="none" stroke="#000000" d="M739.0274,-367.4632C713.0412,-359.8032 684.9748,-346.6255 668,-324 621.9746,-262.6532 630.5605,-165.387 638.4023,-117.9142"/>
<polygon fill="#000000" stroke="#000000" points="641.8546,-118.4906 640.1448,-108.0346 634.961,-117.2747 641.8546,-118.4906"/>
</g>
<!-- Train_sens_SPD&#45;&gt;Train_TI -->
<g id="edge26" class="edge">
<title>Train_sens_SPD-&gt;Train_TI</title>
<path fill="none" stroke="#000000" d="M874.752,-373.6913C1024.4869,-364.8819 1374.8763,-343.9529 1669,-324 1734.1504,-319.5803 1809.0075,-314.0086 1858.6559,-310.2439"/>
<polygon fill="#000000" stroke="#000000" points="1859.1491,-313.7166 1868.8552,-309.469 1858.6187,-306.7367 1859.1491,-313.7166"/>
</g>
<!-- Train_sens_SPD&#45;&gt;Test_F1 -->
<g id="edge27" class="edge">
<title>Train_sens_SPD-&gt;Test_F1</title>
<path fill="none" stroke="#000000" d="M809.3795,-360.0967C832.1196,-313.9145 900.0022,-191.0896 999,-144 1089.0735,-101.1554 1792.537,-92.0912 1992.906,-90.3707"/>
<polygon fill="#000000" stroke="#000000" points="1993.2013,-93.8685 2003.1718,-90.2852 1993.143,-86.8687 1993.2013,-93.8685"/>
</g>
<!-- Test_sens_SPD -->
<g id="node12" class="node">
<title>Test_sens_SPD</title>
<ellipse fill="none" stroke="#000000" cx="899" cy="-18" rx="71.8066" ry="18"/>
<text text-anchor="middle" x="899" y="-13.8" font-family="Times,serif" font-size="14.00" fill="#000000">Test_sens_SPD</text>
</g>
<!-- Train_sens_SPD&#45;&gt;Test_sens_SPD -->
<g id="edge24" class="edge">
<title>Train_sens_SPD-&gt;Test_sens_SPD</title>
<path fill="none" stroke="#000000" d="M805.8355,-359.7186C810.6564,-341.5276 818.2893,-312.8207 825,-288 848.9319,-199.4838 877.7791,-94.7976 891.3001,-45.8458"/>
<polygon fill="#000000" stroke="#000000" points="894.7311,-46.5699 894.0208,-35.9989 887.9839,-44.7056 894.7311,-46.5699"/>
</g>
<!-- Test_sens_AOD&#45;&gt;Test_sens_SPD -->
<g id="edge34" class="edge">
<title>Test_sens_AOD-&gt;Test_sens_SPD</title>
<path fill="none" stroke="#000000" d="M692.5638,-76.2879C734.8819,-64.3392 796.3271,-46.99 841.1742,-34.3273"/>
<polygon fill="#000000" stroke="#000000" points="842.3767,-37.6247 851.0493,-31.539 840.4745,-30.8881 842.3767,-37.6247"/>
</g>
<!-- Train_TI&#45;&gt;Test_Acc -->
<g id="edge75" class="edge">
<title>Train_TI-&gt;Test_Acc</title>
<path fill="none" stroke="#000000" d="M1948.6793,-293.9467C1988.652,-279.9326 2050.1406,-257.9575 2060,-252 2068.2786,-246.9976 2107.7129,-210.7867 2134.5172,-185.8495"/>
<polygon fill="#000000" stroke="#000000" points="2137.1143,-188.2134 2142.0436,-178.8351 2132.3418,-183.0926 2137.1143,-188.2134"/>
</g>
<!-- Test_other_AOD -->
<g id="node22" class="node">
<title>Test_other_AOD</title>
<ellipse fill="none" stroke="#000000" cx="1940" cy="-234" rx="78.1501" ry="18"/>
<text text-anchor="middle" x="1940" y="-229.8" font-family="Times,serif" font-size="14.00" fill="#000000">Test_other_AOD</text>
</g>
<!-- Train_TI&#45;&gt;Test_other_AOD -->
<g id="edge42" class="edge">
<title>Train_TI-&gt;Test_other_AOD</title>
<path fill="none" stroke="#000000" d="M1920.5609,-287.8314C1923.4027,-279.9617 1926.7937,-270.5712 1929.9419,-261.8533"/>
<polygon fill="#000000" stroke="#000000" points="1933.2462,-263.0076 1933.3508,-252.4133 1926.6623,-260.63 1933.2462,-263.0076"/>
</g>
<!-- Test_TI -->
<g id="node28" class="node">
<title>Test_TI</title>
<ellipse fill="none" stroke="#000000" cx="2154" cy="-234" rx="41.7095" ry="18"/>
<text text-anchor="middle" x="2154" y="-229.8" font-family="Times,serif" font-size="14.00" fill="#000000">Test_TI</text>
</g>
<!-- Train_TI&#45;&gt;Test_TI -->
<g id="edge59" class="edge">
<title>Train_TI-&gt;Test_TI</title>
<path fill="none" stroke="#000000" d="M1950.4733,-295.0015C1958.2352,-292.6767 1966.3858,-290.2474 1974,-288 2029.0394,-271.7549 2043.122,-268.7821 2098,-252 2102.2343,-250.7051 2106.6408,-249.3325 2111.0396,-247.9456"/>
<polygon fill="#000000" stroke="#000000" points="2112.117,-251.2758 2120.5873,-244.9114 2109.9969,-244.6045 2112.117,-251.2758"/>
</g>
<!-- Test_Acc&#45;&gt;Test_F1 -->
<g id="edge76" class="edge">
<title>Test_Acc-&gt;Test_F1</title>
<path fill="none" stroke="#000000" d="M2135.2637,-146.3771C2118.606,-135.8564 2096.4667,-121.8737 2078.4044,-110.4659"/>
<polygon fill="#000000" stroke="#000000" points="2080.2307,-107.4798 2069.9068,-105.099 2076.4927,-113.3982 2080.2307,-107.4798"/>
</g>
<!-- MI_Rule -->
<g id="node31" class="node">
<title>MI_Rule</title>
<ellipse fill="none" stroke="#000000" cx="2406" cy="-90" rx="45.806" ry="18"/>
<text text-anchor="middle" x="2406" y="-85.8" font-family="Times,serif" font-size="14.00" fill="#000000">MI_Rule</text>
</g>
<!-- Test_Acc&#45;&gt;MI_Rule -->
<g id="edge77" class="edge">
<title>Test_Acc-&gt;MI_Rule</title>
<path fill="none" stroke="#000000" d="M2197.8984,-150.9078C2241.3082,-138.2025 2312.4563,-117.3787 2359.2642,-103.6788"/>
<polygon fill="#000000" stroke="#000000" points="2360.2501,-107.0371 2368.8643,-100.869 2358.2838,-100.319 2360.2501,-107.0371"/>
</g>
<!-- MI_BlackBox -->
<g id="node32" class="node">
<title>MI_BlackBox</title>
<ellipse fill="none" stroke="#000000" cx="2744" cy="-90" rx="66.0743" ry="18"/>
<text text-anchor="middle" x="2744" y="-85.8" font-family="Times,serif" font-size="14.00" fill="#000000">MI_BlackBox</text>
</g>
<!-- Test_Acc&#45;&gt;MI_BlackBox -->
<g id="edge78" class="edge">
<title>Test_Acc-&gt;MI_BlackBox</title>
<path fill="none" stroke="#000000" d="M2203.2363,-154.0973C2222.4228,-150.7354 2245.2994,-146.9246 2266,-144 2409.2152,-123.7667 2577.4257,-106.1951 2671.2649,-96.9443"/>
<polygon fill="#000000" stroke="#000000" points="2671.6116,-100.4271 2681.2216,-95.9665 2670.9273,-93.4607 2671.6116,-100.4271"/>
</g>
<!-- Data_sens_DP -->
<g id="node9" class="node">
<title>Data_sens_DP</title>
<ellipse fill="none" stroke="#000000" cx="462" cy="-522" rx="67.776" ry="18"/>
<text text-anchor="middle" x="462" y="-517.8" font-family="Times,serif" font-size="14.00" fill="#000000">Data_sens_DP</text>
</g>
<!-- Data_sens_DP&#45;&gt;Train_sens_SPD -->
<g id="edge9" class="edge">
<title>Data_sens_DP-&gt;Train_sens_SPD</title>
<path fill="none" stroke="#000000" d="M443.9836,-504.3008C426.2288,-484.7292 404.2699,-453.1723 423,-432 466.4664,-382.8662 651.2953,-406.8054 716,-396 722.4976,-394.9149 729.2519,-393.6762 735.9864,-392.3679"/>
<polygon fill="#000000" stroke="#000000" points="736.6835,-395.7979 745.8067,-390.411 735.3155,-388.9329 736.6835,-395.7979"/>
</g>
<!-- Data_sens_DP&#45;&gt;Test_sens_AOD -->
<g id="edge12" class="edge">
<title>Data_sens_DP-&gt;Test_sens_AOD</title>
<path fill="none" stroke="#000000" d="M395.4569,-518.0872C319.6344,-512.2248 202.1687,-498.4119 171,-468 141.7393,-439.4497 152,-418.8816 152,-378 152,-378 152,-378 152,-234 152,-149.452 423.0012,-111.0845 562.746,-96.9203"/>
<polygon fill="#000000" stroke="#000000" points="563.3799,-100.3746 572.9844,-95.902 562.6871,-93.4089 563.3799,-100.3746"/>
</g>
<!-- Data_sens_SPD -->
<g id="node10" class="node">
<title>Data_sens_SPD</title>
<ellipse fill="none" stroke="#000000" cx="505" cy="-450" rx="73.0132" ry="18"/>
<text text-anchor="middle" x="505" y="-445.8" font-family="Times,serif" font-size="14.00" fill="#000000">Data_sens_SPD</text>
</g>
<!-- Data_sens_DP&#45;&gt;Data_sens_SPD -->
<g id="edge8" class="edge">
<title>Data_sens_DP-&gt;Data_sens_SPD</title>
<path fill="none" stroke="#000000" d="M472.6292,-504.2022C477.5908,-495.8944 483.6006,-485.8316 489.0884,-476.6427"/>
<polygon fill="#000000" stroke="#000000" points="492.2215,-478.2226 494.344,-467.8425 486.2117,-474.6334 492.2215,-478.2226"/>
</g>
<!-- Data_sens_DP&#45;&gt;Train_sens_AOD -->
<g id="edge10" class="edge">
<title>Data_sens_DP-&gt;Train_sens_AOD</title>
<path fill="none" stroke="#000000" d="M520.8563,-512.8671C540.3073,-509.9302 562.0679,-506.7316 582,-504 705.4725,-487.0785 848.9865,-469.7083 936.3719,-459.3883"/>
<polygon fill="#000000" stroke="#000000" points="936.9617,-462.8431 946.483,-458.1961 936.1419,-455.8913 936.9617,-462.8431"/>
</g>
<!-- Data_sens_DP&#45;&gt;Test_sens_SPD -->
<g id="edge11" class="edge">
<title>Data_sens_DP-&gt;Test_sens_SPD</title>
<path fill="none" stroke="#000000" d="M394.4992,-519.8458C312.2009,-515.6784 180.0822,-503.4971 148,-468 51.4377,-361.1596 49.288,-244.9426 152,-144 245.1778,-52.4274 643.6127,-27.1007 817.4025,-20.3496"/>
<polygon fill="#000000" stroke="#000000" points="817.6558,-23.8426 827.5167,-19.9679 817.3918,-16.8476 817.6558,-23.8426"/>
</g>
<!-- Data_sens_SPD&#45;&gt;Train_sens_SPD -->
<g id="edge13" class="edge">
<title>Data_sens_SPD-&gt;Train_sens_SPD</title>
<path fill="none" stroke="#000000" d="M557.2375,-437.2936C607.7042,-425.0179 684.2048,-406.4096 738.0164,-393.3203"/>
<polygon fill="#000000" stroke="#000000" points="738.8993,-396.7077 747.7887,-390.9433 737.2448,-389.906 738.8993,-396.7077"/>
</g>
<!-- Train_sens_AOD&#45;&gt;Test_sens_AOD -->
<g id="edge29" class="edge">
<title>Train_sens_AOD-&gt;Test_sens_AOD</title>
<path fill="none" stroke="#000000" d="M985.4927,-433.4304C968.0722,-423.6054 946.4812,-410.3005 929,-396 817.5618,-304.8379 707.7436,-171.2778 663.9136,-115.7196"/>
<polygon fill="#000000" stroke="#000000" points="666.6218,-113.5012 657.694,-107.7963 661.1156,-117.8235 666.6218,-113.5012"/>
</g>
<!-- Train_sens_AOD&#45;&gt;Train_TI -->
<g id="edge30" class="edge">
<title>Train_sens_AOD-&gt;Train_TI</title>
<path fill="none" stroke="#000000" d="M1071.6824,-436.8818C1153.0757,-417.7371 1311.1062,-382.0312 1447,-360 1595.2118,-335.9718 1771.5724,-318.5916 1859.0871,-310.7131"/>
<polygon fill="#000000" stroke="#000000" points="1859.4084,-314.1984 1869.0572,-309.8221 1858.7853,-307.2262 1859.4084,-314.1984"/>
</g>
<!-- Train_sens_AOD&#45;&gt;Test_F1 -->
<g id="edge33" class="edge">
<title>Train_sens_AOD-&gt;Test_F1</title>
<path fill="none" stroke="#000000" d="M1009.9343,-431.8183C989.4229,-375.7212 937.1279,-205.4345 1032,-144 1072.6342,-117.6873 1790.2205,-96.7693 1993.0154,-91.3635"/>
<polygon fill="#000000" stroke="#000000" points="1993.2165,-94.8595 2003.1202,-91.0956 1993.0309,-87.8619 1993.2165,-94.8595"/>
</g>
<!-- Train_sens_AOD&#45;&gt;Test_sens_SPD -->
<g id="edge28" class="edge">
<title>Train_sens_AOD-&gt;Test_sens_SPD</title>
<path fill="none" stroke="#000000" d="M1003.8065,-431.8064C997.0172,-421.6913 989.1149,-408.6273 984,-396 933.5101,-271.355 910.039,-110.8434 902.18,-46.515"/>
<polygon fill="#000000" stroke="#000000" points="905.6267,-45.8587 900.9706,-36.3418 898.6757,-46.6851 905.6267,-45.8587"/>
</g>
<!-- Train_sens_AOD&#45;&gt;Train_F1 -->
<g id="edge32" class="edge">
<title>Train_sens_AOD-&gt;Train_F1</title>
<path fill="none" stroke="#000000" d="M1093.6963,-445.4655C1282.738,-434.2117 1760.961,-405.2453 1833,-396 1847.0576,-394.1959 1862.183,-391.5957 1876.104,-388.9302"/>
<polygon fill="#000000" stroke="#000000" points="1876.8569,-392.3493 1885.9953,-386.9883 1875.5083,-385.4804 1876.8569,-392.3493"/>
</g>
<!-- Test_Cons -->
<g id="node19" class="node">
<title>Test_Cons</title>
<ellipse fill="none" stroke="#000000" cx="1066" cy="-234" rx="52.1867" ry="18"/>
<text text-anchor="middle" x="1066" y="-229.8" font-family="Times,serif" font-size="14.00" fill="#000000">Test_Cons</text>
</g>
<!-- Train_sens_AOD&#45;&gt;Test_Cons -->
<g id="edge31" class="edge">
<title>Train_sens_AOD-&gt;Test_Cons</title>
<path fill="none" stroke="#000000" d="M1021.0934,-431.9555C1029.6324,-394.3144 1049.3975,-307.1867 1059.6199,-262.1246"/>
<polygon fill="#000000" stroke="#000000" points="1063.0846,-262.6716 1061.8838,-252.1451 1056.2581,-261.1229 1063.0846,-262.6716"/>
</g>
<!-- Test_other_DP -->
<g id="node20" class="node">
<title>Test_other_DP</title>
<ellipse fill="none" stroke="#000000" cx="1111" cy="-162" rx="69.5012" ry="18"/>
<text text-anchor="middle" x="1111" y="-157.8" font-family="Times,serif" font-size="14.00" fill="#000000">Test_other_DP</text>
</g>
<!-- Train_other_DP&#45;&gt;Test_other_DP -->
<g id="edge35" class="edge">
<title>Train_other_DP-&gt;Test_other_DP</title>
<path fill="none" stroke="#000000" d="M1524.6503,-359.8726C1513.5294,-325.6226 1484.4774,-251.6487 1432,-216 1393.2956,-189.7075 1270.3524,-174.8352 1188.3443,-167.61"/>
<polygon fill="#000000" stroke="#000000" points="1188.569,-164.1165 1178.3055,-166.7456 1187.9684,-171.0907 1188.569,-164.1165"/>
</g>
<!-- Train_other_AOD&#45;&gt;Test_other_AOD -->
<g id="edge39" class="edge">
<title>Train_other_AOD-&gt;Test_other_AOD</title>
<path fill="none" stroke="#000000" d="M1746.8239,-359.935C1753.1036,-339.7326 1765.9654,-307.3191 1788,-288 1810.3174,-268.4329 1840.2083,-255.812 1867.5767,-247.7395"/>
<polygon fill="#000000" stroke="#000000" points="1868.8335,-251.0227 1877.527,-244.9668 1866.9545,-244.2796 1868.8335,-251.0227"/>
</g>
<!-- Train_F1&#45;&gt;Train_TI -->
<g id="edge71" class="edge">
<title>Train_F1-&gt;Train_TI</title>
<path fill="none" stroke="#000000" d="M1923.7196,-359.8314C1922.3292,-352.131 1920.6759,-342.9743 1919.1308,-334.4166"/>
<polygon fill="#000000" stroke="#000000" points="1922.5458,-333.6322 1917.3246,-324.4133 1915.6572,-334.8761 1922.5458,-333.6322"/>
</g>
<!-- Train_F1&#45;&gt;Test_F1 -->
<g id="edge74" class="edge">
<title>Train_F1-&gt;Test_F1</title>
<path fill="none" stroke="#000000" d="M1898.5926,-363.6002C1883.861,-354.4539 1867.2591,-341.1052 1859,-324 1852.0431,-309.5916 1848.9412,-300.4427 1859,-288 1907.0069,-228.6161 1975.6103,-308.4819 2027,-252 2060.0732,-215.6495 2057.0365,-154.1336 2051.6494,-118.2781"/>
<polygon fill="#000000" stroke="#000000" points="2055.0377,-117.3182 2049.9395,-108.0306 2048.1332,-118.4703 2055.0377,-117.3182"/>
</g>
<!-- Train_F1&#45;&gt;Test_Cons -->
<g id="edge72" class="edge">
<title>Train_F1-&gt;Test_Cons</title>
<path fill="none" stroke="#000000" d="M1886.0116,-368.8808C1869.6069,-365.5644 1850.4855,-362.1149 1833,-360 1755.9032,-350.6752 1203.7344,-360.1448 1135,-324 1109.0426,-310.35 1089.9316,-282.114 1078.4878,-260.8876"/>
<polygon fill="#000000" stroke="#000000" points="1081.6002,-259.2865 1073.9138,-251.9947 1075.3753,-262.4882 1081.6002,-259.2865"/>
</g>
<!-- Train_Loss -->
<g id="node23" class="node">
<title>Train_Loss</title>
<ellipse fill="none" stroke="#000000" cx="2071" cy="-306" rx="55.0343" ry="18"/>
<text text-anchor="middle" x="2071" y="-301.8" font-family="Times,serif" font-size="14.00" fill="#000000">Train_Loss</text>
</g>
<!-- Train_F1&#45;&gt;Train_Loss -->
<g id="edge73" class="edge">
<title>Train_F1-&gt;Train_Loss</title>
<path fill="none" stroke="#000000" d="M1955.7945,-363.6028C1977.5317,-352.7341 2007.6065,-337.6967 2031.577,-325.7115"/>
<polygon fill="#000000" stroke="#000000" points="2033.3872,-328.7196 2040.7663,-321.1169 2030.2567,-322.4586 2033.3872,-328.7196"/>
</g>
<!-- Train_F1&#45;&gt;Test_TI -->
<g id="edge61" class="edge">
<title>Train_F1-&gt;Test_TI</title>
<path fill="none" stroke="#000000" d="M1940.7851,-360.5538C1959.32,-337.4535 1991.7103,-298.4176 2007,-288 2016.0034,-281.8655 2071.3586,-262.244 2111.4935,-248.429"/>
<polygon fill="#000000" stroke="#000000" points="2112.7534,-251.6971 2121.0762,-245.141 2110.4816,-245.076 2112.7534,-251.6971"/>
</g>
<!-- Test_other_SPD -->
<g id="node21" class="node">
<title>Test_other_SPD</title>
<ellipse fill="none" stroke="#000000" cx="1693" cy="-162" rx="74.7381" ry="18"/>
<text text-anchor="middle" x="1693" y="-157.8" font-family="Times,serif" font-size="14.00" fill="#000000">Test_other_SPD</text>
</g>
<!-- Train_other_SPD&#45;&gt;Test_other_SPD -->
<g id="edge37" class="edge">
<title>Train_other_SPD-&gt;Test_other_SPD</title>
<path fill="none" stroke="#000000" d="M298.2143,-434.2187C407.8101,-390.8812 727.4779,-269.7013 1005,-216 1118.5919,-194.0197 1452.3762,-174.4696 1609.4598,-166.1934"/>
<polygon fill="#000000" stroke="#000000" points="1609.7439,-169.6834 1619.5469,-165.6646 1609.3774,-162.693 1609.7439,-169.6834"/>
</g>
<!-- Train_sens_DP -->
<g id="node17" class="node">
<title>Train_sens_DP</title>
<ellipse fill="none" stroke="#000000" cx="1413" cy="-450" rx="70.6451" ry="18"/>
<text text-anchor="middle" x="1413" y="-445.8" font-family="Times,serif" font-size="14.00" fill="#000000">Train_sens_DP</text>
</g>
<!-- Test_sens_DP -->
<g id="node18" class="node">
<title>Test_sens_DP</title>
<ellipse fill="none" stroke="#000000" cx="1626" cy="-234" rx="66.0704" ry="18"/>
<text text-anchor="middle" x="1626" y="-229.8" font-family="Times,serif" font-size="14.00" fill="#000000">Test_sens_DP</text>
</g>
<!-- Train_sens_DP&#45;&gt;Test_sens_DP -->
<g id="edge23" class="edge">
<title>Train_sens_DP-&gt;Test_sens_DP</title>
<path fill="none" stroke="#000000" d="M1407.7057,-431.9899C1403.1128,-412.4321 1399.2705,-381.1612 1414,-360 1439.5578,-323.2824 1468.9271,-345.7874 1508,-324 1541.6162,-305.2553 1576.1809,-277.7403 1599.1402,-258.0737"/>
<polygon fill="#000000" stroke="#000000" points="1601.4926,-260.6665 1606.7566,-251.4719 1596.9077,-255.377 1601.4926,-260.6665"/>
</g>
<!-- Test_other_DP&#45;&gt;Test_sens_AOD -->
<g id="edge36" class="edge">
<title>Test_other_DP-&gt;Test_sens_AOD</title>
<path fill="none" stroke="#000000" d="M1050.904,-152.7347C965.5425,-139.574 809.349,-115.4928 717.2966,-101.3005"/>
<polygon fill="#000000" stroke="#000000" points="717.6382,-97.8119 707.2217,-99.7472 716.5716,-104.7302 717.6382,-97.8119"/>
</g>
<!-- Test_other_SPD&#45;&gt;Test_sens_SPD -->
<g id="edge38" class="edge">
<title>Test_other_SPD-&gt;Test_sens_SPD</title>
<path fill="none" stroke="#000000" d="M1666.3487,-145.1447C1631.4624,-124.0161 1567.714,-88.5655 1508,-72 1410.8352,-45.0452 1122.4493,-28.3564 980.1991,-21.5425"/>
<polygon fill="#000000" stroke="#000000" points="979.954,-18.0271 969.7995,-21.0495 979.6225,-25.0192 979.954,-18.0271"/>
</g>
<!-- Test_other_AOD&#45;&gt;Test_Acc -->
<g id="edge44" class="edge">
<title>Test_other_AOD-&gt;Test_Acc</title>
<path fill="none" stroke="#000000" d="M1985.0512,-219.256C2022.6711,-206.944 2076.0813,-189.4643 2113.9714,-177.0639"/>
<polygon fill="#000000" stroke="#000000" points="2115.3197,-180.3054 2123.735,-173.8685 2113.1424,-173.6526 2115.3197,-180.3054"/>
</g>
<!-- Test_other_AOD&#45;&gt;Test_F1 -->
<g id="edge45" class="edge">
<title>Test_other_AOD-&gt;Test_F1</title>
<path fill="none" stroke="#000000" d="M1953.2106,-216.0535C1971.8199,-190.7729 2005.8522,-144.5404 2027.1246,-115.6421"/>
<polygon fill="#000000" stroke="#000000" points="2030.176,-117.4008 2033.2855,-107.2725 2024.5386,-113.251 2030.176,-117.4008"/>
</g>
<!-- Test_other_AOD&#45;&gt;Test_other_DP -->
<g id="edge40" class="edge">
<title>Test_other_AOD-&gt;Test_other_DP</title>
<path fill="none" stroke="#000000" d="M1866.7954,-227.6421C1710.5673,-214.0734 1345.8354,-182.3958 1187.0826,-168.6079"/>
<polygon fill="#000000" stroke="#000000" points="1187.1935,-165.1044 1176.9281,-167.726 1186.5877,-172.0782 1187.1935,-165.1044"/>
</g>
<!-- Test_other_AOD&#45;&gt;Test_other_SPD -->
<g id="edge41" class="edge">
<title>Test_other_AOD-&gt;Test_other_SPD</title>
<path fill="none" stroke="#000000" d="M1891.4955,-219.861C1851.0897,-208.0828 1793.4471,-191.2801 1750.6809,-178.8139"/>
<polygon fill="#000000" stroke="#000000" points="1751.553,-175.4225 1740.9731,-175.9841 1749.594,-182.1428 1751.553,-175.4225"/>
</g>
<!-- AE_FGSM -->
<g id="node24" class="node">
<title>AE_FGSM</title>
<ellipse fill="none" stroke="#000000" cx="2330" cy="-162" rx="55.0555" ry="18"/>
<text text-anchor="middle" x="2330" y="-157.8" font-family="Times,serif" font-size="14.00" fill="#000000">AE_FGSM</text>
</g>
<!-- Test_other_AOD&#45;&gt;AE_FGSM -->
<g id="edge46" class="edge">
<title>Test_other_AOD-&gt;AE_FGSM</title>
<path fill="none" stroke="#000000" d="M2001.3665,-222.6708C2075.531,-208.9789 2199.3869,-186.1132 2272.0056,-172.7067"/>
<polygon fill="#000000" stroke="#000000" points="2272.7035,-176.137 2281.9019,-170.8796 2271.4326,-169.2534 2272.7035,-176.137"/>
</g>
<!-- Train_Loss&#45;&gt;Test_other_AOD -->
<g id="edge43" class="edge">
<title>Train_Loss-&gt;Test_other_AOD</title>
<path fill="none" stroke="#000000" d="M2042.575,-290.3771C2024.1727,-280.2629 1999.9489,-266.949 1979.6628,-255.7994"/>
<polygon fill="#000000" stroke="#000000" points="1981.1036,-252.5975 1970.6542,-250.8481 1977.732,-258.7321 1981.1036,-252.5975"/>
</g>
<!-- Train_Loss&#45;&gt;Test_TI -->
<g id="edge60" class="edge">
<title>Train_Loss-&gt;Test_TI</title>
<path fill="none" stroke="#000000" d="M2090.6698,-288.937C2101.7592,-279.3173 2115.7559,-267.1756 2127.7689,-256.7547"/>
<polygon fill="#000000" stroke="#000000" points="2130.0659,-259.3955 2135.3263,-250.1989 2125.4789,-254.1078 2130.0659,-259.3955"/>
</g>
<!-- Test_Loss -->
<g id="node30" class="node">
<title>Test_Loss</title>
<ellipse fill="none" stroke="#000000" cx="2579" cy="-234" rx="50.9599" ry="18"/>
<text text-anchor="middle" x="2579" y="-229.8" font-family="Times,serif" font-size="14.00" fill="#000000">Test_Loss</text>
</g>
<!-- Train_Loss&#45;&gt;Test_Loss -->
<g id="edge79" class="edge">
<title>Train_Loss-&gt;Test_Loss</title>
<path fill="none" stroke="#000000" d="M2121.5662,-298.8331C2216.6769,-285.3529 2421.6138,-256.3067 2521.678,-242.1244"/>
<polygon fill="#000000" stroke="#000000" points="2522.198,-245.5857 2531.6078,-240.717 2521.2156,-238.655 2522.198,-245.5857"/>
</g>
<!-- AE_PGD -->
<g id="node33" class="node">
<title>AE_PGD</title>
<ellipse fill="none" stroke="#000000" cx="2876" cy="-90" rx="48.0935" ry="18"/>
<text text-anchor="middle" x="2876" y="-85.8" font-family="Times,serif" font-size="14.00" fill="#000000">AE_PGD</text>
</g>
<!-- AE_FGSM&#45;&gt;AE_PGD -->
<g id="edge80" class="edge">
<title>AE_FGSM-&gt;AE_PGD</title>
<path fill="none" stroke="#000000" d="M2384.8234,-159.4518C2475.8518,-154.4414 2663.5558,-140.7957 2819,-108 2822.8871,-107.1799 2826.8862,-106.2026 2830.877,-105.1334"/>
<polygon fill="#000000" stroke="#000000" points="2832.0575,-108.4362 2840.7112,-102.3236 2830.1344,-101.7056 2832.0575,-108.4362"/>
</g>
<!-- Train_Cons -->
<g id="node25" class="node">
<title>Train_Cons</title>
<ellipse fill="none" stroke="#000000" cx="650" cy="-378" rx="56.7619" ry="18"/>
<text text-anchor="middle" x="650" y="-373.8" font-family="Times,serif" font-size="14.00" fill="#000000">Train_Cons</text>
</g>
<!-- Train_Cons&#45;&gt;Test_Cons -->
<g id="edge47" class="edge">
<title>Train_Cons-&gt;Test_Cons</title>
<path fill="none" stroke="#000000" d="M688.3906,-364.7109C764.9312,-338.2161 936.2832,-278.902 1019.2345,-250.1881"/>
<polygon fill="#000000" stroke="#000000" points="1020.595,-253.421 1028.8999,-246.8423 1018.3051,-246.8061 1020.595,-253.421"/>
</g>
<!-- Train_CDS -->
<g id="node26" class="node">
<title>Train_CDS</title>
<ellipse fill="none" stroke="#000000" cx="1257" cy="-522" rx="55.6159" ry="18"/>
<text text-anchor="middle" x="1257" y="-517.8" font-family="Times,serif" font-size="14.00" fill="#000000">Train_CDS</text>
</g>
<!-- Train_CDS&#45;&gt;Train_sens_SPD -->
<g id="edge49" class="edge">
<title>Train_CDS-&gt;Train_sens_SPD</title>
<path fill="none" stroke="#000000" d="M1205.3529,-515.1931C1119.2399,-503.5922 953.3277,-480.0766 929,-468 908.1618,-457.6557 909.5289,-446.0682 891,-432 875.5928,-420.302 857.4863,-409.0195 841.5691,-399.8198"/>
<polygon fill="#000000" stroke="#000000" points="842.9103,-396.5562 832.4872,-394.6563 839.4506,-402.6415 842.9103,-396.5562"/>
</g>
<!-- Train_CDS&#45;&gt;Test_sens_AOD -->
<g id="edge52" class="edge">
<title>Train_CDS-&gt;Test_sens_AOD</title>
<path fill="none" stroke="#000000" d="M1232.0557,-505.6464C1215.9733,-495.0348 1194.6548,-480.8414 1176,-468 984.652,-336.2814 758.5608,-173.0865 676.1148,-113.3225"/>
<polygon fill="#000000" stroke="#000000" points="677.8334,-110.2454 667.6832,-107.2081 673.7239,-115.9122 677.8334,-110.2454"/>
</g>
<!-- Train_CDS&#45;&gt;Test_F1 -->
<g id="edge57" class="edge">
<title>Train_CDS-&gt;Test_F1</title>
<path fill="none" stroke="#000000" d="M1310.9167,-517.3297C1373.3981,-510.6698 1470.667,-496.0203 1493,-468 1502.9724,-455.488 1500.008,-446.3836 1493,-432 1481.629,-408.6617 1458.371,-419.3383 1447,-396 1439.992,-381.6164 1436.6313,-372.1856 1447,-360 1511.7759,-283.8738 1581.033,-371.465 1669,-324 1688.1018,-313.6931 1685.0623,-301.5729 1702,-288 1802.9677,-207.0901 1940.8831,-138.3519 2007.2302,-107.4569"/>
<polygon fill="#000000" stroke="#000000" points="2008.8794,-110.5504 2016.4868,-103.1763 2005.9413,-104.1969 2008.8794,-110.5504"/>
</g>
<!-- Train_CDS&#45;&gt;Train_sens_AOD -->
<g id="edge50" class="edge">
<title>Train_CDS-&gt;Train_sens_AOD</title>
<path fill="none" stroke="#000000" d="M1216.0152,-509.7046C1177.057,-498.0171 1118.0972,-480.3292 1074.4555,-467.2367"/>
<polygon fill="#000000" stroke="#000000" points="1075.4158,-463.8707 1064.8318,-464.3495 1073.4043,-470.5755 1075.4158,-463.8707"/>
</g>
<!-- Train_CDS&#45;&gt;Test_sens_SPD -->
<g id="edge51" class="edge">
<title>Train_CDS-&gt;Test_sens_SPD</title>
<path fill="none" stroke="#000000" d="M1271.3632,-504.5684C1286.4935,-486.3064 1311.1145,-456.8724 1333,-432 1361.6763,-399.4099 1364.0674,-385.7713 1399,-360 1429.0765,-337.8112 1451.8419,-353.3367 1475,-324 1500.3305,-291.9114 1494,-274.8816 1494,-234 1494,-234 1494,-234 1494,-162 1494,-57.6126 1143.6649,-28.6378 980.6414,-20.8058"/>
<polygon fill="#000000" stroke="#000000" points="980.3315,-17.2877 970.1799,-20.3199 980.0067,-24.2801 980.3315,-17.2877"/>
</g>
<!-- Train_CDS&#45;&gt;Train_sens_DP -->
<g id="edge48" class="edge">
<title>Train_CDS-&gt;Train_sens_DP</title>
<path fill="none" stroke="#000000" d="M1288.9454,-507.256C1312.2068,-496.5199 1343.9821,-481.8544 1369.5501,-470.0538"/>
<polygon fill="#000000" stroke="#000000" points="1371.049,-473.2169 1378.6618,-465.8484 1368.1155,-466.8612 1371.049,-473.2169"/>
</g>
<!-- Train_CDS&#45;&gt;Test_Cons -->
<g id="edge55" class="edge">
<title>Train_CDS-&gt;Test_Cons</title>
<path fill="none" stroke="#000000" d="M1250.1049,-503.9852C1242.5487,-485.2474 1229.4271,-455.4305 1214,-432 1190.617,-396.4861 1183.5239,-387.3897 1151,-360 1127.5038,-340.2128 1110.6411,-348.4155 1092,-324 1078.3429,-306.1124 1071.8534,-281.2669 1068.7732,-262.2117"/>
<polygon fill="#000000" stroke="#000000" points="1072.2388,-261.7217 1067.3889,-252.3022 1065.3062,-262.6903 1072.2388,-261.7217"/>
</g>
<!-- Train_CDS&#45;&gt;Test_other_DP -->
<g id="edge53" class="edge">
<title>Train_CDS-&gt;Test_other_DP</title>
<path fill="none" stroke="#000000" d="M1241.6909,-504.5448C1225.5645,-486.2635 1199.3231,-456.8141 1176,-432 1157.1068,-411.899 1014.9029,-277.7475 1005,-252 999.2563,-237.0665 996.6395,-229.6419 1005,-216 1015.6169,-198.6761 1033.728,-186.6924 1052.0054,-178.5028"/>
<polygon fill="#000000" stroke="#000000" points="1053.3521,-181.7334 1061.2482,-174.6694 1050.6703,-175.2675 1053.3521,-181.7334"/>
</g>
<!-- Train_CDS&#45;&gt;Test_other_AOD -->
<g id="edge54" class="edge">
<title>Train_CDS-&gt;Test_other_AOD</title>
<path fill="none" stroke="#000000" d="M1311.7763,-518.8635C1367.9479,-513.8846 1456.6628,-501.0436 1526,-468 1571.3087,-446.4075 1575.4275,-429.2779 1613,-396 1630.4156,-380.575 1632.874,-374.5836 1651,-360 1656.5466,-355.5374 1750.5646,-291.0438 1757,-288 1793.6775,-270.6523 1837.1501,-257.5431 1872.5193,-248.5878"/>
<polygon fill="#000000" stroke="#000000" points="1873.4035,-251.9747 1882.268,-246.1721 1871.7197,-245.1802 1873.4035,-251.9747"/>
</g>
<!-- Test_CDS -->
<g id="node27" class="node">
<title>Test_CDS</title>
<ellipse fill="none" stroke="#000000" cx="1301" cy="-234" rx="51.0415" ry="18"/>
<text text-anchor="middle" x="1301" y="-229.8" font-family="Times,serif" font-size="14.00" fill="#000000">Test_CDS</text>
</g>
<!-- Train_CDS&#45;&gt;Test_CDS -->
<g id="edge56" class="edge">
<title>Train_CDS-&gt;Test_CDS</title>
<path fill="none" stroke="#000000" d="M1257.7115,-503.8817C1259.549,-464.2876 1265.5942,-367.2479 1283,-288 1284.899,-279.3539 1287.673,-270.1468 1290.477,-261.83"/>
<polygon fill="#000000" stroke="#000000" points="1293.8392,-262.8191 1293.8555,-252.2243 1287.2358,-260.4965 1293.8392,-262.8191"/>
</g>
<!-- Test_TI&#45;&gt;Test_F1 -->
<g id="edge62" class="edge">
<title>Test_TI-&gt;Test_F1</title>
<path fill="none" stroke="#000000" d="M2136.574,-217.252C2126.2783,-206.9544 2113.2875,-193.2361 2103,-180 2087.1735,-159.6374 2071.6768,-134.7554 2060.8462,-116.3187"/>
<polygon fill="#000000" stroke="#000000" points="2063.822,-114.4733 2055.7772,-107.5789 2057.7668,-117.9853 2063.822,-114.4733"/>
</g>
<!-- Test_TI&#45;&gt;Test_other_SPD -->
<g id="edge58" class="edge">
<title>Test_TI-&gt;Test_other_SPD</title>
<path fill="none" stroke="#000000" d="M2114.6954,-227.8613C2037.4382,-215.7951 1864.742,-188.823 1765.987,-173.3993"/>
<polygon fill="#000000" stroke="#000000" points="1766.5011,-169.9372 1756.0808,-171.8521 1765.4209,-176.8534 1766.5011,-169.9372"/>
</g>
<!-- Test_TI&#45;&gt;AE_FGSM -->
<g id="edge63" class="edge">
<title>Test_TI-&gt;AE_FGSM</title>
<path fill="none" stroke="#000000" d="M2184.2555,-221.6228C2212.3123,-210.145 2254.39,-192.9314 2286.1318,-179.9461"/>
<polygon fill="#000000" stroke="#000000" points="2287.6937,-183.0888 2295.6239,-176.0629 2285.0432,-176.6099 2287.6937,-183.0888"/>
</g>
<!-- Train_Acc -->
<g id="node29" class="node">
<title>Train_Acc</title>
<ellipse fill="none" stroke="#000000" cx="2464" cy="-450" rx="52.1463" ry="18"/>
<text text-anchor="middle" x="2464" y="-445.8" font-family="Times,serif" font-size="14.00" fill="#000000">Train_Acc</text>
</g>
<!-- Train_Acc&#45;&gt;Test_Acc -->
<g id="edge67" class="edge">
<title>Train_Acc-&gt;Test_Acc</title>
<path fill="none" stroke="#000000" d="M2458.5429,-432.0358C2455.3905,-421.5477 2451.3905,-408.0477 2448,-396 2425.5706,-316.3004 2459.684,-273.384 2400,-216 2386.6028,-203.1191 2280.468,-182.7895 2213.9012,-171.0956"/>
<polygon fill="#000000" stroke="#000000" points="2214.4331,-167.6356 2203.9804,-169.3652 2213.2302,-174.5315 2214.4331,-167.6356"/>
</g>
<!-- Train_Acc&#45;&gt;Test_F1 -->
<g id="edge69" class="edge">
<title>Train_Acc-&gt;Test_F1</title>
<path fill="none" stroke="#000000" d="M2463.5856,-431.8157C2462.9998,-404.5008 2462,-351.2544 2462,-306 2462,-306 2462,-306 2462,-234 2462,-183.8664 2437.0298,-169.7259 2394,-144 2345.1361,-114.7861 2183.2001,-99.4992 2098.5646,-93.3367"/>
<polygon fill="#000000" stroke="#000000" points="2098.6149,-89.8315 2088.3917,-92.6129 2098.118,-96.8139 2098.6149,-89.8315"/>
</g>
<!-- Train_Acc&#45;&gt;Train_F1 -->
<g id="edge66" class="edge">
<title>Train_Acc-&gt;Train_F1</title>
<path fill="none" stroke="#000000" d="M2414.9213,-443.4196C2314.5674,-429.9643 2086.5368,-399.3904 1981.647,-385.327"/>
<polygon fill="#000000" stroke="#000000" points="1981.964,-381.8382 1971.5875,-383.9782 1981.0337,-388.7762 1981.964,-381.8382"/>
</g>
<!-- Train_Acc&#45;&gt;Test_other_SPD -->
<g id="edge64" class="edge">
<title>Train_Acc-&gt;Test_other_SPD</title>
<path fill="none" stroke="#000000" d="M2427.1246,-437.0136C2379.8982,-418.6622 2298.2855,-380.9027 2249,-324 2215.0664,-284.8218 2246.4334,-247.1398 2205,-216 2171.5404,-190.853 1912.9357,-173.5957 1776.5718,-166.1453"/>
<polygon fill="#000000" stroke="#000000" points="1776.7438,-162.6496 1766.5693,-165.6044 1776.3657,-169.6394 1776.7438,-162.6496"/>
</g>
<!-- Train_Acc&#45;&gt;Test_TI -->
<g id="edge65" class="edge">
<title>Train_Acc-&gt;Test_TI</title>
<path fill="none" stroke="#000000" d="M2413.7376,-444.7168C2350.096,-437.0895 2245.202,-421.0917 2216,-396 2195.1015,-378.0431 2172.4007,-302.9827 2161.1524,-261.6307"/>
<polygon fill="#000000" stroke="#000000" points="2164.5143,-260.6539 2158.5475,-251.899 2157.7523,-262.4639 2164.5143,-260.6539"/>
</g>
<!-- Train_Acc&#45;&gt;Test_Loss -->
<g id="edge68" class="edge">
<title>Train_Acc-&gt;Test_Loss</title>
<path fill="none" stroke="#000000" d="M2482.9255,-432.8908C2493.1436,-422.897 2505.3906,-409.603 2514,-396 2528.6479,-372.856 2555.0183,-301.6243 2569.2531,-261.7549"/>
<polygon fill="#000000" stroke="#000000" points="2572.6304,-262.7033 2572.6788,-252.1085 2566.034,-260.3606 2572.6304,-262.7033"/>
</g>
<!-- Train_Acc&#45;&gt;MI_Rule -->
<g id="edge70" class="edge">
<title>Train_Acc-&gt;MI_Rule</title>
<path fill="none" stroke="#000000" d="M2470.3691,-431.8729C2486.5558,-382.5514 2524.6654,-243.005 2476,-144 2469.0684,-129.8983 2456.4862,-118.4395 2443.8813,-109.7649"/>
<polygon fill="#000000" stroke="#000000" points="2445.5266,-106.662 2435.2203,-104.2059 2441.7455,-112.553 2445.5266,-106.662"/>
</g>
<!-- Model_Width -->
<g id="node34" class="node">
<title>Model_Width</title>
<ellipse fill="none" stroke="#000000" cx="2669" cy="-306" rx="65.4324" ry="18"/>
<text text-anchor="middle" x="2669" y="-301.8" font-family="Times,serif" font-size="14.00" fill="#000000">Model_Width</text>
</g>
<!-- Model_Width&#45;&gt;AE_FGSM -->
<g id="edge82" class="edge">
<title>Model_Width-&gt;AE_FGSM</title>
<path fill="none" stroke="#000000" d="M2668.2344,-287.8084C2666.3335,-267.1745 2659.9653,-234.0578 2639,-216 2603.2616,-185.2179 2474.4103,-171.369 2394.8191,-165.6314"/>
<polygon fill="#000000" stroke="#000000" points="2394.6284,-162.1097 2384.4095,-164.9068 2394.1423,-169.0928 2394.6284,-162.1097"/>
</g>
<!-- Model_Width&#45;&gt;Test_Loss -->
<g id="edge81" class="edge">
<title>Model_Width-&gt;Test_Loss</title>
<path fill="none" stroke="#000000" d="M2647.6713,-288.937C2635.8172,-279.4537 2620.8995,-267.5196 2607.9989,-257.1991"/>
<polygon fill="#000000" stroke="#000000" points="2609.8603,-254.2061 2599.8652,-250.6921 2605.4874,-259.6722 2609.8603,-254.2061"/>
</g>
<!-- Model_Width&#45;&gt;AE_PGD -->
<g id="edge83" class="edge">
<title>Model_Width-&gt;AE_PGD</title>
<path fill="none" stroke="#000000" d="M2685.9397,-288.3238C2722.8307,-249.8289 2810.4964,-158.3516 2852.6173,-114.3993"/>
<polygon fill="#000000" stroke="#000000" points="2855.2988,-116.6598 2859.6909,-107.0182 2850.2449,-111.8164 2855.2988,-116.6598"/>
</g>
<!-- FairMask -->
<g id="node35" class="node">
<title>FairMask</title>
<ellipse fill="none" stroke="#000000" cx="1340" cy="-306" rx="48.0897" ry="18"/>
<text text-anchor="middle" x="1340" y="-301.8" font-family="Times,serif" font-size="14.00" fill="#000000">FairMask</text>
</g>
<!-- FairMask&#45;&gt;Test_CDS -->
<g id="edge84" class="edge">
<title>FairMask-&gt;Test_CDS</title>
<path fill="none" stroke="#000000" d="M1330.3595,-288.2022C1325.8595,-279.8944 1320.4088,-269.8316 1315.4315,-260.6427"/>
<polygon fill="#000000" stroke="#000000" points="1318.5051,-258.9685 1310.6647,-251.8425 1312.3501,-262.3025 1318.5051,-258.9685"/>
</g>
<!-- Fairway -->
<g id="node36" class="node">
<title>Fairway</title>
<ellipse fill="none" stroke="#000000" cx="2045" cy="-594" rx="42.8538" ry="18"/>
<text text-anchor="middle" x="2045" y="-589.8" font-family="Times,serif" font-size="14.00" fill="#000000">Fairway</text>
</g>
<!-- Fairway&#45;&gt;Data_other_SPD -->
<g id="edge85" class="edge">
<title>Fairway-&gt;Data_other_SPD</title>
<path fill="none" stroke="#000000" d="M2002.7989,-590.4285C1954.7083,-586.4562 1873.7397,-580.0647 1804,-576 1422.5345,-553.7669 1325.9717,-569.5103 945,-540 918.3476,-537.9355 889.2667,-534.8798 863.3486,-531.8698"/>
<polygon fill="#000000" stroke="#000000" points="863.5481,-528.3692 853.2075,-530.6759 862.7297,-535.3212 863.5481,-528.3692"/>
</g>
<!-- Fairway&#45;&gt;MI_BlackBox -->
<g id="edge86" class="edge">
<title>Fairway-&gt;MI_BlackBox</title>
<path fill="none" stroke="#000000" d="M2082.757,-585.5802C2129.0674,-575.1854 2209.9314,-556.8155 2279,-540 2404.2644,-509.503 2441.5116,-518.8108 2560,-468 2615.4213,-444.234 2626.3127,-431.5794 2675,-396 2714.9732,-366.7886 2739.1809,-368.9191 2760,-324 2791.7713,-255.4503 2769.0822,-163.3434 2754.1875,-117.8382"/>
<polygon fill="#000000" stroke="#000000" points="2757.406,-116.4308 2750.8781,-108.0858 2750.7772,-118.6802 2757.406,-116.4308"/>
</g>
<!-- FairSmote -->
<g id="node37" class="node">
<title>FairSmote</title>
<ellipse fill="none" stroke="#000000" cx="1907" cy="-666" rx="51.0396" ry="18"/>
<text text-anchor="middle" x="1907" y="-661.8" font-family="Times,serif" font-size="14.00" fill="#000000">FairSmote</text>
</g>
<!-- FairSmote&#45;&gt;Data_Cons -->
<g id="edge87" class="edge">
<title>FairSmote-&gt;Data_Cons</title>
<path fill="none" stroke="#000000" d="M1874.5995,-651.9468C1848.5748,-640.659 1811.8178,-624.7162 1783.4444,-612.4096"/>
<polygon fill="#000000" stroke="#000000" points="1784.738,-609.1557 1774.1711,-608.3874 1781.9525,-615.5777 1784.738,-609.1557"/>
</g>
<!-- FairSmote&#45;&gt;Data_other_SPD -->
<g id="edge90" class="edge">
<title>FairSmote-&gt;Data_other_SPD</title>
<path fill="none" stroke="#000000" d="M1857.4511,-661.2907C1708.4624,-646.8417 1251.6556,-600.4312 876,-540 868.5616,-538.8034 860.8009,-537.4348 853.0905,-535.9986"/>
<polygon fill="#000000" stroke="#000000" points="853.4931,-532.5124 843.0149,-534.0803 852.1838,-539.3889 853.4931,-532.5124"/>
</g>
<!-- FairSmote&#45;&gt;Train_sens_SPD -->
<g id="edge91" class="edge">
<title>FairSmote-&gt;Train_sens_SPD</title>
<path fill="none" stroke="#000000" d="M1855.8217,-664.7285C1635.6403,-658.7262 776.7228,-629.6654 701,-540 663.0143,-495.0201 726.3034,-434.2039 768.3235,-401.3656"/>
<polygon fill="#000000" stroke="#000000" points="770.5899,-404.0386 776.4077,-395.184 766.3379,-398.478 770.5899,-404.0386"/>
</g>
<!-- FairSmote&#45;&gt;Test_sens_AOD -->
<g id="edge94" class="edge">
<title>FairSmote-&gt;Test_sens_AOD</title>
<path fill="none" stroke="#000000" d="M1855.2928,-665.5375C1567.5026,-662.8283 173.1196,-647.885 90,-612 38.0648,-589.5782 0,-578.5685 0,-522 0,-522 0,-522 0,-306 0,-207.2693 63.6762,-188.1209 152,-144 221.4427,-109.3109 437.9215,-96.689 559.3084,-92.2645"/>
<polygon fill="#000000" stroke="#000000" points="559.4451,-95.7619 569.315,-91.9105 559.1975,-88.7663 559.4451,-95.7619"/>
</g>
<!-- FairSmote&#45;&gt;Train_TI -->
<g id="edge95" class="edge">
<title>FairSmote-&gt;Train_TI</title>
<path fill="none" stroke="#000000" d="M1915.3709,-648.2008C1934.8205,-605.7412 1982.6481,-494.6879 1999,-396 2001.6154,-380.2152 2006.7047,-374.0228 1999,-360 1989.9918,-343.6049 1973.6646,-331.4813 1957.7103,-322.9228"/>
<polygon fill="#000000" stroke="#000000" points="1958.929,-319.6196 1948.4179,-318.2903 1955.8059,-325.8843 1958.929,-319.6196"/>
</g>
<!-- FairSmote&#45;&gt;Test_F1 -->
<g id="edge102" class="edge">
<title>FairSmote-&gt;Test_F1</title>
<path fill="none" stroke="#000000" d="M1957.8941,-663.2145C2147.2245,-652.1855 2800,-607.9289 2800,-522 2800,-522 2800,-522 2800,-378 2800,-294.7571 2772.1673,-266.5101 2706,-216 2636.8554,-163.2171 2608.3992,-165.0661 2524,-144 2372.7924,-106.2585 2188.0362,-94.8465 2098.989,-91.4328"/>
<polygon fill="#000000" stroke="#000000" points="2098.9909,-87.9306 2088.8699,-91.0638 2098.7357,-94.926 2098.9909,-87.9306"/>
</g>
<!-- FairSmote&#45;&gt;Data_sens_DP -->
<g id="edge88" class="edge">
<title>FairSmote-&gt;Data_sens_DP</title>
<path fill="none" stroke="#000000" d="M1855.7457,-665.0755C1614.8684,-660.5902 604.482,-640.1594 544,-612 515.3278,-598.6507 492.16,-570.1613 477.8569,-548.7899"/>
<polygon fill="#000000" stroke="#000000" points="480.6372,-546.6429 472.2795,-540.1314 474.7524,-550.4337 480.6372,-546.6429"/>
</g>
<!-- FairSmote&#45;&gt;Data_sens_SPD -->
<g id="edge89" class="edge">
<title>FairSmote-&gt;Data_sens_SPD</title>
<path fill="none" stroke="#000000" d="M1855.5911,-664.7955C1628.3902,-659.3402 723.1574,-636.1661 668,-612 602.0279,-583.0957 548.0433,-514.3968 521.9463,-476.4022"/>
<polygon fill="#000000" stroke="#000000" points="524.7046,-474.2321 516.2158,-467.8926 518.8984,-478.1421 524.7046,-474.2321"/>
</g>
<!-- FairSmote&#45;&gt;Train_other_AOD -->
<g id="edge93" class="edge">
<title>FairSmote-&gt;Train_other_AOD</title>
<path fill="none" stroke="#000000" d="M1896.7518,-648.0887C1874.3287,-608.9021 1819.222,-512.6159 1773,-432 1767.9457,-423.1848 1762.4235,-413.5626 1757.4585,-404.9146"/>
<polygon fill="#000000" stroke="#000000" points="1760.3529,-402.9265 1752.3382,-395.9972 1754.2825,-406.4121 1760.3529,-402.9265"/>
</g>
<!-- FairSmote&#45;&gt;Train_F1 -->
<g id="edge100" class="edge">
<title>FairSmote-&gt;Train_F1</title>
<path fill="none" stroke="#000000" d="M1908.2511,-647.9843C1911.6324,-599.2939 1920.9725,-464.7961 1925.0516,-406.0573"/>
<polygon fill="#000000" stroke="#000000" points="1928.5481,-406.2274 1925.7494,-396.0089 1921.5649,-405.7424 1928.5481,-406.2274"/>
</g>
<!-- FairSmote&#45;&gt;Train_other_SPD -->
<g id="edge92" class="edge">
<title>FairSmote-&gt;Train_other_SPD</title>
<path fill="none" stroke="#000000" d="M1855.4953,-665.5296C1594.7695,-662.9808 430.2524,-649.5259 364,-612 312.1528,-582.6333 281.6778,-515.9239 267.8957,-477.9022"/>
<polygon fill="#000000" stroke="#000000" points="271.0398,-476.2876 264.4472,-467.9937 264.4287,-478.5885 271.0398,-476.2876"/>
</g>
<!-- FairSmote&#45;&gt;Test_Cons -->
<g id="edge96" class="edge">
<title>FairSmote-&gt;Test_Cons</title>
<path fill="none" stroke="#000000" d="M1855.5199,-665.2337C1599.7116,-661.2939 471.5071,-642.3209 318,-612 205.4223,-589.7636 76,-636.7528 76,-522 76,-522 76,-522 76,-450 76,-354.3172 791.0249,-265.2613 1005.7449,-240.6752"/>
<polygon fill="#000000" stroke="#000000" points="1006.3472,-244.1293 1015.8865,-239.5193 1005.5545,-237.1743 1006.3472,-244.1293"/>
</g>
<!-- FairSmote&#45;&gt;Train_Loss -->
<g id="edge99" class="edge">
<title>FairSmote-&gt;Train_Loss</title>
<path fill="none" stroke="#000000" d="M1953.7369,-658.3852C2003.4547,-649.3354 2077.5785,-632.807 2097,-612 2124.8956,-582.1145 2116,-562.8816 2116,-522 2116,-522 2116,-522 2116,-450 2116,-407.8263 2098.198,-361.738 2084.9878,-333.3433"/>
<polygon fill="#000000" stroke="#000000" points="2088.0226,-331.5772 2080.5433,-324.0731 2081.7105,-334.6034 2088.0226,-331.5772"/>
</g>
<!-- FairSmote&#45;&gt;Test_TI -->
<g id="edge97" class="edge">
<title>FairSmote-&gt;Test_TI</title>
<path fill="none" stroke="#000000" d="M1954.7746,-659.1247C2009.8212,-650.3245 2095.8136,-633.5988 2120,-612 2151.8932,-583.519 2154,-564.7592 2154,-522 2154,-522 2154,-522 2154,-378 2154,-337.876 2154,-291.4631 2154,-262.4177"/>
<polygon fill="#000000" stroke="#000000" points="2157.5001,-262.1853 2154,-252.1854 2150.5001,-262.1854 2157.5001,-262.1853"/>
</g>
<!-- FairSmote&#45;&gt;Train_Acc -->
<g id="edge98" class="edge">
<title>FairSmote-&gt;Train_Acc</title>
<path fill="none" stroke="#000000" d="M1953.6724,-658.4469C2061.7902,-640.2597 2325.6952,-591.697 2398,-540 2420.8595,-523.6558 2439.0009,-496.9446 2450.4332,-476.8585"/>
<polygon fill="#000000" stroke="#000000" points="2453.6162,-478.3331 2455.3521,-467.8814 2447.4773,-474.9693 2453.6162,-478.3331"/>
</g>
<!-- FairSmote&#45;&gt;Test_Loss -->
<g id="edge101" class="edge">
<title>FairSmote-&gt;Test_Loss</title>
<path fill="none" stroke="#000000" d="M1957.7089,-662.7111C2028.2514,-657.1689 2159.4528,-643.3403 2267,-612 2342.6445,-589.9565 2361.0531,-579.89 2429,-540 2474.9931,-512.9985 2495.354,-512.3346 2525,-468 2568.1252,-403.5075 2577.0878,-309.1361 2578.7667,-262.3978"/>
<polygon fill="#000000" stroke="#000000" points="2582.273,-262.206 2579.0439,-252.1153 2575.2756,-262.0174 2582.273,-262.206"/>
</g>
<!-- FairSmote&#45;&gt;MI_BlackBox -->
<g id="edge104" class="edge">
<title>FairSmote-&gt;MI_BlackBox</title>
<path fill="none" stroke="#000000" d="M1958.1251,-663.958C2100.2747,-657.9946 2498.1464,-639.2857 2626,-612 2741.4911,-587.3526 2876,-640.0918 2876,-522 2876,-522 2876,-522 2876,-234 2876,-178.898 2822.8302,-135.7354 2783.9808,-111.5522"/>
<polygon fill="#000000" stroke="#000000" points="2785.3191,-108.2722 2774.9481,-106.1056 2781.7044,-114.2667 2785.3191,-108.2722"/>
</g>
<!-- FairSmote&#45;&gt;AE_PGD -->
<g id="edge103" class="edge">
<title>FairSmote-&gt;AE_PGD</title>
<path fill="none" stroke="#000000" d="M1958.2986,-665.6156C2118.0444,-663.9681 2604.9142,-655.4208 2756,-612 2833.6716,-589.6778 2914,-602.8156 2914,-522 2914,-522 2914,-522 2914,-234 2914,-192.1368 2898.7997,-145.6262 2887.6263,-117.0925"/>
<polygon fill="#000000" stroke="#000000" points="2890.8596,-115.7518 2883.8736,-107.7865 2884.3676,-118.3698 2890.8596,-115.7518"/>
</g>
<!-- LTDD -->
<g id="node38" class="node">
<title>LTDD</title>
<ellipse fill="none" stroke="#000000" cx="410" cy="-594" rx="36.5575" ry="18"/>
<text text-anchor="middle" x="410" y="-589.8" font-family="Times,serif" font-size="14.00" fill="#000000">LTDD</text>
</g>
<!-- LTDD&#45;&gt;Test_sens_AOD -->
<g id="edge107" class="edge">
<title>LTDD-&gt;Test_sens_AOD</title>
<path fill="none" stroke="#000000" d="M374.7053,-588.4981C316.3565,-577.3404 200.976,-546.1147 148,-468 85.0871,-375.233 98.9915,-321.0813 138,-216 152.6965,-176.4106 162.7488,-163.8912 200,-144 260.4458,-111.7234 448.5772,-98.2849 559.608,-93.0508"/>
<polygon fill="#000000" stroke="#000000" points="559.946,-96.5391 569.775,-92.5843 559.6251,-89.5465 559.946,-96.5391"/>
</g>
<!-- LTDD&#45;&gt;Data_sens_DP -->
<g id="edge105" class="edge">
<title>LTDD-&gt;Data_sens_DP</title>
<path fill="none" stroke="#000000" d="M422.3233,-576.937C428.5951,-568.2529 436.3512,-557.5137 443.3375,-547.8404"/>
<polygon fill="#000000" stroke="#000000" points="446.2046,-549.8485 449.2221,-539.6924 440.5298,-545.75 446.2046,-549.8485"/>
</g>
<!-- LTDD&#45;&gt;Train_sens_AOD -->
<g id="edge106" class="edge">
<title>LTDD-&gt;Train_sens_AOD</title>
<path fill="none" stroke="#000000" d="M439.8036,-583.3613C492.0989,-565.0155 604.0482,-527.1715 701,-504 781.0289,-484.8731 874.0131,-469.8283 938.2986,-460.5299"/>
<polygon fill="#000000" stroke="#000000" points="938.9611,-463.9708 948.3633,-459.0871 937.9678,-457.0416 938.9611,-463.9708"/>
</g>
<!-- LTDD&#45;&gt;Train_Cons -->
<g id="edge108" class="edge">
<title>LTDD-&gt;Train_Cons</title>
<path fill="none" stroke="#000000" d="M399.6333,-576.6856C394.0944,-566.4141 387.8444,-552.9141 385,-540 374.3576,-491.6809 374.7235,-464.534 412,-432 437.7025,-409.5675 525.2446,-393.9895 586.6563,-385.5188"/>
<polygon fill="#000000" stroke="#000000" points="587.2122,-388.9756 596.6546,-384.1703 586.2765,-382.0384 587.2122,-388.9756"/>
</g>
<!-- DIR -->
<g id="node39" class="node">
<title>DIR</title>
<ellipse fill="none" stroke="#000000" cx="982" cy="-522" rx="27.8267" ry="18"/>
<text text-anchor="middle" x="982" y="-517.8" font-family="Times,serif" font-size="14.00" fill="#000000">DIR</text>
</g>
<!-- DIR&#45;&gt;Train_sens_SPD -->
<g id="edge109" class="edge">
<title>DIR-&gt;Train_sens_SPD</title>
<path fill="none" stroke="#000000" d="M955.8055,-515.5159C928.8683,-507.8007 886.8848,-492.7507 858,-468 837.9648,-450.8324 822.5588,-424.8505 812.8441,-405.2089"/>
<polygon fill="#000000" stroke="#000000" points="815.9895,-403.6731 808.537,-396.1424 809.6667,-406.6769 815.9895,-403.6731"/>
</g>
<!-- DIR&#45;&gt;Test_sens_AOD -->
<g id="edge112" class="edge">
<title>DIR-&gt;Test_sens_AOD</title>
<path fill="none" stroke="#000000" d="M956.5511,-514.7094C870.8131,-490.0486 597.1237,-410.4852 584,-396 556.5512,-365.7036 565,-346.8816 565,-306 565,-306 565,-306 565,-234 565,-188.0016 596.3677,-142.7963 619.5719,-115.6486"/>
<polygon fill="#000000" stroke="#000000" points="622.4827,-117.6393 626.4673,-107.8223 617.2304,-113.0117 622.4827,-117.6393"/>
</g>
<!-- DIR&#45;&gt;Train_sens_AOD -->
<g id="edge110" class="edge">
<title>DIR-&gt;Train_sens_AOD</title>
<path fill="none" stroke="#000000" d="M990.4725,-504.5708C994.4666,-496.3544 999.3246,-486.3608 1003.7865,-477.1821"/>
<polygon fill="#000000" stroke="#000000" points="1007.0158,-478.5445 1008.24,-468.0206 1000.7202,-475.4841 1007.0158,-478.5445"/>
</g>
<!-- DIR&#45;&gt;Train_other_AOD -->
<g id="edge111" class="edge">
<title>DIR-&gt;Train_other_AOD</title>
<path fill="none" stroke="#000000" d="M1002.9601,-510.0006C1008.0592,-507.5942 1013.6025,-505.383 1019,-504 1098.3135,-483.6781 1698.5372,-527.2921 1755,-468 1770.6247,-451.5924 1764.6451,-425.2959 1756.3737,-405.3548"/>
<polygon fill="#000000" stroke="#000000" points="1759.5206,-403.8192 1752.2137,-396.1472 1753.1415,-406.7013 1759.5206,-403.8192"/>
</g>
<!-- DIR&#45;&gt;Test_CDS -->
<g id="edge113" class="edge">
<title>DIR-&gt;Test_CDS</title>
<path fill="none" stroke="#000000" d="M1004.2089,-510.9446C1009.0596,-508.6004 1014.1833,-506.1777 1019,-504 1056.7564,-486.9298 1071.6409,-492.5786 1105,-468 1186.1942,-408.1772 1254.988,-307.9784 1284.9462,-260.4968"/>
<polygon fill="#000000" stroke="#000000" points="1288.0909,-262.0684 1290.4121,-251.731 1282.151,-258.3646 1288.0909,-262.0684"/>
</g>
<!-- PR -->
<g id="node40" class="node">
<title>PR</title>
<ellipse fill="none" stroke="#000000" cx="1480" cy="-522" rx="27" ry="18"/>
<text text-anchor="middle" x="1480" y="-517.8" font-family="Times,serif" font-size="14.00" fill="#000000">PR</text>
</g>
<!-- PR&#45;&gt;Train_sens_AOD -->
<g id="edge114" class="edge">
<title>PR-&gt;Train_sens_AOD</title>
<path fill="none" stroke="#000000" d="M1453.4442,-517.8704C1384.5699,-507.1599 1198.2273,-478.1822 1092.6447,-461.7633"/>
<polygon fill="#000000" stroke="#000000" points="1093.1049,-458.2929 1082.6858,-460.2146 1092.0292,-465.2098 1093.1049,-458.2929"/>
</g>
<!-- PR&#45;&gt;Test_other_AOD -->
<g id="edge115" class="edge">
<title>PR-&gt;Test_other_AOD</title>
<path fill="none" stroke="#000000" d="M1507.1179,-519.3744C1570.7724,-512.8381 1727.7914,-494.4373 1773,-468 1808.9577,-446.9725 1816.153,-434.0958 1833,-396 1852.5997,-351.6796 1821.078,-328.2946 1848,-288 1857.8049,-273.3248 1873.0587,-262.0925 1888.3459,-253.7734"/>
<polygon fill="#000000" stroke="#000000" points="1889.9874,-256.8652 1897.3097,-249.2078 1886.8104,-250.6276 1889.9874,-256.8652"/>
</g>
<!-- AdDebias -->
<g id="node41" class="node">
<title>AdDebias</title>
<ellipse fill="none" stroke="#000000" cx="2308" cy="-306" rx="49.7981" ry="18"/>
<text text-anchor="middle" x="2308" y="-301.8" font-family="Times,serif" font-size="14.00" fill="#000000">AdDebias</text>
</g>
<!-- AdDebias&#45;&gt;Test_Acc -->
<g id="edge116" class="edge">
<title>AdDebias-&gt;Test_Acc</title>
<path fill="none" stroke="#000000" d="M2298.1643,-288.2472C2286.858,-268.9146 2266.8868,-237.8398 2244,-216 2230.1602,-202.7933 2212.645,-190.939 2197.1941,-181.725"/>
<polygon fill="#000000" stroke="#000000" points="2198.7856,-178.602 2188.3788,-176.6147 2195.2749,-184.658 2198.7856,-178.602"/>
</g>
<!-- AdDebias&#45;&gt;Test_TI -->
<g id="edge117" class="edge">
<title>AdDebias-&gt;Test_TI</title>
<path fill="none" stroke="#000000" d="M2277.5746,-291.7751C2252.9046,-280.2411 2218.0178,-263.9304 2191.6002,-251.5793"/>
<polygon fill="#000000" stroke="#000000" points="2192.8264,-248.289 2182.2852,-247.2242 2189.8617,-254.6302 2192.8264,-248.289"/>
</g>
<!-- EGR -->
<g id="node42" class="node">
<title>EGR</title>
<ellipse fill="none" stroke="#000000" cx="1058" cy="-522" rx="30.1958" ry="18"/>
<text text-anchor="middle" x="1058" y="-517.8" font-family="Times,serif" font-size="14.00" fill="#000000">EGR</text>
</g>
<!-- EGR&#45;&gt;Train_sens_SPD -->
<g id="edge118" class="edge">
<title>EGR-&gt;Train_sens_SPD</title>
<path fill="none" stroke="#000000" d="M1034.3115,-510.3908C1029.3123,-508.1324 1024.0277,-505.8842 1019,-504 965.6626,-484.0108 945.387,-496.3791 896,-468 893.9518,-466.8231 854.4477,-429.1693 827.0335,-402.9441"/>
<polygon fill="#000000" stroke="#000000" points="829.3075,-400.2758 819.663,-395.8901 824.4675,-405.333 829.3075,-400.2758"/>
</g>
<!-- EGR&#45;&gt;Train_sens_AOD -->
<g id="edge119" class="edge">
<title>EGR-&gt;Train_sens_AOD</title>
<path fill="none" stroke="#000000" d="M1048.2836,-504.937C1043.4743,-496.4914 1037.558,-486.1019 1032.1698,-476.6396"/>
<polygon fill="#000000" stroke="#000000" points="1035.2087,-474.9032 1027.2188,-467.9453 1029.1258,-478.3671 1035.2087,-474.9032"/>
</g>
<!-- EGR&#45;&gt;Train_Loss -->
<g id="edge120" class="edge">
<title>EGR-&gt;Train_Loss</title>
<path fill="none" stroke="#000000" d="M1087.4663,-517.3919C1114.5676,-513.3086 1155.901,-507.471 1192,-504 1465.8692,-477.6668 1541.8817,-529.728 1810,-468 1891.1589,-449.315 1914.0538,-442.7153 1983,-396 2009.4359,-378.0881 2034.3641,-351.3012 2050.8926,-331.607"/>
<polygon fill="#000000" stroke="#000000" points="2053.7908,-333.5933 2057.442,-323.6474 2048.3854,-329.1456 2053.7908,-333.5933"/>
</g>
<!-- EO -->
<g id="node43" class="node">
<title>EO</title>
<ellipse fill="none" stroke="#000000" cx="1171" cy="-306" rx="27" ry="18"/>
<text text-anchor="middle" x="1171" y="-301.8" font-family="Times,serif" font-size="14.00" fill="#000000">EO</text>
</g>
<!-- EO&#45;&gt;Test_sens_AOD -->
<g id="edge121" class="edge">
<title>EO-&gt;Test_sens_AOD</title>
<path fill="none" stroke="#000000" d="M1167.4858,-287.8153C1162.4123,-266.8626 1150.8886,-233.1256 1127,-216 1025.0277,-142.8968 963.252,-227.2007 847,-180 822.2922,-169.9681 822.5368,-156.5352 799,-144 769.172,-128.1142 733.7159,-115.3581 704.2476,-106.2411"/>
<polygon fill="#000000" stroke="#000000" points="705.0856,-102.838 694.5004,-103.2895 703.0568,-109.5375 705.0856,-102.838"/>
</g>
<!-- EO&#45;&gt;Test_Acc -->
<g id="edge124" class="edge">
<title>EO-&gt;Test_Acc</title>
<path fill="none" stroke="#000000" d="M1178.9311,-288.4086C1189.6262,-267.0287 1210.8672,-231.8495 1241,-216 1260.1183,-205.9439 1902.7347,-174.3432 2101.8082,-164.7734"/>
<polygon fill="#000000" stroke="#000000" points="2102.2414,-168.2567 2112.062,-164.2811 2101.9056,-161.2648 2102.2414,-168.2567"/>
</g>
<!-- EO&#45;&gt;Test_F1 -->
<g id="edge125" class="edge">
<title>EO-&gt;Test_F1</title>
<path fill="none" stroke="#000000" d="M1171.115,-287.8596C1172.2865,-267.2737 1177.5119,-234.2021 1198,-216 1258.0027,-162.6923 1818.9348,-109.7629 1994.0403,-94.4206"/>
<polygon fill="#000000" stroke="#000000" points="1994.3804,-97.9043 2004.0385,-93.5488 1993.7722,-90.9308 1994.3804,-97.9043"/>
</g>
<!-- EO&#45;&gt;Test_Cons -->
<g id="edge122" class="edge">
<title>EO-&gt;Test_Cons</title>
<path fill="none" stroke="#000000" d="M1151.7414,-292.7941C1136.6813,-282.4672 1115.4216,-267.8891 1097.84,-255.8331"/>
<polygon fill="#000000" stroke="#000000" points="1099.7744,-252.9158 1089.5477,-250.147 1095.8156,-258.6889 1099.7744,-252.9158"/>
</g>
<!-- EO&#45;&gt;Test_CDS -->
<g id="edge123" class="edge">
<title>EO-&gt;Test_CDS</title>
<path fill="none" stroke="#000000" d="M1191.8867,-294.432C1211.4024,-283.6233 1240.9632,-267.2511 1264.3959,-254.273"/>
<polygon fill="#000000" stroke="#000000" points="1266.3136,-257.212 1273.3657,-249.3051 1262.922,-251.0884 1266.3136,-257.212"/>
</g>
<!-- CEO -->
<g id="node44" class="node">
<title>CEO</title>
<ellipse fill="none" stroke="#000000" cx="1436" cy="-306" rx="30.1958" ry="18"/>
<text text-anchor="middle" x="1436" y="-301.8" font-family="Times,serif" font-size="14.00" fill="#000000">CEO</text>
</g>
<!-- CEO&#45;&gt;Test_sens_AOD -->
<g id="edge127" class="edge">
<title>CEO-&gt;Test_sens_AOD</title>
<path fill="none" stroke="#000000" d="M1427.0818,-288.5362C1415.1888,-267.2881 1391.983,-232.2448 1361,-216 1281.9575,-174.557 1048.7062,-196.5183 961,-180 904.6048,-169.3787 892.1884,-159.7315 837,-144 792.1546,-131.2168 741.3669,-117.0179 703.1503,-106.3892"/>
<polygon fill="#000000" stroke="#000000" points="703.7914,-102.9348 693.2194,-103.629 701.9168,-109.6792 703.7914,-102.9348"/>
</g>
<!-- CEO&#45;&gt;Test_Acc -->
<g id="edge129" class="edge">
<title>CEO-&gt;Test_Acc</title>
<path fill="none" stroke="#000000" d="M1450.5143,-289.9292C1470.7074,-268.7858 1509.5006,-232.3948 1551,-216 1601.442,-196.0723 1959.5232,-173.5442 2101.8655,-165.27"/>
<polygon fill="#000000" stroke="#000000" points="2102.3571,-168.7475 2112.1383,-164.6759 2101.9528,-161.7592 2102.3571,-168.7475"/>
</g>
<!-- CEO&#45;&gt;Test_sens_SPD -->
<g id="edge126" class="edge">
<title>CEO-&gt;Test_sens_SPD</title>
<path fill="none" stroke="#000000" d="M1433.189,-287.7323C1428.9074,-266.6996 1418.5981,-232.8858 1395,-216 1263.153,-121.6559 1174.9625,-256.4602 1032,-180 974.6122,-149.3075 932.4965,-82.4344 912.3227,-44.9124"/>
<polygon fill="#000000" stroke="#000000" points="915.4159,-43.2744 907.6706,-36.0452 909.2172,-46.5265 915.4159,-43.2744"/>
</g>
<!-- CEO&#45;&gt;Test_Cons -->
<g id="edge128" class="edge">
<title>CEO-&gt;Test_Cons</title>
<path fill="none" stroke="#000000" d="M1412.8932,-294.0918C1407.7614,-291.8008 1402.2766,-289.6153 1397,-288 1305.2533,-259.9144 1194.4684,-245.6112 1127.1723,-238.9842"/>
<polygon fill="#000000" stroke="#000000" points="1127.4493,-235.4948 1117.1607,-238.0235 1126.7806,-242.4628 1127.4493,-235.4948"/>
</g>
<!-- ROC -->
<g id="node45" class="node">
<title>ROC</title>
<ellipse fill="none" stroke="#000000" cx="1629" cy="-306" rx="30.777" ry="18"/>
<text text-anchor="middle" x="1629" y="-301.8" font-family="Times,serif" font-size="14.00" fill="#000000">ROC</text>
</g>
<!-- ROC&#45;&gt;Test_sens_AOD -->
<g id="edge132" class="edge">
<title>ROC-&gt;Test_sens_AOD</title>
<path fill="none" stroke="#000000" d="M1653.5697,-295.0286C1670.3061,-286.0855 1691.1473,-271.7053 1701,-252 1708.1554,-237.6892 1711.4948,-228.0772 1701,-216 1668.921,-179.0842 967.0067,-117.0536 725.0888,-96.6946"/>
<polygon fill="#000000" stroke="#000000" points="725.2103,-93.1926 714.9524,-95.8433 724.6244,-100.168 725.2103,-93.1926"/>
</g>
<!-- ROC&#45;&gt;Test_Acc -->
<g id="edge136" class="edge">
<title>ROC-&gt;Test_Acc</title>
<path fill="none" stroke="#000000" d="M1652.9459,-294.446C1693.3057,-275.4164 1777.8397,-237.4565 1853,-216 1938.8943,-191.4792 2041.653,-176.1296 2103.8201,-168.3186"/>
<polygon fill="#000000" stroke="#000000" points="2104.3199,-171.7836 2113.8154,-167.0839 2103.4617,-164.8364 2104.3199,-171.7836"/>
</g>
<!-- ROC&#45;&gt;Test_sens_DP -->
<g id="edge130" class="edge">
<title>ROC-&gt;Test_sens_DP</title>
<path fill="none" stroke="#000000" d="M1628.243,-287.8314C1627.9221,-280.131 1627.5406,-270.9743 1627.184,-262.4166"/>
<polygon fill="#000000" stroke="#000000" points="1630.6806,-262.2589 1626.7672,-252.4133 1623.6867,-262.5503 1630.6806,-262.2589"/>
</g>
<!-- ROC&#45;&gt;Test_other_SPD -->
<g id="edge131" class="edge">
<title>ROC-&gt;Test_other_SPD</title>
<path fill="none" stroke="#000000" d="M1653.7554,-294.9212C1683.3215,-281.441 1729.3953,-259.5461 1734,-252 1746.6989,-231.1892 1732.6984,-205.777 1717.7092,-187.2697"/>
<polygon fill="#000000" stroke="#000000" points="1720.2441,-184.8493 1711.0731,-179.5443 1714.9342,-189.4105 1720.2441,-184.8493"/>
</g>
<!-- ROC&#45;&gt;Test_other_AOD -->
<g id="edge133" class="edge">
<title>ROC-&gt;Test_other_AOD</title>
<path fill="none" stroke="#000000" d="M1657.9788,-299.2911C1707.1035,-287.9182 1807.8915,-264.5846 1874.7096,-249.1155"/>
<polygon fill="#000000" stroke="#000000" points="1875.7668,-252.4634 1884.7197,-246.798 1874.1879,-245.6437 1875.7668,-252.4634"/>
</g>
<!-- ROC&#45;&gt;Test_CDS -->
<g id="edge135" class="edge">
<title>ROC-&gt;Test_CDS</title>
<path fill="none" stroke="#000000" d="M1599.8922,-299.6105C1544.8251,-287.5226 1424.6558,-261.144 1354.6167,-245.7695"/>
<polygon fill="#000000" stroke="#000000" points="1355.1784,-242.3096 1344.6605,-243.584 1353.6775,-249.1468 1355.1784,-242.3096"/>
</g>
<!-- ROC&#45;&gt;Test_TI -->
<g id="edge134" class="edge">
<title>ROC-&gt;Test_TI</title>
<path fill="none" stroke="#000000" d="M1659.2152,-301.9628C1725.7088,-293.0645 1889.7252,-271.0406 2027,-252 2052.4591,-248.4687 2080.777,-244.4627 2104.2008,-241.1279"/>
<polygon fill="#000000" stroke="#000000" points="2104.8469,-244.5713 2114.253,-239.6952 2103.8592,-237.6413 2104.8469,-244.5713"/>
</g>
</g>
</svg>