<?xml version="1.0" encoding="UTF-8" standalone="no"?><!DOCTYPE svg PUBLIC "-//W3C//DTD SVG 1.1//EN" "http://www.w3.org/Graphics/SVG/1.1/DTD/svg11.dtd"><!-- Generated by graphviz version 2.40.1 (20161225.0304)
 --><!-- Title: G Pages: 1 --><svg xmlns="http://www.w3.org/2000/svg" xmlns:xlink="http://www.w3.org/1999/xlink" width="2736pt" height="620pt" viewBox="0.00 0.00 2736.36 620.00">
<g id="graph0" class="graph" transform="scale(1 1) rotate(0) translate(4 616)">
<title>G</title>
<polygon fill="#ffffff" stroke="transparent" points="-4,4 -4,-616 2732.3628,-616 2732.3628,4 -4,4"/>
<!-- Data_Cons -->
<g id="node1" class="node">
<title>Data_Cons</title>
<ellipse fill="none" stroke="#000000" cx="861.3628" cy="-378" rx="53.8924" ry="18"/>
<text text-anchor="middle" x="861.3628" y="-373.8" font-family="Times,serif" font-size="14.00" fill="#000000">Data_Cons</text>
</g>
<!-- Train_sens_AOD -->
<g id="node2" class="node">
<title>Train_sens_AOD</title>
<ellipse fill="none" stroke="#000000" cx="1023.3628" cy="-306" rx="79.2942" ry="18"/>
<text text-anchor="middle" x="1023.3628" y="-301.8" font-family="Times,serif" font-size="14.00" fill="#000000">Train_sens_AOD</text>
</g>
<!-- Data_Cons&#45;&gt;Train_sens_AOD -->
<g id="edge1" class="edge">
<title>Data_Cons-&gt;Train_sens_AOD</title>
<path fill="none" stroke="#000000" d="M893.7566,-363.6028C917.8749,-352.8835 951.1167,-338.1094 977.896,-326.2075"/>
<polygon fill="#000000" stroke="#000000" points="979.3564,-329.3886 987.0731,-322.1288 976.5134,-322.9919 979.3564,-329.3886"/>
</g>
<!-- MI_BlackBox -->
<g id="node33" class="node">
<title>MI_BlackBox</title>
<ellipse fill="none" stroke="#000000" cx="794.3628" cy="-234" rx="66.0743" ry="18"/>
<text text-anchor="middle" x="794.3628" y="-229.8" font-family="Times,serif" font-size="14.00" fill="#000000">MI_BlackBox</text>
</g>
<!-- Data_Cons&#45;&gt;MI_BlackBox -->
<g id="edge69" class="edge">
<title>Data_Cons-&gt;MI_BlackBox</title>
<path fill="none" stroke="#000000" d="M848.2711,-360.1333C841.1673,-349.9025 832.5912,-336.6238 826.3628,-324 816.4414,-303.8913 808.0734,-279.9168 802.3856,-261.7701"/>
<polygon fill="#000000" stroke="#000000" points="805.6985,-260.6344 799.4319,-252.0915 799.0033,-262.6776 805.6985,-260.6344"/>
</g>
<!-- Train_sens_SPD -->
<g id="node4" class="node">
<title>Train_sens_SPD</title>
<ellipse fill="none" stroke="#000000" cx="155.3628" cy="-234" rx="75.8817" ry="18"/>
<text text-anchor="middle" x="155.3628" y="-229.8" font-family="Times,serif" font-size="14.00" fill="#000000">Train_sens_SPD</text>
</g>
<!-- Train_sens_AOD&#45;&gt;Train_sens_SPD -->
<g id="edge13" class="edge">
<title>Train_sens_AOD-&gt;Train_sens_SPD</title>
<path fill="none" stroke="#000000" d="M948.9824,-299.8302C787.4273,-286.4293 405.4941,-254.7482 237.3038,-240.7969"/>
<polygon fill="#000000" stroke="#000000" points="237.5226,-237.3032 227.2675,-239.9644 236.9439,-244.2792 237.5226,-237.3032"/>
</g>
<!-- Test_sens_DP -->
<g id="node12" class="node">
<title>Test_sens_DP</title>
<ellipse fill="none" stroke="#000000" cx="1919.3628" cy="-18" rx="66.0704" ry="18"/>
<text text-anchor="middle" x="1919.3628" y="-13.8" font-family="Times,serif" font-size="14.00" fill="#000000">Test_sens_DP</text>
</g>
<!-- Train_sens_AOD&#45;&gt;Test_sens_DP -->
<g id="edge14" class="edge">
<title>Train_sens_AOD-&gt;Test_sens_DP</title>
<path fill="none" stroke="#000000" d="M1031.6793,-287.852C1055.1573,-237.4717 1122.9871,-97.8893 1165.3628,-72 1222.1803,-37.2875 1662.7309,-23.6758 1842.9272,-19.5243"/>
<polygon fill="#000000" stroke="#000000" points="1843.2044,-23.019 1853.1224,-19.2931 1843.0456,-16.0208 1843.2044,-23.019"/>
</g>
<!-- Test_sens_AOD -->
<g id="node15" class="node">
<title>Test_sens_AOD</title>
<ellipse fill="none" stroke="#000000" cx="1971.3628" cy="-90" rx="74.7188" ry="18"/>
<text text-anchor="middle" x="1971.3628" y="-85.8" font-family="Times,serif" font-size="14.00" fill="#000000">Test_sens_AOD</text>
</g>
<!-- Train_sens_AOD&#45;&gt;Test_sens_AOD -->
<g id="edge19" class="edge">
<title>Train_sens_AOD-&gt;Test_sens_AOD</title>
<path fill="none" stroke="#000000" d="M1067.0434,-290.8496C1159.9966,-259.1446 1384.7342,-185.3263 1578.3628,-144 1685.5834,-121.1158 1811.4235,-105.8112 1891.2655,-97.5086"/>
<polygon fill="#000000" stroke="#000000" points="1891.663,-100.9863 1901.2526,-96.4817 1890.947,-94.023 1891.663,-100.9863"/>
</g>
<!-- AE_FGSM -->
<g id="node30" class="node">
<title>AE_FGSM</title>
<ellipse fill="none" stroke="#000000" cx="1009.3628" cy="-162" rx="55.0555" ry="18"/>
<text text-anchor="middle" x="1009.3628" y="-157.8" font-family="Times,serif" font-size="14.00" fill="#000000">AE_FGSM</text>
</g>
<!-- Train_sens_AOD&#45;&gt;AE_FGSM -->
<g id="edge64" class="edge">
<title>Train_sens_AOD-&gt;AE_FGSM</title>
<path fill="none" stroke="#000000" d="M1021.5897,-287.7623C1019.2018,-263.201 1014.9285,-219.2474 1012.1195,-190.3541"/>
<polygon fill="#000000" stroke="#000000" points="1015.5729,-189.704 1011.1215,-180.0896 1008.6057,-190.3814 1015.5729,-189.704"/>
</g>
<!-- Data_sens_DP -->
<g id="node3" class="node">
<title>Data_sens_DP</title>
<ellipse fill="none" stroke="#000000" cx="125.3628" cy="-378" rx="67.776" ry="18"/>
<text text-anchor="middle" x="125.3628" y="-373.8" font-family="Times,serif" font-size="14.00" fill="#000000">Data_sens_DP</text>
</g>
<!-- Data_sens_DP&#45;&gt;Train_sens_SPD -->
<g id="edge2" class="edge">
<title>Data_sens_DP-&gt;Train_sens_SPD</title>
<path fill="none" stroke="#000000" d="M129.1623,-359.7623C134.3018,-335.0928 143.517,-290.8598 149.5351,-261.9731"/>
<polygon fill="#000000" stroke="#000000" points="152.981,-262.5933 151.5941,-252.0896 146.1281,-261.1656 152.981,-262.5933"/>
</g>
<!-- Data_sens_SPD -->
<g id="node5" class="node">
<title>Data_sens_SPD</title>
<ellipse fill="none" stroke="#000000" cx="398.3628" cy="-378" rx="73.0132" ry="18"/>
<text text-anchor="middle" x="398.3628" y="-373.8" font-family="Times,serif" font-size="14.00" fill="#000000">Data_sens_SPD</text>
</g>
<!-- Data_sens_SPD&#45;&gt;Train_sens_SPD -->
<g id="edge3" class="edge">
<title>Data_sens_SPD-&gt;Train_sens_SPD</title>
<path fill="none" stroke="#000000" d="M370.0121,-361.1995C326.0499,-335.1479 241.426,-285.0004 192.5925,-256.0621"/>
<polygon fill="#000000" stroke="#000000" points="194.2959,-253.0031 183.9086,-250.916 190.7272,-259.0251 194.2959,-253.0031"/>
</g>
<!-- Data_sens_SPD&#45;&gt;MI_BlackBox -->
<g id="edge70" class="edge">
<title>Data_sens_SPD-&gt;MI_BlackBox</title>
<path fill="none" stroke="#000000" d="M451.0209,-365.4582C490.189,-355.6031 544.7043,-340.7711 591.3628,-324 648.9167,-303.3126 713.0957,-273.7028 753.5865,-254.1735"/>
<polygon fill="#000000" stroke="#000000" points="755.1316,-257.3141 762.6031,-249.8022 752.0779,-251.0153 755.1316,-257.3141"/>
</g>
<!-- Data_other_DP -->
<g id="node6" class="node">
<title>Data_other_DP</title>
<ellipse fill="none" stroke="#000000" cx="746.3628" cy="-450" rx="71.2075" ry="18"/>
<text text-anchor="middle" x="746.3628" y="-445.8" font-family="Times,serif" font-size="14.00" fill="#000000">Data_other_DP</text>
</g>
<!-- Data_other_DP&#45;&gt;Train_sens_AOD -->
<g id="edge4" class="edge">
<title>Data_other_DP-&gt;Train_sens_AOD</title>
<path fill="none" stroke="#000000" d="M751.9597,-431.8356C759.2656,-411.2271 774.068,-378.1343 798.3628,-360 821.8609,-342.4604 891.7268,-327.3646 947.4363,-317.6292"/>
<polygon fill="#000000" stroke="#000000" points="948.0416,-321.0765 957.3048,-315.9342 946.8566,-314.1776 948.0416,-321.0765"/>
</g>
<!-- Train_other_AOD -->
<g id="node7" class="node">
<title>Train_other_AOD</title>
<ellipse fill="none" stroke="#000000" cx="500.3628" cy="-306" rx="82.2256" ry="18"/>
<text text-anchor="middle" x="500.3628" y="-301.8" font-family="Times,serif" font-size="14.00" fill="#000000">Train_other_AOD</text>
</g>
<!-- Data_other_DP&#45;&gt;Train_other_AOD -->
<g id="edge5" class="edge">
<title>Data_other_DP-&gt;Train_other_AOD</title>
<path fill="none" stroke="#000000" d="M695.2135,-437.4876C642.8677,-424.3623 567.6277,-404.4848 556.3628,-396 535.1404,-380.015 520.0442,-353.4349 510.9142,-333.2943"/>
<polygon fill="#000000" stroke="#000000" points="514.0811,-331.799 506.9108,-323.9991 507.652,-334.568 514.0811,-331.799"/>
</g>
<!-- Train_F1 -->
<g id="node27" class="node">
<title>Train_F1</title>
<ellipse fill="none" stroke="#000000" cx="1995.3628" cy="-378" rx="46.9497" ry="18"/>
<text text-anchor="middle" x="1995.3628" y="-373.8" font-family="Times,serif" font-size="14.00" fill="#000000">Train_F1</text>
</g>
<!-- Data_other_DP&#45;&gt;Train_F1 -->
<g id="edge46" class="edge">
<title>Data_other_DP-&gt;Train_F1</title>
<path fill="none" stroke="#000000" d="M806.4448,-440.2148C827.829,-437.0867 852.1183,-433.9363 874.3628,-432 1343.9697,-391.1217 1469.0343,-471.3065 1934.3628,-396 1939.5437,-395.1616 1944.9035,-394.0139 1950.1973,-392.7009"/>
<polygon fill="#000000" stroke="#000000" points="1951.4798,-395.9807 1960.2317,-390.0096 1949.6664,-389.2196 1951.4798,-395.9807"/>
</g>
<!-- Data_other_DP&#45;&gt;MI_BlackBox -->
<g id="edge71" class="edge">
<title>Data_other_DP-&gt;MI_BlackBox</title>
<path fill="none" stroke="#000000" d="M749.823,-431.6878C753.3123,-413.4735 758.9434,-384.7494 764.3628,-360 771.7609,-326.2143 781.0986,-287.5433 787.3746,-262.0531"/>
<polygon fill="#000000" stroke="#000000" points="790.7798,-262.8627 789.7813,-252.315 783.9842,-261.1832 790.7798,-262.8627"/>
</g>
<!-- Test_other_DP -->
<g id="node16" class="node">
<title>Test_other_DP</title>
<ellipse fill="none" stroke="#000000" cx="637.3628" cy="-234" rx="69.5012" ry="18"/>
<text text-anchor="middle" x="637.3628" y="-229.8" font-family="Times,serif" font-size="14.00" fill="#000000">Test_other_DP</text>
</g>
<!-- Train_other_AOD&#45;&gt;Test_other_DP -->
<g id="edge22" class="edge">
<title>Train_other_AOD-&gt;Test_other_DP</title>
<path fill="none" stroke="#000000" d="M532.1377,-289.3008C551.5551,-279.096 576.5621,-265.9537 597.3254,-255.0416"/>
<polygon fill="#000000" stroke="#000000" points="599.0088,-258.1108 606.2326,-250.3604 595.7523,-251.9144 599.0088,-258.1108"/>
</g>
<!-- Train_other_AOD&#45;&gt;AE_FGSM -->
<g id="edge65" class="edge">
<title>Train_other_AOD-&gt;AE_FGSM</title>
<path fill="none" stroke="#000000" d="M506.53,-288.0253C514.7834,-266.9436 531.5682,-232.7523 558.3628,-216 621.195,-176.7166 834.8387,-166.0083 943.9998,-163.0911"/>
<polygon fill="#000000" stroke="#000000" points="944.3208,-166.5842 954.2291,-162.8324 944.1438,-159.5864 944.3208,-166.5842"/>
</g>
<!-- AE_PGD -->
<g id="node32" class="node">
<title>AE_PGD</title>
<ellipse fill="none" stroke="#000000" cx="596.3628" cy="-90" rx="48.0935" ry="18"/>
<text text-anchor="middle" x="596.3628" y="-85.8" font-family="Times,serif" font-size="14.00" fill="#000000">AE_PGD</text>
</g>
<!-- Train_other_AOD&#45;&gt;AE_PGD -->
<g id="edge68" class="edge">
<title>Train_other_AOD-&gt;AE_PGD</title>
<path fill="none" stroke="#000000" d="M502.6253,-287.9009C505.3455,-269.3538 510.7873,-239.9248 520.3628,-216 535.1577,-179.0346 560.1084,-140.3759 577.3647,-115.7877"/>
<polygon fill="#000000" stroke="#000000" points="580.3917,-117.5707 583.341,-107.3947 574.6895,-113.5104 580.3917,-117.5707"/>
</g>
<!-- Train_other_AOD&#45;&gt;MI_BlackBox -->
<g id="edge73" class="edge">
<title>Train_other_AOD-&gt;MI_BlackBox</title>
<path fill="none" stroke="#000000" d="M555.3171,-292.5418C606.53,-279.9999 682.6835,-261.35 735.2075,-248.487"/>
<polygon fill="#000000" stroke="#000000" points="736.175,-251.8536 745.0555,-246.0753 734.5099,-245.0545 736.175,-251.8536"/>
</g>
<!-- Data_other_SPD -->
<g id="node8" class="node">
<title>Data_other_SPD</title>
<ellipse fill="none" stroke="#000000" cx="445.3628" cy="-522" rx="76.4439" ry="18"/>
<text text-anchor="middle" x="445.3628" y="-517.8" font-family="Times,serif" font-size="14.00" fill="#000000">Data_other_SPD</text>
</g>
<!-- Data_other_SPD&#45;&gt;Train_sens_AOD -->
<g id="edge8" class="edge">
<title>Data_other_SPD-&gt;Train_sens_AOD</title>
<path fill="none" stroke="#000000" d="M395.566,-508.3197C373.8643,-499.9808 349.888,-487.1399 334.3628,-468 303.7078,-430.2076 283.2897,-395.6955 316.3628,-360 337.1091,-337.6087 750.2361,-317.494 935.1738,-309.573"/>
<polygon fill="#000000" stroke="#000000" points="935.572,-313.0593 945.414,-309.1369 935.2741,-306.0656 935.572,-313.0593"/>
</g>
<!-- Data_other_SPD&#45;&gt;Data_sens_SPD -->
<g id="edge6" class="edge">
<title>Data_other_SPD-&gt;Data_sens_SPD</title>
<path fill="none" stroke="#000000" d="M442.9784,-503.6741C440.2333,-485.2019 434.9609,-456.0609 426.3628,-432 423.1096,-422.8961 418.6024,-413.3979 414.1542,-404.9515"/>
<polygon fill="#000000" stroke="#000000" points="417.0951,-403.0345 409.227,-395.9393 410.9531,-406.3925 417.0951,-403.0345"/>
</g>
<!-- Data_other_SPD&#45;&gt;Data_other_DP -->
<g id="edge7" class="edge">
<title>Data_other_SPD-&gt;Data_other_DP</title>
<path fill="none" stroke="#000000" d="M499.1756,-509.1278C551.2307,-496.6761 630.0481,-477.8228 684.6281,-464.7671"/>
<polygon fill="#000000" stroke="#000000" points="685.614,-468.1301 694.5254,-462.3996 683.9855,-461.3221 685.614,-468.1301"/>
</g>
<!-- Data_other_SPD&#45;&gt;Train_other_AOD -->
<g id="edge10" class="edge">
<title>Data_other_SPD-&gt;Train_other_AOD</title>
<path fill="none" stroke="#000000" d="M387.4929,-510.1817C346.2334,-500.4448 295.9304,-485.4365 283.3628,-468 255.2967,-429.0604 253.8025,-397.8178 283.3628,-360 300.131,-338.5477 363.6725,-324.3919 417.6962,-315.9772"/>
<polygon fill="#000000" stroke="#000000" points="418.2944,-319.4266 427.6595,-314.4723 417.2489,-312.5051 418.2944,-319.4266"/>
</g>
<!-- Train_other_SPD -->
<g id="node9" class="node">
<title>Train_other_SPD</title>
<ellipse fill="none" stroke="#000000" cx="578.3628" cy="-450" rx="79.3135" ry="18"/>
<text text-anchor="middle" x="578.3628" y="-445.8" font-family="Times,serif" font-size="14.00" fill="#000000">Train_other_SPD</text>
</g>
<!-- Data_other_SPD&#45;&gt;Train_other_SPD -->
<g id="edge9" class="edge">
<title>Data_other_SPD-&gt;Train_other_SPD</title>
<path fill="none" stroke="#000000" d="M475.8757,-505.4817C494.4974,-495.4008 518.5067,-482.4033 538.6054,-471.5228"/>
<polygon fill="#000000" stroke="#000000" points="540.4035,-474.5294 547.5313,-466.6907 537.071,-468.3735 540.4035,-474.5294"/>
</g>
<!-- Test_Cons -->
<g id="node10" class="node">
<title>Test_Cons</title>
<ellipse fill="none" stroke="#000000" cx="1226.3628" cy="-90" rx="52.1867" ry="18"/>
<text text-anchor="middle" x="1226.3628" y="-85.8" font-family="Times,serif" font-size="14.00" fill="#000000">Test_Cons</text>
</g>
<!-- Data_other_SPD&#45;&gt;Test_Cons -->
<g id="edge11" class="edge">
<title>Data_other_SPD-&gt;Test_Cons</title>
<path fill="none" stroke="#000000" d="M382.9778,-511.4458C281.4443,-492.8437 87.7801,-450.9325 48.3628,-396 20.2836,-356.8684 -11.5075,-306.044 70.3628,-216 158.5421,-119.0173 226.843,-164.1459 356.3628,-144 512.337,-119.7393 991.8339,-99.1595 1164.0033,-92.372"/>
<polygon fill="#000000" stroke="#000000" points="1164.3096,-95.8627 1174.1647,-91.9733 1164.0351,-88.8681 1164.3096,-95.8627"/>
</g>
<!-- Train_other_SPD&#45;&gt;Train_other_AOD -->
<g id="edge17" class="edge">
<title>Train_other_SPD-&gt;Train_other_AOD</title>
<path fill="none" stroke="#000000" d="M555.626,-432.7322C544.3814,-423.0754 531.5084,-410.1482 523.3628,-396 512.415,-376.9846 506.6075,-352.7604 503.5687,-334.2349"/>
<polygon fill="#000000" stroke="#000000" points="507.0307,-333.7198 502.1159,-324.3339 500.1049,-334.7361 507.0307,-333.7198"/>
</g>
<!-- Train_other_DP -->
<g id="node13" class="node">
<title>Train_other_DP</title>
<ellipse fill="none" stroke="#000000" cx="639.3628" cy="-378" rx="73.5772" ry="18"/>
<text text-anchor="middle" x="639.3628" y="-373.8" font-family="Times,serif" font-size="14.00" fill="#000000">Train_other_DP</text>
</g>
<!-- Train_other_SPD&#45;&gt;Train_other_DP -->
<g id="edge16" class="edge">
<title>Train_other_SPD-&gt;Train_other_DP</title>
<path fill="none" stroke="#000000" d="M593.4415,-432.2022C600.7733,-423.5483 609.7185,-412.99 617.7596,-403.4988"/>
<polygon fill="#000000" stroke="#000000" points="620.4525,-405.7349 624.2462,-395.8425 615.1116,-401.2099 620.4525,-405.7349"/>
</g>
<!-- Test_other_SPD -->
<g id="node17" class="node">
<title>Test_other_SPD</title>
<ellipse fill="none" stroke="#000000" cx="1779.3628" cy="-306" rx="74.7381" ry="18"/>
<text text-anchor="middle" x="1779.3628" y="-301.8" font-family="Times,serif" font-size="14.00" fill="#000000">Test_other_SPD</text>
</g>
<!-- Train_other_SPD&#45;&gt;Test_other_SPD -->
<g id="edge24" class="edge">
<title>Train_other_SPD-&gt;Test_other_SPD</title>
<path fill="none" stroke="#000000" d="M633.9956,-437.1406C644.686,-435.0904 655.8315,-433.2394 666.3628,-432 727.4184,-424.8144 1727.9233,-438.4799 1772.3628,-396 1788.5702,-380.5073 1788.8491,-354.2234 1785.9408,-334.0478"/>
<polygon fill="#000000" stroke="#000000" points="1789.378,-333.3851 1784.1969,-324.1435 1782.4841,-334.599 1789.378,-333.3851"/>
</g>
<!-- Test_Acc -->
<g id="node20" class="node">
<title>Test_Acc</title>
<ellipse fill="none" stroke="#000000" cx="2111.3628" cy="-234" rx="48.0703" ry="18"/>
<text text-anchor="middle" x="2111.3628" y="-229.8" font-family="Times,serif" font-size="14.00" fill="#000000">Test_Acc</text>
</g>
<!-- Train_other_SPD&#45;&gt;Test_Acc -->
<g id="edge52" class="edge">
<title>Train_other_SPD-&gt;Test_Acc</title>
<path fill="none" stroke="#000000" d="M633.995,-437.1355C644.6854,-435.0857 655.8311,-433.2362 666.3628,-432 915.2264,-402.7879 1550.6767,-458.3686 1793.3628,-396 1906.4842,-366.9286 2025.4352,-292.8322 2080.2946,-255.7821"/>
<polygon fill="#000000" stroke="#000000" points="2082.556,-258.4766 2088.8488,-249.953 2078.6141,-252.692 2082.556,-258.4766"/>
</g>
<!-- Train_sens_DP -->
<g id="node11" class="node">
<title>Train_sens_DP</title>
<ellipse fill="none" stroke="#000000" cx="1463.3628" cy="-306" rx="70.6451" ry="18"/>
<text text-anchor="middle" x="1463.3628" y="-301.8" font-family="Times,serif" font-size="14.00" fill="#000000">Train_sens_DP</text>
</g>
<!-- Train_sens_DP&#45;&gt;Test_sens_DP -->
<g id="edge12" class="edge">
<title>Train_sens_DP-&gt;Test_sens_DP</title>
<path fill="none" stroke="#000000" d="M1489.8503,-289.2711C1567.8606,-240.0014 1796.779,-95.4214 1884.5547,-39.9841"/>
<polygon fill="#000000" stroke="#000000" points="1886.5011,-42.8944 1893.087,-34.5952 1882.7631,-36.976 1886.5011,-42.8944"/>
</g>
<!-- Train_other_DP&#45;&gt;Train_other_AOD -->
<g id="edge15" class="edge">
<title>Train_other_DP-&gt;Train_other_AOD</title>
<path fill="none" stroke="#000000" d="M607.8216,-361.6621C588.2849,-351.5423 562.9755,-338.4325 541.8271,-327.4779"/>
<polygon fill="#000000" stroke="#000000" points="543.2332,-324.2646 532.7439,-322.7729 540.0135,-330.4802 543.2332,-324.2646"/>
</g>
<!-- Train_other_DP&#45;&gt;Test_other_DP -->
<g id="edge21" class="edge">
<title>Train_other_DP-&gt;Test_other_DP</title>
<path fill="none" stroke="#000000" d="M639.1095,-359.7623C638.7684,-335.201 638.1579,-291.2474 637.7566,-262.3541"/>
<polygon fill="#000000" stroke="#000000" points="641.2527,-262.04 637.6141,-252.0896 634.2534,-262.1373 641.2527,-262.04"/>
</g>
<!-- Train_other_DP&#45;&gt;Test_other_SPD -->
<g id="edge23" class="edge">
<title>Train_other_DP-&gt;Test_other_SPD</title>
<path fill="none" stroke="#000000" d="M705.0253,-369.6043C733.6516,-366.1932 767.6263,-362.4798 798.3628,-360 1128.7866,-333.3413 1212.5065,-344.6072 1543.3628,-324 1594.9311,-320.7881 1652.7767,-316.3889 1698.2922,-312.7436"/>
<polygon fill="#000000" stroke="#000000" points="1698.7126,-316.2212 1708.3996,-311.9303 1698.1511,-309.2437 1698.7126,-316.2212"/>
</g>
<!-- Train_other_DP&#45;&gt;MI_BlackBox -->
<g id="edge72" class="edge">
<title>Train_other_DP-&gt;MI_BlackBox</title>
<path fill="none" stroke="#000000" d="M655.6454,-360.1369C672.8805,-341.5229 701.1602,-311.8056 727.3628,-288 738.8411,-277.5718 752.0269,-266.7219 763.6482,-257.5069"/>
<polygon fill="#000000" stroke="#000000" points="766.0841,-260.0443 771.7871,-251.1153 761.7607,-254.539 766.0841,-260.0443"/>
</g>
<!-- Test_sens_SPD -->
<g id="node14" class="node">
<title>Test_sens_SPD</title>
<ellipse fill="none" stroke="#000000" cx="2419.3628" cy="-162" rx="71.8066" ry="18"/>
<text text-anchor="middle" x="2419.3628" y="-157.8" font-family="Times,serif" font-size="14.00" fill="#000000">Test_sens_SPD</text>
</g>
<!-- Test_sens_SPD&#45;&gt;Test_sens_AOD -->
<g id="edge18" class="edge">
<title>Test_sens_SPD-&gt;Test_sens_AOD</title>
<path fill="none" stroke="#000000" d="M2364.8624,-150.0937C2354.4271,-147.9556 2343.5732,-145.8285 2333.3628,-144 2234.9447,-126.3753 2120.7516,-110.0159 2047.3567,-100.0248"/>
<polygon fill="#000000" stroke="#000000" points="2047.6567,-96.5335 2037.2771,-98.6578 2046.7159,-103.47 2047.6567,-96.5335"/>
</g>
<!-- Test_sens_AOD&#45;&gt;Test_sens_DP -->
<g id="edge20" class="edge">
<title>Test_sens_AOD-&gt;Test_sens_DP</title>
<path fill="none" stroke="#000000" d="M1958.5089,-72.2022C1952.3838,-63.7214 1944.9378,-53.4115 1938.1908,-44.0696"/>
<polygon fill="#000000" stroke="#000000" points="1940.9414,-41.9001 1932.2491,-35.8425 1935.2667,-45.9986 1940.9414,-41.9001"/>
</g>
<!-- Test_other_SPD&#45;&gt;Test_Cons -->
<g id="edge27" class="edge">
<title>Test_other_SPD-&gt;Test_Cons</title>
<path fill="none" stroke="#000000" d="M1706.6283,-301.5909C1563.162,-291.2164 1251.9931,-259.8337 1187.3628,-180 1171.7057,-160.6598 1186.6295,-134.0751 1202.3243,-114.8177"/>
<polygon fill="#000000" stroke="#000000" points="1205.136,-116.9164 1209.0109,-107.0555 1199.8325,-112.3477 1205.136,-116.9164"/>
</g>
<!-- Test_other_AOD -->
<g id="node18" class="node">
<title>Test_other_AOD</title>
<ellipse fill="none" stroke="#000000" cx="2103.3628" cy="-162" rx="78.1501" ry="18"/>
<text text-anchor="middle" x="2103.3628" y="-157.8" font-family="Times,serif" font-size="14.00" fill="#000000">Test_other_AOD</text>
</g>
<!-- Test_other_SPD&#45;&gt;Test_other_AOD -->
<g id="edge25" class="edge">
<title>Test_other_SPD-&gt;Test_other_AOD</title>
<path fill="none" stroke="#000000" d="M1815.2744,-290.0393C1874.6345,-263.657 1993.1034,-211.0042 2058.1018,-182.116"/>
<polygon fill="#000000" stroke="#000000" points="2059.5737,-185.292 2067.2904,-178.0322 2056.7307,-178.8953 2059.5737,-185.292"/>
</g>
<!-- Test_other_SPD&#45;&gt;Test_Acc -->
<g id="edge28" class="edge">
<title>Test_other_SPD-&gt;Test_Acc</title>
<path fill="none" stroke="#000000" d="M1835.3067,-293.8676C1897.9761,-280.2766 1998.7343,-258.4255 2059.6321,-245.2187"/>
<polygon fill="#000000" stroke="#000000" points="2060.3876,-248.6363 2069.4186,-243.0963 2058.904,-241.7953 2060.3876,-248.6363"/>
</g>
<!-- Train_Cons -->
<g id="node19" class="node">
<title>Train_Cons</title>
<ellipse fill="none" stroke="#000000" cx="1706.3628" cy="-378" rx="56.7619" ry="18"/>
<text text-anchor="middle" x="1706.3628" y="-373.8" font-family="Times,serif" font-size="14.00" fill="#000000">Train_Cons</text>
</g>
<!-- Train_Cons&#45;&gt;Test_other_SPD -->
<g id="edge26" class="edge">
<title>Train_Cons-&gt;Test_other_SPD</title>
<path fill="none" stroke="#000000" d="M1724.0341,-360.5708C1733.1129,-351.6164 1744.3319,-340.551 1754.2892,-330.7302"/>
<polygon fill="#000000" stroke="#000000" points="1756.9393,-333.0323 1761.6013,-323.5182 1752.0238,-328.0485 1756.9393,-333.0323"/>
</g>
<!-- Test_Loss -->
<g id="node21" class="node">
<title>Test_Loss</title>
<ellipse fill="none" stroke="#000000" cx="1880.3628" cy="-162" rx="50.9599" ry="18"/>
<text text-anchor="middle" x="1880.3628" y="-157.8" font-family="Times,serif" font-size="14.00" fill="#000000">Test_Loss</text>
</g>
<!-- Train_Cons&#45;&gt;Test_Loss -->
<g id="edge29" class="edge">
<title>Train_Cons-&gt;Test_Loss</title>
<path fill="none" stroke="#000000" d="M1698.3135,-359.9773C1691.1074,-340.9668 1683.368,-310.682 1695.3628,-288 1724.4728,-232.9533 1789.6248,-197.4513 1834.2926,-178.5939"/>
<polygon fill="#000000" stroke="#000000" points="1835.8451,-181.7402 1843.7719,-174.7105 1833.1915,-175.2627 1835.8451,-181.7402"/>
</g>
<!-- Test_Acc&#45;&gt;Test_sens_AOD -->
<g id="edge53" class="edge">
<title>Test_Acc-&gt;Test_sens_AOD</title>
<path fill="none" stroke="#000000" d="M2077.7629,-220.8485C2057.9378,-211.7523 2033.4623,-198.0348 2016.3628,-180 1999.4744,-162.1878 1987.5686,-136.8163 1980.2635,-117.5492"/>
<polygon fill="#000000" stroke="#000000" points="1983.5427,-116.3247 1976.8608,-108.1026 1976.9569,-118.697 1983.5427,-116.3247"/>
</g>
<!-- Test_Acc&#45;&gt;Test_other_AOD -->
<g id="edge54" class="edge">
<title>Test_Acc-&gt;Test_other_AOD</title>
<path fill="none" stroke="#000000" d="M2109.3441,-215.8314C2108.4885,-208.131 2107.4711,-198.9743 2106.5202,-190.4166"/>
<polygon fill="#000000" stroke="#000000" points="2109.9917,-189.9656 2105.4087,-180.4133 2103.0345,-190.7386 2109.9917,-189.9656"/>
</g>
<!-- Test_Acc&#45;&gt;Test_Loss -->
<g id="edge59" class="edge">
<title>Test_Acc-&gt;Test_Loss</title>
<path fill="none" stroke="#000000" d="M2074.2487,-222.432C2034.6117,-210.0776 1971.6548,-190.4546 1928.2939,-176.9396"/>
<polygon fill="#000000" stroke="#000000" points="1929.1266,-173.5331 1918.5381,-173.8988 1927.0436,-180.216 1929.1266,-173.5331"/>
</g>
<!-- Test_F1 -->
<g id="node25" class="node">
<title>Test_F1</title>
<ellipse fill="none" stroke="#000000" cx="2551.3628" cy="-162" rx="42.8751" ry="18"/>
<text text-anchor="middle" x="2551.3628" y="-157.8" font-family="Times,serif" font-size="14.00" fill="#000000">Test_F1</text>
</g>
<!-- Test_Acc&#45;&gt;Test_F1 -->
<g id="edge60" class="edge">
<title>Test_Acc-&gt;Test_F1</title>
<path fill="none" stroke="#000000" d="M2157.4531,-228.7828C2245.8406,-218.5828 2436.0999,-195.6319 2500.3628,-180 2503.556,-179.2233 2506.8294,-178.3225 2510.1013,-177.346"/>
<polygon fill="#000000" stroke="#000000" points="2511.37,-180.615 2519.831,-174.2383 2509.2402,-173.9469 2511.37,-180.615"/>
</g>
<!-- Test_Acc&#45;&gt;AE_FGSM -->
<g id="edge61" class="edge">
<title>Test_Acc-&gt;AE_FGSM</title>
<path fill="none" stroke="#000000" d="M2063.2169,-231.9075C1926.1536,-225.795 1522.1429,-206.6975 1187.3628,-180 1148.9215,-176.9344 1105.8996,-172.6086 1071.782,-168.9659"/>
<polygon fill="#000000" stroke="#000000" points="1071.8115,-165.449 1061.4945,-167.8596 1071.0629,-172.4089 1071.8115,-165.449"/>
</g>
<!-- MI_Rule -->
<g id="node31" class="node">
<title>MI_Rule</title>
<ellipse fill="none" stroke="#000000" cx="2245.3628" cy="-162" rx="45.806" ry="18"/>
<text text-anchor="middle" x="2245.3628" y="-157.8" font-family="Times,serif" font-size="14.00" fill="#000000">MI_Rule</text>
</g>
<!-- Test_Acc&#45;&gt;MI_Rule -->
<g id="edge45" class="edge">
<title>Test_Acc-&gt;MI_Rule</title>
<path fill="none" stroke="#000000" d="M2139.1277,-219.0816C2159.3849,-208.1971 2187.0302,-193.3429 2209.0415,-181.5159"/>
<polygon fill="#000000" stroke="#000000" points="2210.9397,-184.4693 2218.092,-176.653 2207.6264,-178.3031 2210.9397,-184.4693"/>
</g>
<!-- Test_Loss&#45;&gt;Test_sens_DP -->
<g id="edge62" class="edge">
<title>Test_Loss-&gt;Test_sens_DP</title>
<path fill="none" stroke="#000000" d="M1879.3962,-143.9559C1878.9475,-125.4525 1879.7548,-96.0579 1887.3628,-72 1890.355,-62.5383 1895.2674,-52.9752 1900.3555,-44.5801"/>
<polygon fill="#000000" stroke="#000000" points="1903.4126,-46.2965 1905.8629,-35.9889 1897.5195,-42.5187 1903.4126,-46.2965"/>
</g>
<!-- Train_CDS -->
<g id="node22" class="node">
<title>Train_CDS</title>
<ellipse fill="none" stroke="#000000" cx="2553.3628" cy="-378" rx="55.6159" ry="18"/>
<text text-anchor="middle" x="2553.3628" y="-373.8" font-family="Times,serif" font-size="14.00" fill="#000000">Train_CDS</text>
</g>
<!-- Train_CDS&#45;&gt;Test_sens_AOD -->
<g id="edge30" class="edge">
<title>Train_CDS-&gt;Test_sens_AOD</title>
<path fill="none" stroke="#000000" d="M2574.2802,-361.2272C2584.8387,-351.5284 2596.7755,-338.4087 2603.3628,-324 2636.6257,-251.243 2660.6458,-199.845 2603.3628,-144 2564.987,-106.5875 2219.5052,-94.8484 2056.1841,-91.371"/>
<polygon fill="#000000" stroke="#000000" points="2056.2402,-87.8715 2046.1697,-91.1633 2056.095,-94.87 2056.2402,-87.8715"/>
</g>
<!-- Train_CDS&#45;&gt;Test_Loss -->
<g id="edge33" class="edge">
<title>Train_CDS-&gt;Test_Loss</title>
<path fill="none" stroke="#000000" d="M2551.8842,-359.997C2549.1533,-339.2189 2541.3921,-305.6497 2519.3628,-288 2430.7256,-216.9845 2376.5014,-279.7355 2266.3628,-252 2221.3663,-240.6688 2213.0992,-228.3184 2168.3628,-216 2089.7073,-194.3418 1996.5768,-178.6274 1937.9744,-169.9094"/>
<polygon fill="#000000" stroke="#000000" points="1938.2054,-166.4058 1927.8028,-168.415 1937.1878,-173.3315 1938.2054,-166.4058"/>
</g>
<!-- Train_TI -->
<g id="node23" class="node">
<title>Train_TI</title>
<ellipse fill="none" stroke="#000000" cx="2464.3628" cy="-306" rx="45.7848" ry="18"/>
<text text-anchor="middle" x="2464.3628" y="-301.8" font-family="Times,serif" font-size="14.00" fill="#000000">Train_TI</text>
</g>
<!-- Train_CDS&#45;&gt;Train_TI -->
<g id="edge31" class="edge">
<title>Train_CDS-&gt;Train_TI</title>
<path fill="none" stroke="#000000" d="M2532.2711,-360.937C2520.38,-351.3173 2505.3716,-339.1756 2492.4901,-328.7547"/>
<polygon fill="#000000" stroke="#000000" points="2494.3622,-325.7673 2484.3864,-322.1989 2489.9596,-331.2094 2494.3622,-325.7673"/>
</g>
<!-- Test_CDS -->
<g id="node24" class="node">
<title>Test_CDS</title>
<ellipse fill="none" stroke="#000000" cx="1209.3628" cy="-306" rx="51.0415" ry="18"/>
<text text-anchor="middle" x="1209.3628" y="-301.8" font-family="Times,serif" font-size="14.00" fill="#000000">Test_CDS</text>
</g>
<!-- Train_CDS&#45;&gt;Test_CDS -->
<g id="edge32" class="edge">
<title>Train_CDS-&gt;Test_CDS</title>
<path fill="none" stroke="#000000" d="M2498.3008,-375.3608C2424.3854,-371.8249 2288.984,-365.3728 2173.3628,-360 1822.2662,-343.6849 1733.8683,-350.0941 1383.3628,-324 1344.9378,-321.1394 1301.8614,-316.693 1268.1822,-312.9353"/>
<polygon fill="#000000" stroke="#000000" points="1268.3762,-309.4351 1258.0473,-311.7938 1267.5927,-316.3911 1268.3762,-309.4351"/>
</g>
<!-- Train_CDS&#45;&gt;Test_F1 -->
<g id="edge34" class="edge">
<title>Train_CDS-&gt;Test_F1</title>
<path fill="none" stroke="#000000" d="M2564.8412,-360.1938C2582.7708,-330.0345 2613.577,-267.1886 2595.3628,-216 2591.4519,-205.009 2584.2405,-194.6334 2576.7713,-185.9702"/>
<polygon fill="#000000" stroke="#000000" points="2579.2719,-183.5187 2569.9267,-178.527 2574.1193,-188.257 2579.2719,-183.5187"/>
</g>
<!-- Test_TI -->
<g id="node26" class="node">
<title>Test_TI</title>
<ellipse fill="none" stroke="#000000" cx="2465.3628" cy="-234" rx="41.7095" ry="18"/>
<text text-anchor="middle" x="2465.3628" y="-229.8" font-family="Times,serif" font-size="14.00" fill="#000000">Test_TI</text>
</g>
<!-- Train_CDS&#45;&gt;Test_TI -->
<g id="edge38" class="edge">
<title>Train_CDS-&gt;Test_TI</title>
<path fill="none" stroke="#000000" d="M2558.0139,-359.7821C2561.8541,-340.6087 2564.8681,-310.1891 2552.3628,-288 2542.5683,-270.6207 2524.6432,-258.1016 2507.5978,-249.5213"/>
<polygon fill="#000000" stroke="#000000" points="2508.8162,-246.2271 2498.2759,-245.1538 2505.8464,-252.5659 2508.8162,-246.2271"/>
</g>
<!-- Train_TI&#45;&gt;Test_Acc -->
<g id="edge55" class="edge">
<title>Train_TI-&gt;Test_Acc</title>
<path fill="none" stroke="#000000" d="M2423.3132,-297.9316C2370.5299,-287.5174 2276.0492,-268.7429 2195.3628,-252 2184.9602,-249.8414 2173.8429,-247.4904 2163.2141,-245.2212"/>
<polygon fill="#000000" stroke="#000000" points="2163.7237,-241.7511 2153.2125,-243.0796 2162.258,-248.5959 2163.7237,-241.7511"/>
</g>
<!-- Train_TI&#45;&gt;Test_TI -->
<g id="edge37" class="edge">
<title>Train_TI-&gt;Test_TI</title>
<path fill="none" stroke="#000000" d="M2464.6152,-287.8314C2464.7221,-280.131 2464.8493,-270.9743 2464.9681,-262.4166"/>
<polygon fill="#000000" stroke="#000000" points="2468.4678,-262.4609 2465.1071,-252.4133 2461.4684,-262.3637 2468.4678,-262.4609"/>
</g>
<!-- Test_CDS&#45;&gt;Test_Cons -->
<g id="edge41" class="edge">
<title>Test_CDS-&gt;Test_Cons</title>
<path fill="none" stroke="#000000" d="M1220.2574,-288.0403C1233.9529,-264.3112 1256.7161,-220.7451 1265.3628,-180 1268.6843,-164.3486 1270.2855,-159.2239 1265.3628,-144 1262.0539,-133.7668 1256.0021,-123.8421 1249.6371,-115.3523"/>
<polygon fill="#000000" stroke="#000000" points="1252.2392,-113.0022 1243.2576,-107.3825 1246.7743,-117.3766 1252.2392,-113.0022"/>
</g>
<!-- Test_TI&#45;&gt;Test_sens_SPD -->
<g id="edge35" class="edge">
<title>Test_TI-&gt;Test_sens_SPD</title>
<path fill="none" stroke="#000000" d="M2454.2275,-216.5708C2448.8676,-208.1815 2442.324,-197.9392 2436.3595,-188.6035"/>
<polygon fill="#000000" stroke="#000000" points="2439.2094,-186.5632 2430.876,-180.0206 2433.3105,-190.3319 2439.2094,-186.5632"/>
</g>
<!-- Test_TI&#45;&gt;Test_other_AOD -->
<g id="edge36" class="edge">
<title>Test_TI-&gt;Test_other_AOD</title>
<path fill="none" stroke="#000000" d="M2427.0791,-226.6094C2373.9276,-216.3196 2274.783,-197.0212 2190.3628,-180 2184.211,-178.7596 2177.8169,-177.4589 2171.4131,-176.1482"/>
<polygon fill="#000000" stroke="#000000" points="2171.8749,-172.6701 2161.3753,-174.0877 2170.4673,-179.5271 2171.8749,-172.6701"/>
</g>
<!-- Test_TI&#45;&gt;Test_F1 -->
<g id="edge40" class="edge">
<title>Test_TI-&gt;Test_F1</title>
<path fill="none" stroke="#000000" d="M2484.8776,-217.6621C2496.423,-207.9961 2511.2268,-195.6022 2523.9334,-184.9641"/>
<polygon fill="#000000" stroke="#000000" points="2526.5045,-187.3763 2531.9253,-178.2733 2522.0109,-182.009 2526.5045,-187.3763"/>
</g>
<!-- Train_F1&#45;&gt;Train_other_AOD -->
<g id="edge47" class="edge">
<title>Train_F1-&gt;Train_other_AOD</title>
<path fill="none" stroke="#000000" d="M1949.2734,-373.764C1904.205,-369.7437 1833.6159,-363.7709 1772.3628,-360 1713.6602,-356.3861 873.0871,-321.4452 591.5156,-309.7742"/>
<polygon fill="#000000" stroke="#000000" points="591.4717,-306.2694 581.3353,-309.3522 591.1818,-313.2634 591.4717,-306.2694"/>
</g>
<!-- Train_F1&#45;&gt;Test_sens_AOD -->
<g id="edge48" class="edge">
<title>Train_F1-&gt;Test_sens_AOD</title>
<path fill="none" stroke="#000000" d="M1993.8615,-359.9843C1989.804,-311.2939 1978.5958,-176.7961 1973.7009,-118.0573"/>
<polygon fill="#000000" stroke="#000000" points="1977.182,-117.6836 1972.8636,-108.0089 1970.2062,-118.265 1977.182,-117.6836"/>
</g>
<!-- Train_F1&#45;&gt;Test_Acc -->
<g id="edge58" class="edge">
<title>Train_F1-&gt;Test_Acc</title>
<path fill="none" stroke="#000000" d="M2013.3096,-361.1775C2023.9514,-350.8535 2037.4482,-337.1336 2048.3628,-324 2065.4388,-303.4526 2082.6901,-278.4449 2094.8122,-260.0101"/>
<polygon fill="#000000" stroke="#000000" points="2097.8057,-261.8269 2100.3277,-251.5366 2091.939,-258.0082 2097.8057,-261.8269"/>
</g>
<!-- Train_F1&#45;&gt;Test_Loss -->
<g id="edge50" class="edge">
<title>Train_F1-&gt;Test_Loss</title>
<path fill="none" stroke="#000000" d="M1985.9519,-360.3238C1965.8193,-322.5096 1918.4673,-233.5702 1894.618,-188.7749"/>
<polygon fill="#000000" stroke="#000000" points="1897.6928,-187.1025 1889.9038,-179.9204 1891.5139,-190.3922 1897.6928,-187.1025"/>
</g>
<!-- Train_F1&#45;&gt;Train_TI -->
<g id="edge49" class="edge">
<title>Train_F1-&gt;Train_TI</title>
<path fill="none" stroke="#000000" d="M2029.7111,-365.7127C2036.7982,-363.5313 2044.266,-361.4853 2051.3628,-360 2205.721,-327.6939 2249.6964,-354.7964 2404.3628,-324 2409.3675,-323.0035 2414.5532,-321.7676 2419.6855,-320.4135"/>
<polygon fill="#000000" stroke="#000000" points="2420.736,-323.7542 2429.4278,-317.6958 2418.855,-317.0116 2420.736,-323.7542"/>
</g>
<!-- Train_F1&#45;&gt;Test_F1 -->
<g id="edge51" class="edge">
<title>Train_F1-&gt;Test_F1</title>
<path fill="none" stroke="#000000" d="M2030.3693,-365.7923C2037.272,-363.657 2044.5024,-361.6081 2051.3628,-360 2155.9484,-335.4843 2192.8571,-369.0754 2290.3628,-324 2323.5319,-308.6664 2383.1339,-234.9753 2414.3628,-216 2430.7188,-206.0618 2474.8035,-189.2778 2508.5884,-177.0548"/>
<polygon fill="#000000" stroke="#000000" points="2510.0294,-180.2561 2518.2557,-173.5794 2507.6612,-173.6689 2510.0294,-180.2561"/>
</g>
<!-- Train_F1&#45;&gt;Test_TI -->
<g id="edge39" class="edge">
<title>Train_F1-&gt;Test_TI</title>
<path fill="none" stroke="#000000" d="M2030.0251,-365.6879C2037.0216,-363.5356 2044.375,-361.5069 2051.3628,-360 2189.1077,-330.2956 2238.0339,-382.2038 2366.3628,-324 2375.1713,-320.0049 2414.4251,-283.1109 2440.7789,-257.8184"/>
<polygon fill="#000000" stroke="#000000" points="2443.3864,-260.1666 2448.1645,-250.7103 2438.5323,-255.123 2443.3864,-260.1666"/>
</g>
<!-- Train_Acc -->
<g id="node28" class="node">
<title>Train_Acc</title>
<ellipse fill="none" stroke="#000000" cx="2112.3628" cy="-378" rx="52.1463" ry="18"/>
<text text-anchor="middle" x="2112.3628" y="-373.8" font-family="Times,serif" font-size="14.00" fill="#000000">Train_Acc</text>
</g>
<!-- Train_Acc&#45;&gt;Test_Acc -->
<g id="edge56" class="edge">
<title>Train_Acc-&gt;Test_Acc</title>
<path fill="none" stroke="#000000" d="M2155.9385,-367.8274C2179.0699,-359.971 2205.5117,-346.5053 2219.3628,-324 2227.7491,-310.3739 2227.7745,-301.6104 2219.3628,-288 2206.795,-267.6649 2183.9939,-254.7314 2162.5701,-246.6403"/>
<polygon fill="#000000" stroke="#000000" points="2163.4602,-243.244 2152.8654,-243.2544 2161.1542,-249.8533 2163.4602,-243.244"/>
</g>
<!-- Train_Loss -->
<g id="node29" class="node">
<title>Train_Loss</title>
<ellipse fill="none" stroke="#000000" cx="2155.3628" cy="-306" rx="55.0343" ry="18"/>
<text text-anchor="middle" x="2155.3628" y="-301.8" font-family="Times,serif" font-size="14.00" fill="#000000">Train_Loss</text>
</g>
<!-- Train_Acc&#45;&gt;Train_Loss -->
<g id="edge42" class="edge">
<title>Train_Acc-&gt;Train_Loss</title>
<path fill="none" stroke="#000000" d="M2122.992,-360.2022C2127.9536,-351.8944 2133.9634,-341.8316 2139.4512,-332.6427"/>
<polygon fill="#000000" stroke="#000000" points="2142.5843,-334.2226 2144.7069,-323.8425 2136.5745,-330.6334 2142.5843,-334.2226"/>
</g>
<!-- Train_Acc&#45;&gt;AE_FGSM -->
<g id="edge43" class="edge">
<title>Train_Acc-&gt;AE_FGSM</title>
<path fill="none" stroke="#000000" d="M2079.5951,-363.7573C2032.5965,-343.886 1942.9293,-308.0338 1863.3628,-288 1711.8599,-249.8536 1240.6928,-190.2686 1071.0298,-169.4666"/>
<polygon fill="#000000" stroke="#000000" points="1071.3659,-165.9817 1061.0147,-168.2408 1070.5154,-172.9298 1071.3659,-165.9817"/>
</g>
<!-- Train_Acc&#45;&gt;MI_Rule -->
<g id="edge44" class="edge">
<title>Train_Acc-&gt;MI_Rule</title>
<path fill="none" stroke="#000000" d="M2151.4482,-365.9707C2183.8167,-355.1541 2226.1052,-338.7457 2236.3628,-324 2264.0603,-284.1838 2258.5703,-224.64 2252.0068,-189.9194"/>
<polygon fill="#000000" stroke="#000000" points="2255.4083,-189.0834 2249.9709,-179.9903 2248.5509,-190.4895 2255.4083,-189.0834"/>
</g>
<!-- Train_Loss&#45;&gt;Test_Acc -->
<g id="edge57" class="edge">
<title>Train_Loss-&gt;Test_Acc</title>
<path fill="none" stroke="#000000" d="M2144.4864,-288.2022C2139.318,-279.7448 2133.038,-269.4685 2127.3415,-260.147"/>
<polygon fill="#000000" stroke="#000000" points="2130.3152,-258.3008 2122.1141,-251.593 2124.3422,-261.951 2130.3152,-258.3008"/>
</g>
<!-- Train_Loss&#45;&gt;Test_Loss -->
<g id="edge63" class="edge">
<title>Train_Loss-&gt;Test_Loss</title>
<path fill="none" stroke="#000000" d="M2126.1934,-290.7258C2076.0153,-264.4507 1973.4193,-210.7277 1917.9547,-181.6845"/>
<polygon fill="#000000" stroke="#000000" points="1919.3037,-178.4401 1908.8212,-176.9018 1916.0565,-184.6414 1919.3037,-178.4401"/>
</g>
<!-- AE_FGSM&#45;&gt;Test_Cons -->
<g id="edge66" class="edge">
<title>AE_FGSM-&gt;Test_Cons</title>
<path fill="none" stroke="#000000" d="M1048.1581,-149.1278C1084.7952,-136.9717 1139.8208,-118.7144 1179.0248,-105.7066"/>
<polygon fill="#000000" stroke="#000000" points="1180.2412,-108.9907 1188.6302,-102.5196 1178.0367,-102.3469 1180.2412,-108.9907"/>
</g>
<!-- AE_FGSM&#45;&gt;AE_PGD -->
<g id="edge67" class="edge">
<title>AE_FGSM-&gt;AE_PGD</title>
<path fill="none" stroke="#000000" d="M960.772,-153.529C882.9661,-139.9647 730.9726,-113.4671 650.0548,-99.3603"/>
<polygon fill="#000000" stroke="#000000" points="650.5262,-95.8898 640.0737,-97.6203 649.324,-102.7858 650.5262,-95.8898"/>
</g>
<!-- Model_Width -->
<g id="node34" class="node">
<title>Model_Width</title>
<ellipse fill="none" stroke="#000000" cx="1378.3628" cy="-450" rx="65.4324" ry="18"/>
<text text-anchor="middle" x="1378.3628" y="-445.8" font-family="Times,serif" font-size="14.00" fill="#000000">Model_Width</text>
</g>
<!-- Model_Width&#45;&gt;Test_Cons -->
<g id="edge74" class="edge">
<title>Model_Width-&gt;Test_Cons</title>
<path fill="none" stroke="#000000" d="M1367.7175,-432.172C1361.5858,-421.7294 1353.8358,-408.2294 1347.3628,-396 1330.718,-364.5528 1323.3594,-357.8386 1312.3628,-324 1287.2501,-246.7237 1317.9326,-216.0471 1280.3628,-144 1274.3762,-132.5196 1265.099,-121.94 1255.9129,-113.2446"/>
<polygon fill="#000000" stroke="#000000" points="1258.0722,-110.4797 1248.2922,-106.4052 1253.3967,-115.6893 1258.0722,-110.4797"/>
</g>
<!-- Model_Width&#45;&gt;Train_Acc -->
<g id="edge75" class="edge">
<title>Model_Width-&gt;Train_Acc</title>
<path fill="none" stroke="#000000" d="M1442.4389,-446.555C1587.1439,-438.4997 1935.6108,-417.4825 2051.3628,-396 2055.7562,-395.1846 2060.285,-394.1772 2064.7965,-393.0589"/>
<polygon fill="#000000" stroke="#000000" points="2065.8163,-396.4095 2074.5862,-390.4649 2064.0233,-389.643 2065.8163,-396.4095"/>
</g>
<!-- LTDD -->
<g id="node35" class="node">
<title>LTDD</title>
<ellipse fill="none" stroke="#000000" cx="380.3628" cy="-450" rx="36.5575" ry="18"/>
<text text-anchor="middle" x="380.3628" y="-445.8" font-family="Times,serif" font-size="14.00" fill="#000000">LTDD</text>
</g>
<!-- LTDD&#45;&gt;Data_Cons -->
<g id="edge76" class="edge">
<title>LTDD-&gt;Data_Cons</title>
<path fill="none" stroke="#000000" d="M415.5106,-444.0863C437.0933,-440.4953 465.3103,-435.8727 490.3628,-432 600.024,-415.0483 728.1602,-396.7264 801.5321,-386.377"/>
<polygon fill="#000000" stroke="#000000" points="802.1003,-389.8316 811.5142,-384.9705 801.1236,-382.9001 802.1003,-389.8316"/>
</g>
<!-- LTDD&#45;&gt;Data_sens_DP -->
<g id="edge77" class="edge">
<title>LTDD-&gt;Data_sens_DP</title>
<path fill="none" stroke="#000000" d="M348.3251,-440.9541C306.6907,-429.1985 233.2795,-408.4706 182.1125,-394.0234"/>
<polygon fill="#000000" stroke="#000000" points="182.7666,-390.5713 172.1917,-391.2223 180.8644,-397.308 182.7666,-390.5713"/>
</g>
<!-- LTDD&#45;&gt;Data_sens_SPD -->
<g id="edge78" class="edge">
<title>LTDD-&gt;Data_sens_SPD</title>
<path fill="none" stroke="#000000" d="M384.905,-431.8314C386.8512,-424.0463 389.1696,-414.7729 391.3291,-406.1347"/>
<polygon fill="#000000" stroke="#000000" points="394.7296,-406.9636 393.7595,-396.4133 387.9386,-405.2658 394.7296,-406.9636"/>
</g>
<!-- LTDD&#45;&gt;Test_Cons -->
<g id="edge80" class="edge">
<title>LTDD-&gt;Test_Cons</title>
<path fill="none" stroke="#000000" d="M356.4571,-436.1275C321.194,-413.6644 259.3628,-365.757 259.3628,-306 259.3628,-306 259.3628,-306 259.3628,-234 259.3628,-142.151 950.6876,-102.6757 1164.2687,-92.6717"/>
<polygon fill="#000000" stroke="#000000" points="1164.5453,-96.1627 1174.3727,-92.2038 1164.2215,-89.1702 1164.5453,-96.1627"/>
</g>
<!-- LTDD&#45;&gt;Train_Cons -->
<g id="edge79" class="edge">
<title>LTDD-&gt;Train_Cons</title>
<path fill="none" stroke="#000000" d="M414.8906,-443.1584C436.4876,-439.1759 464.9387,-434.4674 490.3628,-432 999.333,-382.6047 1134.65,-471.7965 1640.3628,-396 1645.4446,-395.2383 1650.6939,-394.22 1655.9089,-393.0535"/>
<polygon fill="#000000" stroke="#000000" points="1656.9425,-396.4046 1665.8422,-390.6561 1655.3002,-389.6 1656.9425,-396.4046"/>
</g>
<!-- FairMask -->
<g id="node36" class="node">
<title>FairMask</title>
<ellipse fill="none" stroke="#000000" cx="1133.3628" cy="-378" rx="48.0897" ry="18"/>
<text text-anchor="middle" x="1133.3628" y="-373.8" font-family="Times,serif" font-size="14.00" fill="#000000">FairMask</text>
</g>
<!-- FairMask&#45;&gt;Train_sens_AOD -->
<g id="edge81" class="edge">
<title>FairMask-&gt;Train_sens_AOD</title>
<path fill="none" stroke="#000000" d="M1109.4945,-362.3771C1094.4282,-352.5155 1074.7149,-339.6122 1057.9502,-328.639"/>
<polygon fill="#000000" stroke="#000000" points="1059.7762,-325.6511 1049.4923,-323.1029 1055.9425,-331.508 1059.7762,-325.6511"/>
</g>
<!-- FairMask&#45;&gt;Test_Cons -->
<g id="edge82" class="edge">
<title>FairMask-&gt;Test_Cons</title>
<path fill="none" stroke="#000000" d="M1133.3054,-359.9008C1133.8736,-319.1081 1139.2334,-217.7963 1176.3628,-144 1181.9146,-132.9655 1190.4043,-122.5638 1198.821,-113.8908"/>
<polygon fill="#000000" stroke="#000000" points="1201.4261,-116.2384 1206.123,-106.7415 1196.5289,-111.2366 1201.4261,-116.2384"/>
</g>
<!-- FairMask&#45;&gt;Test_CDS -->
<g id="edge83" class="edge">
<title>FairMask-&gt;Test_CDS</title>
<path fill="none" stroke="#000000" d="M1151.3738,-360.937C1161.1226,-351.7013 1173.3251,-340.141 1184.0183,-330.0106"/>
<polygon fill="#000000" stroke="#000000" points="1186.6287,-332.3588 1191.4812,-322.9405 1181.8145,-327.2771 1186.6287,-332.3588"/>
</g>
<!-- Fairway -->
<g id="node37" class="node">
<title>Fairway</title>
<ellipse fill="none" stroke="#000000" cx="926.3628" cy="-450" rx="42.8538" ry="18"/>
<text text-anchor="middle" x="926.3628" y="-445.8" font-family="Times,serif" font-size="14.00" fill="#000000">Fairway</text>
</g>
<!-- Fairway&#45;&gt;Data_Cons -->
<g id="edge84" class="edge">
<title>Fairway-&gt;Data_Cons</title>
<path fill="none" stroke="#000000" d="M910.9587,-432.937C902.9013,-424.0119 892.8841,-412.9159 883.966,-403.0373"/>
<polygon fill="#000000" stroke="#000000" points="886.4069,-400.518 877.1079,-395.4407 881.211,-405.2088 886.4069,-400.518"/>
</g>
<!-- Fairway&#45;&gt;Data_sens_SPD -->
<g id="edge85" class="edge">
<title>Fairway-&gt;Data_sens_SPD</title>
<path fill="none" stroke="#000000" d="M887.5004,-442.5143C869.0186,-439.0802 846.5901,-435.0943 826.3628,-432 760.3575,-421.9028 578.6546,-399.6732 474.4512,-387.1111"/>
<polygon fill="#000000" stroke="#000000" points="474.6532,-383.6102 464.3064,-385.8891 473.816,-390.56 474.6532,-383.6102"/>
</g>
<!-- Fairway&#45;&gt;Test_CDS -->
<g id="edge86" class="edge">
<title>Fairway-&gt;Test_CDS</title>
<path fill="none" stroke="#000000" d="M968.6666,-446.9051C1035.1315,-441.1594 1159.6261,-426.5439 1190.3628,-396 1206.3979,-380.0655 1210.509,-354.2342 1210.9801,-334.3236"/>
<polygon fill="#000000" stroke="#000000" points="1214.4798,-334.2361 1210.9295,-324.2539 1207.4799,-334.2714 1214.4798,-334.2361"/>
</g>
<!-- Fairway&#45;&gt;Train_F1 -->
<g id="edge87" class="edge">
<title>Fairway-&gt;Train_F1</title>
<path fill="none" stroke="#000000" d="M967.7721,-445.1915C1004.2188,-441.1189 1058.7481,-435.4131 1106.3628,-432 1473.7678,-405.6636 1571.0297,-456.5727 1934.3628,-396 1939.5396,-395.137 1944.897,-393.9739 1950.1893,-392.6519"/>
<polygon fill="#000000" stroke="#000000" points="1951.4757,-395.9303 1960.2221,-389.9511 1949.656,-389.1709 1951.4757,-395.9303"/>
</g>
<!-- Fairway&#45;&gt;MI_BlackBox -->
<g id="edge88" class="edge">
<title>Fairway-&gt;MI_BlackBox</title>
<path fill="none" stroke="#000000" d="M930.7622,-432.0708C934.4379,-412.8655 937.2383,-382.1627 924.3628,-360 908.741,-333.1101 887.6382,-344.6245 864.3628,-324 843.2598,-305.3005 823.9692,-279.5468 811.0074,-260.3782"/>
<polygon fill="#000000" stroke="#000000" points="813.7813,-258.2277 805.3432,-251.8206 807.9441,-262.0913 813.7813,-258.2277"/>
</g>
<!-- FairSmote -->
<g id="node38" class="node">
<title>FairSmote</title>
<ellipse fill="none" stroke="#000000" cx="1148.3628" cy="-594" rx="51.0396" ry="18"/>
<text text-anchor="middle" x="1148.3628" y="-589.8" font-family="Times,serif" font-size="14.00" fill="#000000">FairSmote</text>
</g>
<!-- FairSmote&#45;&gt;Data_Cons -->
<g id="edge89" class="edge">
<title>FairSmote-&gt;Data_Cons</title>
<path fill="none" stroke="#000000" d="M1100.096,-587.7188C1035.6664,-576.4482 923.931,-546.1485 874.3628,-468 862.716,-449.6378 859.8386,-424.9819 859.6658,-406.1199"/>
<polygon fill="#000000" stroke="#000000" points="863.1664,-406.0974 859.8198,-396.045 856.1672,-405.9903 863.1664,-406.0974"/>
</g>
<!-- FairSmote&#45;&gt;Data_sens_DP -->
<g id="edge90" class="edge">
<title>FairSmote-&gt;Data_sens_DP</title>
<path fill="none" stroke="#000000" d="M1097.2846,-592.0696C933.7367,-585.6713 429.6234,-564.1877 360.3628,-540 274.6189,-510.0559 191.1956,-439.9514 150.7202,-402.5401"/>
<polygon fill="#000000" stroke="#000000" points="152.9039,-399.7902 143.2097,-395.5154 148.1222,-404.9025 152.9039,-399.7902"/>
</g>
<!-- FairSmote&#45;&gt;Train_sens_SPD -->
<g id="edge93" class="edge">
<title>FairSmote-&gt;Train_sens_SPD</title>
<path fill="none" stroke="#000000" d="M1096.9162,-592.9056C907.1924,-588.6329 253.1708,-571.7251 165.3628,-540 73.2806,-506.7307 2.5757,-451.1332 38.3628,-360 43.2066,-347.6651 97.6228,-291.8199 130.5106,-258.7595"/>
<polygon fill="#000000" stroke="#000000" points="132.9895,-261.2304 137.5724,-251.678 128.0328,-256.2875 132.9895,-261.2304"/>
</g>
<!-- FairSmote&#45;&gt;Train_other_AOD -->
<g id="edge94" class="edge">
<title>FairSmote-&gt;Train_other_AOD</title>
<path fill="none" stroke="#000000" d="M1097.1608,-592.2645C922.8452,-586.1557 358.972,-564.6796 281.3628,-540 165.3509,-503.1084 107.6444,-502.3271 48.3628,-396 40.5713,-382.0253 37.7413,-371.966 48.3628,-360 71.9,-333.4835 284.5492,-317.6076 409.6106,-310.4843"/>
<polygon fill="#000000" stroke="#000000" points="410.1561,-313.9593 419.9442,-309.9042 409.7637,-306.9703 410.1561,-313.9593"/>
</g>
<!-- FairSmote&#45;&gt;Data_other_SPD -->
<g id="edge91" class="edge">
<title>FairSmote-&gt;Data_other_SPD</title>
<path fill="none" stroke="#000000" d="M1098.9292,-588.9371C979.1345,-576.6679 672.4111,-545.2539 525.7809,-530.2363"/>
<polygon fill="#000000" stroke="#000000" points="525.8096,-526.721 515.505,-529.1838 525.0963,-533.6846 525.8096,-526.721"/>
</g>
<!-- FairSmote&#45;&gt;Train_sens_DP -->
<g id="edge92" class="edge">
<title>FairSmote-&gt;Train_sens_DP</title>
<path fill="none" stroke="#000000" d="M1197.8435,-589.244C1267.4997,-579.6492 1392.6239,-551.1788 1452.3628,-468 1480.6778,-428.5751 1475.8794,-368.8962 1469.7026,-334.0452"/>
<polygon fill="#000000" stroke="#000000" points="1473.1101,-333.2308 1467.7765,-324.0764 1466.2372,-334.5588 1473.1101,-333.2308"/>
</g>
<!-- FairSmote&#45;&gt;Test_sens_DP -->
<g id="edge95" class="edge">
<title>FairSmote-&gt;Test_sens_DP</title>
<path fill="none" stroke="#000000" d="M1199.5875,-592.0783C1470.9604,-581.5687 2728.3628,-528.6302 2728.3628,-450 2728.3628,-450 2728.3628,-450 2728.3628,-162 2728.3628,-58.8199 2614.479,-96.9575 2514.3628,-72 2417.8337,-47.9366 2131.8897,-29.6158 1994.5921,-21.9425"/>
<polygon fill="#000000" stroke="#000000" points="1994.7476,-18.4459 1984.569,-21.3865 1994.3598,-25.4351 1994.7476,-18.4459"/>
</g>
<!-- FairSmote&#45;&gt;Train_TI -->
<g id="edge96" class="edge">
<title>FairSmote-&gt;Train_TI</title>
<path fill="none" stroke="#000000" d="M1199.612,-592.6486C1354.1014,-588.25 1813.5848,-572.7004 1959.3628,-540 2044.6455,-520.8697 2062.5743,-503.6778 2142.3628,-468 2248.1051,-420.7169 2369.2724,-357.1178 2428.2786,-325.5157"/>
<polygon fill="#000000" stroke="#000000" points="2430.0471,-328.5388 2437.2031,-320.7259 2426.7368,-322.371 2430.0471,-328.5388"/>
</g>
<!-- FairSmote&#45;&gt;Test_CDS -->
<g id="edge97" class="edge">
<title>FairSmote-&gt;Test_CDS</title>
<path fill="none" stroke="#000000" d="M1159.6705,-576.3672C1180.4126,-542.8541 1223.8374,-466.9582 1239.3628,-396 1242.7827,-380.3698 1243.3763,-375.4885 1239.3628,-360 1236.8736,-350.3937 1232.2644,-340.6768 1227.393,-332.1845"/>
<polygon fill="#000000" stroke="#000000" points="1230.2941,-330.2196 1222.0921,-323.513 1224.3217,-333.8706 1230.2941,-330.2196"/>
</g>
<!-- FairSmote&#45;&gt;Train_F1 -->
<g id="edge100" class="edge">
<title>FairSmote-&gt;Train_F1</title>
<path fill="none" stroke="#000000" d="M1199.1862,-591.4723C1354.3428,-582.9128 1818.7625,-550.7954 1941.3628,-468 1963.2943,-453.1891 1977.7215,-426.2164 1986.1003,-405.6482"/>
<polygon fill="#000000" stroke="#000000" points="1989.431,-406.7374 1989.7341,-396.1469 1982.8928,-404.2368 1989.431,-406.7374"/>
</g>
<!-- FairSmote&#45;&gt;Train_Acc -->
<g id="edge98" class="edge">
<title>FairSmote-&gt;Train_Acc</title>
<path fill="none" stroke="#000000" d="M1199.5192,-591.6752C1331.1527,-585.3781 1679.098,-566.6544 1791.3628,-540 1874.7937,-520.1915 1894.0537,-507.1152 1970.3628,-468 2010.1434,-447.6089 2053.1502,-419.4034 2081.2846,-400.0321"/>
<polygon fill="#000000" stroke="#000000" points="2083.2954,-402.897 2089.5185,-394.3223 2079.3065,-397.1447 2083.2954,-402.897"/>
</g>
<!-- FairSmote&#45;&gt;Train_Loss -->
<g id="edge99" class="edge">
<title>FairSmote-&gt;Train_Loss</title>
<path fill="none" stroke="#000000" d="M1199.4799,-592.4443C1340.6154,-587.7792 1733.4957,-572.1958 1858.3628,-540 2007.4227,-501.5663 2090.1638,-525.5142 2173.3628,-396 2185.4456,-377.1911 2178.8786,-351.9672 2170.4744,-333.0088"/>
<polygon fill="#000000" stroke="#000000" points="2173.6282,-331.491 2166.1385,-323.9974 2167.3204,-334.5261 2173.6282,-331.491"/>
</g>
<!-- FairSmote&#45;&gt;AE_FGSM -->
<g id="edge101" class="edge">
<title>FairSmote-&gt;AE_FGSM</title>
<path fill="none" stroke="#000000" d="M1096.7995,-593.7823C896.9336,-592.6119 179.9312,-585.2678 89.3628,-540 52.1031,-521.3769 44.3555,-506.863 29.3628,-468 -11.4791,-362.1322 -18.8714,-286.095 70.3628,-216 104.6948,-189.0316 737.1434,-169.432 944.2843,-163.7136"/>
<polygon fill="#000000" stroke="#000000" points="944.5063,-167.2089 954.4065,-163.4359 944.3142,-160.2116 944.5063,-167.2089"/>
</g>
<!-- FairSmote&#45;&gt;MI_BlackBox -->
<g id="edge102" class="edge">
<title>FairSmote-&gt;MI_BlackBox</title>
<path fill="none" stroke="#000000" d="M1135.0833,-576.3569C1103.9865,-535.6526 1022.9581,-433.073 942.3628,-360 922.0766,-341.6072 912.5481,-342.5035 892.3628,-324 876.7982,-309.7322 876.534,-302.6854 861.3628,-288 850.3064,-277.2976 837.301,-266.4658 825.7047,-257.3411"/>
<polygon fill="#000000" stroke="#000000" points="827.6054,-254.3861 817.5578,-251.025 823.3164,-259.9182 827.6054,-254.3861"/>
</g>
<!-- DIR -->
<g id="node39" class="node">
<title>DIR</title>
<ellipse fill="none" stroke="#000000" cx="1143.3628" cy="-450" rx="27.8267" ry="18"/>
<text text-anchor="middle" x="1143.3628" y="-445.8" font-family="Times,serif" font-size="14.00" fill="#000000">DIR</text>
</g>
<!-- DIR&#45;&gt;Data_Cons -->
<g id="edge103" class="edge">
<title>DIR-&gt;Data_Cons</title>
<path fill="none" stroke="#000000" d="M1117.3384,-443.3555C1071.3574,-431.6156 974.9009,-406.9885 914.4071,-391.5432"/>
<polygon fill="#000000" stroke="#000000" points="915.2084,-388.1356 904.6533,-389.0529 913.4766,-394.918 915.2084,-388.1356"/>
</g>
<!-- DIR&#45;&gt;Train_sens_AOD -->
<g id="edge104" class="edge">
<title>DIR-&gt;Train_sens_AOD</title>
<path fill="none" stroke="#000000" d="M1123.8862,-437.1755C1109.5954,-427.1237 1090.3259,-412.1691 1076.3628,-396 1059.9123,-376.9505 1045.7196,-352.0997 1036.1726,-333.3388"/>
<polygon fill="#000000" stroke="#000000" points="1039.1931,-331.5517 1031.6162,-324.1462 1032.9213,-334.6604 1039.1931,-331.5517"/>
</g>
<!-- DIR&#45;&gt;Train_TI -->
<g id="edge105" class="edge">
<title>DIR-&gt;Train_TI</title>
<path fill="none" stroke="#000000" d="M1170.6555,-446.3594C1202.6356,-442.2305 1257.2496,-435.6051 1304.3628,-432 1689.7896,-402.5072 1792.4258,-461.6553 2173.3628,-396 2264.558,-380.2823 2367.0509,-343.9991 2422.7839,-322.6104"/>
<polygon fill="#000000" stroke="#000000" points="2424.2413,-325.7995 2432.3044,-318.9266 2421.7152,-319.2711 2424.2413,-325.7995"/>
</g>
<!-- DIR&#45;&gt;Test_CDS -->
<g id="edge106" class="edge">
<title>DIR-&gt;Test_CDS</title>
<path fill="none" stroke="#000000" d="M1167.4661,-441.1397C1186.4666,-432.7231 1211.6449,-418.0471 1223.3628,-396 1233.6168,-376.7073 1228.7241,-352.0232 1222.0476,-333.3873"/>
<polygon fill="#000000" stroke="#000000" points="1225.2698,-332.017 1218.3526,-323.9918 1218.7554,-334.579 1225.2698,-332.017"/>
</g>
<!-- DIR&#45;&gt;Train_F1 -->
<g id="edge107" class="edge">
<title>DIR-&gt;Train_F1</title>
<path fill="none" stroke="#000000" d="M1170.6661,-446.4903C1202.656,-442.4843 1257.2794,-435.9743 1304.3628,-432 1583.8258,-408.4107 1658.0448,-444.0038 1934.3628,-396 1939.4673,-395.1132 1944.7499,-393.9468 1949.9739,-392.633"/>
<polygon fill="#000000" stroke="#000000" points="1951.1416,-395.9432 1959.8851,-389.9598 1949.3187,-389.1847 1951.1416,-395.9432"/>
</g>
<!-- DIR&#45;&gt;MI_BlackBox -->
<g id="edge108" class="edge">
<title>DIR-&gt;MI_BlackBox</title>
<path fill="none" stroke="#000000" d="M1121.6772,-438.5511C1101.9983,-427.9861 1072.3294,-411.6169 1047.3628,-396 1023.5318,-381.0934 1018.9826,-375.2391 995.3628,-360 969.2312,-343.1403 960.6962,-342.0369 935.3628,-324 915.0587,-309.5439 912.9294,-302.0801 892.3628,-288 874.4814,-275.7582 853.5751,-263.9314 835.6756,-254.4826"/>
<polygon fill="#000000" stroke="#000000" points="837.1075,-251.2822 826.6213,-249.7686 833.8748,-257.4911 837.1075,-251.2822"/>
</g>
<!-- RW -->
<g id="node40" class="node">
<title>RW</title>
<ellipse fill="none" stroke="#000000" cx="1416.3628" cy="-378" rx="27" ry="18"/>
<text text-anchor="middle" x="1416.3628" y="-373.8" font-family="Times,serif" font-size="14.00" fill="#000000">RW</text>
</g>
<!-- RW&#45;&gt;Train_sens_AOD -->
<g id="edge110" class="edge">
<title>RW-&gt;Train_sens_AOD</title>
<path fill="none" stroke="#000000" d="M1390.2726,-373.2201C1330.9287,-362.348 1184.114,-335.4506 1095.2313,-319.1667"/>
<polygon fill="#000000" stroke="#000000" points="1095.6883,-315.6923 1085.2213,-317.3328 1094.4268,-322.5777 1095.6883,-315.6923"/>
</g>
<!-- RW&#45;&gt;Train_sens_DP -->
<g id="edge109" class="edge">
<title>RW-&gt;Train_sens_DP</title>
<path fill="none" stroke="#000000" d="M1427.2637,-361.3008C1432.8694,-352.7133 1439.8332,-342.0454 1446.1445,-332.377"/>
<polygon fill="#000000" stroke="#000000" points="1449.1641,-334.1541 1451.6996,-323.8671 1443.3025,-330.3277 1449.1641,-334.1541"/>
</g>
<!-- RW&#45;&gt;Test_sens_AOD -->
<g id="edge111" class="edge">
<title>RW-&gt;Test_sens_AOD</title>
<path fill="none" stroke="#000000" d="M1402.3776,-362.3223C1387.3678,-343.502 1367.6645,-311.537 1383.3628,-288 1442.2045,-199.7767 1758.3768,-130.1337 1901.2248,-102.6799"/>
<polygon fill="#000000" stroke="#000000" points="1902.0373,-106.0881 1911.2044,-100.7764 1900.7257,-99.212 1902.0373,-106.0881"/>
</g>
<!-- AdDebias -->
<g id="node41" class="node">
<title>AdDebias</title>
<ellipse fill="none" stroke="#000000" cx="1882.3628" cy="-450" rx="49.7981" ry="18"/>
<text text-anchor="middle" x="1882.3628" y="-445.8" font-family="Times,serif" font-size="14.00" fill="#000000">AdDebias</text>
</g>
<!-- AdDebias&#45;&gt;Test_Cons -->
<g id="edge113" class="edge">
<title>AdDebias-&gt;Test_Cons</title>
<path fill="none" stroke="#000000" d="M1832.918,-447.7308C1713.1781,-441.8099 1414.9237,-424.3553 1380.3628,-396 1289.6206,-321.5511 1370.0651,-239.1672 1301.3628,-144 1291.656,-130.5539 1277.5614,-119.1629 1264.2046,-110.3592"/>
<polygon fill="#000000" stroke="#000000" points="1265.9181,-107.3025 1255.5873,-104.9521 1262.1975,-113.2319 1265.9181,-107.3025"/>
</g>
<!-- AdDebias&#45;&gt;Train_Cons -->
<g id="edge112" class="edge">
<title>AdDebias-&gt;Train_Cons</title>
<path fill="none" stroke="#000000" d="M1849.2586,-436.4574C1821.4045,-425.0625 1781.3334,-408.6698 1750.7086,-396.1415"/>
<polygon fill="#000000" stroke="#000000" points="1751.7056,-392.7678 1741.1249,-392.2209 1749.0551,-399.2467 1751.7056,-392.7678"/>
</g>
<!-- AdDebias&#45;&gt;Test_Loss -->
<g id="edge116" class="edge">
<title>AdDebias-&gt;Test_Loss</title>
<path fill="none" stroke="#000000" d="M1882.2377,-431.9843C1881.8996,-383.2939 1880.9656,-248.7961 1880.5577,-190.0573"/>
<polygon fill="#000000" stroke="#000000" points="1884.0573,-189.9843 1880.4879,-180.0089 1877.0575,-190.033 1884.0573,-189.9843"/>
</g>
<!-- AdDebias&#45;&gt;Test_TI -->
<g id="edge114" class="edge">
<title>AdDebias-&gt;Test_TI</title>
<path fill="none" stroke="#000000" d="M1931.9907,-448.1974C2093.4802,-442.0943 2594.9639,-421.1786 2618.3628,-396 2652.9258,-358.8083 2580.5667,-297.1114 2570.3628,-288 2552.0154,-271.6168 2527.7983,-258.7279 2507.2454,-249.6571"/>
<polygon fill="#000000" stroke="#000000" points="2508.366,-246.3303 2497.794,-245.636 2505.6256,-252.7716 2508.366,-246.3303"/>
</g>
<!-- AdDebias&#45;&gt;Train_Acc -->
<g id="edge115" class="edge">
<title>AdDebias-&gt;Train_Acc</title>
<path fill="none" stroke="#000000" d="M1920.0851,-438.1913C1959.3383,-425.9033 2020.9483,-406.6167 2063.8108,-393.1989"/>
<polygon fill="#000000" stroke="#000000" points="2064.9687,-396.504 2073.4664,-390.1763 2062.8774,-389.8236 2064.9687,-396.504"/>
</g>
<!-- EGR -->
<g id="node42" class="node">
<title>EGR</title>
<ellipse fill="none" stroke="#000000" cx="1529.3628" cy="-378" rx="30.1958" ry="18"/>
<text text-anchor="middle" x="1529.3628" y="-373.8" font-family="Times,serif" font-size="14.00" fill="#000000">EGR</text>
</g>
<!-- EGR&#45;&gt;Train_sens_DP -->
<g id="edge117" class="edge">
<title>EGR-&gt;Train_sens_DP</title>
<path fill="none" stroke="#000000" d="M1514.7153,-362.0209C1506.4233,-352.975 1495.8645,-341.4564 1486.4803,-331.2191"/>
<polygon fill="#000000" stroke="#000000" points="1488.9274,-328.709 1479.5901,-323.7025 1483.7674,-333.4391 1488.9274,-328.709"/>
</g>
<!-- EGR&#45;&gt;Test_sens_AOD -->
<g id="edge118" class="edge">
<title>EGR-&gt;Test_sens_AOD</title>
<path fill="none" stroke="#000000" d="M1541.5576,-360.9706C1564.9657,-329.2132 1619.0685,-260.1764 1677.3628,-216 1749.307,-161.4795 1848.4246,-125.3949 1911.1993,-106.3159"/>
<polygon fill="#000000" stroke="#000000" points="1912.3742,-109.6178 1920.9524,-103.3996 1910.3689,-102.9111 1912.3742,-109.6178"/>
</g>
<!-- EGR&#45;&gt;Test_CDS -->
<g id="edge119" class="edge">
<title>EGR-&gt;Test_CDS</title>
<path fill="none" stroke="#000000" d="M1500.8575,-371.2578C1486.3476,-367.8459 1468.4248,-363.6619 1452.3628,-360 1387.3204,-345.1712 1312.3639,-328.5914 1263.0987,-317.764"/>
<polygon fill="#000000" stroke="#000000" points="1263.812,-314.3373 1253.2939,-315.6105 1262.3103,-321.1744 1263.812,-314.3373"/>
</g>
<!-- EGR&#45;&gt;Train_Loss -->
<g id="edge120" class="edge">
<title>EGR-&gt;Train_Loss</title>
<path fill="none" stroke="#000000" d="M1552.3889,-365.8104C1557.5256,-363.5369 1563.0329,-361.4297 1568.3628,-360 1617.8447,-346.7269 1949.052,-321.18 2090.9891,-310.6807"/>
<polygon fill="#000000" stroke="#000000" points="2091.5667,-314.1476 2101.282,-309.9211 2091.0515,-307.1666 2091.5667,-314.1476"/>
</g>
<!-- PR -->
<g id="node43" class="node">
<title>PR</title>
<ellipse fill="none" stroke="#000000" cx="2302.3628" cy="-234" rx="27" ry="18"/>
<text text-anchor="middle" x="2302.3628" y="-229.8" font-family="Times,serif" font-size="14.00" fill="#000000">PR</text>
</g>
<!-- PR&#45;&gt;Test_Cons -->
<g id="edge122" class="edge">
<title>PR-&gt;Test_Cons</title>
<path fill="none" stroke="#000000" d="M2308.305,-216.0802C2313.8083,-195.7015 2318.667,-162.8244 2300.3628,-144 2282.6179,-125.7508 1515.2425,-99.3918 1288.6985,-91.9958"/>
<polygon fill="#000000" stroke="#000000" points="1288.7496,-88.4957 1278.6409,-91.6683 1288.5217,-95.4919 1288.7496,-88.4957"/>
</g>
<!-- PR&#45;&gt;Test_sens_SPD -->
<g id="edge121" class="edge">
<title>PR-&gt;Test_sens_SPD</title>
<path fill="none" stroke="#000000" d="M2322.2103,-221.7862C2338.9072,-211.5111 2363.208,-196.5568 2383.3282,-184.1751"/>
<polygon fill="#000000" stroke="#000000" points="2385.2654,-187.0927 2391.9477,-178.8709 2381.5967,-181.1311 2385.2654,-187.0927"/>
</g>
<!-- EO -->
<g id="node44" class="node">
<title>EO</title>
<ellipse fill="none" stroke="#000000" cx="1604.3628" cy="-378" rx="27" ry="18"/>
<text text-anchor="middle" x="1604.3628" y="-373.8" font-family="Times,serif" font-size="14.00" fill="#000000">EO</text>
</g>
<!-- EO&#45;&gt;Test_Cons -->
<g id="edge124" class="edge">
<title>EO-&gt;Test_Cons</title>
<path fill="none" stroke="#000000" d="M1595.7116,-360.6224C1572.9253,-316.7519 1506.7343,-200.9708 1416.3628,-144 1376.7337,-119.0176 1325.295,-105.3208 1285.9352,-97.979"/>
<polygon fill="#000000" stroke="#000000" points="1286.4052,-94.5078 1275.9469,-96.2029 1285.1797,-101.3996 1286.4052,-94.5078"/>
</g>
<!-- EO&#45;&gt;Test_sens_SPD -->
<g id="edge123" class="edge">
<title>EO-&gt;Test_sens_SPD</title>
<path fill="none" stroke="#000000" d="M1624.7396,-366.049C1629.7017,-363.6406 1635.0996,-361.4163 1640.3628,-360 1889.336,-293.0015 1973.2861,-400.9591 2219.3628,-324 2248.8619,-314.7743 2314.5458,-271.6992 2338.3628,-252 2341.6842,-249.2529 2374.0043,-213.0761 2396.7979,-187.4374"/>
<polygon fill="#000000" stroke="#000000" points="2399.498,-189.6679 2403.5233,-179.8675 2394.2649,-185.0187 2399.498,-189.6679"/>
</g>
<!-- EO&#45;&gt;Test_Loss -->
<g id="edge126" class="edge">
<title>EO-&gt;Test_Loss</title>
<path fill="none" stroke="#000000" d="M1612.0019,-360.5942C1627.3584,-327.5775 1665.1113,-255.6208 1718.3628,-216 1749.2945,-192.9858 1790.6056,-179.4187 1823.7684,-171.6394"/>
<polygon fill="#000000" stroke="#000000" points="1824.7799,-174.9999 1833.7782,-169.4069 1823.256,-168.1678 1824.7799,-174.9999"/>
</g>
<!-- EO&#45;&gt;Test_CDS -->
<g id="edge125" class="edge">
<title>EO-&gt;Test_CDS</title>
<path fill="none" stroke="#000000" d="M1583.507,-366.1937C1578.6558,-363.8395 1573.426,-361.6022 1568.3628,-360 1513.6676,-342.6921 1355.2258,-322.6936 1268.2439,-312.5831"/>
<polygon fill="#000000" stroke="#000000" points="1268.5947,-309.1004 1258.259,-311.4294 1267.7912,-316.0541 1268.5947,-309.1004"/>
</g>
<!-- CEO -->
<g id="node45" class="node">
<title>CEO</title>
<ellipse fill="none" stroke="#000000" cx="1226.3628" cy="-162" rx="30.1958" ry="18"/>
<text text-anchor="middle" x="1226.3628" y="-157.8" font-family="Times,serif" font-size="14.00" fill="#000000">CEO</text>
</g>
<!-- CEO&#45;&gt;Test_Cons -->
<g id="edge127" class="edge">
<title>CEO-&gt;Test_Cons</title>
<path fill="none" stroke="#000000" d="M1226.3628,-143.8314C1226.3628,-136.131 1226.3628,-126.9743 1226.3628,-118.4166"/>
<polygon fill="#000000" stroke="#000000" points="1229.8629,-118.4132 1226.3628,-108.4133 1222.8629,-118.4133 1229.8629,-118.4132"/>
</g>
<!-- ROC -->
<g id="node46" class="node">
<title>ROC</title>
<ellipse fill="none" stroke="#000000" cx="2555.3628" cy="-234" rx="30.777" ry="18"/>
<text text-anchor="middle" x="2555.3628" y="-229.8" font-family="Times,serif" font-size="14.00" fill="#000000">ROC</text>
</g>
<!-- ROC&#45;&gt;Test_sens_DP -->
<g id="edge128" class="edge">
<title>ROC-&gt;Test_sens_DP</title>
<path fill="none" stroke="#000000" d="M2573.4097,-219.1772C2594.1531,-200.3675 2622.9651,-167.5431 2603.3628,-144 2526.6743,-51.8944 2157.6132,-26.8687 1995.7379,-20.2739"/>
<polygon fill="#000000" stroke="#000000" points="1995.5104,-16.7623 1985.3803,-19.8656 1995.2347,-23.7568 1995.5104,-16.7623"/>
</g>
<!-- ROC&#45;&gt;Test_sens_SPD -->
<g id="edge129" class="edge">
<title>ROC-&gt;Test_sens_SPD</title>
<path fill="none" stroke="#000000" d="M2532.2923,-221.7862C2512.3552,-211.2312 2483.0913,-195.7386 2459.349,-183.1691"/>
<polygon fill="#000000" stroke="#000000" points="2460.6962,-179.9222 2450.2207,-178.3365 2457.4209,-186.1087 2460.6962,-179.9222"/>
</g>
<!-- ROC&#45;&gt;Test_F1 -->
<g id="edge130" class="edge">
<title>ROC-&gt;Test_F1</title>
<path fill="none" stroke="#000000" d="M2554.3535,-215.8314C2553.9257,-208.131 2553.4169,-198.9743 2552.9415,-190.4166"/>
<polygon fill="#000000" stroke="#000000" points="2556.4352,-190.2037 2552.3858,-180.4133 2549.446,-190.592 2556.4352,-190.2037"/>
</g>
</g>
</svg>