<?xml version="1.0" encoding="UTF-8" standalone="no"?><!DOCTYPE svg PUBLIC "-//W3C//DTD SVG 1.1//EN" "http://www.w3.org/Graphics/SVG/1.1/DTD/svg11.dtd"><!-- Generated by graphviz version 2.40.1 (20161225.0304)
 --><!-- Title: G Pages: 1 --><svg xmlns="http://www.w3.org/2000/svg" xmlns:xlink="http://www.w3.org/1999/xlink" width="2765pt" height="764pt" viewBox="0.00 0.00 2764.55 764.00">
<g id="graph0" class="graph" transform="scale(1 1) rotate(0) translate(4 760)">
<title>G</title>
<polygon fill="#ffffff" stroke="transparent" points="-4,4 -4,-760 2760.5465,-760 2760.5465,4 -4,4"/>
<!-- Data_Cons -->
<g id="node1" class="node">
<title>Data_Cons</title>
<ellipse fill="none" stroke="#000000" cx="1275.1305" cy="-594" rx="53.8924" ry="18"/>
<text text-anchor="middle" x="1275.1305" y="-589.8" font-family="Times,serif" font-size="14.00" fill="#000000">Data_Cons</text>
</g>
<!-- Train_Loss -->
<g id="node2" class="node">
<title>Train_Loss</title>
<ellipse fill="none" stroke="#000000" cx="1369.1305" cy="-306" rx="55.0343" ry="18"/>
<text text-anchor="middle" x="1369.1305" y="-301.8" font-family="Times,serif" font-size="14.00" fill="#000000">Train_Loss</text>
</g>
<!-- Data_Cons&#45;&gt;Train_Loss -->
<g id="edge1" class="edge">
<title>Data_Cons-&gt;Train_Loss</title>
<path fill="none" stroke="#000000" d="M1280.3513,-575.8745C1285.7712,-557.5581 1294.7556,-528.5358 1304.1305,-504 1316.6292,-471.2883 1314.4481,-459.4981 1336.1305,-432 1352.4225,-411.3381 1371.4826,-419.5939 1383.1305,-396 1392.8022,-376.409 1387.9558,-351.7486 1381.4453,-333.1976"/>
<polygon fill="#000000" stroke="#000000" points="1384.7069,-331.9278 1377.8484,-323.8525 1378.1741,-334.4423 1384.7069,-331.9278"/>
</g>
<!-- Test_Loss -->
<g id="node19" class="node">
<title>Test_Loss</title>
<ellipse fill="none" stroke="#000000" cx="968.1305" cy="-234" rx="50.9599" ry="18"/>
<text text-anchor="middle" x="968.1305" y="-229.8" font-family="Times,serif" font-size="14.00" fill="#000000">Test_Loss</text>
</g>
<!-- Train_Loss&#45;&gt;Test_Loss -->
<g id="edge59" class="edge">
<title>Train_Loss-&gt;Test_Loss</title>
<path fill="none" stroke="#000000" d="M1320.7015,-297.3014C1303.4865,-294.2717 1283.9574,-290.9056 1266.1305,-288 1160.5427,-270.7906 1132.5145,-275.4289 1028.1305,-252 1024.012,-251.0756 1019.7631,-250.0178 1015.5181,-248.8882"/>
<polygon fill="#000000" stroke="#000000" points="1016.2556,-245.4605 1005.6833,-246.1513 1014.3789,-252.2042 1016.2556,-245.4605"/>
</g>
<!-- Test_other_SPD -->
<g id="node22" class="node">
<title>Test_other_SPD</title>
<ellipse fill="none" stroke="#000000" cx="1891.1305" cy="-162" rx="74.7381" ry="18"/>
<text text-anchor="middle" x="1891.1305" y="-157.8" font-family="Times,serif" font-size="14.00" fill="#000000">Test_other_SPD</text>
</g>
<!-- Train_Loss&#45;&gt;Test_other_SPD -->
<g id="edge30" class="edge">
<title>Train_Loss-&gt;Test_other_SPD</title>
<path fill="none" stroke="#000000" d="M1408.084,-293.0626C1463.8323,-274.7605 1569.7405,-240.7814 1661.1305,-216 1716.0827,-201.0991 1779.0664,-186.4806 1825.2141,-176.2194"/>
<polygon fill="#000000" stroke="#000000" points="1826.0837,-179.6117 1835.0906,-174.0326 1824.5705,-172.7772 1826.0837,-179.6117"/>
</g>
<!-- AE_PGD -->
<g id="node25" class="node">
<title>AE_PGD</title>
<ellipse fill="none" stroke="#000000" cx="454.1305" cy="-90" rx="48.0935" ry="18"/>
<text text-anchor="middle" x="454.1305" y="-85.8" font-family="Times,serif" font-size="14.00" fill="#000000">AE_PGD</text>
</g>
<!-- Train_Loss&#45;&gt;AE_PGD -->
<g id="edge65" class="edge">
<title>Train_Loss-&gt;AE_PGD</title>
<path fill="none" stroke="#000000" d="M1319.5214,-298.2119C1293.8079,-294.4858 1261.8542,-290.3367 1233.1305,-288 1168.3139,-282.727 108.4015,-298.6854 63.1305,-252 29.7154,-217.5409 31.5964,-180.1884 63.1305,-144 84.675,-119.2756 292.6233,-101.3333 396.1595,-93.8548"/>
<polygon fill="#000000" stroke="#000000" points="396.7199,-97.3238 406.4457,-93.1214 396.2221,-90.3415 396.7199,-97.3238"/>
</g>
<!-- Test_F1 -->
<g id="node28" class="node">
<title>Test_F1</title>
<ellipse fill="none" stroke="#000000" cx="1704.1305" cy="-90" rx="42.8751" ry="18"/>
<text text-anchor="middle" x="1704.1305" y="-85.8" font-family="Times,serif" font-size="14.00" fill="#000000">Test_F1</text>
</g>
<!-- Train_Loss&#45;&gt;Test_F1 -->
<g id="edge62" class="edge">
<title>Train_Loss-&gt;Test_F1</title>
<path fill="none" stroke="#000000" d="M1386.1626,-288.7544C1418.6537,-256.6368 1492.8019,-187.0236 1566.1305,-144 1595.4783,-126.7809 1631.3355,-112.9407 1659.1429,-103.5839"/>
<polygon fill="#000000" stroke="#000000" points="1660.5916,-106.7919 1668.9966,-100.3416 1658.4036,-100.1426 1660.5916,-106.7919"/>
</g>
<!-- Data_sens_DP -->
<g id="node3" class="node">
<title>Data_sens_DP</title>
<ellipse fill="none" stroke="#000000" cx="1252.1305" cy="-666" rx="67.776" ry="18"/>
<text text-anchor="middle" x="1252.1305" y="-661.8" font-family="Times,serif" font-size="14.00" fill="#000000">Data_sens_DP</text>
</g>
<!-- Data_sens_DP&#45;&gt;Data_Cons -->
<g id="edge2" class="edge">
<title>Data_sens_DP-&gt;Data_Cons</title>
<path fill="none" stroke="#000000" d="M1257.9344,-647.8314C1260.4869,-639.8406 1263.5404,-630.2819 1266.3613,-621.4514"/>
<polygon fill="#000000" stroke="#000000" points="1269.6991,-622.5043 1269.4081,-611.9134 1263.0311,-620.3741 1269.6991,-622.5043"/>
</g>
<!-- Data_sens_SPD -->
<g id="node4" class="node">
<title>Data_sens_SPD</title>
<ellipse fill="none" stroke="#000000" cx="922.1305" cy="-594" rx="73.0132" ry="18"/>
<text text-anchor="middle" x="922.1305" y="-589.8" font-family="Times,serif" font-size="14.00" fill="#000000">Data_sens_SPD</text>
</g>
<!-- Data_sens_DP&#45;&gt;Data_sens_SPD -->
<g id="edge3" class="edge">
<title>Data_sens_DP-&gt;Data_sens_SPD</title>
<path fill="none" stroke="#000000" d="M1199.4761,-654.5118C1141.8174,-641.9317 1049.3023,-621.7466 987.1569,-608.1876"/>
<polygon fill="#000000" stroke="#000000" points="987.5879,-604.6993 977.0716,-605.9872 986.0957,-611.5385 987.5879,-604.6993"/>
</g>
<!-- Train_Cons -->
<g id="node5" class="node">
<title>Train_Cons</title>
<ellipse fill="none" stroke="#000000" cx="1146.1305" cy="-594" rx="56.7619" ry="18"/>
<text text-anchor="middle" x="1146.1305" y="-589.8" font-family="Times,serif" font-size="14.00" fill="#000000">Train_Cons</text>
</g>
<!-- Data_sens_DP&#45;&gt;Train_Cons -->
<g id="edge4" class="edge">
<title>Data_sens_DP-&gt;Train_Cons</title>
<path fill="none" stroke="#000000" d="M1227.2782,-649.1192C1212.8215,-639.2996 1194.4288,-626.8064 1178.8103,-616.1976"/>
<polygon fill="#000000" stroke="#000000" points="1180.7003,-613.2503 1170.4615,-610.5267 1176.7671,-619.0409 1180.7003,-613.2503"/>
</g>
<!-- Test_Cons -->
<g id="node6" class="node">
<title>Test_Cons</title>
<ellipse fill="none" stroke="#000000" cx="321.1305" cy="-162" rx="52.1867" ry="18"/>
<text text-anchor="middle" x="321.1305" y="-157.8" font-family="Times,serif" font-size="14.00" fill="#000000">Test_Cons</text>
</g>
<!-- Data_sens_SPD&#45;&gt;Test_Cons -->
<g id="edge5" class="edge">
<title>Data_sens_SPD-&gt;Test_Cons</title>
<path fill="none" stroke="#000000" d="M898.0582,-576.9009C867.3718,-556.029 811.9465,-521.3739 759.1305,-504 650.9428,-468.4116 327.0387,-486.6795 258.1305,-396 209.7088,-332.2797 218.3323,-288.0696 253.1305,-216 259.6182,-202.5634 271.254,-191.4447 283.0872,-182.8602"/>
<polygon fill="#000000" stroke="#000000" points="285.3429,-185.5601 291.6678,-177.0603 281.4228,-179.7607 285.3429,-185.5601"/>
</g>
<!-- Data_sens_SPD&#45;&gt;AE_PGD -->
<g id="edge64" class="edge">
<title>Data_sens_SPD-&gt;AE_PGD</title>
<path fill="none" stroke="#000000" d="M850.2153,-590.3517C731.4171,-581.965 489.042,-554.7665 305.1305,-468 167.0861,-402.8729 103.8751,-389.7513 38.1305,-252 17.4555,-208.6809 6.4492,-180.0596 38.1305,-144 61.4137,-117.4991 287.7388,-100.1806 396.4304,-93.3251"/>
<polygon fill="#000000" stroke="#000000" points="396.8075,-96.8085 406.571,-92.6944 396.3729,-89.822 396.8075,-96.8085"/>
</g>
<!-- Train_Acc -->
<g id="node29" class="node">
<title>Train_Acc</title>
<ellipse fill="none" stroke="#000000" cx="1398.1305" cy="-522" rx="52.1463" ry="18"/>
<text text-anchor="middle" x="1398.1305" y="-517.8" font-family="Times,serif" font-size="14.00" fill="#000000">Train_Acc</text>
</g>
<!-- Data_sens_SPD&#45;&gt;Train_Acc -->
<g id="edge48" class="edge">
<title>Data_sens_SPD-&gt;Train_Acc</title>
<path fill="none" stroke="#000000" d="M984.8486,-584.5132C1077.5845,-570.486 1249.9907,-544.4077 1340.0092,-530.7914"/>
<polygon fill="#000000" stroke="#000000" points="1340.6766,-534.2304 1350.0407,-529.2741 1339.6296,-527.3091 1340.6766,-534.2304"/>
</g>
<!-- Train_Cons&#45;&gt;Train_Loss -->
<g id="edge35" class="edge">
<title>Train_Cons-&gt;Train_Loss</title>
<path fill="none" stroke="#000000" d="M1148.093,-575.8461C1153.6866,-532.6819 1173.5084,-422.8439 1235.1305,-360 1255.6846,-339.0383 1285.4555,-325.9562 1311.7183,-317.9302"/>
<polygon fill="#000000" stroke="#000000" points="1312.9405,-321.2208 1321.5855,-315.0959 1311.0078,-314.4928 1312.9405,-321.2208"/>
</g>
<!-- Train_Cons&#45;&gt;Test_Cons -->
<g id="edge34" class="edge">
<title>Train_Cons-&gt;Test_Cons</title>
<path fill="none" stroke="#000000" d="M1105.9502,-581.1678C1043.6546,-561.7309 919.7217,-524.8835 812.1305,-504 681.1673,-478.58 643.9848,-498.584 514.1305,-468 502.534,-465.2687 318.9965,-405.7364 312.1305,-396 302.9096,-382.9242 311.5759,-375.9904 312.1305,-360 313.2423,-327.9422 310.1268,-319.3031 317.1305,-288 320.8788,-271.2469 327.9651,-268.8729 331.1305,-252 334.0806,-236.2743 332.5933,-231.933 331.1305,-216 330.3582,-207.5885 328.9228,-198.5317 327.3758,-190.2836"/>
<polygon fill="#000000" stroke="#000000" points="330.7883,-189.499 325.398,-180.3779 323.9238,-190.8697 330.7883,-189.499"/>
</g>
<!-- Train_Cons&#45;&gt;Test_other_SPD -->
<g id="edge29" class="edge">
<title>Train_Cons-&gt;Test_other_SPD</title>
<path fill="none" stroke="#000000" d="M1187.0231,-581.3754C1195.2656,-579.2488 1203.9205,-577.3096 1212.1305,-576 1369.8921,-550.8359 1780.3054,-595.4475 1930.1305,-540 1989.5367,-518.0149 2040.8952,-492.8018 2023.1305,-432 2009.8185,-386.4382 1925.6313,-296.1226 1908.1305,-252 1900.24,-232.1068 1895.9474,-208.2554 1893.6505,-190.1059"/>
<polygon fill="#000000" stroke="#000000" points="1897.126,-189.6913 1892.5166,-180.1517 1890.171,-190.4836 1897.126,-189.6913"/>
</g>
<!-- Data_other_DP -->
<g id="node7" class="node">
<title>Data_other_DP</title>
<ellipse fill="none" stroke="#000000" cx="2619.1305" cy="-522" rx="71.2075" ry="18"/>
<text text-anchor="middle" x="2619.1305" y="-517.8" font-family="Times,serif" font-size="14.00" fill="#000000">Data_other_DP</text>
</g>
<!-- Train_other_SPD -->
<g id="node8" class="node">
<title>Train_other_SPD</title>
<ellipse fill="none" stroke="#000000" cx="2269.1305" cy="-450" rx="79.3135" ry="18"/>
<text text-anchor="middle" x="2269.1305" y="-445.8" font-family="Times,serif" font-size="14.00" fill="#000000">Train_other_SPD</text>
</g>
<!-- Data_other_DP&#45;&gt;Train_other_SPD -->
<g id="edge6" class="edge">
<title>Data_other_DP-&gt;Train_other_SPD</title>
<path fill="none" stroke="#000000" d="M2563.6719,-510.5914C2502.4354,-497.9941 2403.7911,-477.7016 2337.7381,-464.1136"/>
<polygon fill="#000000" stroke="#000000" points="2338.333,-460.6627 2327.8328,-462.0759 2336.9224,-467.5192 2338.333,-460.6627"/>
</g>
<!-- Test_other_DP -->
<g id="node9" class="node">
<title>Test_other_DP</title>
<ellipse fill="none" stroke="#000000" cx="2414.1305" cy="-90" rx="69.5012" ry="18"/>
<text text-anchor="middle" x="2414.1305" y="-85.8" font-family="Times,serif" font-size="14.00" fill="#000000">Test_other_DP</text>
</g>
<!-- Data_other_DP&#45;&gt;Test_other_DP -->
<g id="edge7" class="edge">
<title>Data_other_DP-&gt;Test_other_DP</title>
<path fill="none" stroke="#000000" d="M2623.8961,-503.9623C2630.6329,-476.8344 2642.1305,-423.8236 2642.1305,-378 2642.1305,-378 2642.1305,-378 2642.1305,-306 2642.1305,-228.9071 2639.1023,-193.6551 2580.1305,-144 2553.564,-121.6306 2517.5179,-108.4675 2485.8029,-100.7508"/>
<polygon fill="#000000" stroke="#000000" points="2486.2044,-97.2523 2475.6755,-98.432 2484.6421,-104.0757 2486.2044,-97.2523"/>
</g>
<!-- Test_other_AOD -->
<g id="node10" class="node">
<title>Test_other_AOD</title>
<ellipse fill="none" stroke="#000000" cx="2642.1305" cy="-90" rx="78.1501" ry="18"/>
<text text-anchor="middle" x="2642.1305" y="-85.8" font-family="Times,serif" font-size="14.00" fill="#000000">Test_other_AOD</text>
</g>
<!-- Data_other_DP&#45;&gt;Test_other_AOD -->
<g id="edge8" class="edge">
<title>Data_other_DP-&gt;Test_other_AOD</title>
<path fill="none" stroke="#000000" d="M2633.8051,-503.9484C2641.3827,-493.8749 2650.2475,-480.8053 2656.1305,-468 2673.4128,-430.3822 2680.1305,-419.3978 2680.1305,-378 2680.1305,-378 2680.1305,-378 2680.1305,-234 2680.1305,-192.3681 2665.0977,-146.14 2653.9424,-117.567"/>
<polygon fill="#000000" stroke="#000000" points="2657.1673,-116.2055 2650.1893,-108.2332 2650.6727,-118.817 2657.1673,-116.2055"/>
</g>
<!-- Train_other_SPD&#45;&gt;Train_Loss -->
<g id="edge19" class="edge">
<title>Train_other_SPD-&gt;Train_Loss</title>
<path fill="none" stroke="#000000" d="M2193.7141,-444.3662C2026.9107,-431.8296 1639.1712,-402.2401 1611.1305,-396 1538.0618,-379.7397 1457.3445,-346.3959 1410.05,-325.1758"/>
<polygon fill="#000000" stroke="#000000" points="1411.318,-321.9079 1400.7645,-320.9722 1408.431,-328.2849 1411.318,-321.9079"/>
</g>
<!-- Train_other_SPD&#45;&gt;Test_other_DP -->
<g id="edge18" class="edge">
<title>Train_other_SPD-&gt;Test_other_DP</title>
<path fill="none" stroke="#000000" d="M2304.9732,-433.7601C2347.9118,-411.5614 2414.1305,-367.3775 2414.1305,-306 2414.1305,-306 2414.1305,-306 2414.1305,-234 2414.1305,-193.876 2414.1305,-147.4631 2414.1305,-118.4177"/>
<polygon fill="#000000" stroke="#000000" points="2417.6306,-118.1853 2414.1305,-108.1854 2410.6306,-118.1854 2417.6306,-118.1853"/>
</g>
<!-- Train_other_AOD -->
<g id="node12" class="node">
<title>Train_other_AOD</title>
<ellipse fill="none" stroke="#000000" cx="2190.1305" cy="-378" rx="82.2256" ry="18"/>
<text text-anchor="middle" x="2190.1305" y="-373.8" font-family="Times,serif" font-size="14.00" fill="#000000">Train_other_AOD</text>
</g>
<!-- Train_other_SPD&#45;&gt;Train_other_AOD -->
<g id="edge17" class="edge">
<title>Train_other_SPD-&gt;Train_other_AOD</title>
<path fill="none" stroke="#000000" d="M2249.6024,-432.2022C2239.7487,-423.2217 2227.6448,-412.1902 2216.9344,-402.4289"/>
<polygon fill="#000000" stroke="#000000" points="2219.1825,-399.7423 2209.4339,-395.593 2214.4673,-404.9159 2219.1825,-399.7423"/>
</g>
<!-- Train_other_SPD&#45;&gt;Test_other_SPD -->
<g id="edge26" class="edge">
<title>Train_other_SPD-&gt;Test_other_SPD</title>
<path fill="none" stroke="#000000" d="M2278.4263,-431.9232C2287.0698,-412.3069 2296.4966,-380.985 2281.1305,-360 2257.6503,-327.9337 1970.796,-277.2823 1940.1305,-252 1920.5197,-235.8318 1907.5368,-209.6805 1899.8917,-189.7237"/>
<polygon fill="#000000" stroke="#000000" points="1903.1493,-188.4394 1896.4676,-180.2171 1896.5634,-190.8115 1903.1493,-188.4394"/>
</g>
<!-- Test_TI -->
<g id="node27" class="node">
<title>Test_TI</title>
<ellipse fill="none" stroke="#000000" cx="2148.1305" cy="-162" rx="41.7095" ry="18"/>
<text text-anchor="middle" x="2148.1305" y="-157.8" font-family="Times,serif" font-size="14.00" fill="#000000">Test_TI</text>
</g>
<!-- Train_other_SPD&#45;&gt;Test_TI -->
<g id="edge39" class="edge">
<title>Train_other_SPD-&gt;Test_TI</title>
<path fill="none" stroke="#000000" d="M2289.5162,-432.1304C2298.9459,-422.4954 2309.1452,-409.7695 2314.1305,-396 2319.5773,-380.9557 2318.767,-375.3135 2314.1305,-360 2291.8407,-286.382 2270.6096,-272.2351 2218.1305,-216 2206.8143,-203.8739 2192.5787,-192.3631 2179.9048,-183.1089"/>
<polygon fill="#000000" stroke="#000000" points="2181.6123,-180.0283 2171.4352,-177.0828 2177.5542,-185.732 2181.6123,-180.0283"/>
</g>
<!-- Data_other_SPD -->
<g id="node11" class="node">
<title>Data_other_SPD</title>
<ellipse fill="none" stroke="#000000" cx="2242.1305" cy="-594" rx="76.4439" ry="18"/>
<text text-anchor="middle" x="2242.1305" y="-589.8" font-family="Times,serif" font-size="14.00" fill="#000000">Data_other_SPD</text>
</g>
<!-- Data_other_SPD&#45;&gt;Data_other_DP -->
<g id="edge9" class="edge">
<title>Data_other_SPD-&gt;Data_other_DP</title>
<path fill="none" stroke="#000000" d="M2303.4596,-583.1333C2362.6067,-572.5411 2454.6104,-555.7699 2534.1305,-540 2540.791,-538.6791 2547.7374,-537.2662 2554.6631,-535.8345"/>
<polygon fill="#000000" stroke="#000000" points="2555.6833,-539.1972 2564.7597,-533.7319 2554.2561,-532.3442 2555.6833,-539.1972"/>
</g>
<!-- Data_other_SPD&#45;&gt;Train_other_SPD -->
<g id="edge10" class="edge">
<title>Data_other_SPD-&gt;Train_other_SPD</title>
<path fill="none" stroke="#000000" d="M2245.5501,-575.7623C2250.1756,-551.0928 2258.4693,-506.8598 2263.8855,-477.9731"/>
<polygon fill="#000000" stroke="#000000" points="2267.3358,-478.5634 2265.7387,-468.0896 2260.4557,-477.2733 2267.3358,-478.5634"/>
</g>
<!-- Data_other_SPD&#45;&gt;Test_other_DP -->
<g id="edge12" class="edge">
<title>Data_other_SPD-&gt;Test_other_DP</title>
<path fill="none" stroke="#000000" d="M2297.8804,-581.4986C2306.3358,-579.6352 2314.9612,-577.7527 2323.1305,-576 2400.3445,-559.4339 2431.7549,-584.2999 2497.1305,-540 2532.8466,-515.798 2604.1305,-421.1437 2604.1305,-378 2604.1305,-378 2604.1305,-378 2604.1305,-306 2604.1305,-226.2807 2583.4415,-200.429 2527.1305,-144 2511.0874,-127.9233 2489.3229,-115.9757 2469.1772,-107.4643"/>
<polygon fill="#000000" stroke="#000000" points="2470.3404,-104.1597 2459.7566,-103.6761 2467.7288,-110.6543 2470.3404,-104.1597"/>
</g>
<!-- Data_other_SPD&#45;&gt;Train_other_AOD -->
<g id="edge11" class="edge">
<title>Data_other_SPD-&gt;Train_other_AOD</title>
<path fill="none" stroke="#000000" d="M2230.2736,-576.186C2215.3666,-552.6144 2190.5832,-509.2184 2181.1305,-468 2176.4358,-447.5288 2179.1033,-423.8815 2182.7217,-405.9648"/>
<polygon fill="#000000" stroke="#000000" points="2186.1509,-406.6676 2184.9135,-396.1453 2179.319,-405.1426 2186.1509,-406.6676"/>
</g>
<!-- Test_Acc -->
<g id="node24" class="node">
<title>Test_Acc</title>
<ellipse fill="none" stroke="#000000" cx="1533.1305" cy="-306" rx="48.0703" ry="18"/>
<text text-anchor="middle" x="1533.1305" y="-301.8" font-family="Times,serif" font-size="14.00" fill="#000000">Test_Acc</text>
</g>
<!-- Train_other_AOD&#45;&gt;Test_Acc -->
<g id="edge53" class="edge">
<title>Train_other_AOD-&gt;Test_Acc</title>
<path fill="none" stroke="#000000" d="M2116.3593,-369.9155C1983.7887,-355.3872 1708.0518,-325.1695 1589.4084,-312.1674"/>
<polygon fill="#000000" stroke="#000000" points="1589.7642,-308.6856 1579.4424,-311.0753 1589.0015,-315.6439 1589.7642,-308.6856"/>
</g>
<!-- Train_other_AOD&#45;&gt;Test_TI -->
<g id="edge40" class="edge">
<title>Train_other_AOD-&gt;Test_TI</title>
<path fill="none" stroke="#000000" d="M2196.2128,-359.6886C2205.4168,-328.7851 2219.8354,-264.8708 2200.1305,-216 2195.3015,-204.0235 2186.4046,-193.2191 2177.3184,-184.4772"/>
<polygon fill="#000000" stroke="#000000" points="2179.4992,-181.731 2169.7266,-177.6386 2174.8142,-186.932 2179.4992,-181.731"/>
</g>
<!-- Train_other_AOD&#45;&gt;Test_F1 -->
<g id="edge60" class="edge">
<title>Train_other_AOD-&gt;Test_F1</title>
<path fill="none" stroke="#000000" d="M2203.6024,-360.0653C2210.296,-350.0261 2217.6771,-336.9519 2221.1305,-324 2241.8943,-246.1253 2260.2128,-196.5791 2199.1305,-144 2166.066,-115.5384 1877.3576,-98.3861 1756.736,-92.4047"/>
<polygon fill="#000000" stroke="#000000" points="1756.7871,-88.9031 1746.628,-91.9101 1756.445,-95.8947 1756.7871,-88.9031"/>
</g>
<!-- Train_sens_AOD -->
<g id="node13" class="node">
<title>Train_sens_AOD</title>
<ellipse fill="none" stroke="#000000" cx="531.1305" cy="-378" rx="79.2942" ry="18"/>
<text text-anchor="middle" x="531.1305" y="-373.8" font-family="Times,serif" font-size="14.00" fill="#000000">Train_sens_AOD</text>
</g>
<!-- Train_sens_SPD -->
<g id="node14" class="node">
<title>Train_sens_SPD</title>
<ellipse fill="none" stroke="#000000" cx="452.1305" cy="-306" rx="75.8817" ry="18"/>
<text text-anchor="middle" x="452.1305" y="-301.8" font-family="Times,serif" font-size="14.00" fill="#000000">Train_sens_SPD</text>
</g>
<!-- Train_sens_AOD&#45;&gt;Train_sens_SPD -->
<g id="edge13" class="edge">
<title>Train_sens_AOD-&gt;Train_sens_SPD</title>
<path fill="none" stroke="#000000" d="M511.6024,-360.2022C501.7487,-351.2217 489.6448,-340.1902 478.9344,-330.4289"/>
<polygon fill="#000000" stroke="#000000" points="481.1825,-327.7423 471.4339,-323.593 476.4673,-332.9159 481.1825,-327.7423"/>
</g>
<!-- Test_sens_AOD -->
<g id="node21" class="node">
<title>Test_sens_AOD</title>
<ellipse fill="none" stroke="#000000" cx="1133.1305" cy="-90" rx="74.7188" ry="18"/>
<text text-anchor="middle" x="1133.1305" y="-85.8" font-family="Times,serif" font-size="14.00" fill="#000000">Test_sens_AOD</text>
</g>
<!-- Train_sens_AOD&#45;&gt;Test_sens_AOD -->
<g id="edge23" class="edge">
<title>Train_sens_AOD-&gt;Test_sens_AOD</title>
<path fill="none" stroke="#000000" d="M535.7036,-360.0264C548.7813,-310.105 587.738,-171.614 624.1305,-144 657.2261,-118.8876 913.5741,-101.6489 1049.3512,-94.1808"/>
<polygon fill="#000000" stroke="#000000" points="1049.9164,-97.6553 1059.7114,-93.617 1049.536,-90.6657 1049.9164,-97.6553"/>
</g>
<!-- Train_other_DP -->
<g id="node15" class="node">
<title>Train_other_DP</title>
<ellipse fill="none" stroke="#000000" cx="2414.1305" cy="-522" rx="73.5772" ry="18"/>
<text text-anchor="middle" x="2414.1305" y="-517.8" font-family="Times,serif" font-size="14.00" fill="#000000">Train_other_DP</text>
</g>
<!-- Train_other_DP&#45;&gt;Train_other_SPD -->
<g id="edge14" class="edge">
<title>Train_other_DP-&gt;Train_other_SPD</title>
<path fill="none" stroke="#000000" d="M2381.5897,-505.8418C2360.8212,-495.5292 2333.6907,-482.0575 2311.281,-470.9299"/>
<polygon fill="#000000" stroke="#000000" points="2312.8294,-467.7911 2302.3161,-466.4784 2309.7161,-474.0607 2312.8294,-467.7911"/>
</g>
<!-- Train_other_DP&#45;&gt;Test_other_DP -->
<g id="edge15" class="edge">
<title>Train_other_DP-&gt;Test_other_DP</title>
<path fill="none" stroke="#000000" d="M2440.5709,-505.0427C2474.2477,-481.137 2528.1305,-434.1192 2528.1305,-378 2528.1305,-378 2528.1305,-378 2528.1305,-234 2528.1305,-192.6022 2529.035,-177.0688 2504.1305,-144 2493.3175,-129.6423 2477.4752,-118.3318 2462.0848,-109.8519"/>
<polygon fill="#000000" stroke="#000000" points="2463.6032,-106.6965 2453.1168,-105.1845 2460.3715,-112.9059 2463.6032,-106.6965"/>
</g>
<!-- Train_CDS -->
<g id="node16" class="node">
<title>Train_CDS</title>
<ellipse fill="none" stroke="#000000" cx="1844.1305" cy="-306" rx="55.6159" ry="18"/>
<text text-anchor="middle" x="1844.1305" y="-301.8" font-family="Times,serif" font-size="14.00" fill="#000000">Train_CDS</text>
</g>
<!-- Train_other_DP&#45;&gt;Train_CDS -->
<g id="edge16" class="edge">
<title>Train_other_DP-&gt;Train_CDS</title>
<path fill="none" stroke="#000000" d="M2406.0069,-503.9448C2388.885,-468.4189 2345.3107,-390.2667 2281.1305,-360 2216.7257,-329.6274 2014.6332,-314.8632 1909.3565,-309.0749"/>
<polygon fill="#000000" stroke="#000000" points="1909.344,-305.5692 1899.1702,-308.5262 1908.9675,-312.5591 1909.344,-305.5692"/>
</g>
<!-- Train_other_DP&#45;&gt;Test_other_SPD -->
<g id="edge25" class="edge">
<title>Train_other_DP-&gt;Test_other_SPD</title>
<path fill="none" stroke="#000000" d="M2411.7841,-503.7235C2408.7469,-484.7724 2402.2098,-454.7836 2389.1305,-432 2366.9106,-393.2937 2356.2863,-384.7254 2319.1305,-360 2246.3669,-311.5793 2219.7288,-313.5036 2136.1305,-288 2065.1689,-266.3515 2037.3431,-289.1609 1973.1305,-252 1972.6544,-251.7245 1938.0867,-213.7099 1913.9903,-187.1805"/>
<polygon fill="#000000" stroke="#000000" points="1916.5174,-184.7571 1907.2034,-179.7073 1911.3354,-189.4632 1916.5174,-184.7571"/>
</g>
<!-- Train_CDS&#45;&gt;Test_sens_AOD -->
<g id="edge24" class="edge">
<title>Train_CDS-&gt;Test_sens_AOD</title>
<path fill="none" stroke="#000000" d="M1803.3503,-293.6111C1682.7558,-256.9748 1327.6447,-149.0929 1189.2496,-107.0489"/>
<polygon fill="#000000" stroke="#000000" points="1190.2515,-103.6953 1179.6659,-104.1373 1188.2167,-110.3931 1190.2515,-103.6953"/>
</g>
<!-- Train_CDS&#45;&gt;Test_TI -->
<g id="edge44" class="edge">
<title>Train_CDS-&gt;Test_TI</title>
<path fill="none" stroke="#000000" d="M1898.5112,-302.282C1970.4994,-296.2537 2092.0832,-281.8764 2124.1305,-252 2140.9746,-236.2969 2146.5054,-210.2145 2148.0973,-190.1595"/>
<polygon fill="#000000" stroke="#000000" points="2151.6001,-190.1919 2148.6166,-180.0258 2144.6093,-189.8335 2151.6001,-190.1919"/>
</g>
<!-- Train_sens_DP -->
<g id="node17" class="node">
<title>Train_sens_DP</title>
<ellipse fill="none" stroke="#000000" cx="813.1305" cy="-378" rx="70.6451" ry="18"/>
<text text-anchor="middle" x="813.1305" y="-373.8" font-family="Times,serif" font-size="14.00" fill="#000000">Train_sens_DP</text>
</g>
<!-- Test_sens_DP -->
<g id="node18" class="node">
<title>Test_sens_DP</title>
<ellipse fill="none" stroke="#000000" cx="816.1305" cy="-306" rx="66.0704" ry="18"/>
<text text-anchor="middle" x="816.1305" y="-301.8" font-family="Times,serif" font-size="14.00" fill="#000000">Test_sens_DP</text>
</g>
<!-- Train_sens_DP&#45;&gt;Test_sens_DP -->
<g id="edge20" class="edge">
<title>Train_sens_DP-&gt;Test_sens_DP</title>
<path fill="none" stroke="#000000" d="M813.8875,-359.8314C814.2084,-352.131 814.5899,-342.9743 814.9465,-334.4166"/>
<polygon fill="#000000" stroke="#000000" points="818.4438,-334.5503 815.3633,-324.4133 811.4499,-334.2589 818.4438,-334.5503"/>
</g>
<!-- Train_sens_DP&#45;&gt;Test_Acc -->
<g id="edge52" class="edge">
<title>Train_sens_DP-&gt;Test_Acc</title>
<path fill="none" stroke="#000000" d="M882.1655,-374.0502C996.8965,-367.0242 1233.9253,-350.5472 1433.1305,-324 1448.474,-321.9552 1465.0482,-319.1974 1480.2066,-316.4555"/>
<polygon fill="#000000" stroke="#000000" points="1481.2423,-319.8236 1490.4422,-314.5688 1479.9734,-312.9396 1481.2423,-319.8236"/>
</g>
<!-- Test_sens_DP&#45;&gt;Test_Loss -->
<g id="edge21" class="edge">
<title>Test_sens_DP-&gt;Test_Loss</title>
<path fill="none" stroke="#000000" d="M849.1122,-290.3771C872.4164,-279.3383 903.7668,-264.4881 928.4417,-252.8"/>
<polygon fill="#000000" stroke="#000000" points="930.0019,-255.9338 937.541,-248.4897 927.0053,-249.6076 930.0019,-255.9338"/>
</g>
<!-- Test_sens_SPD -->
<g id="node20" class="node">
<title>Test_sens_SPD</title>
<ellipse fill="none" stroke="#000000" cx="1033.1305" cy="-162" rx="71.8066" ry="18"/>
<text text-anchor="middle" x="1033.1305" y="-157.8" font-family="Times,serif" font-size="14.00" fill="#000000">Test_sens_SPD</text>
</g>
<!-- Test_sens_SPD&#45;&gt;Test_sens_AOD -->
<g id="edge22" class="edge">
<title>Test_sens_SPD-&gt;Test_sens_AOD</title>
<path fill="none" stroke="#000000" d="M1056.8291,-144.937C1070.058,-135.4122 1086.7209,-123.4149 1101.0979,-113.0635"/>
<polygon fill="#000000" stroke="#000000" points="1103.1852,-115.8735 1109.2554,-107.19 1099.095,-110.1927 1103.1852,-115.8735"/>
</g>
<!-- Test_other_SPD&#45;&gt;Test_other_DP -->
<g id="edge27" class="edge">
<title>Test_other_SPD-&gt;Test_other_DP</title>
<path fill="none" stroke="#000000" d="M1956.3113,-153.0267C2054.6604,-139.4873 2240.317,-113.9284 2342.3926,-99.876"/>
<polygon fill="#000000" stroke="#000000" points="2343.1777,-103.301 2352.6069,-98.4698 2342.2229,-96.3664 2343.1777,-103.301"/>
</g>
<!-- Test_other_SPD&#45;&gt;Test_other_AOD -->
<g id="edge28" class="edge">
<title>Test_other_SPD-&gt;Test_other_AOD</title>
<path fill="none" stroke="#000000" d="M1961.5972,-155.8021C2109.1846,-142.8032 2441.441,-113.4392 2493.1305,-108 2516.0418,-105.5891 2540.9004,-102.6964 2563.6283,-99.9423"/>
<polygon fill="#000000" stroke="#000000" points="2564.0622,-103.4154 2573.565,-98.7308 2563.2149,-96.4669 2564.0622,-103.4154"/>
</g>
<!-- Test_other_SPD&#45;&gt;AE_PGD -->
<g id="edge33" class="edge">
<title>Test_other_SPD-&gt;AE_PGD</title>
<path fill="none" stroke="#000000" d="M1817.3962,-158.3056C1564.9959,-145.6592 738.7622,-104.2613 512.0978,-92.9044"/>
<polygon fill="#000000" stroke="#000000" points="512.2385,-89.4072 502.0759,-92.4023 511.8882,-96.3984 512.2385,-89.4072"/>
</g>
<!-- Train_F1 -->
<g id="node23" class="node">
<title>Train_F1</title>
<ellipse fill="none" stroke="#000000" cx="1667.1305" cy="-378" rx="46.9497" ry="18"/>
<text text-anchor="middle" x="1667.1305" y="-373.8" font-family="Times,serif" font-size="14.00" fill="#000000">Train_F1</text>
</g>
<!-- Train_F1&#45;&gt;Train_CDS -->
<g id="edge51" class="edge">
<title>Train_F1-&gt;Train_CDS</title>
<path fill="none" stroke="#000000" d="M1699.595,-364.7941C1727.8139,-353.3152 1768.9451,-336.5839 1800.1209,-323.9022"/>
<polygon fill="#000000" stroke="#000000" points="1801.5071,-327.1169 1809.4513,-320.1068 1798.8695,-320.6328 1801.5071,-327.1169"/>
</g>
<!-- Train_F1&#45;&gt;Test_other_SPD -->
<g id="edge31" class="edge">
<title>Train_F1-&gt;Test_other_SPD</title>
<path fill="none" stroke="#000000" d="M1681.4048,-360.5431C1696.8009,-342.0053 1722.3168,-312.1112 1746.1305,-288 1779.7444,-253.9662 1789.9485,-247.2899 1826.1305,-216 1837.7389,-205.9611 1850.7139,-195.1098 1862.0001,-185.7862"/>
<polygon fill="#000000" stroke="#000000" points="1864.3814,-188.3593 1869.8762,-179.3007 1859.9317,-182.9556 1864.3814,-188.3593"/>
</g>
<!-- Train_F1&#45;&gt;Test_Acc -->
<g id="edge56" class="edge">
<title>Train_F1-&gt;Test_Acc</title>
<path fill="none" stroke="#000000" d="M1639.6902,-363.256C1619.5908,-352.4563 1592.0912,-337.6804 1570.0628,-325.8442"/>
<polygon fill="#000000" stroke="#000000" points="1571.4601,-322.6218 1560.9945,-320.9717 1568.1469,-328.7881 1571.4601,-322.6218"/>
</g>
<!-- Train_F1&#45;&gt;Test_TI -->
<g id="edge45" class="edge">
<title>Train_F1-&gt;Test_TI</title>
<path fill="none" stroke="#000000" d="M1691.1731,-362.4348C1706.5173,-352.1378 1726.5638,-337.9987 1743.1305,-324 1760.4139,-309.3957 1758.7662,-297.8638 1779.1305,-288 1902.7696,-228.1131 1968.4511,-322.8847 2086.1305,-252 2109.9829,-237.6324 2126.8632,-210.1602 2136.9264,-189.3301"/>
<polygon fill="#000000" stroke="#000000" points="2140.2123,-190.5609 2141.1952,-180.0117 2133.8483,-187.6455 2140.2123,-190.5609"/>
</g>
<!-- Train_F1&#45;&gt;Test_F1 -->
<g id="edge63" class="edge">
<title>Train_F1-&gt;Test_F1</title>
<path fill="none" stroke="#000000" d="M1669.445,-359.9843C1675.7004,-311.2939 1692.9796,-176.7961 1700.5259,-118.0573"/>
<polygon fill="#000000" stroke="#000000" points="1704.014,-118.3734 1701.8168,-108.0089 1697.071,-117.4813 1704.014,-118.3734"/>
</g>
<!-- MI_BlackBox -->
<g id="node31" class="node">
<title>MI_BlackBox</title>
<ellipse fill="none" stroke="#000000" cx="1158.1305" cy="-306" rx="66.0743" ry="18"/>
<text text-anchor="middle" x="1158.1305" y="-301.8" font-family="Times,serif" font-size="14.00" fill="#000000">MI_BlackBox</text>
</g>
<!-- Train_F1&#45;&gt;MI_BlackBox -->
<g id="edge67" class="edge">
<title>Train_F1-&gt;MI_BlackBox</title>
<path fill="none" stroke="#000000" d="M1622.8505,-371.7364C1533.9299,-359.1583 1333.1014,-330.7503 1226.9224,-315.7309"/>
<polygon fill="#000000" stroke="#000000" points="1227.3411,-312.2553 1216.9494,-314.3202 1226.3606,-319.1863 1227.3411,-312.2553"/>
</g>
<!-- Test_Acc&#45;&gt;Test_Loss -->
<g id="edge57" class="edge">
<title>Test_Acc-&gt;Test_Loss</title>
<path fill="none" stroke="#000000" d="M1490.4399,-297.448C1472.7608,-294.1329 1452.0126,-290.5334 1433.1305,-288 1254.0257,-263.9693 1205.5863,-286.1386 1028.1305,-252 1023.9254,-251.191 1019.5945,-250.2051 1015.2759,-249.1158"/>
<polygon fill="#000000" stroke="#000000" points="1015.853,-245.6464 1005.2865,-246.421 1014.0298,-252.4048 1015.853,-245.6464"/>
</g>
<!-- Test_Acc&#45;&gt;Test_sens_AOD -->
<g id="edge54" class="edge">
<title>Test_Acc-&gt;Test_sens_AOD</title>
<path fill="none" stroke="#000000" d="M1505.6369,-291.1534C1436.2096,-253.6627 1253.6038,-155.0556 1172.6927,-111.3636"/>
<polygon fill="#000000" stroke="#000000" points="1174.2654,-108.2352 1163.8033,-106.5633 1170.9393,-114.3945 1174.2654,-108.2352"/>
</g>
<!-- Test_Acc&#45;&gt;Test_other_SPD -->
<g id="edge32" class="edge">
<title>Test_Acc-&gt;Test_other_SPD</title>
<path fill="none" stroke="#000000" d="M1568.4504,-293.7653C1594.7882,-284.0145 1631.2228,-269.1781 1661.1305,-252 1684.2543,-238.7184 1685.3068,-227.9809 1709.1305,-216 1745.1959,-197.8627 1788.4132,-184.7195 1823.6826,-175.9435"/>
<polygon fill="#000000" stroke="#000000" points="1824.5147,-179.3433 1833.4071,-173.5835 1822.8637,-172.5407 1824.5147,-179.3433"/>
</g>
<!-- Test_Acc&#45;&gt;Test_TI -->
<g id="edge46" class="edge">
<title>Test_Acc-&gt;Test_TI</title>
<path fill="none" stroke="#000000" d="M1580.1955,-301.9396C1704.1838,-291.1326 2031.7667,-261.8218 2053.1305,-252 2061.7258,-248.0484 2099.3506,-211.1412 2124.5921,-185.8343"/>
<polygon fill="#000000" stroke="#000000" points="2127.0955,-188.2806 2131.6653,-178.722 2122.132,-183.3446 2127.0955,-188.2806"/>
</g>
<!-- Test_Acc&#45;&gt;Test_F1 -->
<g id="edge58" class="edge">
<title>Test_Acc-&gt;Test_F1</title>
<path fill="none" stroke="#000000" d="M1535.6481,-287.9453C1541.0434,-255.4216 1556.5255,-186.4351 1595.1305,-144 1612.2142,-125.2214 1637.2883,-112.1717 1659.0816,-103.6113"/>
<polygon fill="#000000" stroke="#000000" points="1660.355,-106.8719 1668.5046,-100.1018 1657.9118,-100.3121 1660.355,-106.8719"/>
</g>
<!-- MI_Rule -->
<g id="node32" class="node">
<title>MI_Rule</title>
<ellipse fill="none" stroke="#000000" cx="1083.1305" cy="-234" rx="45.806" ry="18"/>
<text text-anchor="middle" x="1083.1305" y="-229.8" font-family="Times,serif" font-size="14.00" fill="#000000">MI_Rule</text>
</g>
<!-- Test_Acc&#45;&gt;MI_Rule -->
<g id="edge69" class="edge">
<title>Test_Acc-&gt;MI_Rule</title>
<path fill="none" stroke="#000000" d="M1489.8561,-297.9668C1472.2713,-294.7661 1451.7472,-291.1112 1433.1305,-288 1328.1513,-270.4563 1205.1035,-251.9465 1136.4286,-241.7995"/>
<polygon fill="#000000" stroke="#000000" points="1136.6958,-238.3012 1126.292,-240.3042 1135.6742,-245.2262 1136.6958,-238.3012"/>
</g>
<!-- AE_FGSM -->
<g id="node30" class="node">
<title>AE_FGSM</title>
<ellipse fill="none" stroke="#000000" cx="1810.1305" cy="-18" rx="55.0555" ry="18"/>
<text text-anchor="middle" x="1810.1305" y="-13.8" font-family="Times,serif" font-size="14.00" fill="#000000">AE_FGSM</text>
</g>
<!-- AE_PGD&#45;&gt;AE_FGSM -->
<g id="edge66" class="edge">
<title>AE_PGD-&gt;AE_FGSM</title>
<path fill="none" stroke="#000000" d="M501.9929,-87.4586C706.9254,-76.5773 1510.6293,-33.9027 1745.4029,-21.4369"/>
<polygon fill="#000000" stroke="#000000" points="1745.6921,-24.9265 1755.4925,-20.9011 1745.3209,-17.9364 1745.6921,-24.9265"/>
</g>
<!-- Train_TI -->
<g id="node26" class="node">
<title>Train_TI</title>
<ellipse fill="none" stroke="#000000" cx="1968.1305" cy="-450" rx="45.7848" ry="18"/>
<text text-anchor="middle" x="1968.1305" y="-445.8" font-family="Times,serif" font-size="14.00" fill="#000000">Train_TI</text>
</g>
<!-- Train_TI&#45;&gt;Test_other_DP -->
<g id="edge37" class="edge">
<title>Train_TI-&gt;Test_other_DP</title>
<path fill="none" stroke="#000000" d="M1995.321,-435.3832C2013.6087,-425.1475 2037.9662,-410.7171 2058.1305,-396 2077.718,-381.7039 2080.8132,-375.891 2099.1305,-360 2204.4425,-268.6374 2330.5851,-161.0761 2385.8513,-114.0439"/>
<polygon fill="#000000" stroke="#000000" points="2388.4415,-116.4355 2393.7898,-107.2896 2383.9054,-111.1041 2388.4415,-116.4355"/>
</g>
<!-- Train_TI&#45;&gt;Train_other_AOD -->
<g id="edge36" class="edge">
<title>Train_TI-&gt;Train_other_AOD</title>
<path fill="none" stroke="#000000" d="M2003.7986,-438.432C2038.9744,-427.0236 2093.2605,-409.4173 2134.1811,-396.1458"/>
<polygon fill="#000000" stroke="#000000" points="2135.3159,-399.4573 2143.7483,-393.0429 2133.1563,-392.7987 2135.3159,-399.4573"/>
</g>
<!-- Train_TI&#45;&gt;Train_F1 -->
<g id="edge38" class="edge">
<title>Train_TI-&gt;Train_F1</title>
<path fill="none" stroke="#000000" d="M1928.78,-440.5873C1874.5496,-427.6152 1776.816,-404.2371 1717.3684,-390.0171"/>
<polygon fill="#000000" stroke="#000000" points="1717.9912,-386.5674 1707.4513,-387.6449 1716.3627,-393.3753 1717.9912,-386.5674"/>
</g>
<!-- Train_TI&#45;&gt;Test_Acc -->
<g id="edge55" class="edge">
<title>Train_TI-&gt;Test_Acc</title>
<path fill="none" stroke="#000000" d="M1922.56,-447.0295C1838.7532,-440.9315 1663.9104,-425.0682 1611.1305,-396 1584.3101,-381.2288 1562.4187,-353.4312 1548.7283,-332.6204"/>
<polygon fill="#000000" stroke="#000000" points="1551.5122,-330.4749 1543.2,-323.9054 1545.6012,-334.2246 1551.5122,-330.4749"/>
</g>
<!-- Train_TI&#45;&gt;Test_TI -->
<g id="edge43" class="edge">
<title>Train_TI-&gt;Test_TI</title>
<path fill="none" stroke="#000000" d="M1986.0755,-433.3964C2027.9814,-394.1514 2130.0293,-295.6916 2147.1305,-252 2154.8433,-232.2947 2154.6759,-208.2524 2152.8071,-189.9757"/>
<polygon fill="#000000" stroke="#000000" points="2156.2684,-189.4469 2151.557,-179.9573 2149.3223,-190.3138 2156.2684,-189.4469"/>
</g>
<!-- Train_TI&#45;&gt;Test_F1 -->
<g id="edge61" class="edge">
<title>Train_TI-&gt;Test_F1</title>
<path fill="none" stroke="#000000" d="M1965.3498,-431.9132C1959.6671,-399.938 1944.177,-332.599 1909.1305,-288 1891.3084,-265.3202 1877.1125,-270.676 1855.1305,-252 1803.8083,-208.3964 1752.0274,-148.6224 1724.4412,-115.2181"/>
<polygon fill="#000000" stroke="#000000" points="1727.0115,-112.8327 1717.9641,-107.3195 1721.5987,-117.2714 1727.0115,-112.8327"/>
</g>
<!-- Test_TI&#45;&gt;Test_other_DP -->
<g id="edge41" class="edge">
<title>Test_TI-&gt;Test_other_DP</title>
<path fill="none" stroke="#000000" d="M2183.4532,-152.439C2227.5316,-140.508 2303.5104,-119.9423 2356.1663,-105.6896"/>
<polygon fill="#000000" stroke="#000000" points="2357.3036,-109.0077 2366.0417,-103.0165 2355.4746,-102.2509 2357.3036,-109.0077"/>
</g>
<!-- Test_TI&#45;&gt;Test_other_AOD -->
<g id="edge42" class="edge">
<title>Test_TI-&gt;Test_other_AOD</title>
<path fill="none" stroke="#000000" d="M2187.7215,-156.2296C2269.6762,-144.2848 2459.1429,-116.6703 2565.7347,-101.1346"/>
<polygon fill="#000000" stroke="#000000" points="2566.3943,-104.5755 2575.785,-99.6698 2565.3847,-97.6487 2566.3943,-104.5755"/>
</g>
<!-- Test_TI&#45;&gt;Test_F1 -->
<g id="edge47" class="edge">
<title>Test_TI-&gt;Test_F1</title>
<path fill="none" stroke="#000000" d="M2109.1176,-155.6736C2028.4298,-142.5891 1843.3056,-112.5689 1754.0521,-98.0954"/>
<polygon fill="#000000" stroke="#000000" points="1754.6027,-94.639 1744.1714,-96.4931 1753.4821,-101.5488 1754.6027,-94.639"/>
</g>
<!-- Train_Acc&#45;&gt;Train_other_SPD -->
<g id="edge49" class="edge">
<title>Train_Acc-&gt;Train_other_SPD</title>
<path fill="none" stroke="#000000" d="M1449.0434,-517.7914C1593.2456,-505.8711 2005.553,-471.7883 2184.523,-456.994"/>
<polygon fill="#000000" stroke="#000000" points="2185.0008,-460.4665 2194.6784,-456.1545 2184.424,-453.4903 2185.0008,-460.4665"/>
</g>
<!-- Train_Acc&#45;&gt;Train_F1 -->
<g id="edge50" class="edge">
<title>Train_Acc-&gt;Train_F1</title>
<path fill="none" stroke="#000000" d="M1421.5424,-505.4874C1449.1286,-486.4307 1496.7158,-454.794 1540.1305,-432 1567.1911,-417.7924 1598.818,-404.3355 1623.741,-394.4091"/>
<polygon fill="#000000" stroke="#000000" points="1625.2641,-397.571 1633.2854,-390.6493 1622.6984,-391.0581 1625.2641,-397.571"/>
</g>
<!-- Train_Acc&#45;&gt;MI_Rule -->
<g id="edge68" class="edge">
<title>Train_Acc-&gt;MI_Rule</title>
<path fill="none" stroke="#000000" d="M1355.5575,-511.4637C1281.7852,-490.5059 1133.2746,-435.663 1083.1305,-324 1074.4623,-304.6973 1074.9649,-280.6316 1077.3614,-262.2437"/>
<polygon fill="#000000" stroke="#000000" points="1080.8524,-262.5722 1078.9363,-252.1521 1073.9361,-261.4928 1080.8524,-262.5722"/>
</g>
<!-- MI_Rule&#45;&gt;Test_Cons -->
<g id="edge74" class="edge">
<title>MI_Rule-&gt;Test_Cons</title>
<path fill="none" stroke="#000000" d="M1049.4368,-221.565C1042.4731,-219.395 1035.1269,-217.391 1028.1305,-216 905.5066,-191.6202 532.3674,-171.932 383.46,-164.8392"/>
<polygon fill="#000000" stroke="#000000" points="383.287,-161.3272 373.1327,-164.3504 382.956,-168.3193 383.287,-161.3272"/>
</g>
<!-- MI_Rule&#45;&gt;Test_other_DP -->
<g id="edge72" class="edge">
<title>MI_Rule-&gt;Test_other_DP</title>
<path fill="none" stroke="#000000" d="M1126.7306,-228.0404C1239.2373,-212.7796 1548.6217,-171.5578 1807.1305,-144 1997.3289,-123.7243 2221.6248,-105.1543 2336.9952,-95.9934"/>
<polygon fill="#000000" stroke="#000000" points="2337.4473,-99.4687 2347.1397,-95.1899 2336.8945,-92.4905 2337.4473,-99.4687"/>
</g>
<!-- MI_Rule&#45;&gt;Test_sens_SPD -->
<g id="edge70" class="edge">
<title>MI_Rule-&gt;Test_sens_SPD</title>
<path fill="none" stroke="#000000" d="M1071.0269,-216.5708C1065.0966,-208.0312 1057.8332,-197.5719 1051.2575,-188.1029"/>
<polygon fill="#000000" stroke="#000000" points="1054.0488,-185.9862 1045.47,-179.7689 1048.2992,-189.979 1054.0488,-185.9862"/>
</g>
<!-- MI_Rule&#45;&gt;Test_sens_AOD -->
<g id="edge71" class="edge">
<title>MI_Rule-&gt;Test_sens_AOD</title>
<path fill="none" stroke="#000000" d="M1095.2365,-216.2118C1101.6882,-206.0055 1109.2737,-192.7253 1114.1305,-180 1121.7941,-159.9202 1126.6512,-136.0784 1129.5345,-117.98"/>
<polygon fill="#000000" stroke="#000000" points="1133.0007,-118.4657 1131.0104,-108.0595 1126.0769,-117.4356 1133.0007,-118.4657"/>
</g>
<!-- MI_Rule&#45;&gt;Test_other_SPD -->
<g id="edge73" class="edge">
<title>MI_Rule-&gt;Test_other_SPD</title>
<path fill="none" stroke="#000000" d="M1128.4097,-230.2232C1231.0456,-221.6285 1489.2535,-199.816 1705.1305,-180 1740.1176,-176.7884 1778.7895,-173.0728 1811.7673,-169.8543"/>
<polygon fill="#000000" stroke="#000000" points="1812.1966,-173.3292 1821.8086,-168.8726 1811.5154,-166.3624 1812.1966,-173.3292"/>
</g>
<!-- MI_Rule&#45;&gt;AE_PGD -->
<g id="edge76" class="edge">
<title>MI_Rule-&gt;AE_PGD</title>
<path fill="none" stroke="#000000" d="M1048.375,-222.043C1041.6921,-219.9096 1034.7218,-217.7972 1028.1305,-216 838.5162,-164.3006 609.2512,-119.0624 507.3719,-99.835"/>
<polygon fill="#000000" stroke="#000000" points="507.8074,-96.3556 497.3327,-97.9468 506.5135,-103.235 507.8074,-96.3556"/>
</g>
<!-- MI_Rule&#45;&gt;Test_TI -->
<g id="edge75" class="edge">
<title>MI_Rule-&gt;Test_TI</title>
<path fill="none" stroke="#000000" d="M1129.1378,-231.9177C1261.0015,-225.7981 1651.583,-206.6129 1975.1305,-180 2016.3139,-176.6125 2062.9014,-171.7033 2097.3477,-167.8671"/>
<polygon fill="#000000" stroke="#000000" points="2098.0813,-171.3068 2107.6288,-166.7139 2097.3009,-164.3505 2098.0813,-171.3068"/>
</g>
<!-- Model_Width -->
<g id="node33" class="node">
<title>Model_Width</title>
<ellipse fill="none" stroke="#000000" cx="1309.1305" cy="-378" rx="65.4324" ry="18"/>
<text text-anchor="middle" x="1309.1305" y="-373.8" font-family="Times,serif" font-size="14.00" fill="#000000">Model_Width</text>
</g>
<!-- Model_Width&#45;&gt;Train_Loss -->
<g id="edge77" class="edge">
<title>Model_Width-&gt;Train_Loss</title>
<path fill="none" stroke="#000000" d="M1323.9619,-360.2022C1331.2278,-351.4832 1340.1046,-340.8311 1348.0597,-331.2849"/>
<polygon fill="#000000" stroke="#000000" points="1350.7565,-333.5159 1354.4696,-323.593 1345.379,-329.0346 1350.7565,-333.5159"/>
</g>
<!-- FairMask -->
<g id="node34" class="node">
<title>FairMask</title>
<ellipse fill="none" stroke="#000000" cx="120.1305" cy="-234" rx="48.0897" ry="18"/>
<text text-anchor="middle" x="120.1305" y="-229.8" font-family="Times,serif" font-size="14.00" fill="#000000">FairMask</text>
</g>
<!-- FairMask&#45;&gt;Test_Cons -->
<g id="edge78" class="edge">
<title>FairMask-&gt;Test_Cons</title>
<path fill="none" stroke="#000000" d="M155.142,-221.4586C188.4917,-209.5124 238.8823,-191.462 275.3923,-178.3838"/>
<polygon fill="#000000" stroke="#000000" points="276.5916,-181.6721 284.8255,-175.0048 274.2309,-175.0821 276.5916,-181.6721"/>
</g>
<!-- Test_CDS -->
<g id="node35" class="node">
<title>Test_CDS</title>
<ellipse fill="none" stroke="#000000" cx="123.1305" cy="-162" rx="51.0415" ry="18"/>
<text text-anchor="middle" x="123.1305" y="-157.8" font-family="Times,serif" font-size="14.00" fill="#000000">Test_CDS</text>
</g>
<!-- FairMask&#45;&gt;Test_CDS -->
<g id="edge79" class="edge">
<title>FairMask-&gt;Test_CDS</title>
<path fill="none" stroke="#000000" d="M120.8875,-215.8314C121.2084,-208.131 121.5899,-198.9743 121.9465,-190.4166"/>
<polygon fill="#000000" stroke="#000000" points="125.4438,-190.5503 122.3633,-180.4133 118.4499,-190.2589 125.4438,-190.5503"/>
</g>
<!-- Fairway -->
<g id="node36" class="node">
<title>Fairway</title>
<ellipse fill="none" stroke="#000000" cx="2129.1305" cy="-666" rx="42.8538" ry="18"/>
<text text-anchor="middle" x="2129.1305" y="-661.8" font-family="Times,serif" font-size="14.00" fill="#000000">Fairway</text>
</g>
<!-- Fairway&#45;&gt;Data_other_DP -->
<g id="edge80" class="edge">
<title>Fairway-&gt;Data_other_DP</title>
<path fill="none" stroke="#000000" d="M2165.7239,-656.404C2205.5379,-645.874 2271.0146,-628.2954 2327.1305,-612 2410.4427,-587.807 2506.4754,-557.7955 2564.9768,-539.2725"/>
<polygon fill="#000000" stroke="#000000" points="2566.2686,-542.5348 2574.7434,-536.1765 2564.1532,-535.862 2566.2686,-542.5348"/>
</g>
<!-- Fairway&#45;&gt;Data_other_SPD -->
<g id="edge81" class="edge">
<title>Fairway-&gt;Data_other_SPD</title>
<path fill="none" stroke="#000000" d="M2152.819,-650.9064C2168.3602,-641.0041 2188.9701,-627.8721 2206.4752,-616.7184"/>
<polygon fill="#000000" stroke="#000000" points="2208.7502,-619.419 2215.3029,-611.0937 2204.9886,-613.5155 2208.7502,-619.419"/>
</g>
<!-- Fairway&#45;&gt;Train_other_AOD -->
<g id="edge82" class="edge">
<title>Fairway-&gt;Train_other_AOD</title>
<path fill="none" stroke="#000000" d="M2131.9789,-647.9627C2138.3415,-608.5283 2154.6888,-511.7836 2174.1305,-432 2176.2042,-423.4902 2178.7857,-414.324 2181.2657,-406.0028"/>
<polygon fill="#000000" stroke="#000000" points="2184.6333,-406.9586 2184.1995,-396.3726 2177.9371,-404.9186 2184.6333,-406.9586"/>
</g>
<!-- Fairway&#45;&gt;MI_BlackBox -->
<g id="edge83" class="edge">
<title>Fairway-&gt;MI_BlackBox</title>
<path fill="none" stroke="#000000" d="M2090.6004,-658.0896C1936.8445,-625.9944 1368.387,-502.1426 1221.1305,-396 1198.6908,-379.8255 1181.4564,-353.0917 1170.7316,-332.9542"/>
<polygon fill="#000000" stroke="#000000" points="1173.798,-331.2632 1166.131,-323.9511 1167.5647,-334.4485 1173.798,-331.2632"/>
</g>
<!-- Fairway&#45;&gt;MI_Rule -->
<g id="edge84" class="edge">
<title>Fairway-&gt;MI_Rule</title>
<path fill="none" stroke="#000000" d="M2086.5274,-663.4782C1966.2551,-655.4604 1614.812,-625.8203 1337.1305,-540 1219.7366,-503.7182 1170.5397,-497.3905 1101.1305,-396 1072.9892,-354.8923 1065.6946,-337.52 1071.1305,-288 1072.0589,-279.5425 1073.7819,-270.4715 1075.6383,-262.2246"/>
<polygon fill="#000000" stroke="#000000" points="1079.0832,-262.8678 1078.0113,-252.3273 1072.2761,-261.2356 1079.0832,-262.8678"/>
</g>
<!-- FairSmote -->
<g id="node37" class="node">
<title>FairSmote</title>
<ellipse fill="none" stroke="#000000" cx="1459.1305" cy="-738" rx="51.0396" ry="18"/>
<text text-anchor="middle" x="1459.1305" y="-733.8" font-family="Times,serif" font-size="14.00" fill="#000000">FairSmote</text>
</g>
<!-- FairSmote&#45;&gt;Data_Cons -->
<g id="edge85" class="edge">
<title>FairSmote-&gt;Data_Cons</title>
<path fill="none" stroke="#000000" d="M1463.6672,-720.0202C1467.5274,-700.1972 1470.1939,-668.4156 1454.1305,-648 1439.0306,-628.8088 1379.8479,-613.523 1333.6163,-604.1811"/>
<polygon fill="#000000" stroke="#000000" points="1334.1593,-600.7209 1323.6713,-602.2215 1332.806,-607.5888 1334.1593,-600.7209"/>
</g>
<!-- FairSmote&#45;&gt;Data_sens_DP -->
<g id="edge86" class="edge">
<title>FairSmote-&gt;Data_sens_DP</title>
<path fill="none" stroke="#000000" d="M1422.5995,-725.2936C1389.4642,-713.7682 1340.2802,-696.6608 1303.247,-683.7797"/>
<polygon fill="#000000" stroke="#000000" points="1304.225,-680.4142 1293.6302,-680.4347 1301.9253,-687.0257 1304.225,-680.4142"/>
</g>
<!-- FairSmote&#45;&gt;Data_sens_SPD -->
<g id="edge87" class="edge">
<title>FairSmote-&gt;Data_sens_SPD</title>
<path fill="none" stroke="#000000" d="M1410.2277,-732.5342C1289.9748,-719.0769 989.4077,-685.3331 987.1305,-684 962.6091,-669.6453 944.7743,-641.9774 934.0568,-621.0898"/>
<polygon fill="#000000" stroke="#000000" points="937.1705,-619.4897 929.635,-612.0422 930.8814,-622.5634 937.1705,-619.4897"/>
</g>
<!-- FairSmote&#45;&gt;Train_Cons -->
<g id="edge94" class="edge">
<title>FairSmote-&gt;Train_Cons</title>
<path fill="none" stroke="#000000" d="M1439.2266,-721.1721C1414.7409,-701.2196 1371.2263,-668.1398 1329.1305,-648 1317.1546,-642.2704 1248.4139,-622.5406 1198.6994,-608.5918"/>
<polygon fill="#000000" stroke="#000000" points="1199.606,-605.2111 1189.0326,-605.885 1197.7185,-611.9519 1199.606,-605.2111"/>
</g>
<!-- FairSmote&#45;&gt;Data_other_DP -->
<g id="edge88" class="edge">
<title>FairSmote-&gt;Data_other_DP</title>
<path fill="none" stroke="#000000" d="M1510.5719,-736.9042C1663.9694,-733.2621 2116.4062,-719.7034 2259.1305,-684 2383.9718,-652.7702 2519.3476,-580.202 2582.6447,-543.736"/>
<polygon fill="#000000" stroke="#000000" points="2584.5575,-546.6726 2591.4508,-538.6269 2581.0447,-540.6179 2584.5575,-546.6726"/>
</g>
<!-- FairSmote&#45;&gt;Test_other_AOD -->
<g id="edge93" class="edge">
<title>FairSmote-&gt;Test_other_AOD</title>
<path fill="none" stroke="#000000" d="M1510.4373,-737.6166C1746.6633,-735.188 2718.1305,-717.6821 2718.1305,-594 2718.1305,-594 2718.1305,-594 2718.1305,-234 2718.1305,-188.3998 2687.9539,-143.0908 2665.6309,-115.812"/>
<polygon fill="#000000" stroke="#000000" points="2668.1193,-113.3336 2658.9973,-107.9447 2662.7678,-117.8459 2668.1193,-113.3336"/>
</g>
<!-- FairSmote&#45;&gt;Data_other_SPD -->
<g id="edge89" class="edge">
<title>FairSmote-&gt;Data_other_SPD</title>
<path fill="none" stroke="#000000" d="M1510.4007,-736.7288C1665.6324,-732.5265 2123.4455,-717.4043 2181.1305,-684 2205.1028,-670.118 2221.6369,-642.5746 2231.3828,-621.5954"/>
<polygon fill="#000000" stroke="#000000" points="2234.6913,-622.7658 2235.5049,-612.2022 2228.2814,-619.9528 2234.6913,-622.7658"/>
</g>
<!-- FairSmote&#45;&gt;Train_sens_AOD -->
<g id="edge91" class="edge">
<title>FairSmote-&gt;Train_sens_AOD</title>
<path fill="none" stroke="#000000" d="M1410.5823,-731.9078C1378.6655,-728.0667 1335.9616,-723.2381 1298.1305,-720 1029.7473,-697.0279 956.2659,-741.5935 693.1305,-684 585.4948,-660.4414 462.1305,-704.1837 462.1305,-594 462.1305,-594 462.1305,-594 462.1305,-522 462.1305,-477.2238 489.598,-431.6259 509.8725,-404.0677"/>
<polygon fill="#000000" stroke="#000000" points="512.9052,-405.861 516.1585,-395.778 507.3274,-401.6315 512.9052,-405.861"/>
</g>
<!-- FairSmote&#45;&gt;Train_sens_SPD -->
<g id="edge90" class="edge">
<title>FairSmote-&gt;Train_sens_SPD</title>
<path fill="none" stroke="#000000" d="M1410.9526,-731.7533C1379.0046,-727.8233 1336.126,-722.9536 1298.1305,-720 1207.0952,-712.9233 560.8053,-720.5516 477.1305,-684 425.0032,-661.2293 386.1305,-650.8837 386.1305,-594 386.1305,-594 386.1305,-594 386.1305,-450 386.1305,-405.5809 412.4038,-359.8895 431.7968,-332.2136"/>
<polygon fill="#000000" stroke="#000000" points="434.7936,-334.042 437.8095,-323.8854 429.1182,-329.9445 434.7936,-334.042"/>
</g>
<!-- FairSmote&#45;&gt;Train_other_DP -->
<g id="edge92" class="edge">
<title>FairSmote-&gt;Train_other_DP</title>
<path fill="none" stroke="#000000" d="M1510.3951,-737.5353C1657.9081,-735.6932 2081.2265,-726.7253 2212.1305,-684 2290.5293,-658.4117 2360.2979,-586.3059 2393.5455,-547.4923"/>
<polygon fill="#000000" stroke="#000000" points="2396.3076,-549.646 2400.0758,-539.7439 2390.955,-545.1349 2396.3076,-549.646"/>
</g>
<!-- FairSmote&#45;&gt;Test_Loss -->
<g id="edge98" class="edge">
<title>FairSmote-&gt;Test_Loss</title>
<path fill="none" stroke="#000000" d="M1410.5633,-732.1193C1378.6387,-728.365 1335.9333,-723.5537 1298.1305,-720 1245.7646,-715.0773 864.4548,-720.0232 826.1305,-684 730.3735,-593.9926 833.9896,-513.3588 893.1305,-396 916.6406,-349.3466 941.7068,-293.8953 956.0871,-261.4587"/>
<polygon fill="#000000" stroke="#000000" points="959.3528,-262.7277 960.1933,-252.1662 952.95,-259.8983 959.3528,-262.7277"/>
</g>
<!-- FairSmote&#45;&gt;Train_F1 -->
<g id="edge96" class="edge">
<title>FairSmote-&gt;Train_F1</title>
<path fill="none" stroke="#000000" d="M1502.9437,-728.5663C1564.2292,-712.5003 1668.1305,-673.5344 1668.1305,-594 1668.1305,-594 1668.1305,-594 1668.1305,-522 1668.1305,-481.875 1667.7374,-435.4624 1667.4442,-406.4173"/>
<polygon fill="#000000" stroke="#000000" points="1670.9417,-406.1481 1667.3377,-396.1851 1663.942,-406.221 1670.9417,-406.1481"/>
</g>
<!-- FairSmote&#45;&gt;Test_Acc -->
<g id="edge97" class="edge">
<title>FairSmote-&gt;Test_Acc</title>
<path fill="none" stroke="#000000" d="M1471.2187,-720.2577C1487.9506,-693.9272 1516.1305,-642.3972 1516.1305,-594 1516.1305,-594 1516.1305,-594 1516.1305,-450 1516.1305,-409.5973 1522.8124,-363.2552 1527.7979,-334.3013"/>
<polygon fill="#000000" stroke="#000000" points="1531.3062,-334.5623 1529.6081,-324.1045 1524.4139,-333.3387 1531.3062,-334.5623"/>
</g>
<!-- FairSmote&#45;&gt;AE_PGD -->
<g id="edge100" class="edge">
<title>FairSmote-&gt;AE_PGD</title>
<path fill="none" stroke="#000000" d="M1410.956,-731.7082C1379.0096,-727.7594 1336.1312,-722.8857 1298.1305,-720 1099.8736,-704.9447 597.9772,-728.2255 404.1305,-684 305.9266,-661.5951 196.1305,-694.7272 196.1305,-594 196.1305,-594 196.1305,-594 196.1305,-522 196.1305,-508.4636 61.0589,-335.6289 54.1305,-324 35.9192,-293.4333 27.8318,-286.5002 19.1305,-252 7.3874,-205.4395 -15.6786,-179.9716 16.1305,-144 40.893,-115.997 282.4459,-99.307 395.8651,-92.9555"/>
<polygon fill="#000000" stroke="#000000" points="396.3102,-96.4363 406.1023,-92.3908 395.9247,-89.447 396.3102,-96.4363"/>
</g>
<!-- FairSmote&#45;&gt;Train_TI -->
<g id="edge95" class="edge">
<title>FairSmote-&gt;Train_TI</title>
<path fill="none" stroke="#000000" d="M1506.0359,-730.7052C1552.0173,-722.6201 1623.54,-707.5257 1682.1305,-684 1800.4077,-636.5084 1845.885,-635.6433 1930.1305,-540 1945.8101,-522.1991 1955.6994,-496.985 1961.4452,-477.7713"/>
<polygon fill="#000000" stroke="#000000" points="1964.8354,-478.6438 1964.1513,-468.0711 1958.0928,-476.7628 1964.8354,-478.6438"/>
</g>
<!-- FairSmote&#45;&gt;AE_FGSM -->
<g id="edge99" class="edge">
<title>FairSmote-&gt;AE_FGSM</title>
<path fill="none" stroke="#000000" d="M1510.5346,-736.6169C1715.0182,-730.9625 2464.6633,-708.7277 2568.1305,-684 2658.2297,-662.4671 2756.1305,-686.6366 2756.1305,-594 2756.1305,-594 2756.1305,-594 2756.1305,-162 2756.1305,-120.2388 2761.8893,-97.9009 2729.1305,-72 2695.7048,-45.5718 2080.0335,-25.6967 1875.5388,-19.8007"/>
<polygon fill="#000000" stroke="#000000" points="1875.3465,-16.2938 1865.2503,-19.5059 1875.1459,-23.291 1875.3465,-16.2938"/>
</g>
<!-- FairSmote&#45;&gt;MI_BlackBox -->
<g id="edge101" class="edge">
<title>FairSmote-&gt;MI_BlackBox</title>
<path fill="none" stroke="#000000" d="M1410.1752,-732.4056C1378.2761,-728.7902 1335.7445,-724.026 1298.1305,-720 1141.7631,-703.2633 1093.895,-737.8193 946.1305,-684 892.6181,-664.5095 866.7858,-662.3284 840.1305,-612 803.0838,-542.0515 1032.991,-385.6795 1123.064,-327.9562"/>
<polygon fill="#000000" stroke="#000000" points="1125.0321,-330.8523 1131.582,-322.5247 1121.2685,-324.9501 1125.0321,-330.8523"/>
</g>
<!-- FairSmote&#45;&gt;MI_Rule -->
<g id="edge102" class="edge">
<title>FairSmote-&gt;MI_Rule</title>
<path fill="none" stroke="#000000" d="M1410.5555,-732.2009C1378.6277,-728.4802 1335.9216,-723.6756 1298.1305,-720 1201.5889,-710.6104 941.8823,-740.6268 863.1305,-684 798.1425,-637.2701 817.6669,-573.64 857.1305,-504 914.6796,-402.4451 1012.1182,-302.1686 1057.919,-257.7668"/>
<polygon fill="#000000" stroke="#000000" points="1060.5538,-260.0886 1065.3317,-250.6323 1055.6996,-255.0451 1060.5538,-260.0886"/>
</g>
<!-- LTDD -->
<g id="node38" class="node">
<title>LTDD</title>
<ellipse fill="none" stroke="#000000" cx="1252.1305" cy="-738" rx="36.5575" ry="18"/>
<text text-anchor="middle" x="1252.1305" y="-733.8" font-family="Times,serif" font-size="14.00" fill="#000000">LTDD</text>
</g>
<!-- LTDD&#45;&gt;Data_sens_DP -->
<g id="edge103" class="edge">
<title>LTDD-&gt;Data_sens_DP</title>
<path fill="none" stroke="#000000" d="M1252.1305,-719.8314C1252.1305,-712.131 1252.1305,-702.9743 1252.1305,-694.4166"/>
<polygon fill="#000000" stroke="#000000" points="1255.6306,-694.4132 1252.1305,-684.4133 1248.6306,-694.4133 1255.6306,-694.4132"/>
</g>
<!-- LTDD&#45;&gt;Train_Cons -->
<g id="edge104" class="edge">
<title>LTDD-&gt;Train_Cons</title>
<path fill="none" stroke="#000000" d="M1225.9232,-725.3083C1209.2183,-715.9945 1188.3106,-701.8712 1175.1305,-684 1161.6476,-665.7183 1154.2675,-640.9049 1150.3321,-621.9622"/>
<polygon fill="#000000" stroke="#000000" points="1153.7696,-621.303 1148.4832,-612.1212 1146.8899,-622.5956 1153.7696,-621.303"/>
</g>
<!-- LTDD&#45;&gt;Test_Cons -->
<g id="edge106" class="edge">
<title>LTDD-&gt;Test_Cons</title>
<path fill="none" stroke="#000000" d="M1215.3254,-737.3506C1031.8436,-733.9617 223.136,-717.1806 182.1305,-684 149.9487,-657.9594 158.1305,-635.3978 158.1305,-594 158.1305,-594 158.1305,-594 158.1305,-450 158.1305,-340.6522 166.6848,-302.0698 234.1305,-216 245.6796,-201.2617 262.4527,-189.51 278.1961,-180.7822"/>
<polygon fill="#000000" stroke="#000000" points="280.0788,-183.7466 287.2992,-175.9932 276.8196,-177.5516 280.0788,-183.7466"/>
</g>
<!-- LTDD&#45;&gt;Train_CDS -->
<g id="edge105" class="edge">
<title>LTDD-&gt;Train_CDS</title>
<path fill="none" stroke="#000000" d="M1278.1235,-725.0321C1298.2371,-714.6774 1326.5446,-699.3984 1350.1305,-684 1536.4608,-562.3514 1742.8883,-391.6341 1816.3383,-329.6555"/>
<polygon fill="#000000" stroke="#000000" points="1818.853,-332.1127 1824.2292,-322.9832 1814.3332,-326.7674 1818.853,-332.1127"/>
</g>
<!-- LTDD&#45;&gt;Test_Acc -->
<g id="edge107" class="edge">
<title>LTDD-&gt;Test_Acc</title>
<path fill="none" stroke="#000000" d="M1279.8575,-725.8702C1296.9726,-716.87 1317.7641,-702.8858 1329.1305,-684 1362.1836,-629.0807 1338.0205,-604.0925 1337.1305,-540 1336.9083,-524.0015 1331.0451,-518.7976 1337.1305,-504 1370.0538,-423.942 1452.7339,-359.0521 1499.512,-327.2487"/>
<polygon fill="#000000" stroke="#000000" points="1501.7179,-329.9841 1508.0861,-321.5167 1497.8275,-324.1648 1501.7179,-329.9841"/>
</g>
<!-- RW -->
<g id="node39" class="node">
<title>RW</title>
<ellipse fill="none" stroke="#000000" cx="634.1305" cy="-450" rx="27" ry="18"/>
<text text-anchor="middle" x="634.1305" y="-445.8" font-family="Times,serif" font-size="14.00" fill="#000000">RW</text>
</g>
<!-- RW&#45;&gt;Train_sens_AOD -->
<g id="edge110" class="edge">
<title>RW-&gt;Train_sens_AOD</title>
<path fill="none" stroke="#000000" d="M615.2387,-436.7941C600.9954,-426.8376 581.0991,-412.9295 564.2335,-401.14"/>
<polygon fill="#000000" stroke="#000000" points="565.9374,-398.0607 555.7361,-395.2 561.9269,-403.798 565.9374,-398.0607"/>
</g>
<!-- RW&#45;&gt;Train_sens_SPD -->
<g id="edge109" class="edge">
<title>RW-&gt;Train_sens_SPD</title>
<path fill="none" stroke="#000000" d="M611.5324,-440.0061C604.7302,-437.2024 597.1948,-434.296 590.1305,-432 526.1604,-411.2088 484.6529,-448.9182 443.1305,-396 429.4278,-378.5366 433.6021,-352.9175 440.0887,-333.4744"/>
<polygon fill="#000000" stroke="#000000" points="443.4265,-334.539 443.6091,-323.9457 436.8603,-332.1131 443.4265,-334.539"/>
</g>
<!-- RW&#45;&gt;Train_sens_DP -->
<g id="edge108" class="edge">
<title>RW-&gt;Train_sens_DP</title>
<path fill="none" stroke="#000000" d="M656.1037,-439.2416C661.3223,-436.7841 666.8951,-434.2386 672.1305,-432 701.7535,-419.3336 735.4326,-406.3826 762.4451,-396.3399"/>
<polygon fill="#000000" stroke="#000000" points="763.911,-399.5295 772.0756,-392.7774 761.4824,-392.9643 763.911,-399.5295"/>
</g>
<!-- RW&#45;&gt;Test_sens_AOD -->
<g id="edge111" class="edge">
<title>RW-&gt;Test_sens_AOD</title>
<path fill="none" stroke="#000000" d="M634.9593,-431.8191C636.1309,-404.5085 638.1305,-351.2675 638.1305,-306 638.1305,-306 638.1305,-306 638.1305,-234 638.1305,-148.8679 911.4846,-110.7417 1051.9218,-96.7717"/>
<polygon fill="#000000" stroke="#000000" points="1052.5962,-100.2226 1062.2091,-95.7679 1051.9164,-93.2557 1052.5962,-100.2226"/>
</g>
<!-- DIR -->
<g id="node40" class="node">
<title>DIR</title>
<ellipse fill="none" stroke="#000000" cx="1762.1305" cy="-522" rx="27.8267" ry="18"/>
<text text-anchor="middle" x="1762.1305" y="-517.8" font-family="Times,serif" font-size="14.00" fill="#000000">DIR</text>
</g>
<!-- DIR&#45;&gt;Test_Cons -->
<g id="edge114" class="edge">
<title>DIR-&gt;Test_Cons</title>
<path fill="none" stroke="#000000" d="M1734.5669,-520.1846C1681.3441,-516.7188 1560.7098,-509.0551 1459.1305,-504 1359.5069,-499.0422 656.1071,-501.4341 562.1305,-468 537.0065,-459.0616 538.4746,-442.8845 514.1305,-432 439.6517,-398.6997 385.854,-459.0926 334.1305,-396 303.699,-358.8796 317.7901,-333.133 334.1305,-288 341.2206,-268.4167 357.0403,-271.5833 364.1305,-252 369.5773,-236.9557 369.4095,-231.104 364.1305,-216 360.4149,-205.3692 353.6334,-195.267 346.5373,-186.7377"/>
<polygon fill="#000000" stroke="#000000" points="348.9868,-184.2252 339.7273,-179.0762 343.7548,-188.8756 348.9868,-184.2252"/>
</g>
<!-- DIR&#45;&gt;Train_CDS -->
<g id="edge113" class="edge">
<title>DIR-&gt;Train_CDS</title>
<path fill="none" stroke="#000000" d="M1764.5355,-503.7226C1769.0962,-472.8692 1780.7126,-409.0268 1804.1305,-360 1808.9319,-349.9478 1815.7164,-339.8819 1822.3366,-331.2109"/>
<polygon fill="#000000" stroke="#000000" points="1825.0847,-333.3784 1828.5634,-323.3709 1819.6032,-329.0248 1825.0847,-333.3784"/>
</g>
<!-- DIR&#45;&gt;Train_TI -->
<g id="edge112" class="edge">
<title>DIR-&gt;Train_TI</title>
<path fill="none" stroke="#000000" d="M1786.5703,-513.4579C1820.413,-501.6294 1882.1142,-480.064 1924.1005,-465.3891"/>
<polygon fill="#000000" stroke="#000000" points="1925.5087,-468.6046 1933.7939,-462.0012 1923.199,-461.9966 1925.5087,-468.6046"/>
</g>
<!-- AdDebias -->
<g id="node41" class="node">
<title>AdDebias</title>
<ellipse fill="none" stroke="#000000" cx="1046.1305" cy="-666" rx="49.7981" ry="18"/>
<text text-anchor="middle" x="1046.1305" y="-661.8" font-family="Times,serif" font-size="14.00" fill="#000000">AdDebias</text>
</g>
<!-- AdDebias&#45;&gt;Data_sens_SPD -->
<g id="edge115" class="edge">
<title>AdDebias-&gt;Data_sens_SPD</title>
<path fill="none" stroke="#000000" d="M1019.8333,-650.7307C1002.4035,-640.6102 979.2632,-627.1738 959.8779,-615.9179"/>
<polygon fill="#000000" stroke="#000000" points="961.3933,-612.7505 950.9879,-610.7559 957.8783,-618.8041 961.3933,-612.7505"/>
</g>
<!-- AdDebias&#45;&gt;Train_Cons -->
<g id="edge116" class="edge">
<title>AdDebias-&gt;Train_Cons</title>
<path fill="none" stroke="#000000" d="M1068.822,-649.6621C1082.4063,-639.8814 1099.8699,-627.3076 1114.761,-616.586"/>
<polygon fill="#000000" stroke="#000000" points="1117.1123,-619.206 1123.1826,-610.5225 1113.0221,-613.5252 1117.1123,-619.206"/>
</g>
<!-- AdDebias&#45;&gt;Train_CDS -->
<g id="edge117" class="edge">
<title>AdDebias-&gt;Train_CDS</title>
<path fill="none" stroke="#000000" d="M1047.338,-647.6422C1049.8081,-626.523 1057.3185,-592.6259 1080.1305,-576 1144.7727,-528.8872 1738.7533,-592.4674 1799.1305,-540 1806.9184,-533.2324 1829.9011,-394.8755 1839.6631,-334.1556"/>
<polygon fill="#000000" stroke="#000000" points="1843.1475,-334.5309 1841.2724,-324.1033 1836.2355,-333.4243 1843.1475,-334.5309"/>
</g>
<!-- AdDebias&#45;&gt;Test_Loss -->
<g id="edge118" class="edge">
<title>AdDebias-&gt;Test_Loss</title>
<path fill="none" stroke="#000000" d="M1042.8782,-647.9875C1030.7372,-580.7447 988.0059,-344.0792 973.2147,-262.1585"/>
<polygon fill="#000000" stroke="#000000" points="976.6178,-261.3084 971.3966,-252.0894 969.7292,-262.5522 976.6178,-261.3084"/>
</g>
<!-- PR -->
<g id="node42" class="node">
<title>PR</title>
<ellipse fill="none" stroke="#000000" cx="1873.1305" cy="-378" rx="27" ry="18"/>
<text text-anchor="middle" x="1873.1305" y="-373.8" font-family="Times,serif" font-size="14.00" fill="#000000">PR</text>
</g>
<!-- PR&#45;&gt;Train_CDS -->
<g id="edge119" class="edge">
<title>PR-&gt;Train_CDS</title>
<path fill="none" stroke="#000000" d="M1866.1104,-360.5708C1862.8359,-352.4409 1858.8605,-342.571 1855.1957,-333.4722"/>
<polygon fill="#000000" stroke="#000000" points="1858.3715,-331.9888 1851.3888,-324.0206 1851.8784,-334.6041 1858.3715,-331.9888"/>
</g>
<!-- EGR -->
<g id="node43" class="node">
<title>EGR</title>
<ellipse fill="none" stroke="#000000" cx="711.1305" cy="-450" rx="30.1958" ry="18"/>
<text text-anchor="middle" x="711.1305" y="-445.8" font-family="Times,serif" font-size="14.00" fill="#000000">EGR</text>
</g>
<!-- EGR&#45;&gt;Train_sens_AOD -->
<g id="edge121" class="edge">
<title>EGR-&gt;Train_sens_AOD</title>
<path fill="none" stroke="#000000" d="M686.4881,-438.9759C681.115,-436.6298 675.4465,-434.1983 670.1305,-432 641.0459,-419.9726 608.2383,-407.1906 581.8028,-397.0831"/>
<polygon fill="#000000" stroke="#000000" points="582.9612,-393.7791 572.3704,-393.4867 580.4673,-400.3198 582.9612,-393.7791"/>
</g>
<!-- EGR&#45;&gt;Train_sens_DP -->
<g id="edge120" class="edge">
<title>EGR-&gt;Train_sens_DP</title>
<path fill="none" stroke="#000000" d="M730.7971,-436.1177C744.8962,-426.1654 764.2115,-412.531 780.5904,-400.9694"/>
<polygon fill="#000000" stroke="#000000" points="782.6934,-403.7692 788.8447,-395.1429 778.6566,-398.0504 782.6934,-403.7692"/>
</g>
<!-- EGR&#45;&gt;Test_Loss -->
<g id="edge123" class="edge">
<title>EGR-&gt;Test_Loss</title>
<path fill="none" stroke="#000000" d="M708.6963,-431.8904C705.3244,-398.6541 703.3875,-327.6961 741.1305,-288 763.9549,-263.9944 850.2557,-248.6223 909.6178,-240.6497"/>
<polygon fill="#000000" stroke="#000000" points="910.1706,-244.1073 919.6323,-239.3401 909.2628,-237.1664 910.1706,-244.1073"/>
</g>
<!-- EGR&#45;&gt;Test_sens_SPD -->
<g id="edge122" class="edge">
<title>EGR-&gt;Test_sens_SPD</title>
<path fill="none" stroke="#000000" d="M705.2643,-432.2692C695.6933,-399.6565 680.9993,-329.6853 715.1305,-288 775.1349,-214.715 883.8097,-183.8385 957.2154,-170.9737"/>
<polygon fill="#000000" stroke="#000000" points="958.048,-174.383 967.3304,-169.2754 956.8889,-167.4796 958.048,-174.383"/>
</g>
<!-- EO -->
<g id="node44" class="node">
<title>EO</title>
<ellipse fill="none" stroke="#000000" cx="1894.1305" cy="-522" rx="27" ry="18"/>
<text text-anchor="middle" x="1894.1305" y="-517.8" font-family="Times,serif" font-size="14.00" fill="#000000">EO</text>
</g>
<!-- EO&#45;&gt;Test_Cons -->
<g id="edge128" class="edge">
<title>EO-&gt;Test_Cons</title>
<path fill="none" stroke="#000000" d="M1868.4896,-516.0078C1849.4645,-511.8394 1822.8269,-506.5838 1799.1305,-504 1666.4127,-489.5286 723.6773,-513.4027 598.1305,-468 573.7169,-459.1711 575.2247,-443.8589 552.1305,-432 501.4604,-405.981 477.0141,-426.8481 429.1305,-396 393.6304,-373.1297 381.827,-363.5894 367.1305,-324 350.3051,-278.6757 399.6148,-260.2464 380.1305,-216 374.6992,-203.6663 364.9059,-192.9229 354.8388,-184.3368"/>
<polygon fill="#000000" stroke="#000000" points="356.7879,-181.4148 346.7845,-177.9243 352.4278,-186.8911 356.7879,-181.4148"/>
</g>
<!-- EO&#45;&gt;Test_other_DP -->
<g id="edge124" class="edge">
<title>EO-&gt;Test_other_DP</title>
<path fill="none" stroke="#000000" d="M1921.2912,-521.4672C2008.6519,-519.3503 2281.1286,-509.4951 2357.1305,-468 2438.8942,-423.3591 2490.1305,-399.1564 2490.1305,-306 2490.1305,-306 2490.1305,-306 2490.1305,-234 2490.1305,-188.1436 2459.6139,-142.5817 2437.2555,-115.354"/>
<polygon fill="#000000" stroke="#000000" points="2439.7523,-112.8863 2430.6214,-107.5126 2434.4083,-117.4075 2439.7523,-112.8863"/>
</g>
<!-- EO&#45;&gt;Test_other_AOD -->
<g id="edge126" class="edge">
<title>EO-&gt;Test_other_AOD</title>
<path fill="none" stroke="#000000" d="M1921.085,-520.5384C2012.6079,-515.3574 2310.839,-496.6307 2402.1305,-468 2481.4637,-443.1196 2566.1305,-461.1432 2566.1305,-378 2566.1305,-378 2566.1305,-378 2566.1305,-306 2566.1305,-234.418 2603.7306,-156.6706 2626.0368,-116.8455"/>
<polygon fill="#000000" stroke="#000000" points="2629.1567,-118.4401 2631.0794,-108.0211 2623.079,-114.967 2629.1567,-118.4401"/>
</g>
<!-- EO&#45;&gt;Test_Loss -->
<g id="edge130" class="edge">
<title>EO-&gt;Test_Loss</title>
<path fill="none" stroke="#000000" d="M1868.1536,-516.9742C1810.0195,-505.6993 1670.8771,-478.5521 1624.1305,-468 1560.2004,-453.569 1545.4147,-444.7613 1481.1305,-432 1426.939,-421.2422 1271.6438,-437.4635 1235.1305,-396 1203.4024,-359.9706 1264.3414,-324.4783 1233.1305,-288 1203.0609,-252.8556 1073.1371,-262.6637 1028.1305,-252 1024.0827,-251.0409 1019.9051,-249.9666 1015.7268,-248.8329"/>
<polygon fill="#000000" stroke="#000000" points="1016.611,-245.4459 1006.0368,-246.1061 1014.7147,-252.1842 1016.611,-245.4459"/>
</g>
<!-- EO&#45;&gt;Test_other_SPD -->
<g id="edge125" class="edge">
<title>EO-&gt;Test_other_SPD</title>
<path fill="none" stroke="#000000" d="M1897.5117,-504.0848C1906.208,-456.1584 1927.4262,-326.0665 1909.1305,-288 1898.0354,-264.9154 1875.2255,-275.0846 1864.1305,-252 1854.3372,-231.6238 1863.0598,-206.9334 1873.1211,-188.5714"/>
<polygon fill="#000000" stroke="#000000" points="1876.1939,-190.2507 1878.2524,-179.8578 1870.1621,-186.6986 1876.1939,-190.2507"/>
</g>
<!-- EO&#45;&gt;Test_Acc -->
<g id="edge129" class="edge">
<title>EO-&gt;Test_Acc</title>
<path fill="none" stroke="#000000" d="M1868.7566,-515.0734C1800.0919,-495.8955 1612.7984,-440.5754 1568.1305,-396 1551.4325,-379.3366 1542.5165,-353.8008 1537.8726,-334.1803"/>
<polygon fill="#000000" stroke="#000000" points="1541.2666,-333.3134 1535.7623,-324.2606 1534.4198,-334.77 1541.2666,-333.3134"/>
</g>
<!-- EO&#45;&gt;Train_TI -->
<g id="edge127" class="edge">
<title>EO-&gt;Train_TI</title>
<path fill="none" stroke="#000000" d="M1909.4633,-507.0816C1919.2319,-497.577 1932.1116,-485.0454 1943.3141,-474.1457"/>
<polygon fill="#000000" stroke="#000000" points="1946.0163,-476.3999 1950.7428,-466.9178 1941.1347,-471.3828 1946.0163,-476.3999"/>
</g>
<!-- CEO -->
<g id="node45" class="node">
<title>CEO</title>
<ellipse fill="none" stroke="#000000" cx="292.1305" cy="-234" rx="30.1958" ry="18"/>
<text text-anchor="middle" x="292.1305" y="-229.8" font-family="Times,serif" font-size="14.00" fill="#000000">CEO</text>
</g>
<!-- CEO&#45;&gt;Test_Cons -->
<g id="edge131" class="edge">
<title>CEO-&gt;Test_Cons</title>
<path fill="none" stroke="#000000" d="M299.299,-216.2022C302.5755,-208.0675 306.5297,-198.2501 310.1676,-189.2181"/>
<polygon fill="#000000" stroke="#000000" points="313.4543,-190.4261 313.9439,-179.8425 306.9612,-187.8107 313.4543,-190.4261"/>
</g>
<!-- ROC -->
<g id="node46" class="node">
<title>ROC</title>
<ellipse fill="none" stroke="#000000" cx="2013.1305" cy="-234" rx="30.777" ry="18"/>
<text text-anchor="middle" x="2013.1305" y="-229.8" font-family="Times,serif" font-size="14.00" fill="#000000">ROC</text>
</g>
<!-- ROC&#45;&gt;Test_sens_AOD -->
<g id="edge132" class="edge">
<title>ROC-&gt;Test_sens_AOD</title>
<path fill="none" stroke="#000000" d="M2011.1046,-216.0069C2007.6806,-194.9072 1998.6362,-160.6982 1975.1305,-144 1944.5794,-122.2969 1424.6839,-100.7806 1217.4252,-93.0248"/>
<polygon fill="#000000" stroke="#000000" points="1217.323,-89.5186 1207.1996,-92.6438 1217.0623,-96.5138 1217.323,-89.5186"/>
</g>
<!-- ROC&#45;&gt;Test_TI -->
<g id="edge133" class="edge">
<title>ROC-&gt;Test_TI</title>
<path fill="none" stroke="#000000" d="M2036.0314,-221.7862C2057.1102,-210.5442 2088.6917,-193.7007 2112.967,-180.7538"/>
<polygon fill="#000000" stroke="#000000" points="2114.6995,-183.7966 2121.8759,-176.0024 2111.4053,-177.6201 2114.6995,-183.7966"/>
</g>
</g>
</svg>