<?xml version="1.0" encoding="UTF-8" standalone="no"?><!DOCTYPE svg PUBLIC "-//W3C//DTD SVG 1.1//EN" "http://www.w3.org/Graphics/SVG/1.1/DTD/svg11.dtd"><!-- Generated by graphviz version 2.40.1 (20161225.0304)
 --><!-- Title: G Pages: 1 --><svg xmlns="http://www.w3.org/2000/svg" xmlns:xlink="http://www.w3.org/1999/xlink" width="3242pt" height="836pt" viewBox="0.00 0.00 3241.58 836.00">
<g id="graph0" class="graph" transform="scale(1 1) rotate(0) translate(4 832)">
<title>G</title>
<polygon fill="#ffffff" stroke="transparent" points="-4,4 -4,-832 3237.5782,-832 3237.5782,4 -4,4"/>
<!-- Data_Cons -->
<g id="node1" class="node">
<title>Data_Cons</title>
<ellipse fill="none" stroke="#000000" cx="753.5782" cy="-450" rx="53.8924" ry="18"/>
<text text-anchor="middle" x="753.5782" y="-445.8" font-family="Times,serif" font-size="14.00" fill="#000000">Data_Cons</text>
</g>
<!-- Test_sens_SPD -->
<g id="node2" class="node">
<title>Test_sens_SPD</title>
<ellipse fill="none" stroke="#000000" cx="277.5782" cy="-378" rx="71.8066" ry="18"/>
<text text-anchor="middle" x="277.5782" y="-373.8" font-family="Times,serif" font-size="14.00" fill="#000000">Test_sens_SPD</text>
</g>
<!-- Data_Cons&#45;&gt;Test_sens_SPD -->
<g id="edge1" class="edge">
<title>Data_Cons-&gt;Test_sens_SPD</title>
<path fill="none" stroke="#000000" d="M704.4306,-442.5659C620.006,-429.7958 447.0976,-403.6416 349.2367,-388.8391"/>
<polygon fill="#000000" stroke="#000000" points="349.5473,-385.3463 339.1363,-387.3113 348.5003,-392.2676 349.5473,-385.3463"/>
</g>
<!-- Train_Cons -->
<g id="node3" class="node">
<title>Train_Cons</title>
<ellipse fill="none" stroke="#000000" cx="842.5782" cy="-306" rx="56.7619" ry="18"/>
<text text-anchor="middle" x="842.5782" y="-301.8" font-family="Times,serif" font-size="14.00" fill="#000000">Train_Cons</text>
</g>
<!-- Data_Cons&#45;&gt;Train_Cons -->
<g id="edge2" class="edge">
<title>Data_Cons-&gt;Train_Cons</title>
<path fill="none" stroke="#000000" d="M762.4472,-431.9917C771.7605,-413.5169 787.1683,-384.1445 802.5782,-360 808.6666,-350.4605 815.8839,-340.3973 822.5006,-331.577"/>
<polygon fill="#000000" stroke="#000000" points="825.332,-333.6358 828.6038,-323.5588 819.762,-329.3961 825.332,-333.6358"/>
</g>
<!-- Test_sens_AOD -->
<g id="node19" class="node">
<title>Test_sens_AOD</title>
<ellipse fill="none" stroke="#000000" cx="358.5782" cy="-306" rx="74.7188" ry="18"/>
<text text-anchor="middle" x="358.5782" y="-301.8" font-family="Times,serif" font-size="14.00" fill="#000000">Test_sens_AOD</text>
</g>
<!-- Test_sens_SPD&#45;&gt;Test_sens_AOD -->
<g id="edge33" class="edge">
<title>Test_sens_SPD-&gt;Test_sens_AOD</title>
<path fill="none" stroke="#000000" d="M297.186,-360.5708C307.3585,-351.5286 319.9526,-340.3338 331.0813,-330.4417"/>
<polygon fill="#000000" stroke="#000000" points="333.7213,-332.7778 338.8702,-323.5182 329.0707,-327.546 333.7213,-332.7778"/>
</g>
<!-- Test_CDS -->
<g id="node28" class="node">
<title>Test_CDS</title>
<ellipse fill="none" stroke="#000000" cx="1455.5782" cy="-18" rx="51.0415" ry="18"/>
<text text-anchor="middle" x="1455.5782" y="-13.8" font-family="Times,serif" font-size="14.00" fill="#000000">Test_CDS</text>
</g>
<!-- Test_sens_SPD&#45;&gt;Test_CDS -->
<g id="edge34" class="edge">
<title>Test_sens_SPD-&gt;Test_CDS</title>
<path fill="none" stroke="#000000" d="M324.7841,-364.4193C400.8131,-342.3074 554.8918,-296.5071 683.5782,-252 895.3682,-178.751 938.6743,-132.0498 1154.5782,-72 1237.2608,-49.0033 1335.5387,-33.518 1396.7501,-25.2273"/>
<polygon fill="#000000" stroke="#000000" points="1397.5421,-28.6527 1406.9912,-23.8605 1396.616,-21.7142 1397.5421,-28.6527"/>
</g>
<!-- Test_TI -->
<g id="node22" class="node">
<title>Test_TI</title>
<ellipse fill="none" stroke="#000000" cx="607.5782" cy="-234" rx="41.7095" ry="18"/>
<text text-anchor="middle" x="607.5782" y="-229.8" font-family="Times,serif" font-size="14.00" fill="#000000">Test_TI</text>
</g>
<!-- Train_Cons&#45;&gt;Test_TI -->
<g id="edge54" class="edge">
<title>Train_Cons-&gt;Test_TI</title>
<path fill="none" stroke="#000000" d="M801.6443,-293.4586C759.5546,-280.563 694.2488,-260.5544 651.2015,-247.3655"/>
<polygon fill="#000000" stroke="#000000" points="652.1554,-243.9972 641.5687,-244.4141 650.1047,-250.6901 652.1554,-243.9972"/>
</g>
<!-- Test_Loss -->
<g id="node25" class="node">
<title>Test_Loss</title>
<ellipse fill="none" stroke="#000000" cx="1915.5782" cy="-234" rx="50.9599" ry="18"/>
<text text-anchor="middle" x="1915.5782" y="-229.8" font-family="Times,serif" font-size="14.00" fill="#000000">Test_Loss</text>
</g>
<!-- Train_Cons&#45;&gt;Test_Loss -->
<g id="edge85" class="edge">
<title>Train_Cons-&gt;Test_Loss</title>
<path fill="none" stroke="#000000" d="M898.0078,-302.2806C1081.1011,-289.9947 1665.6421,-250.7711 1855.4389,-238.0354"/>
<polygon fill="#000000" stroke="#000000" points="1855.766,-241.5215 1865.5092,-237.3597 1855.2972,-234.5372 1855.766,-241.5215"/>
</g>
<!-- Test_Cons -->
<g id="node29" class="node">
<title>Test_Cons</title>
<ellipse fill="none" stroke="#000000" cx="677.5782" cy="-90" rx="52.1867" ry="18"/>
<text text-anchor="middle" x="677.5782" y="-85.8" font-family="Times,serif" font-size="14.00" fill="#000000">Test_Cons</text>
</g>
<!-- Train_Cons&#45;&gt;Test_Cons -->
<g id="edge52" class="edge">
<title>Train_Cons-&gt;Test_Cons</title>
<path fill="none" stroke="#000000" d="M838.0412,-287.9834C829.1845,-255.8223 806.9345,-187.8029 767.5782,-144 754.4255,-129.3614 736.3524,-117.4632 719.8513,-108.5987"/>
<polygon fill="#000000" stroke="#000000" points="721.3805,-105.4494 710.8869,-103.9879 718.1787,-111.6743 721.3805,-105.4494"/>
</g>
<!-- Data_sens_DP -->
<g id="node4" class="node">
<title>Data_sens_DP</title>
<ellipse fill="none" stroke="#000000" cx="1811.5782" cy="-522" rx="67.776" ry="18"/>
<text text-anchor="middle" x="1811.5782" y="-517.8" font-family="Times,serif" font-size="14.00" fill="#000000">Data_sens_DP</text>
</g>
<!-- Data_sens_DP&#45;&gt;Data_Cons -->
<g id="edge3" class="edge">
<title>Data_sens_DP-&gt;Data_Cons</title>
<path fill="none" stroke="#000000" d="M1745.7953,-517.5233C1555.1602,-504.55 1004.0718,-467.0468 816.7598,-454.2997"/>
<polygon fill="#000000" stroke="#000000" points="816.7456,-450.7907 806.531,-453.6036 816.2703,-457.7746 816.7456,-450.7907"/>
</g>
<!-- Data_sens_SPD -->
<g id="node5" class="node">
<title>Data_sens_SPD</title>
<ellipse fill="none" stroke="#000000" cx="2484.5782" cy="-450" rx="73.0132" ry="18"/>
<text text-anchor="middle" x="2484.5782" y="-445.8" font-family="Times,serif" font-size="14.00" fill="#000000">Data_sens_SPD</text>
</g>
<!-- Data_sens_DP&#45;&gt;Data_sens_SPD -->
<g id="edge4" class="edge">
<title>Data_sens_DP-&gt;Data_sens_SPD</title>
<path fill="none" stroke="#000000" d="M1874.5899,-515.2588C1998.3148,-502.0222 2272.6439,-472.6735 2407.1623,-458.2822"/>
<polygon fill="#000000" stroke="#000000" points="2407.815,-461.7325 2417.3859,-457.1885 2407.0703,-454.7722 2407.815,-461.7325"/>
</g>
<!-- Train_sens_SPD -->
<g id="node6" class="node">
<title>Train_sens_SPD</title>
<ellipse fill="none" stroke="#000000" cx="1663.5782" cy="-450" rx="75.8817" ry="18"/>
<text text-anchor="middle" x="1663.5782" y="-445.8" font-family="Times,serif" font-size="14.00" fill="#000000">Train_sens_SPD</text>
</g>
<!-- Data_sens_DP&#45;&gt;Train_sens_SPD -->
<g id="edge5" class="edge">
<title>Data_sens_DP-&gt;Train_sens_SPD</title>
<path fill="none" stroke="#000000" d="M1778.7322,-506.0209C1757.3257,-495.6069 1729.1823,-481.9155 1706.0768,-470.675"/>
<polygon fill="#000000" stroke="#000000" points="1707.3676,-467.4108 1696.8441,-466.1834 1704.3053,-473.7055 1707.3676,-467.4108"/>
</g>
<!-- Train_TI -->
<g id="node7" class="node">
<title>Train_TI</title>
<ellipse fill="none" stroke="#000000" cx="1295.5782" cy="-450" rx="45.7848" ry="18"/>
<text text-anchor="middle" x="1295.5782" y="-445.8" font-family="Times,serif" font-size="14.00" fill="#000000">Train_TI</text>
</g>
<!-- Data_sens_DP&#45;&gt;Train_TI -->
<g id="edge6" class="edge">
<title>Data_sens_DP-&gt;Train_TI</title>
<path fill="none" stroke="#000000" d="M1751.3765,-513.5998C1649.8011,-499.4265 1445.9996,-470.989 1349.1094,-457.4695"/>
<polygon fill="#000000" stroke="#000000" points="1349.3419,-453.9681 1338.9541,-456.0525 1348.3745,-460.9009 1349.3419,-453.9681"/>
</g>
<!-- MI_BlackBox -->
<g id="node8" class="node">
<title>MI_BlackBox</title>
<ellipse fill="none" stroke="#000000" cx="2383.5782" cy="-378" rx="66.0743" ry="18"/>
<text text-anchor="middle" x="2383.5782" y="-373.8" font-family="Times,serif" font-size="14.00" fill="#000000">MI_BlackBox</text>
</g>
<!-- Data_sens_DP&#45;&gt;MI_BlackBox -->
<g id="edge7" class="edge">
<title>Data_sens_DP-&gt;MI_BlackBox</title>
<path fill="none" stroke="#000000" d="M1862.1465,-509.9527C1872.5029,-507.7527 1883.3604,-505.6385 1893.5782,-504 2048.855,-479.1005 2097.3154,-520.431 2245.5782,-468 2287.4312,-453.1993 2329.2589,-423.2649 2355.7087,-401.9869"/>
<polygon fill="#000000" stroke="#000000" points="2358.2172,-404.4565 2363.7364,-395.4128 2353.7821,-399.0408 2358.2172,-404.4565"/>
</g>
<!-- Data_sens_SPD&#45;&gt;MI_BlackBox -->
<g id="edge8" class="edge">
<title>Data_sens_SPD-&gt;MI_BlackBox</title>
<path fill="none" stroke="#000000" d="M2460.6426,-432.937C2447.1838,-423.3426 2430.2059,-411.2396 2415.6135,-400.8371"/>
<polygon fill="#000000" stroke="#000000" points="2417.5164,-397.8953 2407.3419,-394.9405 2413.4531,-403.5953 2417.5164,-397.8953"/>
</g>
<!-- AE_PGD -->
<g id="node17" class="node">
<title>AE_PGD</title>
<ellipse fill="none" stroke="#000000" cx="1140.5782" cy="-378" rx="48.0935" ry="18"/>
<text text-anchor="middle" x="1140.5782" y="-373.8" font-family="Times,serif" font-size="14.00" fill="#000000">AE_PGD</text>
</g>
<!-- Train_sens_SPD&#45;&gt;AE_PGD -->
<g id="edge16" class="edge">
<title>Train_sens_SPD-&gt;AE_PGD</title>
<path fill="none" stroke="#000000" d="M1597.8694,-440.9541C1493.8406,-426.6327 1293.0836,-398.995 1195.9284,-385.6199"/>
<polygon fill="#000000" stroke="#000000" points="1196.1145,-382.1126 1185.7305,-384.216 1195.1597,-389.0472 1196.1145,-382.1126"/>
</g>
<!-- Train_TI&#45;&gt;Train_Cons -->
<g id="edge40" class="edge">
<title>Train_TI-&gt;Train_Cons</title>
<path fill="none" stroke="#000000" d="M1278.1223,-432.9258C1252.5901,-408.115 1207.0564,-364.5425 1197.5782,-360 1147.6245,-336.0596 995.9496,-319.3349 907.8549,-311.3447"/>
<polygon fill="#000000" stroke="#000000" points="907.9721,-307.8413 897.7001,-310.4368 907.3487,-314.8135 907.9721,-307.8413"/>
</g>
<!-- Train_TI&#45;&gt;AE_PGD -->
<g id="edge42" class="edge">
<title>Train_TI-&gt;AE_PGD</title>
<path fill="none" stroke="#000000" d="M1265.6926,-436.1177C1241.4043,-424.8354 1206.9293,-408.8211 1180.3164,-396.4591"/>
<polygon fill="#000000" stroke="#000000" points="1181.4447,-393.124 1170.9008,-392.0854 1178.4956,-399.4725 1181.4447,-393.124"/>
</g>
<!-- Train_other_DP -->
<g id="node26" class="node">
<title>Train_other_DP</title>
<ellipse fill="none" stroke="#000000" cx="885.5782" cy="-378" rx="73.5772" ry="18"/>
<text text-anchor="middle" x="885.5782" y="-373.8" font-family="Times,serif" font-size="14.00" fill="#000000">Train_other_DP</text>
</g>
<!-- Train_TI&#45;&gt;Train_other_DP -->
<g id="edge39" class="edge">
<title>Train_TI-&gt;Train_other_DP</title>
<path fill="none" stroke="#000000" d="M1261.5013,-437.8799C1254.6324,-435.7117 1247.42,-433.6281 1240.5782,-432 1146.5981,-409.636 1036.3182,-394.5605 963.9068,-386.1442"/>
<polygon fill="#000000" stroke="#000000" points="964.2802,-382.6642 953.9462,-385.0008 963.4818,-389.6185 964.2802,-382.6642"/>
</g>
<!-- Test_Acc -->
<g id="node27" class="node">
<title>Test_Acc</title>
<ellipse fill="none" stroke="#000000" cx="1211.5782" cy="-90" rx="48.0703" ry="18"/>
<text text-anchor="middle" x="1211.5782" y="-85.8" font-family="Times,serif" font-size="14.00" fill="#000000">Test_Acc</text>
</g>
<!-- Train_TI&#45;&gt;Test_Acc -->
<g id="edge41" class="edge">
<title>Train_TI-&gt;Test_Acc</title>
<path fill="none" stroke="#000000" d="M1291.2971,-431.6526C1277.5912,-372.9129 1234.7251,-189.2013 1218.1826,-118.3047"/>
<polygon fill="#000000" stroke="#000000" points="1221.5314,-117.2535 1215.8506,-108.3104 1214.7145,-118.8442 1221.5314,-117.2535"/>
</g>
<!-- Test_other_DP -->
<g id="node16" class="node">
<title>Test_other_DP</title>
<ellipse fill="none" stroke="#000000" cx="2071.5782" cy="-18" rx="69.5012" ry="18"/>
<text text-anchor="middle" x="2071.5782" y="-13.8" font-family="Times,serif" font-size="14.00" fill="#000000">Test_other_DP</text>
</g>
<!-- MI_BlackBox&#45;&gt;Test_other_DP -->
<g id="edge92" class="edge">
<title>MI_BlackBox-&gt;Test_other_DP</title>
<path fill="none" stroke="#000000" d="M2356.5066,-361.4684C2321.669,-337.8816 2265.5782,-291.0475 2265.5782,-234 2265.5782,-234 2265.5782,-234 2265.5782,-162 2265.5782,-93.8001 2187.32,-54.1436 2130.2122,-34.2841"/>
<polygon fill="#000000" stroke="#000000" points="2131.1265,-30.8991 2120.5326,-31.0345 2128.8987,-37.5351 2131.1265,-30.8991"/>
</g>
<!-- Data_other_DP -->
<g id="node9" class="node">
<title>Data_other_DP</title>
<ellipse fill="none" stroke="#000000" cx="2677.5782" cy="-594" rx="71.2075" ry="18"/>
<text text-anchor="middle" x="2677.5782" y="-589.8" font-family="Times,serif" font-size="14.00" fill="#000000">Data_other_DP</text>
</g>
<!-- Data_other_SPD -->
<g id="node10" class="node">
<title>Data_other_SPD</title>
<ellipse fill="none" stroke="#000000" cx="2677.5782" cy="-522" rx="76.4439" ry="18"/>
<text text-anchor="middle" x="2677.5782" y="-517.8" font-family="Times,serif" font-size="14.00" fill="#000000">Data_other_SPD</text>
</g>
<!-- Data_other_DP&#45;&gt;Data_other_SPD -->
<g id="edge9" class="edge">
<title>Data_other_DP-&gt;Data_other_SPD</title>
<path fill="none" stroke="#000000" d="M2677.5782,-575.8314C2677.5782,-568.131 2677.5782,-558.9743 2677.5782,-550.4166"/>
<polygon fill="#000000" stroke="#000000" points="2681.0783,-550.4132 2677.5782,-540.4133 2674.0783,-550.4133 2681.0783,-550.4132"/>
</g>
<!-- Test_other_AOD -->
<g id="node11" class="node">
<title>Test_other_AOD</title>
<ellipse fill="none" stroke="#000000" cx="3019.5782" cy="-306" rx="78.1501" ry="18"/>
<text text-anchor="middle" x="3019.5782" y="-301.8" font-family="Times,serif" font-size="14.00" fill="#000000">Test_other_AOD</text>
</g>
<!-- Data_other_DP&#45;&gt;Test_other_AOD -->
<g id="edge10" class="edge">
<title>Data_other_DP-&gt;Test_other_AOD</title>
<path fill="none" stroke="#000000" d="M2728.0598,-581.2471C2785.0873,-564.3874 2877.1487,-529.3912 2932.5782,-468 2967.2012,-429.6531 2949.4016,-404.5424 2975.5782,-360 2981.3357,-350.2028 2988.7949,-340.3222 2995.9308,-331.7395"/>
<polygon fill="#000000" stroke="#000000" points="2998.7547,-333.8232 3002.6072,-323.9535 2993.4408,-329.2665 2998.7547,-333.8232"/>
</g>
<!-- Data_other_SPD&#45;&gt;Train_sens_SPD -->
<g id="edge11" class="edge">
<title>Data_other_SPD-&gt;Train_sens_SPD</title>
<path fill="none" stroke="#000000" d="M2604.2459,-516.793C2420.3356,-503.7343 1940.3989,-469.6559 1746.568,-455.8928"/>
<polygon fill="#000000" stroke="#000000" points="1746.6645,-452.3909 1736.4417,-455.1737 1746.1686,-459.3733 1746.6645,-452.3909"/>
</g>
<!-- Train_other_SPD -->
<g id="node12" class="node">
<title>Train_other_SPD</title>
<ellipse fill="none" stroke="#000000" cx="2844.5782" cy="-450" rx="79.3135" ry="18"/>
<text text-anchor="middle" x="2844.5782" y="-445.8" font-family="Times,serif" font-size="14.00" fill="#000000">Train_other_SPD</text>
</g>
<!-- Data_other_SPD&#45;&gt;Train_other_SPD -->
<g id="edge12" class="edge">
<title>Data_other_SPD-&gt;Train_other_SPD</title>
<path fill="none" stroke="#000000" d="M2714.227,-506.1993C2738.8546,-495.5814 2771.5217,-481.4974 2797.9922,-470.085"/>
<polygon fill="#000000" stroke="#000000" points="2799.6405,-473.1858 2807.4377,-466.0127 2796.8691,-466.7578 2799.6405,-473.1858"/>
</g>
<!-- Train_other_AOD -->
<g id="node13" class="node">
<title>Train_other_AOD</title>
<ellipse fill="none" stroke="#000000" cx="2661.5782" cy="-378" rx="82.2256" ry="18"/>
<text text-anchor="middle" x="2661.5782" y="-373.8" font-family="Times,serif" font-size="14.00" fill="#000000">Train_other_AOD</text>
</g>
<!-- Data_other_SPD&#45;&gt;Train_other_AOD -->
<g id="edge13" class="edge">
<title>Data_other_SPD-&gt;Train_other_AOD</title>
<path fill="none" stroke="#000000" d="M2678.396,-503.9727C2678.9384,-485.7327 2679.0167,-456.7686 2675.5782,-432 2674.3983,-423.5012 2672.3584,-414.4176 2670.195,-406.1716"/>
<polygon fill="#000000" stroke="#000000" points="2673.496,-404.9782 2667.4441,-396.2819 2666.752,-406.8541 2673.496,-404.9782"/>
</g>
<!-- Train_other_SPD&#45;&gt;Train_other_AOD -->
<g id="edge32" class="edge">
<title>Train_other_SPD-&gt;Train_other_AOD</title>
<path fill="none" stroke="#000000" d="M2804.8699,-434.3771C2777.481,-423.6011 2740.8607,-409.1931 2711.497,-397.6402"/>
<polygon fill="#000000" stroke="#000000" points="2712.428,-394.2454 2701.8409,-393.8411 2709.8651,-400.7594 2712.428,-394.2454"/>
</g>
<!-- Test_other_SPD -->
<g id="node20" class="node">
<title>Test_other_SPD</title>
<ellipse fill="none" stroke="#000000" cx="3092.5782" cy="-378" rx="74.7381" ry="18"/>
<text text-anchor="middle" x="3092.5782" y="-373.8" font-family="Times,serif" font-size="14.00" fill="#000000">Test_other_SPD</text>
</g>
<!-- Train_other_SPD&#45;&gt;Test_other_SPD -->
<g id="edge36" class="edge">
<title>Train_other_SPD-&gt;Test_other_SPD</title>
<path fill="none" stroke="#000000" d="M2893.575,-435.7751C2934.1728,-423.9887 2991.9519,-407.2141 3034.8008,-394.7741"/>
<polygon fill="#000000" stroke="#000000" points="3035.8994,-398.0997 3044.527,-391.9503 3033.9477,-391.3773 3035.8994,-398.0997"/>
</g>
<!-- Train_other_AOD&#45;&gt;Test_Loss -->
<g id="edge84" class="edge">
<title>Train_other_AOD-&gt;Test_Loss</title>
<path fill="none" stroke="#000000" d="M2599.5768,-366.0319C2456.7992,-338.4716 2106.6595,-270.8843 1970.7595,-244.6516"/>
<polygon fill="#000000" stroke="#000000" points="1971.0639,-241.1458 1960.5817,-242.687 1969.7371,-248.019 1971.0639,-241.1458"/>
</g>
<!-- Train_sens_DP -->
<g id="node14" class="node">
<title>Train_sens_DP</title>
<ellipse fill="none" stroke="#000000" cx="2132.5782" cy="-450" rx="70.6451" ry="18"/>
<text text-anchor="middle" x="2132.5782" y="-445.8" font-family="Times,serif" font-size="14.00" fill="#000000">Train_sens_DP</text>
</g>
<!-- Test_sens_DP -->
<g id="node15" class="node">
<title>Test_sens_DP</title>
<ellipse fill="none" stroke="#000000" cx="2224.5782" cy="-378" rx="66.0704" ry="18"/>
<text text-anchor="middle" x="2224.5782" y="-373.8" font-family="Times,serif" font-size="14.00" fill="#000000">Test_sens_DP</text>
</g>
<!-- Train_sens_DP&#45;&gt;Test_sens_DP -->
<g id="edge14" class="edge">
<title>Train_sens_DP-&gt;Test_sens_DP</title>
<path fill="none" stroke="#000000" d="M2154.8488,-432.5708C2166.8016,-423.2164 2181.698,-411.5584 2194.65,-401.422"/>
<polygon fill="#000000" stroke="#000000" points="2197.1121,-403.9396 2202.8301,-395.0202 2192.7979,-398.4271 2197.1121,-403.9396"/>
</g>
<!-- Train_sens_DP&#45;&gt;Test_other_DP -->
<g id="edge15" class="edge">
<title>Train_sens_DP-&gt;Test_other_DP</title>
<path fill="none" stroke="#000000" d="M2129.263,-431.8863C2124.5765,-404.6615 2116.5782,-351.5285 2116.5782,-306 2116.5782,-306 2116.5782,-306 2116.5782,-162 2116.5782,-119.8263 2098.7762,-73.738 2085.5659,-45.3433"/>
<polygon fill="#000000" stroke="#000000" points="2088.6007,-43.5772 2081.1215,-36.0731 2082.2887,-46.6034 2088.6007,-43.5772"/>
</g>
<!-- Train_sens_AOD -->
<g id="node18" class="node">
<title>Train_sens_AOD</title>
<ellipse fill="none" stroke="#000000" cx="1123.5782" cy="-738" rx="79.2942" ry="18"/>
<text text-anchor="middle" x="1123.5782" y="-733.8" font-family="Times,serif" font-size="14.00" fill="#000000">Train_sens_AOD</text>
</g>
<!-- Train_sens_AOD&#45;&gt;Test_sens_SPD -->
<g id="edge21" class="edge">
<title>Train_sens_AOD-&gt;Test_sens_SPD</title>
<path fill="none" stroke="#000000" d="M1044.8261,-735.5207C843.6467,-728.8329 324.6951,-709.2133 297.5782,-684 219.8106,-611.6919 251.086,-466.2985 268.694,-405.6036"/>
<polygon fill="#000000" stroke="#000000" points="272.0687,-406.5347 271.589,-395.9507 265.3638,-404.5238 272.0687,-406.5347"/>
</g>
<!-- Train_sens_AOD&#45;&gt;Train_Cons -->
<g id="edge24" class="edge">
<title>Train_sens_AOD-&gt;Train_Cons</title>
<path fill="none" stroke="#000000" d="M1046.4258,-733.6237C951.0292,-727.2286 784.0522,-712.8147 643.5782,-684 534.9033,-661.7081 470.749,-701.0426 404.5782,-612 325.1604,-505.1317 450.4423,-425.1188 566.5782,-360 602.2983,-339.9713 709.7153,-323.0045 779.5294,-313.6867"/>
<polygon fill="#000000" stroke="#000000" points="780.0866,-317.1437 789.544,-312.3681 779.1727,-310.2036 780.0866,-317.1437"/>
</g>
<!-- Train_sens_AOD&#45;&gt;Train_sens_SPD -->
<g id="edge17" class="edge">
<title>Train_sens_AOD-&gt;Train_sens_SPD</title>
<path fill="none" stroke="#000000" d="M1163.1555,-722.2347C1217.3489,-700.1053 1317.0999,-657.4227 1397.5782,-612 1447.175,-584.007 1457.5718,-573.5688 1503.5782,-540 1524.55,-524.6978 1527.4894,-517.6405 1549.5782,-504 1570.5035,-491.078 1595.0076,-479.1016 1615.924,-469.7278"/>
<polygon fill="#000000" stroke="#000000" points="1617.52,-472.8492 1625.256,-465.61 1614.6941,-466.4449 1617.52,-472.8492"/>
</g>
<!-- Train_sens_AOD&#45;&gt;Train_other_SPD -->
<g id="edge18" class="edge">
<title>Train_sens_AOD-&gt;Train_other_SPD</title>
<path fill="none" stroke="#000000" d="M1202.8643,-737.7661C1463.0572,-736.565 2289.2068,-729.1968 2551.5782,-684 2657.1373,-665.8161 2703.3242,-685.1416 2781.5782,-612 2819.8388,-576.239 2835.1774,-514.5133 2841.0889,-478.4616"/>
<polygon fill="#000000" stroke="#000000" points="2844.6128,-478.5632 2842.6358,-468.1545 2837.6903,-477.5242 2844.6128,-478.5632"/>
</g>
<!-- Train_sens_AOD&#45;&gt;Train_other_AOD -->
<g id="edge19" class="edge">
<title>Train_sens_AOD-&gt;Train_other_AOD</title>
<path fill="none" stroke="#000000" d="M1202.6504,-736.3717C1444.8182,-731.0917 2166.0315,-713.0844 2267.5782,-684 2393.4474,-647.9493 2423.5797,-623.3188 2524.5782,-540 2574.1349,-499.1181 2619.7573,-438.7457 2643.8033,-404.4172"/>
<polygon fill="#000000" stroke="#000000" points="2646.9057,-406.0848 2649.7202,-395.8706 2641.1503,-402.1003 2646.9057,-406.0848"/>
</g>
<!-- Train_sens_AOD&#45;&gt;Test_sens_DP -->
<g id="edge20" class="edge">
<title>Train_sens_AOD-&gt;Test_sens_DP</title>
<path fill="none" stroke="#000000" d="M1202.9002,-737.1363C1452.3908,-734.0355 2206.7703,-721.5775 2242.5782,-684 2315.7814,-607.1789 2264.0276,-464.3828 2237.5641,-404.9947"/>
<polygon fill="#000000" stroke="#000000" points="2240.7399,-403.5233 2233.4054,-395.8776 2234.3711,-406.4283 2240.7399,-403.5233"/>
</g>
<!-- Train_sens_AOD&#45;&gt;Test_sens_AOD -->
<g id="edge22" class="edge">
<title>Train_sens_AOD-&gt;Test_sens_AOD</title>
<path fill="none" stroke="#000000" d="M1045.197,-735.4601C839.4786,-728.4747 297.8296,-707.8992 267.5782,-684 151.9039,-592.615 110.382,-479.5908 196.5782,-360 208.2038,-343.8703 252.1207,-329.8185 291.2988,-320.0952"/>
<polygon fill="#000000" stroke="#000000" points="292.2369,-323.4693 301.1347,-317.7178 290.5923,-316.6652 292.2369,-323.4693"/>
</g>
<!-- Train_sens_AOD&#45;&gt;Test_other_SPD -->
<g id="edge23" class="edge">
<title>Train_sens_AOD-&gt;Test_other_SPD</title>
<path fill="none" stroke="#000000" d="M1202.7142,-737.075C1496.3934,-733.3865 2514.1615,-718.2382 2655.5782,-684 2788.1406,-651.9055 2818.8739,-623.6819 2926.5782,-540 2982.2175,-496.7705 3039.3469,-436.9556 3069.9374,-403.4219"/>
<polygon fill="#000000" stroke="#000000" points="3072.6457,-405.6455 3076.7685,-395.8857 3067.4593,-400.9443 3072.6457,-405.6455"/>
</g>
<!-- Train_CDS -->
<g id="node21" class="node">
<title>Train_CDS</title>
<ellipse fill="none" stroke="#000000" cx="1197.5782" cy="-522" rx="55.6159" ry="18"/>
<text text-anchor="middle" x="1197.5782" y="-517.8" font-family="Times,serif" font-size="14.00" fill="#000000">Train_CDS</text>
</g>
<!-- Train_sens_AOD&#45;&gt;Train_CDS -->
<g id="edge25" class="edge">
<title>Train_sens_AOD-&gt;Train_CDS</title>
<path fill="none" stroke="#000000" d="M1129.7601,-719.9555C1142.6829,-682.235 1172.631,-594.8188 1188.0404,-549.8399"/>
<polygon fill="#000000" stroke="#000000" points="1191.4318,-550.7397 1191.3618,-540.1451 1184.8097,-548.4709 1191.4318,-550.7397"/>
</g>
<!-- Train_sens_AOD&#45;&gt;Test_TI -->
<g id="edge26" class="edge">
<title>Train_sens_AOD-&gt;Test_TI</title>
<path fill="none" stroke="#000000" d="M1045.1185,-735.4749C840.5998,-728.5836 301.6455,-708.3325 224.5782,-684 166.3539,-665.6169 137.3621,-665.3003 107.5782,-612 33.8046,-479.9774 86.2757,-372.6864 211.5782,-288 266.7118,-250.7376 461.5354,-238.9986 555.7706,-235.4544"/>
<polygon fill="#000000" stroke="#000000" points="556.0639,-238.9462 565.9318,-235.0894 555.8126,-231.9507 556.0639,-238.9462"/>
</g>
<!-- Train_Acc -->
<g id="node23" class="node">
<title>Train_Acc</title>
<ellipse fill="none" stroke="#000000" cx="1016.5782" cy="-666" rx="52.1463" ry="18"/>
<text text-anchor="middle" x="1016.5782" y="-661.8" font-family="Times,serif" font-size="14.00" fill="#000000">Train_Acc</text>
</g>
<!-- Train_sens_AOD&#45;&gt;Train_Acc -->
<g id="edge27" class="edge">
<title>Train_sens_AOD-&gt;Train_Acc</title>
<path fill="none" stroke="#000000" d="M1098.2207,-720.937C1083.5162,-711.0424 1064.8467,-698.4798 1049.0731,-687.8657"/>
<polygon fill="#000000" stroke="#000000" points="1050.902,-684.8778 1040.6515,-682.1989 1046.9941,-690.6855 1050.902,-684.8778"/>
</g>
<!-- Train_F1 -->
<g id="node24" class="node">
<title>Train_F1</title>
<ellipse fill="none" stroke="#000000" cx="558.5782" cy="-522" rx="46.9497" ry="18"/>
<text text-anchor="middle" x="558.5782" y="-517.8" font-family="Times,serif" font-size="14.00" fill="#000000">Train_F1</text>
</g>
<!-- Train_sens_AOD&#45;&gt;Train_F1 -->
<g id="edge28" class="edge">
<title>Train_sens_AOD-&gt;Train_F1</title>
<path fill="none" stroke="#000000" d="M1051.577,-730.5034C919.9516,-715.3553 647.9104,-676.9026 581.5782,-612 565.2605,-596.034 559.9563,-570.2061 558.4749,-550.3047"/>
<polygon fill="#000000" stroke="#000000" points="561.9677,-550.0662 558.0049,-540.2404 554.9753,-550.3928 561.9677,-550.0662"/>
</g>
<!-- Train_sens_AOD&#45;&gt;Test_Loss -->
<g id="edge29" class="edge">
<title>Train_sens_AOD-&gt;Test_Loss</title>
<path fill="none" stroke="#000000" d="M1202.627,-736.2897C1393.9431,-730.6641 1875.304,-707.1703 1999.5782,-612 2088.5164,-543.8903 2039.559,-466.4203 2004.5782,-360 1993.586,-326.5592 1991.9357,-316.7173 1971.5782,-288 1963.7509,-276.9584 1953.4705,-266.2868 1943.857,-257.3873"/>
<polygon fill="#000000" stroke="#000000" points="1946.132,-254.7262 1936.3498,-250.6568 1941.4592,-259.9382 1946.132,-254.7262"/>
</g>
<!-- Test_sens_AOD&#45;&gt;Test_Cons -->
<g id="edge35" class="edge">
<title>Test_sens_AOD-&gt;Test_Cons</title>
<path fill="none" stroke="#000000" d="M432.2307,-302.5583C510.9253,-297.2429 628.441,-284.0449 658.5782,-252 692.2466,-216.2002 688.9981,-154.4883 683.4128,-118.4495"/>
<polygon fill="#000000" stroke="#000000" points="686.7855,-117.4093 681.6427,-108.1463 679.8865,-118.5946 686.7855,-117.4093"/>
</g>
<!-- Test_other_SPD&#45;&gt;Test_other_AOD -->
<g id="edge38" class="edge">
<title>Test_other_SPD-&gt;Test_other_AOD</title>
<path fill="none" stroke="#000000" d="M3074.5332,-360.2022C3065.5163,-351.3088 3054.4602,-340.4042 3044.6349,-330.7135"/>
<polygon fill="#000000" stroke="#000000" points="3046.993,-328.1233 3037.4155,-323.593 3042.0775,-333.1071 3046.993,-328.1233"/>
</g>
<!-- Test_other_SPD&#45;&gt;Test_other_DP -->
<g id="edge37" class="edge">
<title>Test_other_SPD-&gt;Test_other_DP</title>
<path fill="none" stroke="#000000" d="M3115.9505,-360.867C3146.3398,-336.4159 3195.5782,-288.4045 3195.5782,-234 3195.5782,-234 3195.5782,-234 3195.5782,-162 3195.5782,-56.6098 2408.0814,-26.7599 2151.4053,-19.8298"/>
<polygon fill="#000000" stroke="#000000" points="2151.1306,-16.3213 2141.0412,-19.5547 2150.9447,-23.3189 2151.1306,-16.3213"/>
</g>
<!-- Train_CDS&#45;&gt;Train_sens_SPD -->
<g id="edge44" class="edge">
<title>Train_CDS-&gt;Train_sens_SPD</title>
<path fill="none" stroke="#000000" d="M1249.416,-515.4684C1322.0635,-506.1071 1458.209,-487.8061 1573.5782,-468 1581.0035,-466.7252 1588.7561,-465.3074 1596.4617,-463.8427"/>
<polygon fill="#000000" stroke="#000000" points="1597.3778,-467.2306 1606.533,-461.8984 1596.0509,-460.3575 1597.3778,-467.2306"/>
</g>
<!-- Train_CDS&#45;&gt;Train_TI -->
<g id="edge47" class="edge">
<title>Train_CDS-&gt;Train_TI</title>
<path fill="none" stroke="#000000" d="M1220.3077,-505.3008C1233.7314,-495.4384 1250.8898,-482.8323 1265.4333,-472.1473"/>
<polygon fill="#000000" stroke="#000000" points="1267.6595,-474.8548 1273.6461,-466.1134 1263.515,-469.2136 1267.6595,-474.8548"/>
</g>
<!-- Train_CDS&#45;&gt;Train_sens_DP -->
<g id="edge43" class="edge">
<title>Train_CDS-&gt;Train_sens_DP</title>
<path fill="none" stroke="#000000" d="M1250.4094,-516.2824C1286.0317,-512.5269 1334.1017,-507.6519 1376.5782,-504 1623.4253,-482.7772 1916.1264,-463.5613 2053.6957,-454.8808"/>
<polygon fill="#000000" stroke="#000000" points="2053.9689,-458.3706 2063.7291,-454.249 2053.5289,-451.3845 2053.9689,-458.3706"/>
</g>
<!-- Train_CDS&#45;&gt;Test_other_DP -->
<g id="edge46" class="edge">
<title>Train_CDS-&gt;Test_other_DP</title>
<path fill="none" stroke="#000000" d="M1244.6809,-512.2294C1294.1088,-501.8336 1374.0046,-484.6253 1442.5782,-468 1503.344,-453.2676 1518.0291,-447.5993 1578.5782,-432 1769.8116,-382.7324 1818.9441,-375.5383 2009.5782,-324 2037.2771,-316.5115 2071.5782,-334.6934 2071.5782,-306 2071.5782,-306 2071.5782,-306 2071.5782,-162 2071.5782,-121.876 2071.5782,-75.4631 2071.5782,-46.4177"/>
<polygon fill="#000000" stroke="#000000" points="2075.0783,-46.1853 2071.5782,-36.1854 2068.0783,-46.1854 2075.0783,-46.1853"/>
</g>
<!-- Train_CDS&#45;&gt;Train_other_DP -->
<g id="edge45" class="edge">
<title>Train_CDS-&gt;Train_other_DP</title>
<path fill="none" stroke="#000000" d="M1154.3003,-510.7125C1145.468,-508.4537 1136.2306,-506.1235 1127.5782,-504 1059.3143,-487.2465 1034.8151,-502.5062 973.5782,-468 945.2994,-452.0653 920.211,-424.3232 904.1308,-403.8398"/>
<polygon fill="#000000" stroke="#000000" points="906.8665,-401.6554 898.0125,-395.8366 901.3053,-405.9068 906.8665,-401.6554"/>
</g>
<!-- Train_CDS&#45;&gt;Test_Acc -->
<g id="edge50" class="edge">
<title>Train_CDS-&gt;Test_Acc</title>
<path fill="none" stroke="#000000" d="M1242.6283,-511.4583C1274.3303,-502.7945 1316.9343,-488.5734 1350.5782,-468 1400.1973,-437.6577 1445.5782,-436.1611 1445.5782,-378 1445.5782,-378 1445.5782,-378 1445.5782,-234 1445.5782,-150.1169 1335.1631,-113.5281 1266.0256,-98.8397"/>
<polygon fill="#000000" stroke="#000000" points="1266.6397,-95.393 1256.1426,-96.8285 1265.2437,-102.2524 1266.6397,-95.393"/>
</g>
<!-- Train_CDS&#45;&gt;Test_CDS -->
<g id="edge49" class="edge">
<title>Train_CDS-&gt;Test_CDS</title>
<path fill="none" stroke="#000000" d="M1244.8826,-512.5167C1296.0124,-501.7163 1373.6662,-483.5515 1399.5782,-468 1446.4928,-439.8434 1483.5782,-432.7154 1483.5782,-378 1483.5782,-378 1483.5782,-378 1483.5782,-162 1483.5782,-120.9444 1472.4756,-74.4951 1464.253,-45.7243"/>
<polygon fill="#000000" stroke="#000000" points="1467.5621,-44.5712 1461.3798,-35.9672 1460.8472,-46.5486 1467.5621,-44.5712"/>
</g>
<!-- Train_CDS&#45;&gt;Test_Cons -->
<g id="edge48" class="edge">
<title>Train_CDS-&gt;Test_Cons</title>
<path fill="none" stroke="#000000" d="M1152.4096,-511.2809C1112.7084,-500.9596 1059.0621,-484.5214 1044.5782,-468 1017.6282,-437.259 1025.5782,-418.8816 1025.5782,-378 1025.5782,-378 1025.5782,-378 1025.5782,-234 1025.5782,-202.0698 822.9644,-135.0272 726.9399,-105.0467"/>
<polygon fill="#000000" stroke="#000000" points="727.7476,-101.6326 717.1594,-102.0062 725.6696,-108.3171 727.7476,-101.6326"/>
</g>
<!-- AE_FGSM -->
<g id="node30" class="node">
<title>AE_FGSM</title>
<ellipse fill="none" stroke="#000000" cx="537.5782" cy="-162" rx="55.0555" ry="18"/>
<text text-anchor="middle" x="537.5782" y="-157.8" font-family="Times,serif" font-size="14.00" fill="#000000">AE_FGSM</text>
</g>
<!-- Train_CDS&#45;&gt;AE_FGSM -->
<g id="edge51" class="edge">
<title>Train_CDS-&gt;AE_FGSM</title>
<path fill="none" stroke="#000000" d="M1144.4178,-516.539C1088.9257,-509.6581 1000.0555,-495.2799 927.5782,-468 859.61,-442.4173 585.2037,-291.7068 556.5782,-252 543.7153,-234.1578 539.1936,-209.4624 537.7609,-190.4529"/>
<polygon fill="#000000" stroke="#000000" points="541.2473,-190.0935 537.2419,-180.2849 534.2564,-190.4504 541.2473,-190.0935"/>
</g>
<!-- Test_TI&#45;&gt;Test_Acc -->
<g id="edge56" class="edge">
<title>Test_TI-&gt;Test_Acc</title>
<path fill="none" stroke="#000000" d="M644.4519,-225.2089C748.1079,-200.4962 1042.2331,-130.3736 1160.9556,-102.069"/>
<polygon fill="#000000" stroke="#000000" points="1161.9646,-105.4266 1170.8803,-99.7028 1160.3412,-98.6174 1161.9646,-105.4266"/>
</g>
<!-- Test_TI&#45;&gt;Test_Cons -->
<g id="edge55" class="edge">
<title>Test_TI-&gt;Test_Cons</title>
<path fill="none" stroke="#000000" d="M616.1615,-216.3428C628.2319,-191.5122 650.3238,-146.066 664.4611,-116.9836"/>
<polygon fill="#000000" stroke="#000000" points="667.7004,-118.3255 668.9246,-107.8017 661.4048,-115.2651 667.7004,-118.3255"/>
</g>
<!-- Test_TI&#45;&gt;AE_FGSM -->
<g id="edge58" class="edge">
<title>Test_TI-&gt;AE_FGSM</title>
<path fill="none" stroke="#000000" d="M591.3428,-217.3008C582.5887,-208.2965 571.611,-197.0052 561.8613,-186.9769"/>
<polygon fill="#000000" stroke="#000000" points="564.1824,-184.3434 554.7021,-179.6132 559.1634,-189.2229 564.1824,-184.3434"/>
</g>
<!-- Test_F1 -->
<g id="node31" class="node">
<title>Test_F1</title>
<ellipse fill="none" stroke="#000000" cx="1836.5782" cy="-162" rx="42.8751" ry="18"/>
<text text-anchor="middle" x="1836.5782" y="-157.8" font-family="Times,serif" font-size="14.00" fill="#000000">Test_F1</text>
</g>
<!-- Test_TI&#45;&gt;Test_F1 -->
<g id="edge57" class="edge">
<title>Test_TI-&gt;Test_F1</title>
<path fill="none" stroke="#000000" d="M648.8206,-231.5838C832.7399,-220.8091 1578.0575,-177.1452 1783.7655,-165.094"/>
<polygon fill="#000000" stroke="#000000" points="1784.2221,-168.5733 1794.0002,-164.4944 1783.8126,-161.5853 1784.2221,-168.5733"/>
</g>
<!-- Train_Acc&#45;&gt;Test_sens_SPD -->
<g id="edge63" class="edge">
<title>Train_Acc-&gt;Test_sens_SPD</title>
<path fill="none" stroke="#000000" d="M964.815,-663.2861C849.7535,-656.8383 575.9537,-639.0851 487.5782,-612 455.2579,-602.0946 376.8224,-564.5443 353.5782,-540 316.7962,-501.1607 295.1114,-441.2797 284.8551,-406.2335"/>
<polygon fill="#000000" stroke="#000000" points="288.1115,-404.8842 282.0349,-396.2052 281.3729,-406.7793 288.1115,-404.8842"/>
</g>
<!-- Train_Acc&#45;&gt;Train_Cons -->
<g id="edge64" class="edge">
<title>Train_Acc-&gt;Train_Cons</title>
<path fill="none" stroke="#000000" d="M964.5795,-663.4834C864.426,-657.9973 648.7224,-642.8986 581.5782,-612 538.4227,-592.1406 521.7694,-583.4567 502.5782,-540 463.4534,-451.4058 590.7911,-380.4128 623.5782,-360 670.0915,-331.0414 731.1807,-317.6067 777.0183,-311.3772"/>
<polygon fill="#000000" stroke="#000000" points="777.6679,-314.8227 787.1438,-310.0838 776.7809,-307.8791 777.6679,-314.8227"/>
</g>
<!-- Train_Acc&#45;&gt;Train_sens_SPD -->
<g id="edge60" class="edge">
<title>Train_Acc-&gt;Train_sens_SPD</title>
<path fill="none" stroke="#000000" d="M1068.5507,-663.5213C1135.0434,-659.0111 1252.9297,-646.468 1347.5782,-612 1406.3788,-590.5866 1417.5343,-576.2018 1468.5782,-540 1488.9086,-525.581 1489.9381,-516.367 1511.5782,-504 1539.7443,-487.9035 1573.5436,-475.3174 1602.1106,-466.3606"/>
<polygon fill="#000000" stroke="#000000" points="1603.439,-469.6145 1611.9791,-463.3441 1601.3927,-462.9203 1603.439,-469.6145"/>
</g>
<!-- Train_Acc&#45;&gt;Train_TI -->
<g id="edge65" class="edge">
<title>Train_Acc-&gt;Train_TI</title>
<path fill="none" stroke="#000000" d="M1024.675,-648.0708C1040.5863,-614.8138 1079.0944,-543.3776 1132.5782,-504 1133.831,-503.0776 1202.8103,-480.3801 1250.6237,-464.7089"/>
<polygon fill="#000000" stroke="#000000" points="1251.7621,-468.0191 1260.1753,-461.5795 1249.5826,-461.367 1251.7621,-468.0191"/>
</g>
<!-- Train_Acc&#45;&gt;MI_BlackBox -->
<g id="edge73" class="edge">
<title>Train_Acc-&gt;MI_BlackBox</title>
<path fill="none" stroke="#000000" d="M1069.131,-665.6772C1280.8685,-664.0861 2064.9225,-655.2972 2166.5782,-612 2187.9821,-602.8836 2183.7027,-586.2688 2204.5782,-576 2355.2338,-501.8912 2480.6445,-612.2381 2566.5782,-468 2595.3469,-419.7122 2518.0563,-396.7031 2455.1866,-386.1903"/>
<polygon fill="#000000" stroke="#000000" points="2455.6642,-382.7223 2445.2386,-384.6084 2454.5649,-389.6355 2455.6642,-382.7223"/>
</g>
<!-- Train_Acc&#45;&gt;Train_other_SPD -->
<g id="edge61" class="edge">
<title>Train_Acc-&gt;Train_other_SPD</title>
<path fill="none" stroke="#000000" d="M1069.0826,-665.1655C1235.6013,-662.1867 1766.7276,-650.1335 2204.5782,-612 2266.8564,-606.576 2707.1314,-568.8732 2762.5782,-540 2777.4203,-532.2711 2805.2701,-499.6755 2824.36,-475.9291"/>
<polygon fill="#000000" stroke="#000000" points="2827.2194,-477.9569 2830.7113,-467.954 2821.7437,-473.596 2827.2194,-477.9569"/>
</g>
<!-- Train_Acc&#45;&gt;Train_other_AOD -->
<g id="edge62" class="edge">
<title>Train_Acc-&gt;Train_other_AOD</title>
<path fill="none" stroke="#000000" d="M1068.8461,-665.0311C1273.2177,-661.0236 2011.9127,-644.4119 2111.5782,-612 2139.3612,-602.9648 2139.2028,-586.2041 2166.5782,-576 2278.7776,-534.1781 2319.7332,-577.1092 2433.5782,-540 2497.4857,-519.1686 2512.1574,-507.4526 2566.5782,-468 2593.2532,-448.6618 2620.1921,-422.3519 2638.5358,-403.1746"/>
<polygon fill="#000000" stroke="#000000" points="2641.2824,-405.364 2645.6052,-395.6911 2636.1938,-400.557 2641.2824,-405.364"/>
</g>
<!-- Train_Acc&#45;&gt;AE_PGD -->
<g id="edge72" class="edge">
<title>Train_Acc-&gt;AE_PGD</title>
<path fill="none" stroke="#000000" d="M1019.4293,-647.7343C1022.802,-629.0546 1029.417,-599.5217 1040.5782,-576 1057.4999,-540.338 1068.3731,-535.1807 1092.5782,-504 1105.3496,-487.548 1113.5928,-486.7894 1122.5782,-468 1131.8877,-448.5327 1136.3849,-424.4766 1138.556,-406.1341"/>
<polygon fill="#000000" stroke="#000000" points="1142.0493,-406.3766 1139.5843,-396.0725 1135.0856,-405.6648 1142.0493,-406.3766"/>
</g>
<!-- Train_Acc&#45;&gt;Test_TI -->
<g id="edge67" class="edge">
<title>Train_Acc-&gt;Test_TI</title>
<path fill="none" stroke="#000000" d="M964.4732,-663.2801C825.9038,-655.7828 455.3825,-633.9198 404.5782,-612 282.2081,-559.2029 243.6986,-520.6661 196.5782,-396 175.644,-340.6146 221.3429,-313.9188 274.5782,-288 323.3358,-264.2612 475.805,-246.6097 556.4259,-238.6606"/>
<polygon fill="#000000" stroke="#000000" points="557.2202,-242.1 566.8347,-237.6489 556.543,-235.1328 557.2202,-242.1"/>
</g>
<!-- Train_Acc&#45;&gt;Train_F1 -->
<g id="edge69" class="edge">
<title>Train_Acc-&gt;Train_F1</title>
<path fill="none" stroke="#000000" d="M964.4512,-664.129C870.2498,-659.9066 676.1775,-647.1049 619.5782,-612 596.0369,-597.3989 579.4397,-569.9609 569.5614,-549.2026"/>
<polygon fill="#000000" stroke="#000000" points="572.6761,-547.5956 565.3728,-539.9202 566.2957,-550.4747 572.6761,-547.5956"/>
</g>
<!-- Train_Acc&#45;&gt;Test_Loss -->
<g id="edge71" class="edge">
<title>Train_Acc-&gt;Test_Loss</title>
<path fill="none" stroke="#000000" d="M1069.0181,-664.6672C1263.5726,-659.5123 1934.7178,-639.778 1970.5782,-612 2079.2053,-527.8556 1975.9657,-332.3015 1932.6557,-260.8002"/>
<polygon fill="#000000" stroke="#000000" points="1935.428,-258.6268 1927.2091,-251.941 1929.4648,-262.2929 1935.428,-258.6268"/>
</g>
<!-- Train_Acc&#45;&gt;Test_Acc -->
<g id="edge70" class="edge">
<title>Train_Acc-&gt;Test_Acc</title>
<path fill="none" stroke="#000000" d="M972.4982,-656.2128C868.7132,-630.9035 622.6415,-556.4372 690.5782,-432 742.3914,-337.0956 813.3018,-375.1261 908.5782,-324 1022.2631,-262.9957 1137.7555,-159.9648 1186.9498,-113.7169"/>
<polygon fill="#000000" stroke="#000000" points="1189.4057,-116.2116 1194.2655,-106.797 1184.5954,-111.1261 1189.4057,-116.2116"/>
</g>
<!-- Train_Acc&#45;&gt;Test_Cons -->
<g id="edge66" class="edge">
<title>Train_Acc-&gt;Test_Cons</title>
<path fill="none" stroke="#000000" d="M964.6046,-663.8204C814.3853,-657.2558 386.6313,-636.602 328.5782,-612 183.9099,-550.6918 63.5782,-535.1229 63.5782,-378 63.5782,-378 63.5782,-378 63.5782,-234 63.5782,-121.6181 458.3946,-96.8761 614.8308,-91.4835"/>
<polygon fill="#000000" stroke="#000000" points="615.3493,-94.9685 625.2289,-91.1416 615.1192,-87.9722 615.3493,-94.9685"/>
</g>
<!-- Model_Width -->
<g id="node32" class="node">
<title>Model_Width</title>
<ellipse fill="none" stroke="#000000" cx="1273.5782" cy="-594" rx="65.4324" ry="18"/>
<text text-anchor="middle" x="1273.5782" y="-589.8" font-family="Times,serif" font-size="14.00" fill="#000000">Model_Width</text>
</g>
<!-- Train_Acc&#45;&gt;Model_Width -->
<g id="edge59" class="edge">
<title>Train_Acc-&gt;Model_Width</title>
<path fill="none" stroke="#000000" d="M1057.3006,-654.5914C1100.6002,-642.4608 1169.3705,-623.1944 1217.715,-609.6504"/>
<polygon fill="#000000" stroke="#000000" points="1218.716,-613.0048 1227.401,-606.9368 1216.8276,-606.2643 1218.716,-613.0048"/>
</g>
<!-- Train_Loss -->
<g id="node33" class="node">
<title>Train_Loss</title>
<ellipse fill="none" stroke="#000000" cx="1836.5782" cy="-306" rx="55.0343" ry="18"/>
<text text-anchor="middle" x="1836.5782" y="-301.8" font-family="Times,serif" font-size="14.00" fill="#000000">Train_Loss</text>
</g>
<!-- Train_Acc&#45;&gt;Train_Loss -->
<g id="edge68" class="edge">
<title>Train_Acc-&gt;Train_Loss</title>
<path fill="none" stroke="#000000" d="M1068.7372,-664.3574C1258.3367,-658.2043 1901.8148,-635.6596 1938.5782,-612 1981.3674,-584.4624 1995.025,-551.4231 1976.5782,-504 1968.7096,-483.7714 1956.9344,-485.1091 1943.5782,-468 1908.1255,-422.5859 1872.3137,-365.5952 1852.4276,-332.7334"/>
<polygon fill="#000000" stroke="#000000" points="1855.4087,-330.899 1847.2546,-324.1342 1849.4104,-334.5074 1855.4087,-330.899"/>
</g>
<!-- MI_Rule -->
<g id="node34" class="node">
<title>MI_Rule</title>
<ellipse fill="none" stroke="#000000" cx="606.5782" cy="-18" rx="45.806" ry="18"/>
<text text-anchor="middle" x="606.5782" y="-13.8" font-family="Times,serif" font-size="14.00" fill="#000000">MI_Rule</text>
</g>
<!-- Train_Acc&#45;&gt;MI_Rule -->
<g id="edge74" class="edge">
<title>Train_Acc-&gt;MI_Rule</title>
<path fill="none" stroke="#000000" d="M964.2039,-665.2977C812.4171,-662.8011 374.3908,-652.2134 237.5782,-612 123.8084,-578.5595 25.5782,-568.5826 25.5782,-450 25.5782,-450 25.5782,-450 25.5782,-162 25.5782,-54.5534 404.6689,-26.7323 550.42,-20.0065"/>
<polygon fill="#000000" stroke="#000000" points="550.6679,-23.4991 560.5024,-19.5579 550.3567,-16.506 550.6679,-23.4991"/>
</g>
<!-- Train_F1&#45;&gt;Train_Cons -->
<g id="edge78" class="edge">
<title>Train_F1-&gt;Train_Cons</title>
<path fill="none" stroke="#000000" d="M565.1001,-503.9219C578.1157,-470.4167 610.5282,-398.5834 661.5782,-360 695.5341,-334.3362 741.5868,-320.8148 778.7407,-313.7202"/>
<polygon fill="#000000" stroke="#000000" points="779.7422,-317.0965 788.9666,-311.8849 778.5055,-310.2066 779.7422,-317.0965"/>
</g>
<!-- Train_F1&#45;&gt;Train_TI -->
<g id="edge79" class="edge">
<title>Train_F1-&gt;Train_TI</title>
<path fill="none" stroke="#000000" d="M605.3558,-519.7443C738.6118,-513.0889 1118.4398,-492.46 1240.5782,-468 1244.4033,-467.234 1248.3333,-466.2862 1252.2484,-465.2295"/>
<polygon fill="#000000" stroke="#000000" points="1253.2615,-468.5799 1261.8815,-462.4198 1251.3014,-461.86 1253.2615,-468.5799"/>
</g>
<!-- Train_F1&#45;&gt;Test_other_DP -->
<g id="edge77" class="edge">
<title>Train_F1-&gt;Test_other_DP</title>
<path fill="none" stroke="#000000" d="M605.5187,-520.4027C769.7838,-514.612 1312.8236,-493.7032 1386.5782,-468 1413.1216,-458.7497 1412.5424,-442.5954 1438.5782,-432 1527.5056,-395.8105 1560.4797,-426.3126 1651.5782,-396 1684.773,-384.9546 1688.5587,-371.5592 1721.5782,-360 1848.0869,-315.7127 1995.5782,-368.0367 1995.5782,-234 1995.5782,-234 1995.5782,-234 1995.5782,-162 1995.5782,-116.1436 2026.0947,-70.5817 2048.4532,-43.354"/>
<polygon fill="#000000" stroke="#000000" points="2051.3004,-45.4075 2055.0873,-35.5126 2045.9564,-40.8863 2051.3004,-45.4075"/>
</g>
<!-- Train_F1&#45;&gt;Train_other_DP -->
<g id="edge76" class="edge">
<title>Train_F1-&gt;Train_other_DP</title>
<path fill="none" stroke="#000000" d="M578.3411,-505.4231C603.1098,-485.4088 647.5516,-451.9565 690.5782,-432 730.6551,-413.4116 778.4159,-400.0545 816.6391,-391.275"/>
<polygon fill="#000000" stroke="#000000" points="817.6539,-394.6344 826.6454,-389.0305 816.1218,-387.8041 817.6539,-394.6344"/>
</g>
<!-- Train_F1&#45;&gt;Test_Cons -->
<g id="edge80" class="edge">
<title>Train_F1-&gt;Test_Cons</title>
<path fill="none" stroke="#000000" d="M560.9133,-503.9296C563.6913,-485.4054 569.1784,-455.9944 578.5782,-432 624.0375,-315.9574 686.3506,-303.6955 701.5782,-180 703.5331,-164.1199 704.8996,-159.6514 701.5782,-144 699.6285,-134.8126 696.0041,-125.2905 692.152,-116.848"/>
<polygon fill="#000000" stroke="#000000" points="695.2997,-115.3174 687.7834,-107.8503 689.0026,-118.3748 695.2997,-115.3174"/>
</g>
<!-- Train_F1&#45;&gt;AE_FGSM -->
<g id="edge82" class="edge">
<title>Train_F1-&gt;AE_FGSM</title>
<path fill="none" stroke="#000000" d="M552.6157,-503.6956C549.4611,-493.3279 545.7928,-480.0581 543.5782,-468 526.1625,-373.1754 528.0274,-348.3079 523.5782,-252 522.8398,-236.017 521.5542,-231.8715 523.5782,-216 524.6635,-207.4887 526.6744,-198.4011 528.8402,-190.1555"/>
<polygon fill="#000000" stroke="#000000" points="532.2826,-190.8414 531.6083,-180.2681 525.5418,-188.9542 532.2826,-190.8414"/>
</g>
<!-- Train_F1&#45;&gt;Test_F1 -->
<g id="edge81" class="edge">
<title>Train_F1-&gt;Test_F1</title>
<path fill="none" stroke="#000000" d="M605.4867,-520.4916C765.1663,-515.1249 1281.5353,-495.7809 1350.5782,-468 1373.7011,-458.696 1370.9002,-442.3413 1393.5782,-432 1485.7219,-389.9818 1529.2092,-443.636 1618.5782,-396 1643.3294,-382.807 1764.8231,-244.6575 1814.9202,-187.0288"/>
<polygon fill="#000000" stroke="#000000" points="1817.8606,-188.9807 1821.7735,-179.1349 1812.5747,-184.3916 1817.8606,-188.9807"/>
</g>
<!-- Test_Loss&#45;&gt;Test_F1 -->
<g id="edge87" class="edge">
<title>Test_Loss-&gt;Test_F1</title>
<path fill="none" stroke="#000000" d="M1896.8563,-216.937C1886.476,-207.4765 1873.4194,-195.5768 1862.1143,-185.2734"/>
<polygon fill="#000000" stroke="#000000" points="1864.3705,-182.5941 1854.6219,-178.4449 1859.6552,-187.7678 1864.3705,-182.5941"/>
</g>
<!-- Train_other_DP&#45;&gt;Train_Cons -->
<g id="edge30" class="edge">
<title>Train_other_DP-&gt;Train_Cons</title>
<path fill="none" stroke="#000000" d="M874.7275,-359.8314C869.8013,-351.5829 863.8772,-341.6635 858.4638,-332.5992"/>
<polygon fill="#000000" stroke="#000000" points="861.4088,-330.7042 853.2765,-323.9134 855.399,-334.2935 861.4088,-330.7042"/>
</g>
<!-- Train_other_DP&#45;&gt;Test_Acc -->
<g id="edge31" class="edge">
<title>Train_other_DP-&gt;Test_Acc</title>
<path fill="none" stroke="#000000" d="M927.1679,-363.1091C976.7651,-343.7091 1059.931,-305.7983 1115.5782,-252 1156.3308,-212.6013 1185.9178,-152.2592 1200.7699,-117.4157"/>
<polygon fill="#000000" stroke="#000000" points="1204.1243,-118.4645 1204.734,-107.8873 1197.6613,-115.7757 1204.1243,-118.4645"/>
</g>
<!-- Test_Acc&#45;&gt;Test_other_DP -->
<g id="edge83" class="edge">
<title>Test_Acc-&gt;Test_other_DP</title>
<path fill="none" stroke="#000000" d="M1257.9126,-85.0699C1294.0367,-81.2918 1345.4721,-76.0558 1390.5782,-72 1609.1636,-52.3455 1867.5671,-32.8901 1994.0128,-23.6155"/>
<polygon fill="#000000" stroke="#000000" points="1994.6426,-27.0789 2004.3603,-22.8577 1994.1313,-20.0976 1994.6426,-27.0789"/>
</g>
<!-- Test_Acc&#45;&gt;MI_Rule -->
<g id="edge75" class="edge">
<title>Test_Acc-&gt;MI_Rule</title>
<path fill="none" stroke="#000000" d="M1165.6083,-84.5292C1055.8617,-71.4685 778.9502,-38.5137 661.0673,-24.4847"/>
<polygon fill="#000000" stroke="#000000" points="661.1809,-20.9736 650.8374,-23.2672 660.3537,-27.9245 661.1809,-20.9736"/>
</g>
<!-- Test_Cons&#45;&gt;Test_CDS -->
<g id="edge53" class="edge">
<title>Test_Cons-&gt;Test_CDS</title>
<path fill="none" stroke="#000000" d="M715.3493,-77.5056C722.9694,-75.3683 730.9753,-73.3918 738.5782,-72 863.8126,-49.0746 1244.6852,-28.3992 1394.3045,-20.9432"/>
<polygon fill="#000000" stroke="#000000" points="1394.8563,-24.4203 1404.6707,-20.4294 1394.5097,-17.4288 1394.8563,-24.4203"/>
</g>
<!-- AE_FGSM&#45;&gt;Test_Cons -->
<g id="edge91" class="edge">
<title>AE_FGSM-&gt;Test_Cons</title>
<path fill="none" stroke="#000000" d="M567.2686,-146.7307C588.2911,-135.919 616.6718,-121.3233 639.3811,-109.6442"/>
<polygon fill="#000000" stroke="#000000" points="641.1185,-112.6865 648.4106,-105.0004 637.917,-106.4615 641.1185,-112.6865"/>
</g>
<!-- Test_F1&#45;&gt;Test_other_DP -->
<g id="edge88" class="edge">
<title>Test_F1-&gt;Test_other_DP</title>
<path fill="none" stroke="#000000" d="M1860.6265,-146.9196C1889.3356,-128.9521 1938.8369,-98.0848 1981.5782,-72 1999.0326,-61.3476 2018.4784,-49.6579 2034.8159,-39.8873"/>
<polygon fill="#000000" stroke="#000000" points="2036.7504,-42.8086 2043.5401,-34.6753 2033.1604,-36.7993 2036.7504,-42.8086"/>
</g>
<!-- Test_F1&#45;&gt;Test_Acc -->
<g id="edge90" class="edge">
<title>Test_F1-&gt;Test_Acc</title>
<path fill="none" stroke="#000000" d="M1795.0861,-157.2201C1686.0956,-144.6644 1391.5805,-110.7363 1267.6936,-96.4645"/>
<polygon fill="#000000" stroke="#000000" points="1267.9927,-92.9759 1257.6578,-95.3084 1267.1915,-99.9299 1267.9927,-92.9759"/>
</g>
<!-- Model_Width&#45;&gt;Train_sens_SPD -->
<g id="edge93" class="edge">
<title>Model_Width-&gt;Train_sens_SPD</title>
<path fill="none" stroke="#000000" d="M1293.202,-576.3755C1321.7056,-550.8458 1371.7123,-506.3471 1376.5782,-504 1456.7444,-465.3302 1486.1588,-484.7283 1573.5782,-468 1580.6796,-466.6411 1588.091,-465.1984 1595.4796,-463.7444"/>
<polygon fill="#000000" stroke="#000000" points="1596.3781,-467.1345 1605.5093,-461.7613 1595.0203,-460.2675 1596.3781,-467.1345"/>
</g>
<!-- Model_Width&#45;&gt;MI_BlackBox -->
<g id="edge99" class="edge">
<title>Model_Width-&gt;MI_BlackBox</title>
<path fill="none" stroke="#000000" d="M1337.5282,-590.2621C1449.5214,-583.2977 1688.2977,-566.5862 1888.5782,-540 1978.9776,-528 2211.612,-509.9586 2292.5782,-468 2322.0552,-452.7243 2348.1226,-424.6218 2364.7191,-403.8687"/>
<polygon fill="#000000" stroke="#000000" points="2367.6474,-405.8046 2371.0238,-395.7621 2362.1218,-401.5071 2367.6474,-405.8046"/>
</g>
<!-- Model_Width&#45;&gt;Train_CDS -->
<g id="edge94" class="edge">
<title>Model_Width-&gt;Train_CDS</title>
<path fill="none" stroke="#000000" d="M1255.1807,-576.5708C1245.5654,-567.4616 1233.6443,-556.1679 1223.1459,-546.2221"/>
<polygon fill="#000000" stroke="#000000" points="1225.4729,-543.6053 1215.8062,-539.2687 1220.6587,-548.687 1225.4729,-543.6053"/>
</g>
<!-- Model_Width&#45;&gt;Test_Loss -->
<g id="edge97" class="edge">
<title>Model_Width-&gt;Test_Loss</title>
<path fill="none" stroke="#000000" d="M1333.153,-586.4593C1448.0403,-570.6501 1693.7419,-530.267 1748.5782,-468 1801.9187,-407.4313 1722.3876,-351.2035 1772.5782,-288 1793.0395,-262.2337 1827.2235,-248.7591 1857.0386,-241.7139"/>
<polygon fill="#000000" stroke="#000000" points="1857.9254,-245.103 1866.9562,-239.5627 1856.4415,-238.2621 1857.9254,-245.103"/>
</g>
<!-- Model_Width&#45;&gt;Test_Cons -->
<g id="edge95" class="edge">
<title>Model_Width-&gt;Test_Cons</title>
<path fill="none" stroke="#000000" d="M1208.4449,-592.9107C1029.2558,-589.4521 538.0666,-576.6965 475.5782,-540 393.3015,-491.6828 431.5766,-421.4429 358.5782,-360 327.5032,-333.8442 296.9377,-357.9091 274.5782,-324 184.6185,-187.5727 487.5032,-120.7563 619.3162,-98.6348"/>
<polygon fill="#000000" stroke="#000000" points="619.9619,-102.0757 629.2599,-96.9965 618.8239,-95.1688 619.9619,-102.0757"/>
</g>
<!-- Model_Width&#45;&gt;AE_FGSM -->
<g id="edge98" class="edge">
<title>Model_Width-&gt;AE_FGSM</title>
<path fill="none" stroke="#000000" d="M1208.5528,-591.8348C1027.0338,-585.4773 526.5271,-565.685 502.5782,-540 410.2875,-441.0193 488.5712,-257.625 523.1673,-188.9194"/>
<polygon fill="#000000" stroke="#000000" points="526.289,-190.5021 527.7367,-180.0067 520.0599,-187.3086 526.289,-190.5021"/>
</g>
<!-- Model_Width&#45;&gt;Train_Loss -->
<g id="edge96" class="edge">
<title>Model_Width-&gt;Train_Loss</title>
<path fill="none" stroke="#000000" d="M1280.5782,-576.0854C1289.6198,-555.3924 1307.375,-521.905 1333.5782,-504 1395.1919,-461.8985 1426.9013,-491.9492 1497.5782,-468 1533.3576,-455.876 1617.4805,-412.2637 1651.5782,-396 1701.8035,-372.0438 1759.4152,-343.9127 1796.8207,-325.561"/>
<polygon fill="#000000" stroke="#000000" points="1798.4441,-328.6631 1805.8785,-321.1145 1795.3594,-322.3795 1798.4441,-328.6631"/>
</g>
<!-- Train_Loss&#45;&gt;Test_Loss -->
<g id="edge86" class="edge">
<title>Train_Loss-&gt;Test_Loss</title>
<path fill="none" stroke="#000000" d="M1855.3001,-288.937C1865.5321,-279.6116 1878.3645,-267.9163 1889.5565,-257.716"/>
<polygon fill="#000000" stroke="#000000" points="1891.9573,-260.2634 1896.9907,-250.9405 1887.2421,-255.0898 1891.9573,-260.2634"/>
</g>
<!-- Train_Loss&#45;&gt;Test_F1 -->
<g id="edge89" class="edge">
<title>Train_Loss-&gt;Test_F1</title>
<path fill="none" stroke="#000000" d="M1836.5782,-287.7623C1836.5782,-263.201 1836.5782,-219.2474 1836.5782,-190.3541"/>
<polygon fill="#000000" stroke="#000000" points="1840.0783,-190.0896 1836.5782,-180.0896 1833.0783,-190.0897 1840.0783,-190.0896"/>
</g>
<!-- FairMask -->
<g id="node35" class="node">
<title>FairMask</title>
<ellipse fill="none" stroke="#000000" cx="795.5782" cy="-90" rx="48.0897" ry="18"/>
<text text-anchor="middle" x="795.5782" y="-85.8" font-family="Times,serif" font-size="14.00" fill="#000000">FairMask</text>
</g>
<!-- FairMask&#45;&gt;Test_CDS -->
<g id="edge100" class="edge">
<title>FairMask-&gt;Test_CDS</title>
<path fill="none" stroke="#000000" d="M832.0142,-78.1575C840.3422,-75.8053 849.2072,-73.5779 857.5782,-72 1051.338,-35.4779 1285.2322,-23.4459 1394.1768,-19.6524"/>
<polygon fill="#000000" stroke="#000000" points="1394.4478,-23.1453 1404.3242,-19.3104 1394.212,-16.1493 1394.4478,-23.1453"/>
</g>
<!-- Fairway -->
<g id="node36" class="node">
<title>Fairway</title>
<ellipse fill="none" stroke="#000000" cx="2499.5782" cy="-666" rx="42.8538" ry="18"/>
<text text-anchor="middle" x="2499.5782" y="-661.8" font-family="Times,serif" font-size="14.00" fill="#000000">Fairway</text>
</g>
<!-- Fairway&#45;&gt;Data_Cons -->
<g id="edge101" class="edge">
<title>Fairway-&gt;Data_Cons</title>
<path fill="none" stroke="#000000" d="M2456.6983,-665.2242C2238.1747,-661.1493 1253.5849,-641.2907 1120.5782,-612 991.2452,-583.5183 851.5657,-507.9712 788.2633,-470.9895"/>
<polygon fill="#000000" stroke="#000000" points="789.8812,-467.8805 779.4881,-465.8232 786.3298,-473.9127 789.8812,-467.8805"/>
</g>
<!-- Fairway&#45;&gt;Data_sens_SPD -->
<g id="edge102" class="edge">
<title>Fairway-&gt;Data_sens_SPD</title>
<path fill="none" stroke="#000000" d="M2498.3251,-647.9555C2495.7111,-610.3144 2489.6606,-523.1867 2486.5313,-478.1246"/>
<polygon fill="#000000" stroke="#000000" points="2490.0227,-477.8785 2485.8382,-468.1451 2483.0395,-478.3635 2490.0227,-477.8785"/>
</g>
<!-- Fairway&#45;&gt;Train_sens_SPD -->
<g id="edge105" class="edge">
<title>Fairway-&gt;Train_sens_SPD</title>
<path fill="none" stroke="#000000" d="M2457.9116,-661.531C2421.2449,-657.6761 2366.4023,-652.0989 2318.5782,-648 2096.5945,-628.9743 2031.4924,-677.6221 1818.5782,-612 1757.6773,-593.2298 1735.0559,-589.2218 1694.5782,-540 1679.9648,-522.2298 1672.0775,-497.1704 1667.9226,-478.0052"/>
<polygon fill="#000000" stroke="#000000" points="1671.3301,-477.1924 1665.9793,-468.0481 1664.4597,-478.5334 1671.3301,-477.1924"/>
</g>
<!-- Fairway&#45;&gt;MI_BlackBox -->
<g id="edge108" class="edge">
<title>Fairway-&gt;MI_BlackBox</title>
<path fill="none" stroke="#000000" d="M2541.9546,-663.185C2607.7452,-657.8629 2729.8026,-643.8672 2757.5782,-612 2789.1505,-575.7767 2786.625,-545.6016 2762.5782,-504 2730.4938,-448.4931 2697.4436,-454.9468 2637.5782,-432 2577.7883,-409.0822 2506.1578,-394.9725 2454.2293,-386.9517"/>
<polygon fill="#000000" stroke="#000000" points="2454.5255,-383.4569 2444.1157,-385.4279 2453.4826,-390.3788 2454.5255,-383.4569"/>
</g>
<!-- Fairway&#45;&gt;Data_other_DP -->
<g id="edge103" class="edge">
<title>Fairway-&gt;Data_other_DP</title>
<path fill="none" stroke="#000000" d="M2530.5834,-653.4586C2558.1151,-642.3221 2598.7613,-625.881 2630.3382,-613.1083"/>
<polygon fill="#000000" stroke="#000000" points="2631.8643,-616.2666 2639.8221,-609.2721 2629.2394,-609.7773 2631.8643,-616.2666"/>
</g>
<!-- Fairway&#45;&gt;Data_other_SPD -->
<g id="edge104" class="edge">
<title>Fairway-&gt;Data_other_SPD</title>
<path fill="none" stroke="#000000" d="M2516.2394,-649.2609C2535.2102,-630.5498 2567.4815,-599.7616 2597.5782,-576 2611.5192,-564.9934 2627.6312,-553.8435 2641.7261,-544.556"/>
<polygon fill="#000000" stroke="#000000" points="2643.7364,-547.4235 2650.204,-539.0318 2639.9149,-541.5587 2643.7364,-547.4235"/>
</g>
<!-- Fairway&#45;&gt;Test_other_AOD -->
<g id="edge107" class="edge">
<title>Fairway-&gt;Test_other_AOD</title>
<path fill="none" stroke="#000000" d="M2540.5283,-660.6987C2608.0132,-651.5418 2739.3307,-631.8305 2781.5782,-612 2872.7574,-569.2013 2897.5155,-549.5904 2956.5782,-468 2986.8866,-426.1314 3004.8403,-367.7691 3013.4039,-333.7265"/>
<polygon fill="#000000" stroke="#000000" points="3016.8103,-334.5305 3015.7634,-323.9875 3010.0071,-332.8822 3016.8103,-334.5305"/>
</g>
<!-- Fairway&#45;&gt;Train_other_DP -->
<g id="edge106" class="edge">
<title>Fairway-&gt;Train_other_DP</title>
<path fill="none" stroke="#000000" d="M2456.7315,-665.1694C2245.9428,-660.9559 1324.1565,-641.0023 1199.5782,-612 1127.36,-595.1873 941.461,-528.4912 898.5782,-468 886.0028,-450.2609 883.196,-425.5576 883.2865,-406.5188"/>
<polygon fill="#000000" stroke="#000000" points="886.7907,-406.4376 883.6068,-396.3325 879.7942,-406.2175 886.7907,-406.4376"/>
</g>
<!-- FairSmote -->
<g id="node37" class="node">
<title>FairSmote</title>
<ellipse fill="none" stroke="#000000" cx="1878.5782" cy="-594" rx="51.0396" ry="18"/>
<text text-anchor="middle" x="1878.5782" y="-589.8" font-family="Times,serif" font-size="14.00" fill="#000000">FairSmote</text>
</g>
<!-- FairSmote&#45;&gt;Data_Cons -->
<g id="edge109" class="edge">
<title>FairSmote-&gt;Data_Cons</title>
<path fill="none" stroke="#000000" d="M1827.6491,-591.698C1677.8919,-584.7345 1240.6614,-562.9586 1099.5782,-540 1042.7378,-530.7503 886.5051,-487.6224 804.8355,-464.59"/>
<polygon fill="#000000" stroke="#000000" points="805.3542,-461.0996 794.7793,-461.7492 803.4512,-467.836 805.3542,-461.0996"/>
</g>
<!-- FairSmote&#45;&gt;Data_sens_DP -->
<g id="edge110" class="edge">
<title>FairSmote-&gt;Data_sens_DP</title>
<path fill="none" stroke="#000000" d="M1862.3593,-576.5708C1854.1084,-567.7041 1843.9315,-556.7678 1834.8601,-547.0194"/>
<polygon fill="#000000" stroke="#000000" points="1837.2545,-544.4546 1827.8799,-539.5182 1832.13,-549.2233 1837.2545,-544.4546"/>
</g>
<!-- FairSmote&#45;&gt;Data_sens_SPD -->
<g id="edge111" class="edge">
<title>FairSmote-&gt;Data_sens_SPD</title>
<path fill="none" stroke="#000000" d="M1929.4283,-590.6937C2051.879,-582.4507 2356.088,-560.1963 2397.5782,-540 2426.9453,-525.7049 2451.8165,-497.1747 2467.3489,-476.0508"/>
<polygon fill="#000000" stroke="#000000" points="2470.2759,-477.9743 2473.2244,-467.798 2464.5734,-473.9144 2470.2759,-477.9743"/>
</g>
<!-- FairSmote&#45;&gt;Train_sens_SPD -->
<g id="edge113" class="edge">
<title>FairSmote-&gt;Train_sens_SPD</title>
<path fill="none" stroke="#000000" d="M1835.2671,-584.366C1805.0007,-576.13 1764.7642,-562.047 1734.5782,-540 1711.3033,-523.0007 1691.6403,-496.4326 1678.9511,-476.5621"/>
<polygon fill="#000000" stroke="#000000" points="1681.8653,-474.6201 1673.6238,-467.9622 1675.9145,-478.3064 1681.8653,-474.6201"/>
</g>
<!-- FairSmote&#45;&gt;Train_TI -->
<g id="edge115" class="edge">
<title>FairSmote-&gt;Train_TI</title>
<path fill="none" stroke="#000000" d="M1826.971,-593.0756C1715.1548,-590.3354 1454.3341,-579.7491 1376.5782,-540 1348.5723,-525.6833 1325.6335,-497.3573 1311.4056,-476.2888"/>
<polygon fill="#000000" stroke="#000000" points="1314.2438,-474.2333 1305.852,-467.7658 1308.379,-478.0549 1314.2438,-474.2333"/>
</g>
<!-- FairSmote&#45;&gt;MI_BlackBox -->
<g id="edge120" class="edge">
<title>FairSmote-&gt;MI_BlackBox</title>
<path fill="none" stroke="#000000" d="M1926.7227,-587.5853C2035.9877,-572.0831 2298.0209,-529.2867 2359.5782,-468 2375.8005,-451.849 2381.4206,-426.0406 2383.2034,-406.1938"/>
<polygon fill="#000000" stroke="#000000" points="2386.6997,-406.3606 2383.8321,-396.1612 2379.7134,-405.9227 2386.6997,-406.3606"/>
</g>
<!-- FairSmote&#45;&gt;Data_other_SPD -->
<g id="edge112" class="edge">
<title>FairSmote-&gt;Data_other_SPD</title>
<path fill="none" stroke="#000000" d="M1928.2573,-589.5233C2062.0032,-577.4711 2430.6816,-544.2485 2595.7751,-529.3715"/>
<polygon fill="#000000" stroke="#000000" points="2596.2276,-532.845 2605.8731,-528.4615 2595.5993,-525.8732 2596.2276,-532.845"/>
</g>
<!-- FairSmote&#45;&gt;Train_CDS -->
<g id="edge116" class="edge">
<title>FairSmote-&gt;Train_CDS</title>
<path fill="none" stroke="#000000" d="M1827.5219,-592.308C1722.1637,-588.1985 1473.2924,-575.2954 1267.5782,-540 1261.7152,-538.9941 1255.6233,-537.7434 1249.5882,-536.3732"/>
<polygon fill="#000000" stroke="#000000" points="1250.0747,-532.8912 1239.5356,-533.9765 1248.4512,-539.7004 1250.0747,-532.8912"/>
</g>
<!-- FairSmote&#45;&gt;Test_Loss -->
<g id="edge119" class="edge">
<title>FairSmote-&gt;Test_Loss</title>
<path fill="none" stroke="#000000" d="M1918.8444,-582.7678C1940.0038,-574.5911 1964.0794,-561.1577 1976.5782,-540 1984.7161,-526.2242 1982.3785,-518.9116 1976.5782,-504 1968.7096,-483.7714 1952.6366,-487.7245 1943.5782,-468 1911.9618,-399.1565 1911.4324,-307.4886 1913.5605,-262.0256"/>
<polygon fill="#000000" stroke="#000000" points="1917.0564,-262.1945 1914.109,-252.0179 1910.0669,-261.8114 1917.0564,-262.1945"/>
</g>
<!-- FairSmote&#45;&gt;Train_other_DP -->
<g id="edge114" class="edge">
<title>FairSmote-&gt;Train_other_DP</title>
<path fill="none" stroke="#000000" d="M1827.3347,-592.2934C1681.3689,-587.1152 1265.4004,-570.0678 1132.5782,-540 1089.7539,-530.3056 1081.9622,-518.6718 1040.5782,-504 990.8986,-486.3872 967.1603,-502.8069 927.5782,-468 909.1641,-451.8074 898.2476,-425.8318 892.1811,-405.9392"/>
<polygon fill="#000000" stroke="#000000" points="895.5121,-404.8552 889.4368,-396.1752 888.7732,-406.7493 895.5121,-404.8552"/>
</g>
<!-- FairSmote&#45;&gt;Test_CDS -->
<g id="edge117" class="edge">
<title>FairSmote-&gt;Test_CDS</title>
<path fill="none" stroke="#000000" d="M1886.7279,-576.0111C1894.1269,-556.7548 1902.0081,-526.0087 1888.5782,-504 1870.3552,-474.1366 1781.7512,-443.1109 1748.5782,-432 1659.6167,-402.2034 1608.1235,-461.1123 1540.5782,-396 1511.1452,-367.6273 1521.5782,-346.8816 1521.5782,-306 1521.5782,-306 1521.5782,-306 1521.5782,-162 1521.5782,-117.3327 1495.0105,-71.3789 1475.5875,-43.7514"/>
<polygon fill="#000000" stroke="#000000" points="1478.2756,-41.4961 1469.5751,-35.4503 1472.6064,-45.6023 1478.2756,-41.4961"/>
</g>
<!-- FairSmote&#45;&gt;Train_Loss -->
<g id="edge118" class="edge">
<title>FairSmote-&gt;Train_Loss</title>
<path fill="none" stroke="#000000" d="M1913.0886,-580.4726C1930.3761,-571.7243 1949.6893,-558.4775 1959.5782,-540 1967.1279,-525.8932 1968.598,-517.2153 1959.5782,-504 1934.8256,-467.7341 1895.6435,-501.7674 1867.5782,-468 1835.9792,-429.981 1832.9012,-369.5652 1834.247,-334.2508"/>
<polygon fill="#000000" stroke="#000000" points="1837.7482,-334.3202 1834.7801,-324.1496 1830.7579,-333.9513 1837.7482,-334.3202"/>
</g>
<!-- LTDD -->
<g id="node38" class="node">
<title>LTDD</title>
<ellipse fill="none" stroke="#000000" cx="1422.5782" cy="-522" rx="36.5575" ry="18"/>
<text text-anchor="middle" x="1422.5782" y="-517.8" font-family="Times,serif" font-size="14.00" fill="#000000">LTDD</text>
</g>
<!-- LTDD&#45;&gt;Train_sens_SPD -->
<g id="edge121" class="edge">
<title>LTDD-&gt;Train_sens_SPD</title>
<path fill="none" stroke="#000000" d="M1452.1376,-511.216C1459.1386,-508.7595 1466.5993,-506.2209 1473.5782,-504 1516.624,-490.3013 1565.6777,-476.4024 1603.1588,-466.1364"/>
<polygon fill="#000000" stroke="#000000" points="1604.1911,-469.4828 1612.9172,-463.474 1602.3485,-462.7296 1604.1911,-469.4828"/>
</g>
<!-- LTDD&#45;&gt;MI_BlackBox -->
<g id="edge123" class="edge">
<title>LTDD-&gt;MI_BlackBox</title>
<path fill="none" stroke="#000000" d="M1459.2528,-519.8636C1612.6112,-510.8838 2195.3713,-476.2811 2212.5782,-468 2232.1361,-458.5874 2227.6754,-444.2721 2245.5782,-432 2270.0395,-415.2321 2300.4523,-402.616 2326.497,-393.8125"/>
<polygon fill="#000000" stroke="#000000" points="2327.8272,-397.0599 2336.2435,-390.6244 2325.6509,-390.4068 2327.8272,-397.0599"/>
</g>
<!-- LTDD&#45;&gt;Test_sens_AOD -->
<g id="edge122" class="edge">
<title>LTDD-&gt;Test_sens_AOD</title>
<path fill="none" stroke="#000000" d="M1386.6178,-517.6455C1295.027,-506.45 1059.1331,-476.9185 1044.5782,-468 994.5326,-437.3345 1019.4276,-389.3134 968.5782,-360 924.0769,-334.3461 599.1326,-316.651 442.5242,-309.5182"/>
<polygon fill="#000000" stroke="#000000" points="442.6046,-306.0183 432.4569,-309.0637 442.2888,-313.0112 442.6046,-306.0183"/>
</g>
<!-- DIR -->
<g id="node39" class="node">
<title>DIR</title>
<ellipse fill="none" stroke="#000000" cx="1427.5782" cy="-90" rx="27.8267" ry="18"/>
<text text-anchor="middle" x="1427.5782" y="-85.8" font-family="Times,serif" font-size="14.00" fill="#000000">DIR</text>
</g>
<!-- DIR&#45;&gt;Test_CDS -->
<g id="edge124" class="edge">
<title>DIR-&gt;Test_CDS</title>
<path fill="none" stroke="#000000" d="M1434.4995,-72.2022C1437.663,-64.0675 1441.4809,-54.2501 1444.9933,-45.2181"/>
<polygon fill="#000000" stroke="#000000" points="1448.2769,-46.4312 1448.6394,-35.8425 1441.7529,-43.894 1448.2769,-46.4312"/>
</g>
<!-- AdDebias -->
<g id="node40" class="node">
<title>AdDebias</title>
<ellipse fill="none" stroke="#000000" cx="1070.5782" cy="-810" rx="49.7981" ry="18"/>
<text text-anchor="middle" x="1070.5782" y="-805.8" font-family="Times,serif" font-size="14.00" fill="#000000">AdDebias</text>
</g>
<!-- AdDebias&#45;&gt;Test_sens_SPD -->
<g id="edge127" class="edge">
<title>AdDebias-&gt;Test_sens_SPD</title>
<path fill="none" stroke="#000000" d="M1020.9301,-809.2983C818.686,-806.2017 66.0111,-792.269 31.5782,-756 -23.5028,-697.982 5.6153,-651.6699 31.5782,-576 62.8021,-484.9967 166.8194,-425.7156 229.1555,-397.4297"/>
<polygon fill="#000000" stroke="#000000" points="230.6925,-400.5768 238.4105,-393.3185 227.8508,-394.1795 230.6925,-400.5768"/>
</g>
<!-- AdDebias&#45;&gt;Train_sens_SPD -->
<g id="edge125" class="edge">
<title>AdDebias-&gt;Train_sens_SPD</title>
<path fill="none" stroke="#000000" d="M1119.1981,-806.2169C1243.5745,-795.2092 1563.5782,-757.9531 1563.5782,-666 1563.5782,-666 1563.5782,-666 1563.5782,-594 1563.5782,-552.6022 1563.9707,-538.0068 1587.5782,-504 1596.4276,-491.2523 1609.3083,-480.4789 1621.9595,-471.9891"/>
<polygon fill="#000000" stroke="#000000" points="1624.066,-474.7974 1630.629,-466.4801 1620.3117,-468.8893 1624.066,-474.7974"/>
</g>
<!-- AdDebias&#45;&gt;Train_sens_AOD -->
<g id="edge126" class="edge">
<title>AdDebias-&gt;Train_sens_AOD</title>
<path fill="none" stroke="#000000" d="M1083.408,-792.5708C1089.6941,-784.0312 1097.3933,-773.5719 1104.3635,-764.1029"/>
<polygon fill="#000000" stroke="#000000" points="1107.3888,-765.8971 1110.4983,-755.7689 1101.7514,-761.7474 1107.3888,-765.8971"/>
</g>
<!-- AdDebias&#45;&gt;Train_Acc -->
<g id="edge128" class="edge">
<title>AdDebias-&gt;Train_Acc</title>
<path fill="none" stroke="#000000" d="M1056.8241,-792.433C1049.513,-782.296 1040.9503,-769.0113 1035.5782,-756 1027.3759,-736.1341 1022.5465,-712.2814 1019.8106,-694.1244"/>
<polygon fill="#000000" stroke="#000000" points="1023.2703,-693.5908 1018.432,-684.1652 1016.3364,-694.5507 1023.2703,-693.5908"/>
</g>
<!-- PR -->
<g id="node41" class="node">
<title>PR</title>
<ellipse fill="none" stroke="#000000" cx="2380.5782" cy="-810" rx="27" ry="18"/>
<text text-anchor="middle" x="2380.5782" y="-805.8" font-family="Times,serif" font-size="14.00" fill="#000000">PR</text>
</g>
<!-- PR&#45;&gt;Test_sens_SPD -->
<g id="edge132" class="edge">
<title>PR-&gt;Test_sens_SPD</title>
<path fill="none" stroke="#000000" d="M2353.2677,-809.7145C2143.9478,-807.4538 797.3936,-791.5947 620.5782,-756 445.5571,-720.7665 348.7245,-757.721 245.5782,-612 200.9207,-548.9097 239.3848,-451.849 262.7684,-405.0588"/>
<polygon fill="#000000" stroke="#000000" points="265.8982,-406.6258 267.3545,-396.1315 259.6717,-403.4271 265.8982,-406.6258"/>
</g>
<!-- PR&#45;&gt;Train_sens_SPD -->
<g id="edge129" class="edge">
<title>PR-&gt;Train_sens_SPD</title>
<path fill="none" stroke="#000000" d="M2353.7932,-807.699C2259.6589,-798.4869 1938.2834,-757.4162 1726.5782,-612 1693.1622,-589.0472 1685.2127,-577.8059 1670.5782,-540 1662.9995,-520.4217 1661.4355,-496.6898 1661.6667,-478.512"/>
<polygon fill="#000000" stroke="#000000" points="1665.173,-478.3678 1661.9916,-468.2619 1658.1765,-478.146 1665.173,-478.3678"/>
</g>
<!-- PR&#45;&gt;MI_BlackBox -->
<g id="edge139" class="edge">
<title>PR-&gt;MI_BlackBox</title>
<path fill="none" stroke="#000000" d="M2407.9287,-809.4872C2526.4296,-806.5422 2989.5782,-787.2746 2989.5782,-666 2989.5782,-666 2989.5782,-666 2989.5782,-522 2989.5782,-474.6526 2972.89,-456.8341 2932.5782,-432 2931.3195,-431.2246 2604.9639,-399.4783 2456.0916,-385.0307"/>
<polygon fill="#000000" stroke="#000000" points="2456.4082,-381.5451 2446.1169,-384.0628 2455.7321,-388.5123 2456.4082,-381.5451"/>
</g>
<!-- PR&#45;&gt;Train_sens_AOD -->
<g id="edge130" class="edge">
<title>PR-&gt;Train_sens_AOD</title>
<path fill="none" stroke="#000000" d="M2353.4494,-808.4461C2202.742,-799.8137 1466.1314,-757.6212 1210.8672,-742.9999"/>
<polygon fill="#000000" stroke="#000000" points="1210.7164,-739.4856 1200.5326,-742.4079 1210.316,-746.4741 1210.7164,-739.4856"/>
</g>
<!-- PR&#45;&gt;Test_other_SPD -->
<g id="edge133" class="edge">
<title>PR-&gt;Test_other_SPD</title>
<path fill="none" stroke="#000000" d="M2407.8443,-809.2737C2529.6383,-805.8452 3020.5061,-790.0057 3079.5782,-756 3121.6741,-731.7669 3141.5782,-714.5727 3141.5782,-666 3141.5782,-666 3141.5782,-666 3141.5782,-522 3141.5782,-479.2938 3122.0241,-433.0788 3107.6211,-404.8306"/>
<polygon fill="#000000" stroke="#000000" points="3110.717,-403.1977 3102.9698,-395.9705 3104.5191,-406.4515 3110.717,-403.1977"/>
</g>
<!-- PR&#45;&gt;Train_F1 -->
<g id="edge136" class="edge">
<title>PR-&gt;Train_F1</title>
<path fill="none" stroke="#000000" d="M2353.3662,-809.4334C2186.9135,-805.8882 1304.4188,-785.934 1035.5782,-756 859.5295,-736.3979 803.4531,-760.2718 643.5782,-684 599.1989,-662.8279 580.3724,-656.5576 559.5782,-612 550.6292,-592.8244 550.8683,-568.7514 553.0788,-550.3283"/>
<polygon fill="#000000" stroke="#000000" points="556.5741,-550.614 554.5536,-540.2136 549.6473,-549.604 556.5741,-550.614"/>
</g>
<!-- PR&#45;&gt;Test_Loss -->
<g id="edge137" class="edge">
<title>PR-&gt;Test_Loss</title>
<path fill="none" stroke="#000000" d="M2407.6834,-809.5617C2504.1048,-807.6573 2829.7106,-798.1746 2923.5782,-756 3030.7646,-707.8413 3030.576,-618.3648 3003.5782,-504 2928.6763,-186.7106 2624.9935,-336.2824 2302.5782,-288 2185.959,-270.536 2049.2855,-251.8919 1973.5579,-241.7219"/>
<polygon fill="#000000" stroke="#000000" points="1973.6619,-238.2046 1963.2853,-240.3441 1972.7313,-245.1424 1973.6619,-238.2046"/>
</g>
<!-- PR&#45;&gt;Train_other_DP -->
<g id="edge131" class="edge">
<title>PR-&gt;Train_other_DP</title>
<path fill="none" stroke="#000000" d="M2353.3472,-809.7864C2151.6764,-808.1158 893.4922,-796.1312 729.5782,-756 657.7507,-738.4144 632.9933,-735.1397 579.5782,-684 516.727,-623.8262 459.165,-579.4086 502.5782,-504 534.374,-448.7708 567.0669,-454.7957 626.5782,-432 685.8134,-409.3101 756.5106,-395.3859 809.0655,-387.3731"/>
<polygon fill="#000000" stroke="#000000" points="809.6165,-390.8298 818.9929,-385.8968 808.5868,-383.9059 809.6165,-390.8298"/>
</g>
<!-- PR&#45;&gt;Test_CDS -->
<g id="edge134" class="edge">
<title>PR-&gt;Test_CDS</title>
<path fill="none" stroke="#000000" d="M2407.7898,-809.3846C2537.7286,-806.2767 3091.5701,-791.0547 3159.5782,-756 3205.6081,-732.2739 3233.5782,-717.7849 3233.5782,-666 3233.5782,-666 3233.5782,-666 3233.5782,-378 3233.5782,-322.0565 3195.2635,-313.7109 3145.5782,-288 2850.6679,-135.3915 1782.4339,-43.4458 1516.0678,-22.5677"/>
<polygon fill="#000000" stroke="#000000" points="1516.0671,-19.0571 1505.8252,-21.769 1515.5228,-26.0359 1516.0671,-19.0571"/>
</g>
<!-- PR&#45;&gt;Test_F1 -->
<g id="edge138" class="edge">
<title>PR-&gt;Test_F1</title>
<path fill="none" stroke="#000000" d="M2407.9214,-809.2164C2533.5643,-805.4522 3052.1312,-788.0761 3116.5782,-756 3164.2266,-732.2847 3195.5782,-719.224 3195.5782,-666 3195.5782,-666 3195.5782,-666 3195.5782,-450 3195.5782,-367.8499 3180.5791,-323.6722 3106.5782,-288 3104.8257,-287.1552 2126.9946,-190.6493 1888.5469,-167.126"/>
<polygon fill="#000000" stroke="#000000" points="1888.7037,-163.6246 1878.4083,-166.1259 1888.0164,-170.5908 1888.7037,-163.6246"/>
</g>
<!-- PR&#45;&gt;Train_Loss -->
<g id="edge135" class="edge">
<title>PR-&gt;Train_Loss</title>
<path fill="none" stroke="#000000" d="M2364.5919,-795.1892C2287.9467,-724.1796 1957.8901,-418.392 1862.4931,-330.0095"/>
<polygon fill="#000000" stroke="#000000" points="1864.7291,-327.3098 1855.0148,-323.081 1859.9718,-332.4447 1864.7291,-327.3098"/>
</g>
<!-- EGR -->
<g id="node42" class="node">
<title>EGR</title>
<ellipse fill="none" stroke="#000000" cx="1579.5782" cy="-378" rx="30.1958" ry="18"/>
<text text-anchor="middle" x="1579.5782" y="-373.8" font-family="Times,serif" font-size="14.00" fill="#000000">EGR</text>
</g>
<!-- EGR&#45;&gt;Test_Loss -->
<g id="edge143" class="edge">
<title>EGR-&gt;Test_Loss</title>
<path fill="none" stroke="#000000" d="M1600.0652,-364.5728C1629.8116,-345.5251 1687.1456,-310.4806 1739.5782,-288 1780.1229,-270.6163 1828.1089,-256.2805 1863.7263,-246.7592"/>
<polygon fill="#000000" stroke="#000000" points="1864.6497,-250.1355 1873.4277,-244.2029 1862.866,-243.3665 1864.6497,-250.1355"/>
</g>
<!-- EGR&#45;&gt;Test_CDS -->
<g id="edge141" class="edge">
<title>EGR-&gt;Test_CDS</title>
<path fill="none" stroke="#000000" d="M1575.4342,-359.9265C1569.576,-332.7528 1559.5782,-279.6844 1559.5782,-234 1559.5782,-234 1559.5782,-234 1559.5782,-162 1559.5782,-120.6022 1559.5921,-105.721 1535.5782,-72 1525.4357,-57.7576 1510.2706,-46.1543 1495.8624,-37.4048"/>
<polygon fill="#000000" stroke="#000000" points="1497.4536,-34.2824 1487.0406,-32.3278 1493.9619,-40.3494 1497.4536,-34.2824"/>
</g>
<!-- EGR&#45;&gt;Test_Cons -->
<g id="edge140" class="edge">
<title>EGR-&gt;Test_Cons</title>
<path fill="none" stroke="#000000" d="M1558.074,-364.7649C1490.3777,-323.8216 1274.4528,-198.6975 1077.5782,-144 931.5938,-103.4413 887.1802,-137.5617 738.5782,-108 734.375,-107.1638 730.0441,-106.1675 725.721,-105.0787"/>
<polygon fill="#000000" stroke="#000000" points="726.2759,-101.6042 715.7112,-102.4025 724.4678,-108.3667 726.2759,-101.6042"/>
</g>
<!-- EGR&#45;&gt;Train_Loss -->
<g id="edge142" class="edge">
<title>EGR-&gt;Train_Loss</title>
<path fill="none" stroke="#000000" d="M1607.0817,-370.2947C1649.382,-358.4441 1731.1271,-335.5427 1784.7643,-320.5159"/>
<polygon fill="#000000" stroke="#000000" points="1785.7516,-323.8742 1794.4366,-317.8062 1783.8631,-317.1337 1785.7516,-323.8742"/>
</g>
<!-- CEO -->
<g id="node43" class="node">
<title>CEO</title>
<ellipse fill="none" stroke="#000000" cx="1083.5782" cy="-450" rx="30.1958" ry="18"/>
<text text-anchor="middle" x="1083.5782" y="-445.8" font-family="Times,serif" font-size="14.00" fill="#000000">CEO</text>
</g>
<!-- CEO&#45;&gt;AE_PGD -->
<g id="edge145" class="edge">
<title>CEO-&gt;AE_PGD</title>
<path fill="none" stroke="#000000" d="M1096.5124,-433.6621C1103.5949,-424.7157 1112.5274,-413.4325 1120.4956,-403.3674"/>
<polygon fill="#000000" stroke="#000000" points="1123.4374,-405.2902 1126.9003,-395.2773 1117.9491,-400.9453 1123.4374,-405.2902"/>
</g>
<!-- CEO&#45;&gt;Test_Cons -->
<g id="edge144" class="edge">
<title>CEO-&gt;Test_Cons</title>
<path fill="none" stroke="#000000" d="M1079.4342,-431.9265C1073.576,-404.7528 1063.5782,-351.6844 1063.5782,-306 1063.5782,-306 1063.5782,-306 1063.5782,-234 1063.5782,-192.6022 1070.8478,-171.1291 1039.5782,-144 988.6939,-99.8535 804.5607,-121.5806 738.5782,-108 734.4414,-107.1486 730.1791,-106.1497 725.921,-105.0665"/>
<polygon fill="#000000" stroke="#000000" points="726.6199,-101.6303 716.0543,-102.4157 724.8036,-108.3905 726.6199,-101.6303"/>
</g>
<!-- ROC -->
<g id="node44" class="node">
<title>ROC</title>
<ellipse fill="none" stroke="#000000" cx="1200.5782" cy="-450" rx="30.777" ry="18"/>
<text text-anchor="middle" x="1200.5782" y="-445.8" font-family="Times,serif" font-size="14.00" fill="#000000">ROC</text>
</g>
<!-- ROC&#45;&gt;AE_PGD -->
<g id="edge146" class="edge">
<title>ROC-&gt;AE_PGD</title>
<path fill="none" stroke="#000000" d="M1186.9632,-433.6621C1179.4334,-424.6263 1169.917,-413.2066 1161.4663,-403.0658"/>
<polygon fill="#000000" stroke="#000000" points="1164.0666,-400.7189 1154.9759,-395.2773 1158.689,-405.2002 1164.0666,-400.7189"/>
</g>
</g>
</svg>