<?xml version="1.0" encoding="UTF-8" standalone="no"?><!DOCTYPE svg PUBLIC "-//W3C//DTD SVG 1.1//EN" "http://www.w3.org/Graphics/SVG/1.1/DTD/svg11.dtd"><!-- Generated by graphviz version 2.40.1 (20161225.0304)
 --><!-- Title: G Pages: 1 --><svg xmlns="http://www.w3.org/2000/svg" xmlns:xlink="http://www.w3.org/1999/xlink" width="3256pt" height="620pt" viewBox="0.00 0.00 3255.65 620.00">
<g id="graph0" class="graph" transform="scale(1 1) rotate(0) translate(4 616)">
<title>G</title>
<polygon fill="#ffffff" stroke="transparent" points="-4,4 -4,-616 3251.6488,-616 3251.6488,4 -4,4"/>
<!-- Data_Cons -->
<g id="node1" class="node">
<title>Data_Cons</title>
<ellipse fill="none" stroke="#000000" cx="1774" cy="-450" rx="53.8924" ry="18"/>
<text text-anchor="middle" x="1774" y="-445.8" font-family="Times,serif" font-size="14.00" fill="#000000">Data_Cons</text>
</g>
<!-- Data_sens_SPD -->
<g id="node2" class="node">
<title>Data_sens_SPD</title>
<ellipse fill="none" stroke="#000000" cx="471" cy="-378" rx="73.0132" ry="18"/>
<text text-anchor="middle" x="471" y="-373.8" font-family="Times,serif" font-size="14.00" fill="#000000">Data_sens_SPD</text>
</g>
<!-- Data_Cons&#45;&gt;Data_sens_SPD -->
<g id="edge1" class="edge">
<title>Data_Cons-&gt;Data_sens_SPD</title>
<path fill="none" stroke="#000000" d="M1721.9031,-445.1404C1678.3846,-441.2007 1614.6873,-435.712 1559,-432 1183.9673,-407.0013 735.5,-388.2716 553.6511,-381.144"/>
<polygon fill="#000000" stroke="#000000" points="553.7545,-377.6454 543.6255,-380.7522 553.4811,-384.6401 553.7545,-377.6454"/>
</g>
<!-- Test_sens_SPD -->
<g id="node3" class="node">
<title>Test_sens_SPD</title>
<ellipse fill="none" stroke="#000000" cx="2110" cy="-378" rx="71.8066" ry="18"/>
<text text-anchor="middle" x="2110" y="-373.8" font-family="Times,serif" font-size="14.00" fill="#000000">Test_sens_SPD</text>
</g>
<!-- Data_Cons&#45;&gt;Test_sens_SPD -->
<g id="edge2" class="edge">
<title>Data_Cons-&gt;Test_sens_SPD</title>
<path fill="none" stroke="#000000" d="M1819.6641,-440.2148C1877.9478,-427.7255 1979.1368,-406.0421 2045.3319,-391.8574"/>
<polygon fill="#000000" stroke="#000000" points="2046.1944,-395.2522 2055.2391,-389.7345 2044.7277,-388.4075 2046.1944,-395.2522"/>
</g>
<!-- Test_other_AOD -->
<g id="node4" class="node">
<title>Test_other_AOD</title>
<ellipse fill="none" stroke="#000000" cx="1230" cy="-234" rx="78.1501" ry="18"/>
<text text-anchor="middle" x="1230" y="-229.8" font-family="Times,serif" font-size="14.00" fill="#000000">Test_other_AOD</text>
</g>
<!-- Data_Cons&#45;&gt;Test_other_AOD -->
<g id="edge3" class="edge">
<title>Data_Cons-&gt;Test_other_AOD</title>
<path fill="none" stroke="#000000" d="M1764.6861,-432.1216C1753.4404,-412.0904 1732.7846,-379.8338 1707,-360 1638.7048,-307.4666 1609.8028,-311.8264 1527,-288 1454.5139,-267.1422 1369.6582,-252.6691 1309.2522,-243.9943"/>
<polygon fill="#000000" stroke="#000000" points="1309.4129,-240.4823 1299.0212,-242.5469 1308.4323,-247.4133 1309.4129,-240.4823"/>
</g>
<!-- Train_Cons -->
<g id="node5" class="node">
<title>Train_Cons</title>
<ellipse fill="none" stroke="#000000" cx="1925" cy="-378" rx="56.7619" ry="18"/>
<text text-anchor="middle" x="1925" y="-373.8" font-family="Times,serif" font-size="14.00" fill="#000000">Train_Cons</text>
</g>
<!-- Data_Cons&#45;&gt;Train_Cons -->
<g id="edge4" class="edge">
<title>Data_Cons-&gt;Train_Cons</title>
<path fill="none" stroke="#000000" d="M1805.2873,-435.0816C1828.1903,-424.1609 1859.4743,-409.244 1884.318,-397.398"/>
<polygon fill="#000000" stroke="#000000" points="1885.9734,-400.4863 1893.4934,-393.023 1882.9606,-394.1678 1885.9734,-400.4863"/>
</g>
<!-- Train_TI -->
<g id="node6" class="node">
<title>Train_TI</title>
<ellipse fill="none" stroke="#000000" cx="1772" cy="-306" rx="45.7848" ry="18"/>
<text text-anchor="middle" x="1772" y="-301.8" font-family="Times,serif" font-size="14.00" fill="#000000">Train_TI</text>
</g>
<!-- Data_Cons&#45;&gt;Train_TI -->
<g id="edge5" class="edge">
<title>Data_Cons-&gt;Train_TI</title>
<path fill="none" stroke="#000000" d="M1773.7467,-431.7623C1773.4056,-407.201 1772.7951,-363.2474 1772.3938,-334.3541"/>
<polygon fill="#000000" stroke="#000000" points="1775.8899,-334.04 1772.2512,-324.0896 1768.8906,-334.1373 1775.8899,-334.04"/>
</g>
<!-- Test_sens_AOD -->
<g id="node26" class="node">
<title>Test_sens_AOD</title>
<ellipse fill="none" stroke="#000000" cx="2411" cy="-306" rx="74.7188" ry="18"/>
<text text-anchor="middle" x="2411" y="-301.8" font-family="Times,serif" font-size="14.00" fill="#000000">Test_sens_AOD</text>
</g>
<!-- Test_sens_SPD&#45;&gt;Test_sens_AOD -->
<g id="edge41" class="edge">
<title>Test_sens_SPD-&gt;Test_sens_AOD</title>
<path fill="none" stroke="#000000" d="M2162.0866,-365.5408C2213.6467,-353.2074 2292.6491,-334.3099 2347.7774,-321.123"/>
<polygon fill="#000000" stroke="#000000" points="2348.8698,-324.4605 2357.7812,-318.7301 2347.2413,-317.6526 2348.8698,-324.4605"/>
</g>
<!-- Test_other_SPD -->
<g id="node15" class="node">
<title>Test_other_SPD</title>
<ellipse fill="none" stroke="#000000" cx="1230" cy="-162" rx="74.7381" ry="18"/>
<text text-anchor="middle" x="1230" y="-157.8" font-family="Times,serif" font-size="14.00" fill="#000000">Test_other_SPD</text>
</g>
<!-- Test_other_AOD&#45;&gt;Test_other_SPD -->
<g id="edge48" class="edge">
<title>Test_other_AOD-&gt;Test_other_SPD</title>
<path fill="none" stroke="#000000" d="M1230,-215.8314C1230,-208.131 1230,-198.9743 1230,-190.4166"/>
<polygon fill="#000000" stroke="#000000" points="1233.5001,-190.4132 1230,-180.4133 1226.5001,-190.4133 1233.5001,-190.4132"/>
</g>
<!-- Train_Cons&#45;&gt;Train_TI -->
<g id="edge49" class="edge">
<title>Train_Cons-&gt;Train_TI</title>
<path fill="none" stroke="#000000" d="M1893.2983,-363.0816C1869.3934,-351.8322 1836.4776,-336.3424 1810.9658,-324.3369"/>
<polygon fill="#000000" stroke="#000000" points="1812.1234,-321.0135 1801.5849,-319.9223 1809.1428,-327.3472 1812.1234,-321.0135"/>
</g>
<!-- Test_Loss -->
<g id="node27" class="node">
<title>Test_Loss</title>
<ellipse fill="none" stroke="#000000" cx="1603" cy="-90" rx="50.9599" ry="18"/>
<text text-anchor="middle" x="1603" y="-85.8" font-family="Times,serif" font-size="14.00" fill="#000000">Test_Loss</text>
</g>
<!-- Train_Cons&#45;&gt;Test_Loss -->
<g id="edge81" class="edge">
<title>Train_Cons-&gt;Test_Loss</title>
<path fill="none" stroke="#000000" d="M1925.8155,-359.9192C1926.7398,-315.9426 1922.5767,-202.704 1860,-144 1831.9305,-117.6677 1729.1039,-102.5809 1662.3341,-95.3597"/>
<polygon fill="#000000" stroke="#000000" points="1662.6627,-91.8751 1652.3514,-94.3094 1661.9302,-98.8367 1662.6627,-91.8751"/>
</g>
<!-- Train_TI&#45;&gt;Test_Loss -->
<g id="edge82" class="edge">
<title>Train_TI-&gt;Test_Loss</title>
<path fill="none" stroke="#000000" d="M1758.4557,-288.6889C1728.7278,-250.6935 1657.6498,-159.8482 1622.8619,-115.3857"/>
<polygon fill="#000000" stroke="#000000" points="1625.5275,-113.1126 1616.6088,-107.3935 1620.0144,-117.4261 1625.5275,-113.1126"/>
</g>
<!-- Test_TI -->
<g id="node28" class="node">
<title>Test_TI</title>
<ellipse fill="none" stroke="#000000" cx="2736" cy="-234" rx="41.7095" ry="18"/>
<text text-anchor="middle" x="2736" y="-229.8" font-family="Times,serif" font-size="14.00" fill="#000000">Test_TI</text>
</g>
<!-- Train_TI&#45;&gt;Test_TI -->
<g id="edge57" class="edge">
<title>Train_TI-&gt;Test_TI</title>
<path fill="none" stroke="#000000" d="M1817.2027,-302.6239C1977.1733,-290.6759 2515.9136,-250.438 2684.8723,-237.8187"/>
<polygon fill="#000000" stroke="#000000" points="2685.2802,-241.298 2694.9917,-237.0629 2684.7587,-234.3175 2685.2802,-241.298"/>
</g>
<!-- Data_sens_DP -->
<g id="node7" class="node">
<title>Data_sens_DP</title>
<ellipse fill="none" stroke="#000000" cx="400" cy="-450" rx="67.776" ry="18"/>
<text text-anchor="middle" x="400" y="-445.8" font-family="Times,serif" font-size="14.00" fill="#000000">Data_sens_DP</text>
</g>
<!-- Data_sens_DP&#45;&gt;Data_sens_SPD -->
<g id="edge6" class="edge">
<title>Data_sens_DP-&gt;Data_sens_SPD</title>
<path fill="none" stroke="#000000" d="M417.1871,-432.5708C426.0172,-423.6164 436.9289,-412.551 446.6133,-402.7302"/>
<polygon fill="#000000" stroke="#000000" points="449.1957,-405.0961 453.7251,-395.5182 444.2115,-400.1811 449.1957,-405.0961"/>
</g>
<!-- Train_sens_SPD -->
<g id="node8" class="node">
<title>Train_sens_SPD</title>
<ellipse fill="none" stroke="#000000" cx="762" cy="-306" rx="75.8817" ry="18"/>
<text text-anchor="middle" x="762" y="-301.8" font-family="Times,serif" font-size="14.00" fill="#000000">Train_sens_SPD</text>
</g>
<!-- Data_sens_DP&#45;&gt;Train_sens_SPD -->
<g id="edge7" class="edge">
<title>Data_sens_DP-&gt;Train_sens_SPD</title>
<path fill="none" stroke="#000000" d="M390.6974,-432.1367C381.718,-412.1194 371.7947,-379.8755 389,-360 407.7278,-338.3657 575.0159,-321.0842 679.0976,-312.3081"/>
<polygon fill="#000000" stroke="#000000" points="679.6024,-315.7783 689.2771,-311.4598 679.021,-308.8024 679.6024,-315.7783"/>
</g>
<!-- MI_BlackBox -->
<g id="node9" class="node">
<title>MI_BlackBox</title>
<ellipse fill="none" stroke="#000000" cx="171" cy="-18" rx="66.0743" ry="18"/>
<text text-anchor="middle" x="171" y="-13.8" font-family="Times,serif" font-size="14.00" fill="#000000">MI_BlackBox</text>
</g>
<!-- Data_sens_DP&#45;&gt;MI_BlackBox -->
<g id="edge8" class="edge">
<title>Data_sens_DP-&gt;MI_BlackBox</title>
<path fill="none" stroke="#000000" d="M390.4517,-431.9875C354.6613,-364.4702 228.3265,-126.1444 185.399,-45.1631"/>
<polygon fill="#000000" stroke="#000000" points="188.3651,-43.2855 180.5891,-36.0894 182.1803,-46.5641 188.3651,-43.2855"/>
</g>
<!-- Data_other_DP -->
<g id="node10" class="node">
<title>Data_other_DP</title>
<ellipse fill="none" stroke="#000000" cx="861" cy="-450" rx="71.2075" ry="18"/>
<text text-anchor="middle" x="861" y="-445.8" font-family="Times,serif" font-size="14.00" fill="#000000">Data_other_DP</text>
</g>
<!-- Data_other_DP&#45;&gt;Train_TI -->
<g id="edge9" class="edge">
<title>Data_other_DP-&gt;Train_TI</title>
<path fill="none" stroke="#000000" d="M926.0362,-442.5254C1007.6914,-432.909 1151.9904,-415.1481 1275,-396 1438.5214,-370.5457 1631.0537,-333.7084 1720.9513,-316.1055"/>
<polygon fill="#000000" stroke="#000000" points="1721.7411,-319.5173 1730.8803,-314.1577 1720.3936,-312.6483 1721.7411,-319.5173"/>
</g>
<!-- Data_other_SPD -->
<g id="node11" class="node">
<title>Data_other_SPD</title>
<ellipse fill="none" stroke="#000000" cx="790" cy="-522" rx="76.4439" ry="18"/>
<text text-anchor="middle" x="790" y="-517.8" font-family="Times,serif" font-size="14.00" fill="#000000">Data_other_SPD</text>
</g>
<!-- Data_other_SPD&#45;&gt;Data_sens_SPD -->
<g id="edge10" class="edge">
<title>Data_other_SPD-&gt;Data_sens_SPD</title>
<path fill="none" stroke="#000000" d="M729.4631,-510.9075C690.1678,-502.333 638.5448,-488.4336 596,-468 559.6163,-450.5255 522.6828,-422.3704 498.4958,-402.2039"/>
<polygon fill="#000000" stroke="#000000" points="500.6972,-399.4819 490.8011,-395.6981 496.1776,-404.8273 500.6972,-399.4819"/>
</g>
<!-- Data_other_SPD&#45;&gt;Data_other_DP -->
<g id="edge11" class="edge">
<title>Data_other_SPD-&gt;Data_other_DP</title>
<path fill="none" stroke="#000000" d="M807.5506,-504.2022C816.3204,-495.3088 827.0736,-484.4042 836.6297,-474.7135"/>
<polygon fill="#000000" stroke="#000000" points="839.122,-477.1709 843.6513,-467.593 834.1377,-472.2559 839.122,-477.1709"/>
</g>
<!-- Train_other_DP -->
<g id="node12" class="node">
<title>Train_other_DP</title>
<ellipse fill="none" stroke="#000000" cx="1192" cy="-378" rx="73.5772" ry="18"/>
<text text-anchor="middle" x="1192" y="-373.8" font-family="Times,serif" font-size="14.00" fill="#000000">Train_other_DP</text>
</g>
<!-- Data_other_SPD&#45;&gt;Train_other_DP -->
<g id="edge12" class="edge">
<title>Data_other_SPD-&gt;Train_other_DP</title>
<path fill="none" stroke="#000000" d="M781.2226,-504.0781C772.8058,-484.007 763.7068,-451.7139 781,-432 802.3353,-407.6782 996.4895,-390.881 1110.1483,-383.038"/>
<polygon fill="#000000" stroke="#000000" points="1110.4735,-386.5241 1120.2124,-382.3524 1109.9976,-379.5403 1110.4735,-386.5241"/>
</g>
<!-- Train_other_SPD -->
<g id="node13" class="node">
<title>Train_other_SPD</title>
<ellipse fill="none" stroke="#000000" cx="1143" cy="-450" rx="79.3135" ry="18"/>
<text text-anchor="middle" x="1143" y="-445.8" font-family="Times,serif" font-size="14.00" fill="#000000">Train_other_SPD</text>
</g>
<!-- Data_other_SPD&#45;&gt;Train_other_SPD -->
<g id="edge13" class="edge">
<title>Data_other_SPD-&gt;Train_other_SPD</title>
<path fill="none" stroke="#000000" d="M846.6789,-509.9163C856.1331,-507.924 865.8413,-505.8924 875,-504 942.3866,-490.0764 1019.4001,-474.6046 1073.525,-463.8036"/>
<polygon fill="#000000" stroke="#000000" points="1074.2352,-467.231 1083.3575,-461.8426 1072.866,-460.3662 1074.2352,-467.231"/>
</g>
<!-- Train_other_AOD -->
<g id="node14" class="node">
<title>Train_other_AOD</title>
<ellipse fill="none" stroke="#000000" cx="1014" cy="-306" rx="82.2256" ry="18"/>
<text text-anchor="middle" x="1014" y="-301.8" font-family="Times,serif" font-size="14.00" fill="#000000">Train_other_AOD</text>
</g>
<!-- Data_other_SPD&#45;&gt;Train_other_AOD -->
<g id="edge14" class="edge">
<title>Data_other_SPD-&gt;Train_other_AOD</title>
<path fill="none" stroke="#000000" d="M714.5571,-518.6813C589.0516,-512.3793 348.5531,-496.6781 323,-468 312.3559,-456.0542 317.1996,-446.9116 323,-432 338.7372,-391.5428 349.9805,-379.0243 389,-360 480.7657,-315.2588 745.3486,-333.4713 847,-324 874.2908,-321.4572 904.0539,-318.3551 930.795,-315.4473"/>
<polygon fill="#000000" stroke="#000000" points="931.3241,-318.9104 940.8843,-314.3439 930.5631,-311.9519 931.3241,-318.9104"/>
</g>
<!-- Data_other_SPD&#45;&gt;Test_other_SPD -->
<g id="edge15" class="edge">
<title>Data_other_SPD-&gt;Test_other_SPD</title>
<path fill="none" stroke="#000000" d="M759.5041,-505.2874C725.8525,-484.7513 674.0596,-446.3469 656,-396 639.7906,-350.811 623.898,-325.3986 654,-288 715.074,-212.1219 1003.6579,-179.4267 1147.7437,-167.6433"/>
<polygon fill="#000000" stroke="#000000" points="1148.1753,-171.12 1157.8631,-166.8307 1147.615,-164.1424 1148.1753,-171.12"/>
</g>
<!-- Train_other_DP&#45;&gt;Test_other_AOD -->
<g id="edge47" class="edge">
<title>Train_other_DP-&gt;Test_other_AOD</title>
<path fill="none" stroke="#000000" d="M1186.6427,-359.83C1182.1002,-341.2264 1177.548,-311.7532 1186,-288 1189.7481,-277.4665 1196.5277,-267.4983 1203.6603,-259.0608"/>
<polygon fill="#000000" stroke="#000000" points="1206.4107,-261.2376 1210.5196,-251.4719 1201.2176,-256.5437 1206.4107,-261.2376"/>
</g>
<!-- Train_other_DP&#45;&gt;Train_sens_SPD -->
<g id="edge32" class="edge">
<title>Train_other_DP-&gt;Train_sens_SPD</title>
<path fill="none" stroke="#000000" d="M1130.8481,-367.7606C1052.6423,-354.6657 917.4046,-332.0212 834.2159,-318.092"/>
<polygon fill="#000000" stroke="#000000" points="834.777,-314.6373 824.3363,-316.4377 833.621,-321.5412 834.777,-314.6373"/>
</g>
<!-- Train_other_DP&#45;&gt;Train_other_AOD -->
<g id="edge33" class="edge">
<title>Train_other_DP-&gt;Train_other_AOD</title>
<path fill="none" stroke="#000000" d="M1153.8145,-362.5542C1127.1989,-351.7883 1091.4654,-337.3343 1062.7861,-325.7337"/>
<polygon fill="#000000" stroke="#000000" points="1063.9367,-322.4237 1053.3539,-321.9184 1061.3118,-328.9129 1063.9367,-322.4237"/>
</g>
<!-- Test_sens_DP -->
<g id="node18" class="node">
<title>Test_sens_DP</title>
<ellipse fill="none" stroke="#000000" cx="1452" cy="-306" rx="66.0704" ry="18"/>
<text text-anchor="middle" x="1452" y="-301.8" font-family="Times,serif" font-size="14.00" fill="#000000">Test_sens_DP</text>
</g>
<!-- Train_other_DP&#45;&gt;Test_sens_DP -->
<g id="edge38" class="edge">
<title>Train_other_DP-&gt;Test_sens_DP</title>
<path fill="none" stroke="#000000" d="M1240.904,-364.4574C1284.8955,-352.2751 1349.5156,-334.3803 1395.6576,-321.6025"/>
<polygon fill="#000000" stroke="#000000" points="1396.7976,-324.9186 1405.5008,-318.8767 1394.9294,-318.1725 1396.7976,-324.9186"/>
</g>
<!-- Test_other_DP -->
<g id="node19" class="node">
<title>Test_other_DP</title>
<ellipse fill="none" stroke="#000000" cx="1298" cy="-306" rx="69.5012" ry="18"/>
<text text-anchor="middle" x="1298" y="-301.8" font-family="Times,serif" font-size="14.00" fill="#000000">Test_other_DP</text>
</g>
<!-- Train_other_DP&#45;&gt;Test_other_DP -->
<g id="edge42" class="edge">
<title>Train_other_DP-&gt;Test_other_DP</title>
<path fill="none" stroke="#000000" d="M1217.1205,-360.937C1231.2456,-351.3426 1249.0639,-339.2396 1264.3788,-328.8371"/>
<polygon fill="#000000" stroke="#000000" points="1266.7542,-331.4547 1273.0598,-322.9405 1262.821,-325.6641 1266.7542,-331.4547"/>
</g>
<!-- Train_other_SPD&#45;&gt;Train_TI -->
<g id="edge36" class="edge">
<title>Train_other_SPD-&gt;Train_TI</title>
<path fill="none" stroke="#000000" d="M1200.6452,-437.6268C1210.7402,-435.6266 1221.1601,-433.6677 1231,-432 1349.0568,-411.9908 1382.7954,-428.6446 1498,-396 1535.9031,-385.2597 1541.9329,-373.3427 1579,-360 1626.8842,-342.7636 1683.0552,-327.5952 1722.4117,-317.7585"/>
<polygon fill="#000000" stroke="#000000" points="1723.4248,-321.1135 1732.2908,-315.313 1721.7427,-314.3185 1723.4248,-321.1135"/>
</g>
<!-- Train_other_SPD&#45;&gt;Train_other_DP -->
<g id="edge34" class="edge">
<title>Train_other_SPD-&gt;Train_other_DP</title>
<path fill="none" stroke="#000000" d="M1155.1124,-432.2022C1160.8252,-423.8079 1167.7574,-413.6218 1174.0634,-404.3558"/>
<polygon fill="#000000" stroke="#000000" points="1177.1244,-406.0789 1179.8572,-395.8425 1171.3374,-402.1405 1177.1244,-406.0789"/>
</g>
<!-- Train_other_SPD&#45;&gt;Train_other_AOD -->
<g id="edge35" class="edge">
<title>Train_other_SPD-&gt;Train_other_AOD</title>
<path fill="none" stroke="#000000" d="M1118.2989,-432.8066C1104.9713,-422.8871 1088.6996,-409.6916 1076,-396 1057.9257,-376.5138 1041.068,-351.406 1029.5071,-332.6629"/>
<polygon fill="#000000" stroke="#000000" points="1032.4498,-330.7654 1024.2751,-324.0256 1026.4625,-334.3921 1032.4498,-330.7654"/>
</g>
<!-- Train_other_SPD&#45;&gt;Test_other_DP -->
<g id="edge43" class="edge">
<title>Train_other_SPD-&gt;Test_other_DP</title>
<path fill="none" stroke="#000000" d="M1203.0139,-438.1339C1228.5096,-430.2112 1256.5469,-417.1955 1275,-396 1289.832,-378.9637 1295.319,-353.6287 1297.247,-334.1753"/>
<polygon fill="#000000" stroke="#000000" points="1300.7477,-334.2923 1297.9886,-324.063 1293.7664,-333.7802 1300.7477,-334.2923"/>
</g>
<!-- Train_other_AOD&#45;&gt;Test_Loss -->
<g id="edge80" class="edge">
<title>Train_other_AOD-&gt;Test_Loss</title>
<path fill="none" stroke="#000000" d="M1022.6224,-288.0594C1040.3157,-253.4478 1084.3136,-177.888 1146,-144 1212.8161,-107.2939 1433.9873,-95.3051 1542.2425,-91.5802"/>
<polygon fill="#000000" stroke="#000000" points="1542.4788,-95.0744 1552.3574,-91.245 1542.2469,-88.0782 1542.4788,-95.0744"/>
</g>
<!-- Train_sens_DP -->
<g id="node16" class="node">
<title>Train_sens_DP</title>
<ellipse fill="none" stroke="#000000" cx="1479" cy="-450" rx="70.6451" ry="18"/>
<text text-anchor="middle" x="1479" y="-445.8" font-family="Times,serif" font-size="14.00" fill="#000000">Train_sens_DP</text>
</g>
<!-- Train_sens_DP&#45;&gt;Train_other_DP -->
<g id="edge16" class="edge">
<title>Train_sens_DP-&gt;Train_other_DP</title>
<path fill="none" stroke="#000000" d="M1428.68,-437.3762C1379.8977,-425.1381 1305.8046,-406.5503 1253.5371,-393.4379"/>
<polygon fill="#000000" stroke="#000000" points="1254.267,-390.0126 1243.7159,-390.974 1252.5636,-396.8022 1254.267,-390.0126"/>
</g>
<!-- Train_sens_DP&#45;&gt;Test_other_SPD -->
<g id="edge17" class="edge">
<title>Train_sens_DP-&gt;Test_other_SPD</title>
<path fill="none" stroke="#000000" d="M1493.2708,-432.1227C1516.4474,-400.763 1556.8226,-334.7361 1527,-288 1479.9759,-214.3067 1379.8973,-183.6367 1308.9337,-170.9216"/>
<polygon fill="#000000" stroke="#000000" points="1309.1309,-167.4048 1298.6847,-169.1729 1307.9535,-174.305 1309.1309,-167.4048"/>
</g>
<!-- Train_sens_DP&#45;&gt;Test_sens_DP -->
<g id="edge37" class="edge">
<title>Train_sens_DP-&gt;Test_sens_DP</title>
<path fill="none" stroke="#000000" d="M1458.2172,-432.7757C1448.2379,-423.1308 1437.3146,-410.2011 1432,-396 1424.379,-375.6359 1430.4776,-351.5418 1437.8814,-333.4103"/>
<polygon fill="#000000" stroke="#000000" points="1441.1947,-334.5725 1442.05,-324.0122 1434.7959,-331.7342 1441.1947,-334.5725"/>
</g>
<!-- Train_sens_AOD -->
<g id="node17" class="node">
<title>Train_sens_AOD</title>
<ellipse fill="none" stroke="#000000" cx="2138" cy="-522" rx="79.2942" ry="18"/>
<text text-anchor="middle" x="2138" y="-517.8" font-family="Times,serif" font-size="14.00" fill="#000000">Train_sens_AOD</text>
</g>
<!-- Train_sens_AOD&#45;&gt;Test_sens_SPD -->
<g id="edge23" class="edge">
<title>Train_sens_AOD-&gt;Test_sens_SPD</title>
<path fill="none" stroke="#000000" d="M2134.4538,-503.7623C2129.6569,-479.0928 2121.0561,-434.8598 2115.4392,-405.9731"/>
<polygon fill="#000000" stroke="#000000" points="2118.8619,-405.2377 2113.5174,-396.0896 2111.9905,-406.5738 2118.8619,-405.2377"/>
</g>
<!-- Train_sens_AOD&#45;&gt;Train_Cons -->
<g id="edge25" class="edge">
<title>Train_sens_AOD-&gt;Train_Cons</title>
<path fill="none" stroke="#000000" d="M2126.4728,-504.1905C2112.7529,-484.2225 2088.131,-452.0238 2060,-432 2035.4733,-414.5417 2004.4991,-401.6301 1978.4081,-392.8179"/>
<polygon fill="#000000" stroke="#000000" points="1979.2636,-389.4155 1968.6712,-389.6403 1977.0919,-396.0701 1979.2636,-389.4155"/>
</g>
<!-- Train_sens_AOD&#45;&gt;Train_sens_SPD -->
<g id="edge19" class="edge">
<title>Train_sens_AOD-&gt;Train_sens_SPD</title>
<path fill="none" stroke="#000000" d="M2070.3358,-512.5614C2045.1602,-509.3687 2016.3188,-506.0872 1990,-504 1775.8567,-487.0175 1229.5039,-530.5615 1024,-468 975.2156,-453.1486 853.7149,-370.52 794.9132,-329.339"/>
<polygon fill="#000000" stroke="#000000" points="796.5663,-326.2231 786.3715,-323.3394 792.5429,-331.9513 796.5663,-326.2231"/>
</g>
<!-- Train_sens_AOD&#45;&gt;Train_other_SPD -->
<g id="edge20" class="edge">
<title>Train_sens_AOD-&gt;Train_other_SPD</title>
<path fill="none" stroke="#000000" d="M2069.9534,-512.6596C2044.8644,-509.4969 2016.1789,-506.2098 1990,-504 1653.4842,-475.5944 1566.0953,-509.9631 1231,-468 1223.8726,-467.1075 1216.4611,-465.9534 1209.0984,-464.6607"/>
<polygon fill="#000000" stroke="#000000" points="1209.5884,-461.1922 1199.12,-462.8237 1208.321,-468.0765 1209.5884,-461.1922"/>
</g>
<!-- Train_sens_AOD&#45;&gt;Train_other_AOD -->
<g id="edge21" class="edge">
<title>Train_sens_AOD-&gt;Train_other_AOD</title>
<path fill="none" stroke="#000000" d="M2070.3344,-512.5791C2045.1586,-509.3882 2016.3175,-506.1034 1990,-504 1938.1823,-499.8585 1095.3976,-500.7148 1055,-468 1015.3957,-435.9277 1010.838,-371.5948 1011.8779,-334.3746"/>
<polygon fill="#000000" stroke="#000000" points="1015.3824,-334.3449 1012.3212,-324.202 1008.3891,-334.0401 1015.3824,-334.3449"/>
</g>
<!-- Train_sens_AOD&#45;&gt;Train_sens_DP -->
<g id="edge18" class="edge">
<title>Train_sens_AOD-&gt;Train_sens_DP</title>
<path fill="none" stroke="#000000" d="M2068.3838,-513.3042C2043.6451,-510.2747 2015.5897,-506.908 1990,-504 1835.5336,-486.4462 1654.5757,-467.7682 1554.7703,-457.6307"/>
<polygon fill="#000000" stroke="#000000" points="1555.0811,-454.1444 1544.7788,-456.6169 1554.3743,-461.1086 1555.0811,-454.1444"/>
</g>
<!-- Train_sens_AOD&#45;&gt;Test_sens_DP -->
<g id="edge22" class="edge">
<title>Train_sens_AOD-&gt;Test_sens_DP</title>
<path fill="none" stroke="#000000" d="M2101.1689,-505.9893C2027.5,-474.4527 1856.2457,-403.5807 1707,-360 1643.9802,-341.5978 1570.4922,-326.7103 1518.6405,-317.264"/>
<polygon fill="#000000" stroke="#000000" points="1519.0305,-313.778 1508.5681,-315.4479 1517.7883,-320.6669 1519.0305,-313.778"/>
</g>
<!-- Train_sens_AOD&#45;&gt;Test_other_DP -->
<g id="edge24" class="edge">
<title>Train_sens_AOD-&gt;Test_other_DP</title>
<path fill="none" stroke="#000000" d="M2069.5655,-512.8054C2044.5632,-509.6765 2016.0346,-506.3739 1990,-504 1924.4834,-498.0259 1455.526,-501.6589 1399,-468 1372.7129,-452.3471 1331.8122,-375.0174 1311.0471,-333.1104"/>
<polygon fill="#000000" stroke="#000000" points="1314.1269,-331.4416 1306.5776,-324.0081 1307.8436,-334.527 1314.1269,-331.4416"/>
</g>
<!-- Train_CDS -->
<g id="node20" class="node">
<title>Train_CDS</title>
<ellipse fill="none" stroke="#000000" cx="1296" cy="-450" rx="55.6159" ry="18"/>
<text text-anchor="middle" x="1296" y="-445.8" font-family="Times,serif" font-size="14.00" fill="#000000">Train_CDS</text>
</g>
<!-- Train_sens_AOD&#45;&gt;Train_CDS -->
<g id="edge26" class="edge">
<title>Train_sens_AOD-&gt;Train_CDS</title>
<path fill="none" stroke="#000000" d="M2069.9407,-512.806C2044.8503,-509.6585 2016.1673,-506.3437 1990,-504 1713.3131,-479.2182 1640.4788,-510.7924 1366,-468 1359.8977,-467.0486 1353.5543,-465.7977 1347.2882,-464.3976"/>
<polygon fill="#000000" stroke="#000000" points="1348.0877,-460.9902 1337.5508,-462.0963 1346.4776,-467.8026 1348.0877,-460.9902"/>
</g>
<!-- Test_Cons -->
<g id="node21" class="node">
<title>Test_Cons</title>
<ellipse fill="none" stroke="#000000" cx="2850" cy="-162" rx="52.1867" ry="18"/>
<text text-anchor="middle" x="2850" y="-157.8" font-family="Times,serif" font-size="14.00" fill="#000000">Test_Cons</text>
</g>
<!-- Train_sens_AOD&#45;&gt;Test_Cons -->
<g id="edge27" class="edge">
<title>Train_sens_AOD-&gt;Test_Cons</title>
<path fill="none" stroke="#000000" d="M2216.3038,-519.061C2400.6065,-511.7645 2847.9928,-491.6905 2870,-468 2942.1013,-390.3838 2890.0304,-248.5466 2863.2618,-189.2213"/>
<polygon fill="#000000" stroke="#000000" points="2866.2716,-187.3909 2858.899,-179.782 2859.9175,-190.3277 2866.2716,-187.3909"/>
</g>
<!-- Test_CDS -->
<g id="node22" class="node">
<title>Test_CDS</title>
<ellipse fill="none" stroke="#000000" cx="2881" cy="-18" rx="51.0415" ry="18"/>
<text text-anchor="middle" x="2881" y="-13.8" font-family="Times,serif" font-size="14.00" fill="#000000">Test_CDS</text>
</g>
<!-- Train_sens_AOD&#45;&gt;Test_CDS -->
<g id="edge28" class="edge">
<title>Train_sens_AOD-&gt;Test_CDS</title>
<path fill="none" stroke="#000000" d="M2216.0729,-519.032C2408.4587,-511.4156 2894.8264,-490.2106 2965,-468 3023.5725,-449.4612 3034.4576,-433.6571 3083,-396 3119.257,-367.8734 3137.6951,-365.6293 3157,-324 3190.7077,-251.312 3180.6354,-216.7215 3147,-144 3129.9817,-107.2055 3124.8938,-94.2411 3091,-72 3046.0338,-42.4932 2985.8504,-29.1022 2941.4404,-23.0292"/>
<polygon fill="#000000" stroke="#000000" points="2941.7278,-19.5375 2931.3642,-21.7391 2940.8387,-26.4808 2941.7278,-19.5375"/>
</g>
<!-- Test_Acc -->
<g id="node23" class="node">
<title>Test_Acc</title>
<ellipse fill="none" stroke="#000000" cx="3034" cy="-90" rx="48.0703" ry="18"/>
<text text-anchor="middle" x="3034" y="-85.8" font-family="Times,serif" font-size="14.00" fill="#000000">Test_Acc</text>
</g>
<!-- Train_sens_AOD&#45;&gt;Test_Acc -->
<g id="edge29" class="edge">
<title>Train_sens_AOD-&gt;Test_Acc</title>
<path fill="none" stroke="#000000" d="M2216.0744,-519.0301C2401.1381,-511.6462 2855.8672,-491.3587 2921,-468 2950.1675,-457.5396 3148,-336.9865 3148,-306 3148,-306 3148,-306 3148,-234 3148,-192.6022 3148.9045,-177.0688 3124,-144 3112.0685,-128.1571 3094.0136,-116.0245 3077.199,-107.3111"/>
<polygon fill="#000000" stroke="#000000" points="3078.5521,-104.0766 3068.032,-102.8202 3075.4725,-110.3628 3078.5521,-104.0766"/>
</g>
<!-- AE_FGSM -->
<g id="node24" class="node">
<title>AE_FGSM</title>
<ellipse fill="none" stroke="#000000" cx="2685" cy="-90" rx="55.0555" ry="18"/>
<text text-anchor="middle" x="2685" y="-85.8" font-family="Times,serif" font-size="14.00" fill="#000000">AE_FGSM</text>
</g>
<!-- Train_sens_AOD&#45;&gt;AE_FGSM -->
<g id="edge30" class="edge">
<title>Train_sens_AOD-&gt;AE_FGSM</title>
<path fill="none" stroke="#000000" d="M2217.3427,-521.2061C2400.5047,-518.6878 2841.2269,-508.4485 2894,-468 2972.5649,-407.7831 2934.5191,-172.4264 2911,-144 2865.3646,-88.8426 2823.5318,-125.0372 2754,-108 2748.7393,-106.711 2743.2615,-105.3369 2737.7944,-103.9443"/>
<polygon fill="#000000" stroke="#000000" points="2738.5708,-100.5302 2728.0144,-101.4323 2736.8293,-107.3101 2738.5708,-100.5302"/>
</g>
<!-- AE_PGD -->
<g id="node25" class="node">
<title>AE_PGD</title>
<ellipse fill="none" stroke="#000000" cx="2523" cy="-18" rx="48.0935" ry="18"/>
<text text-anchor="middle" x="2523" y="-13.8" font-family="Times,serif" font-size="14.00" fill="#000000">AE_PGD</text>
</g>
<!-- Train_sens_AOD&#45;&gt;AE_PGD -->
<g id="edge31" class="edge">
<title>Train_sens_AOD-&gt;AE_PGD</title>
<path fill="none" stroke="#000000" d="M2213.6554,-516.5532C2323.7091,-507.934 2517.4726,-489.8649 2541,-468 2618.8337,-395.6662 2590,-340.2557 2590,-234 2590,-234 2590,-234 2590,-162 2590,-117.2145 2563.0298,-71.2925 2543.3125,-43.7041"/>
<polygon fill="#000000" stroke="#000000" points="2545.957,-41.3926 2537.209,-35.4157 2540.3203,-45.5434 2545.957,-41.3926"/>
</g>
<!-- Test_sens_DP&#45;&gt;Test_other_AOD -->
<g id="edge40" class="edge">
<title>Test_sens_DP-&gt;Test_other_AOD</title>
<path fill="none" stroke="#000000" d="M1409.1962,-292.1177C1373.9194,-280.6766 1323.6388,-264.3693 1285.3124,-251.9392"/>
<polygon fill="#000000" stroke="#000000" points="1285.9354,-248.4618 1275.3433,-248.706 1283.7758,-255.1203 1285.9354,-248.4618"/>
</g>
<!-- Test_sens_DP&#45;&gt;Test_other_SPD -->
<g id="edge39" class="edge">
<title>Test_sens_DP-&gt;Test_other_SPD</title>
<path fill="none" stroke="#000000" d="M1431.2622,-288.6456C1408.095,-269.6618 1369.0931,-238.8908 1333,-216 1314.038,-203.974 1292.1128,-192.2058 1273.3775,-182.7409"/>
<polygon fill="#000000" stroke="#000000" points="1274.6946,-179.4866 1264.1843,-178.1508 1271.5676,-185.7493 1274.6946,-179.4866"/>
</g>
<!-- Test_other_DP&#45;&gt;Test_other_AOD -->
<g id="edge45" class="edge">
<title>Test_other_DP-&gt;Test_other_AOD</title>
<path fill="none" stroke="#000000" d="M1281.191,-288.2022C1272.874,-279.396 1262.6946,-268.6179 1253.6101,-258.9989"/>
<polygon fill="#000000" stroke="#000000" points="1256.0265,-256.46 1246.6156,-251.593 1250.9373,-261.2664 1256.0265,-256.46"/>
</g>
<!-- Test_other_DP&#45;&gt;Test_other_SPD -->
<g id="edge44" class="edge">
<title>Test_other_DP-&gt;Test_other_SPD</title>
<path fill="none" stroke="#000000" d="M1308.7106,-288.0032C1318.4911,-269.0144 1329.6539,-238.7474 1317,-216 1308.8415,-201.3338 1294.8687,-190.1409 1280.4796,-181.8541"/>
<polygon fill="#000000" stroke="#000000" points="1281.9842,-178.6898 1271.5147,-177.0649 1278.6858,-184.864 1281.9842,-178.6898"/>
</g>
<!-- Test_other_DP&#45;&gt;Test_Loss -->
<g id="edge46" class="edge">
<title>Test_other_DP-&gt;Test_Loss</title>
<path fill="none" stroke="#000000" d="M1321.9328,-289.0508C1376.5431,-250.376 1510.3381,-155.6229 1571.5296,-112.2873"/>
<polygon fill="#000000" stroke="#000000" points="1573.875,-114.9151 1580.013,-106.2794 1569.8293,-109.2025 1573.875,-114.9151"/>
</g>
<!-- Train_CDS&#45;&gt;Test_other_AOD -->
<g id="edge52" class="edge">
<title>Train_CDS-&gt;Test_other_AOD</title>
<path fill="none" stroke="#000000" d="M1295.6896,-431.8148C1294.5201,-412.3906 1290.1676,-381.502 1275,-360 1257.9447,-335.822 1233.1783,-349.9699 1219,-324 1208.626,-304.9983 1212.5733,-280.4376 1218.4482,-261.7751"/>
<polygon fill="#000000" stroke="#000000" points="1221.839,-262.6815 1221.8317,-252.0866 1215.2304,-260.3735 1221.839,-262.6815"/>
</g>
<!-- Train_CDS&#45;&gt;Train_Cons -->
<g id="edge53" class="edge">
<title>Train_CDS-&gt;Train_Cons</title>
<path fill="none" stroke="#000000" d="M1344.0976,-440.869C1361.3688,-437.7825 1381.0188,-434.491 1399,-432 1564.3268,-409.0968 1760.1367,-391.488 1859.7381,-383.2059"/>
<polygon fill="#000000" stroke="#000000" points="1860.268,-386.6741 1869.9455,-382.3618 1859.6911,-379.6979 1860.268,-386.6741"/>
</g>
<!-- Train_CDS&#45;&gt;Train_other_DP -->
<g id="edge50" class="edge">
<title>Train_CDS-&gt;Train_other_DP</title>
<path fill="none" stroke="#000000" d="M1272.4008,-433.6621C1258.3434,-423.93 1240.2914,-411.4325 1224.8554,-400.7461"/>
<polygon fill="#000000" stroke="#000000" points="1226.8052,-397.839 1216.591,-395.0245 1222.8207,-403.5943 1226.8052,-397.839"/>
</g>
<!-- Train_CDS&#45;&gt;Test_other_SPD -->
<g id="edge51" class="edge">
<title>Train_CDS-&gt;Test_other_SPD</title>
<path fill="none" stroke="#000000" d="M1253.8878,-438.1733C1199.0874,-422.7362 1110.1235,-397.4938 1109,-396 1094.3238,-376.4861 1107.1861,-265.7877 1143,-216 1153.0581,-202.0174 1167.9651,-190.8837 1182.6098,-182.4455"/>
<polygon fill="#000000" stroke="#000000" points="1184.5301,-185.3855 1191.6486,-177.5384 1181.1902,-179.2336 1184.5301,-185.3855"/>
</g>
<!-- Train_CDS&#45;&gt;Test_CDS -->
<g id="edge54" class="edge">
<title>Train_CDS-&gt;Test_CDS</title>
<path fill="none" stroke="#000000" d="M1343.2515,-440.4395C1360.7011,-437.2537 1380.6845,-434.0083 1399,-432 2017.3482,-364.1962 2210.2264,-484.9895 2787,-252 2846.0889,-228.1309 2877.3091,-234.094 2911,-180 2936.4033,-139.2126 2929.6269,-118.0787 2916,-72 2913.0842,-62.1404 2907.7415,-52.3909 2902.0937,-43.9467"/>
<polygon fill="#000000" stroke="#000000" points="2904.8445,-41.776 2896.1865,-35.6694 2899.1467,-45.8423 2904.8445,-41.776"/>
</g>
<!-- Test_Cons&#45;&gt;Test_CDS -->
<g id="edge55" class="edge">
<title>Test_Cons-&gt;Test_CDS</title>
<path fill="none" stroke="#000000" d="M2871.983,-145.5863C2882.9423,-135.9926 2895.0925,-122.8588 2901,-108 2909.1204,-87.5754 2902.7745,-63.1666 2895.1454,-44.9248"/>
<polygon fill="#000000" stroke="#000000" points="2898.3009,-43.4085 2890.9842,-35.7459 2891.9254,-46.2988 2898.3009,-43.4085"/>
</g>
<!-- Test_Cons&#45;&gt;AE_FGSM -->
<g id="edge56" class="edge">
<title>Test_Cons-&gt;AE_FGSM</title>
<path fill="none" stroke="#000000" d="M2817.4013,-147.7751C2791.5812,-136.5082 2755.3153,-120.6831 2727.2661,-108.4434"/>
<polygon fill="#000000" stroke="#000000" points="2728.661,-105.2334 2718.0957,-104.4418 2725.8613,-111.6492 2728.661,-105.2334"/>
</g>
<!-- MI_Rule -->
<g id="node33" class="node">
<title>MI_Rule</title>
<ellipse fill="none" stroke="#000000" cx="3072" cy="-18" rx="45.806" ry="18"/>
<text text-anchor="middle" x="3072" y="-13.8" font-family="Times,serif" font-size="14.00" fill="#000000">MI_Rule</text>
</g>
<!-- Test_Acc&#45;&gt;MI_Rule -->
<g id="edge72" class="edge">
<title>Test_Acc-&gt;MI_Rule</title>
<path fill="none" stroke="#000000" d="M3043.3933,-72.2022C3047.7323,-63.981 3052.9783,-54.041 3057.7869,-44.9301"/>
<polygon fill="#000000" stroke="#000000" points="3061.0108,-46.3201 3062.5831,-35.8425 3054.8201,-43.0527 3061.0108,-46.3201"/>
</g>
<!-- AE_FGSM&#45;&gt;Test_CDS -->
<g id="edge87" class="edge">
<title>AE_FGSM-&gt;Test_CDS</title>
<path fill="none" stroke="#000000" d="M2721.8661,-76.4574C2754.2005,-64.5794 2801.3184,-47.2708 2835.8941,-34.5695"/>
<polygon fill="#000000" stroke="#000000" points="2837.1111,-37.8512 2845.2909,-31.1176 2834.6973,-31.2805 2837.1111,-37.8512"/>
</g>
<!-- AE_FGSM&#45;&gt;AE_PGD -->
<g id="edge88" class="edge">
<title>AE_FGSM-&gt;AE_PGD</title>
<path fill="none" stroke="#000000" d="M2652.2169,-75.4297C2626.5787,-64.035 2590.8076,-48.1367 2563.4005,-35.9558"/>
<polygon fill="#000000" stroke="#000000" points="2564.6451,-32.6789 2554.0854,-31.8158 2561.8021,-39.0755 2564.6451,-32.6789"/>
</g>
<!-- Test_Loss&#45;&gt;MI_BlackBox -->
<g id="edge84" class="edge">
<title>Test_Loss-&gt;MI_BlackBox</title>
<path fill="none" stroke="#000000" d="M1552.455,-87.4586C1338.1489,-76.6835 503.7949,-34.7327 246.7854,-21.8104"/>
<polygon fill="#000000" stroke="#000000" points="246.5971,-18.2966 236.4339,-21.29 246.2455,-25.2878 246.5971,-18.2966"/>
</g>
<!-- Test_TI&#45;&gt;Test_Cons -->
<g id="edge58" class="edge">
<title>Test_TI-&gt;Test_Cons</title>
<path fill="none" stroke="#000000" d="M2759.6209,-219.0816C2775.9864,-208.7455 2798.02,-194.8295 2816.2345,-183.3256"/>
<polygon fill="#000000" stroke="#000000" points="2818.2419,-186.1974 2824.8278,-177.8982 2814.5039,-180.279 2818.2419,-186.1974"/>
</g>
<!-- Test_TI&#45;&gt;Test_Acc -->
<g id="edge61" class="edge">
<title>Test_TI-&gt;Test_Acc</title>
<path fill="none" stroke="#000000" d="M2741.6095,-216.1179C2749.0446,-195.4561 2764.1978,-161.9988 2789,-144 2818.7193,-122.4329 2915.5741,-105.85 2978.2347,-97.0417"/>
<polygon fill="#000000" stroke="#000000" points="2978.9368,-100.4781 2988.3643,-95.6434 2977.9796,-93.5438 2978.9368,-100.4781"/>
</g>
<!-- Test_TI&#45;&gt;Test_Loss -->
<g id="edge62" class="edge">
<title>Test_TI-&gt;Test_Loss</title>
<path fill="none" stroke="#000000" d="M2696.0087,-228.9173C2525.8784,-207.2943 1861.8554,-122.8995 1660.9225,-97.3617"/>
<polygon fill="#000000" stroke="#000000" points="1661.2282,-93.8725 1650.8666,-96.0837 1660.3455,-100.8166 1661.2282,-93.8725"/>
</g>
<!-- Test_F1 -->
<g id="node31" class="node">
<title>Test_F1</title>
<ellipse fill="none" stroke="#000000" cx="2699" cy="-162" rx="42.8751" ry="18"/>
<text text-anchor="middle" x="2699" y="-157.8" font-family="Times,serif" font-size="14.00" fill="#000000">Test_F1</text>
</g>
<!-- Test_TI&#45;&gt;Test_F1 -->
<g id="edge63" class="edge">
<title>Test_TI-&gt;Test_F1</title>
<path fill="none" stroke="#000000" d="M2726.8539,-216.2022C2722.5974,-207.9192 2717.4442,-197.8915 2712.7336,-188.7248"/>
<polygon fill="#000000" stroke="#000000" points="2715.7246,-186.8876 2708.0409,-179.593 2709.4986,-190.0871 2715.7246,-186.8876"/>
</g>
<!-- Train_Loss -->
<g id="node29" class="node">
<title>Train_Loss</title>
<ellipse fill="none" stroke="#000000" cx="1643" cy="-378" rx="55.0343" ry="18"/>
<text text-anchor="middle" x="1643" y="-373.8" font-family="Times,serif" font-size="14.00" fill="#000000">Train_Loss</text>
</g>
<!-- Train_Loss&#45;&gt;Train_other_AOD -->
<g id="edge73" class="edge">
<title>Train_Loss-&gt;Train_other_AOD</title>
<path fill="none" stroke="#000000" d="M1590.9912,-372.0467C1481.9831,-359.5688 1228.7793,-330.5852 1097.0214,-315.5032"/>
<polygon fill="#000000" stroke="#000000" points="1097.3089,-312.0134 1086.9757,-314.3533 1096.5127,-318.968 1097.3089,-312.0134"/>
</g>
<!-- Train_Loss&#45;&gt;Test_Loss -->
<g id="edge83" class="edge">
<title>Train_Loss-&gt;Test_Loss</title>
<path fill="none" stroke="#000000" d="M1640.4978,-359.9843C1633.7353,-311.2939 1615.055,-176.7961 1606.8968,-118.0573"/>
<polygon fill="#000000" stroke="#000000" points="1610.3437,-117.4323 1605.5012,-108.0089 1603.4103,-118.3953 1610.3437,-117.4323"/>
</g>
<!-- Train_Loss&#45;&gt;Test_TI -->
<g id="edge59" class="edge">
<title>Train_Loss-&gt;Test_TI</title>
<path fill="none" stroke="#000000" d="M1651.8456,-359.9815C1663.48,-338.5142 1686.1256,-303.5977 1717,-288 1803.6535,-244.2228 2489.0247,-235.8231 2684.2632,-234.3129"/>
<polygon fill="#000000" stroke="#000000" points="2684.2927,-237.8129 2694.2662,-234.2383 2684.2404,-230.8131 2684.2927,-237.8129"/>
</g>
<!-- Train_F1 -->
<g id="node30" class="node">
<title>Train_F1</title>
<ellipse fill="none" stroke="#000000" cx="2723" cy="-450" rx="46.9497" ry="18"/>
<text text-anchor="middle" x="2723" y="-445.8" font-family="Times,serif" font-size="14.00" fill="#000000">Train_F1</text>
</g>
<!-- Train_F1&#45;&gt;Train_Cons -->
<g id="edge75" class="edge">
<title>Train_F1-&gt;Train_Cons</title>
<path fill="none" stroke="#000000" d="M2677.4074,-445.1288C2640.6152,-441.2852 2587.5084,-435.9341 2541,-432 2313.6944,-412.7723 2255.4553,-423.4869 2029,-396 2014.2202,-394.206 1998.346,-391.7377 1983.5609,-389.2037"/>
<polygon fill="#000000" stroke="#000000" points="1983.9798,-385.7238 1973.5259,-387.4463 1982.7723,-392.6189 1983.9798,-385.7238"/>
</g>
<!-- Train_F1&#45;&gt;Train_TI -->
<g id="edge76" class="edge">
<title>Train_F1-&gt;Train_TI</title>
<path fill="none" stroke="#000000" d="M2682.1874,-440.847C2602.0208,-423.1319 2418.1902,-383.8107 2262,-360 2104.9718,-336.0616 1918.0826,-318.4505 1827.1657,-310.5744"/>
<polygon fill="#000000" stroke="#000000" points="1827.3521,-307.0776 1817.0888,-309.7074 1826.7519,-314.0519 1827.3521,-307.0776"/>
</g>
<!-- Train_F1&#45;&gt;Test_Cons -->
<g id="edge77" class="edge">
<title>Train_F1-&gt;Test_Cons</title>
<path fill="none" stroke="#000000" d="M2741.8967,-433.0495C2752.0199,-423.1053 2764.0149,-409.8081 2772,-396 2814.0767,-323.2398 2802.5088,-295.4275 2830,-216 2833.0083,-207.3083 2836.4374,-197.8897 2839.5964,-189.3891"/>
<polygon fill="#000000" stroke="#000000" points="2842.9091,-190.5228 2843.1391,-179.9304 2836.3539,-188.0674 2842.9091,-190.5228"/>
</g>
<!-- Train_F1&#45;&gt;Test_Acc -->
<g id="edge78" class="edge">
<title>Train_F1-&gt;Test_Acc</title>
<path fill="none" stroke="#000000" d="M2756.8059,-437.3659C2818.5232,-412.3804 2948.7207,-350.4007 3010,-252 3035.6324,-210.8401 3037.7643,-152.6246 3036.3312,-118.3446"/>
<polygon fill="#000000" stroke="#000000" points="3039.8121,-117.8996 3035.766,-108.1078 3032.8227,-118.2856 3039.8121,-117.8996"/>
</g>
<!-- Train_F1&#45;&gt;Test_sens_AOD -->
<g id="edge74" class="edge">
<title>Train_F1-&gt;Test_sens_AOD</title>
<path fill="none" stroke="#000000" d="M2692.8006,-436.0618C2637.4114,-410.4976 2519.3704,-356.0171 2455.0344,-326.3236"/>
<polygon fill="#000000" stroke="#000000" points="2456.4921,-323.1416 2445.9457,-322.1288 2453.5586,-329.4973 2456.4921,-323.1416"/>
</g>
<!-- Train_F1&#45;&gt;Test_TI -->
<g id="edge60" class="edge">
<title>Train_F1-&gt;Test_TI</title>
<path fill="none" stroke="#000000" d="M2736.986,-432.6766C2744.1977,-422.6158 2752.2505,-409.3262 2756,-396 2768.9514,-349.9694 2756.1403,-294.2373 2745.9016,-261.5913"/>
<polygon fill="#000000" stroke="#000000" points="2749.1469,-260.2552 2742.7037,-251.8447 2742.4958,-262.4375 2749.1469,-260.2552"/>
</g>
<!-- Train_F1&#45;&gt;Test_F1 -->
<g id="edge79" class="edge">
<title>Train_F1-&gt;Test_F1</title>
<path fill="none" stroke="#000000" d="M2723.2677,-431.9234C2723.2416,-413.645 2722.3846,-384.6517 2718,-360 2706.5021,-295.3555 2676.6943,-281.1316 2685,-216 2686.0854,-207.4887 2688.0962,-198.4011 2690.262,-190.1555"/>
<polygon fill="#000000" stroke="#000000" points="2693.7045,-190.8414 2693.0302,-180.2681 2686.9637,-188.9542 2693.7045,-190.8414"/>
</g>
<!-- Test_F1&#45;&gt;Test_Acc -->
<g id="edge85" class="edge">
<title>Test_F1-&gt;Test_Acc</title>
<path fill="none" stroke="#000000" d="M2732.5746,-150.6985C2740.227,-148.3182 2748.3561,-145.9426 2756,-144 2832.7093,-124.5055 2922.8731,-108.1754 2979.2373,-98.7386"/>
<polygon fill="#000000" stroke="#000000" points="2980.0662,-102.1489 2989.3575,-97.0575 2978.9192,-95.2435 2980.0662,-102.1489"/>
</g>
<!-- Test_F1&#45;&gt;Test_Loss -->
<g id="edge86" class="edge">
<title>Test_F1-&gt;Test_Loss</title>
<path fill="none" stroke="#000000" d="M2656.7071,-159.2216C2487.8143,-148.1265 1861.2942,-106.9682 1663.3482,-93.9645"/>
<polygon fill="#000000" stroke="#000000" points="1663.3475,-90.457 1653.1396,-93.2938 1662.8886,-97.4419 1663.3475,-90.457"/>
</g>
<!-- Train_Acc -->
<g id="node32" class="node">
<title>Train_Acc</title>
<ellipse fill="none" stroke="#000000" cx="2480" cy="-450" rx="52.1463" ry="18"/>
<text text-anchor="middle" x="2480" y="-445.8" font-family="Times,serif" font-size="14.00" fill="#000000">Train_Acc</text>
</g>
<!-- Train_Acc&#45;&gt;Test_sens_SPD -->
<g id="edge66" class="edge">
<title>Train_Acc-&gt;Test_sens_SPD</title>
<path fill="none" stroke="#000000" d="M2433.7095,-441.4692C2377.4532,-431.0393 2279.6691,-412.709 2196,-396 2189.2662,-394.6552 2182.2415,-393.2268 2175.2363,-391.7858"/>
<polygon fill="#000000" stroke="#000000" points="2175.5246,-388.2714 2165.023,-389.6737 2174.107,-395.1264 2175.5246,-388.2714"/>
</g>
<!-- Train_Acc&#45;&gt;Train_Cons -->
<g id="edge68" class="edge">
<title>Train_Acc-&gt;Train_Cons</title>
<path fill="none" stroke="#000000" d="M2434.2824,-440.9194C2417.5639,-437.802 2398.4692,-434.4776 2381,-432 2225.2976,-409.9174 2184.7945,-417.4226 2029,-396 2014.3243,-393.982 1998.546,-391.4435 1983.8251,-388.9144"/>
<polygon fill="#000000" stroke="#000000" points="1984.2818,-385.4413 1973.8292,-387.1716 1983.0794,-392.3373 1984.2818,-385.4413"/>
</g>
<!-- Train_Acc&#45;&gt;Train_sens_SPD -->
<g id="edge64" class="edge">
<title>Train_Acc-&gt;Train_sens_SPD</title>
<path fill="none" stroke="#000000" d="M2434.2421,-441.1005C2363.103,-427.1573 2233.1364,-401.2114 2224,-396 2205.1463,-385.2459 2210.7417,-369.0209 2191,-360 2126.902,-330.7106 993.3009,-328.9193 923,-324 895.5091,-322.0763 865.4768,-318.9883 838.8758,-315.9091"/>
<polygon fill="#000000" stroke="#000000" points="839.2014,-312.4233 828.8611,-314.7318 838.3841,-319.3755 839.2014,-312.4233"/>
</g>
<!-- Train_Acc&#45;&gt;MI_BlackBox -->
<g id="edge70" class="edge">
<title>Train_Acc-&gt;MI_BlackBox</title>
<path fill="none" stroke="#000000" d="M2484.4168,-431.8834C2493.042,-394.7266 2510.023,-311.4169 2495,-288 2370.6457,-94.1639 2248.2551,-124.4032 2024,-72 1849.4635,-31.2149 575.5401,-20.5209 247.7437,-18.4318"/>
<polygon fill="#000000" stroke="#000000" points="247.4244,-14.9298 237.4026,-18.3668 247.3803,-21.9297 247.4244,-14.9298"/>
</g>
<!-- Train_Acc&#45;&gt;Train_other_AOD -->
<g id="edge65" class="edge">
<title>Train_Acc-&gt;Train_other_AOD</title>
<path fill="none" stroke="#000000" d="M2433.5325,-441.3855C2378.6894,-430.719 2291.2467,-412.0003 2262,-396 2241.5902,-384.8342 2245.4542,-368.9972 2224,-360 2120.9561,-316.7866 1330.5257,-330.8891 1219,-324 1179.5603,-321.5638 1135.9349,-317.8728 1099.1023,-314.466"/>
<polygon fill="#000000" stroke="#000000" points="1099.1849,-310.9586 1088.9028,-313.514 1098.5342,-317.9283 1099.1849,-310.9586"/>
</g>
<!-- Train_Acc&#45;&gt;AE_PGD -->
<g id="edge69" class="edge">
<title>Train_Acc-&gt;AE_PGD</title>
<path fill="none" stroke="#000000" d="M2490.3158,-432.1819C2510.2245,-396.0602 2552,-311.0805 2552,-234 2552,-234 2552,-234 2552,-162 2552,-120.8901 2540.5009,-74.4549 2531.9846,-45.702"/>
<polygon fill="#000000" stroke="#000000" points="2535.2755,-44.4943 2529.0088,-35.9514 2528.5803,-46.5376 2535.2755,-44.4943"/>
</g>
<!-- Train_Acc&#45;&gt;Test_sens_AOD -->
<g id="edge67" class="edge">
<title>Train_Acc-&gt;Test_sens_AOD</title>
<path fill="none" stroke="#000000" d="M2471.4006,-432.0535C2459.5213,-407.2618 2437.987,-362.3207 2424.0993,-333.3378"/>
<polygon fill="#000000" stroke="#000000" points="2427.1854,-331.6784 2419.7078,-324.1727 2420.8727,-334.7033 2427.1854,-331.6784"/>
</g>
<!-- Train_Acc&#45;&gt;MI_Rule -->
<g id="edge71" class="edge">
<title>Train_Acc-&gt;MI_Rule</title>
<path fill="none" stroke="#000000" d="M2524.057,-440.1074C2614.7759,-418.1481 2826.1411,-358.6585 2972,-252 3039.0189,-202.9928 3062.8966,-186.1245 3091,-108 3098.3886,-87.4604 3092.4705,-63.1966 3085.3491,-45.0411"/>
<polygon fill="#000000" stroke="#000000" points="3088.4857,-43.4734 3081.3459,-35.6456 3082.0459,-46.2173 3088.4857,-43.4734"/>
</g>
<!-- Model_Width -->
<g id="node34" class="node">
<title>Model_Width</title>
<ellipse fill="none" stroke="#000000" cx="1916" cy="-522" rx="65.4324" ry="18"/>
<text text-anchor="middle" x="1916" y="-517.8" font-family="Times,serif" font-size="14.00" fill="#000000">Model_Width</text>
</g>
<!-- Model_Width&#45;&gt;Train_Cons -->
<g id="edge90" class="edge">
<title>Model_Width-&gt;Train_Cons</title>
<path fill="none" stroke="#000000" d="M1917.1399,-503.7623C1918.6749,-479.201 1921.422,-435.2474 1923.2279,-406.3541"/>
<polygon fill="#000000" stroke="#000000" points="1926.7387,-406.2885 1923.8694,-396.0896 1919.7523,-405.8518 1926.7387,-406.2885"/>
</g>
<!-- Model_Width&#45;&gt;MI_BlackBox -->
<g id="edge96" class="edge">
<title>Model_Width-&gt;MI_BlackBox</title>
<path fill="none" stroke="#000000" d="M1929.1936,-504.198C1946.0248,-480.6396 1974.8797,-437.2577 1991,-396 2005.878,-357.9218 2010,-346.8816 2010,-306 2010,-306 2010,-306 2010,-162 2010,-2.6749 1820.6537,-95.0174 1663,-72 1385.7007,-31.5143 512.356,-20.8954 247.7373,-18.5734"/>
<polygon fill="#000000" stroke="#000000" points="247.4903,-15.0713 237.4605,-18.4848 247.4298,-22.071 247.4903,-15.0713"/>
</g>
<!-- Model_Width&#45;&gt;Train_other_SPD -->
<g id="edge89" class="edge">
<title>Model_Width-&gt;Train_other_SPD</title>
<path fill="none" stroke="#000000" d="M1851.0161,-519.5441C1729.0014,-514.3426 1457.4986,-499.9685 1231,-468 1223.9936,-467.0111 1216.7063,-465.8073 1209.4578,-464.4958"/>
<polygon fill="#000000" stroke="#000000" points="1210.1016,-461.0556 1199.6275,-462.6507 1208.8102,-467.9354 1210.1016,-461.0556"/>
</g>
<!-- Model_Width&#45;&gt;Train_CDS -->
<g id="edge91" class="edge">
<title>Model_Width-&gt;Train_CDS</title>
<path fill="none" stroke="#000000" d="M1851.6302,-518.8964C1748.4868,-513.2037 1540.0859,-498.7402 1366,-468 1360.142,-466.9656 1354.0532,-465.697 1348.0199,-464.3165"/>
<polygon fill="#000000" stroke="#000000" points="1348.5094,-460.8349 1337.9692,-461.9091 1346.8788,-467.6423 1348.5094,-460.8349"/>
</g>
<!-- Model_Width&#45;&gt;Test_Cons -->
<g id="edge92" class="edge">
<title>Model_Width-&gt;Test_Cons</title>
<path fill="none" stroke="#000000" d="M1973.2628,-513.2287C1996.9616,-509.88 2024.7552,-506.3147 2050,-504 2130.7599,-496.595 2715.5026,-518.4487 2779,-468 2864.1952,-400.3124 2859.7195,-252.26 2853.5977,-190.2271"/>
<polygon fill="#000000" stroke="#000000" points="2857.049,-189.5866 2852.4963,-180.0198 2850.0894,-190.3376 2857.049,-189.5866"/>
</g>
<!-- Model_Width&#45;&gt;AE_FGSM -->
<g id="edge95" class="edge">
<title>Model_Width-&gt;AE_FGSM</title>
<path fill="none" stroke="#000000" d="M1973.6217,-513.4845C1997.2529,-510.1944 2024.9014,-506.6034 2050,-504 2104.4101,-498.3561 2497.917,-501.707 2541,-468 2660.329,-374.6402 2579.1004,-279.4441 2647,-144 2651.8549,-134.3157 2658.3035,-124.4228 2664.5078,-115.795"/>
<polygon fill="#000000" stroke="#000000" points="2667.4094,-117.7582 2670.5625,-107.6434 2661.7899,-113.5843 2667.4094,-117.7582"/>
</g>
<!-- Model_Width&#45;&gt;Test_Loss -->
<g id="edge94" class="edge">
<title>Model_Width-&gt;Test_Loss</title>
<path fill="none" stroke="#000000" d="M1906.8951,-503.9656C1894.914,-479.797 1873.6613,-435.3752 1859,-396 1841.5309,-349.0841 1853.3163,-330.5878 1827,-288 1777.8392,-208.4427 1686.9147,-142.7899 1637.3694,-110.88"/>
<polygon fill="#000000" stroke="#000000" points="1639.2272,-107.9137 1628.9107,-105.5015 1635.4712,-113.8207 1639.2272,-107.9137"/>
</g>
<!-- Model_Width&#45;&gt;Train_Loss -->
<g id="edge93" class="edge">
<title>Model_Width-&gt;Train_Loss</title>
<path fill="none" stroke="#000000" d="M1853.7702,-516.3932C1810.6848,-510.0586 1753.6434,-496.5927 1711,-468 1687.3031,-452.1111 1668.5548,-425.1588 1656.7973,-404.8811"/>
<polygon fill="#000000" stroke="#000000" points="1659.8246,-403.1236 1651.8944,-396.0978 1653.7124,-406.5355 1659.8246,-403.1236"/>
</g>
<!-- LTDD -->
<g id="node35" class="node">
<title>LTDD</title>
<ellipse fill="none" stroke="#000000" cx="204" cy="-522" rx="36.5575" ry="18"/>
<text text-anchor="middle" x="204" y="-517.8" font-family="Times,serif" font-size="14.00" fill="#000000">LTDD</text>
</g>
<!-- LTDD&#45;&gt;Data_sens_SPD -->
<g id="edge99" class="edge">
<title>LTDD-&gt;Data_sens_SPD</title>
<path fill="none" stroke="#000000" d="M221.78,-505.8293C244.0726,-486.2244 284.1005,-453.1848 323,-432 351.3626,-416.5537 385.0474,-403.8681 413.1107,-394.6827"/>
<polygon fill="#000000" stroke="#000000" points="414.3308,-397.9671 422.7846,-391.5809 412.1935,-391.3014 414.3308,-397.9671"/>
</g>
<!-- LTDD&#45;&gt;Data_sens_DP -->
<g id="edge98" class="edge">
<title>LTDD-&gt;Data_sens_DP</title>
<path fill="none" stroke="#000000" d="M233.7682,-511.0647C264.7345,-499.6894 313.7448,-481.6856 350.5407,-468.1687"/>
<polygon fill="#000000" stroke="#000000" points="351.9112,-471.394 360.091,-464.6605 349.4974,-464.8233 351.9112,-471.394"/>
</g>
<!-- LTDD&#45;&gt;Train_sens_SPD -->
<g id="edge97" class="edge">
<title>LTDD-&gt;Train_sens_SPD</title>
<path fill="none" stroke="#000000" d="M212.7169,-504.371C230.768,-469.9619 275.8079,-394.2341 338,-360 394.5211,-328.8875 569.8884,-315.1267 676.5684,-309.5001"/>
<polygon fill="#000000" stroke="#000000" points="676.8644,-312.9895 686.6715,-308.9806 676.505,-305.9988 676.8644,-312.9895"/>
</g>
<!-- LTDD&#45;&gt;MI_BlackBox -->
<g id="edge100" class="edge">
<title>LTDD-&gt;MI_BlackBox</title>
<path fill="none" stroke="#000000" d="M173.553,-511.5053C125.6302,-492.8241 38,-448.9624 38,-378 38,-378 38,-378 38,-162 38,-120.6022 35.7859,-104.0405 62,-72 75.7333,-55.2144 95.989,-43.2061 115.3241,-34.8434"/>
<polygon fill="#000000" stroke="#000000" points="116.765,-38.0359 124.7093,-31.026 114.1275,-31.5517 116.765,-38.0359"/>
</g>
<!-- FairMask -->
<g id="node36" class="node">
<title>FairMask</title>
<ellipse fill="none" stroke="#000000" cx="2844" cy="-90" rx="48.0897" ry="18"/>
<text text-anchor="middle" x="2844" y="-85.8" font-family="Times,serif" font-size="14.00" fill="#000000">FairMask</text>
</g>
<!-- FairMask&#45;&gt;Test_CDS -->
<g id="edge101" class="edge">
<title>FairMask-&gt;Test_CDS</title>
<path fill="none" stroke="#000000" d="M2853.1461,-72.2022C2857.3709,-63.981 2862.4789,-54.041 2867.1609,-44.9301"/>
<polygon fill="#000000" stroke="#000000" points="2870.3732,-46.3366 2871.8309,-35.8425 2864.1472,-43.1371 2870.3732,-46.3366"/>
</g>
<!-- Fairway -->
<g id="node37" class="node">
<title>Fairway</title>
<ellipse fill="none" stroke="#000000" cx="999" cy="-522" rx="42.8538" ry="18"/>
<text text-anchor="middle" x="999" y="-517.8" font-family="Times,serif" font-size="14.00" fill="#000000">Fairway</text>
</g>
<!-- Fairway&#45;&gt;Data_Cons -->
<g id="edge102" class="edge">
<title>Fairway-&gt;Data_Cons</title>
<path fill="none" stroke="#000000" d="M1040.9422,-518.1034C1169.6343,-506.1475 1559.3754,-469.9393 1711.8767,-455.7715"/>
<polygon fill="#000000" stroke="#000000" points="1712.3737,-459.2404 1722.007,-454.8303 1711.7261,-452.2705 1712.3737,-459.2404"/>
</g>
<!-- Fairway&#45;&gt;Data_sens_DP -->
<g id="edge103" class="edge">
<title>Fairway-&gt;Data_sens_DP</title>
<path fill="none" stroke="#000000" d="M967.439,-509.7535C960.7716,-507.5413 953.7188,-505.473 947,-504 782.428,-467.9196 584.6805,-455.9216 477.7946,-451.9495"/>
<polygon fill="#000000" stroke="#000000" points="477.8574,-448.4496 467.7386,-451.5897 477.607,-455.4452 477.8574,-448.4496"/>
</g>
<!-- Fairway&#45;&gt;Train_sens_SPD -->
<g id="edge105" class="edge">
<title>Fairway-&gt;Train_sens_SPD</title>
<path fill="none" stroke="#000000" d="M966.7348,-510.161C960.2446,-507.9696 953.439,-505.8056 947,-504 874.3112,-483.6163 831.736,-523.9019 781,-468 747.9716,-431.6088 750.9924,-370.1074 756.3646,-334.2654"/>
<polygon fill="#000000" stroke="#000000" points="759.8801,-334.4611 758.07,-324.0221 752.9751,-333.3115 759.8801,-334.4611"/>
</g>
<!-- Fairway&#45;&gt;MI_BlackBox -->
<g id="edge107" class="edge">
<title>Fairway-&gt;MI_BlackBox</title>
<path fill="none" stroke="#000000" d="M967.7611,-509.6324C961.0091,-507.3999 953.8412,-505.3543 947,-504 810.7469,-477.0269 450.4959,-523.1112 323,-468 226.9035,-426.4614 152,-410.69 152,-306 152,-306 152,-306 152,-162 152,-121.5282 159.468,-75.2037 165.04,-46.2725"/>
<polygon fill="#000000" stroke="#000000" points="168.5483,-46.5746 167.0632,-36.0844 161.6823,-45.2111 168.5483,-46.5746"/>
</g>
<!-- Fairway&#45;&gt;Data_other_DP -->
<g id="edge104" class="edge">
<title>Fairway-&gt;Data_other_DP</title>
<path fill="none" stroke="#000000" d="M972.0646,-507.9468C951.9341,-497.4439 924.0792,-482.9109 901.3014,-471.0268"/>
<polygon fill="#000000" stroke="#000000" points="902.6941,-467.8058 892.2093,-466.2831 899.4561,-474.0119 902.6941,-467.8058"/>
</g>
<!-- Fairway&#45;&gt;Train_CDS -->
<g id="edge106" class="edge">
<title>Fairway-&gt;Train_CDS</title>
<path fill="none" stroke="#000000" d="M1036.89,-513.6874C1082.92,-503.4723 1162.8729,-485.3536 1231,-468 1235.3296,-466.8971 1239.8126,-465.7232 1244.307,-464.5238"/>
<polygon fill="#000000" stroke="#000000" points="1245.3685,-467.8626 1254.1093,-461.8752 1243.5425,-461.1049 1245.3685,-467.8626"/>
</g>
<!-- FairSmote -->
<g id="node38" class="node">
<title>FairSmote</title>
<ellipse fill="none" stroke="#000000" cx="1616" cy="-594" rx="51.0396" ry="18"/>
<text text-anchor="middle" x="1616" y="-589.8" font-family="Times,serif" font-size="14.00" fill="#000000">FairSmote</text>
</g>
<!-- FairSmote&#45;&gt;Data_Cons -->
<g id="edge108" class="edge">
<title>FairSmote-&gt;Data_Cons</title>
<path fill="none" stroke="#000000" d="M1634.4338,-577.1995C1662.3502,-551.7568 1715.4836,-503.3314 1747.5292,-474.1253"/>
<polygon fill="#000000" stroke="#000000" points="1750.1605,-476.4627 1755.1938,-467.1398 1745.4453,-471.289 1750.1605,-476.4627"/>
</g>
<!-- FairSmote&#45;&gt;Data_sens_SPD -->
<g id="edge110" class="edge">
<title>FairSmote-&gt;Data_sens_SPD</title>
<path fill="none" stroke="#000000" d="M1564.6304,-593.1045C1353.4874,-589.2158 561.6145,-572.508 520,-540 498.8583,-523.4847 482.9463,-448.1053 475.5602,-406.2401"/>
<polygon fill="#000000" stroke="#000000" points="478.9664,-405.3948 473.8273,-396.1299 472.067,-406.5775 478.9664,-405.3948"/>
</g>
<!-- FairSmote&#45;&gt;Test_other_AOD -->
<g id="edge116" class="edge">
<title>FairSmote-&gt;Test_other_AOD</title>
<path fill="none" stroke="#000000" d="M1564.541,-592.7734C1373.6411,-587.999 715.2441,-569.4502 682,-540 597.6491,-465.2753 578.1266,-371.3192 654,-288 686.1647,-252.6788 988.6537,-240.0325 1141.904,-235.8666"/>
<polygon fill="#000000" stroke="#000000" points="1142.3226,-239.3568 1152.2262,-235.5927 1142.1368,-232.3593 1142.3226,-239.3568"/>
</g>
<!-- FairSmote&#45;&gt;Train_Cons -->
<g id="edge117" class="edge">
<title>FairSmote-&gt;Train_Cons</title>
<path fill="none" stroke="#000000" d="M1666.3925,-590.3522C1763.5499,-582.8054 1969.0903,-564.1455 1990,-540 2025.1709,-499.3862 1980.4545,-437.3304 1949.6314,-403.0092"/>
<polygon fill="#000000" stroke="#000000" points="1951.8871,-400.2925 1942.5344,-395.3148 1946.7416,-405.0385 1951.8871,-400.2925"/>
</g>
<!-- FairSmote&#45;&gt;Data_sens_DP -->
<g id="edge109" class="edge">
<title>FairSmote-&gt;Data_sens_DP</title>
<path fill="none" stroke="#000000" d="M1564.4407,-593.8505C1355.8133,-592.9342 580.6485,-586.4092 482,-540 453.3814,-526.5363 430.2045,-498.0662 415.8846,-476.7307"/>
<polygon fill="#000000" stroke="#000000" points="418.6669,-474.5875 410.2997,-468.0882 412.7876,-478.3868 418.6669,-474.5875"/>
</g>
<!-- FairSmote&#45;&gt;Train_sens_SPD -->
<g id="edge113" class="edge">
<title>FairSmote-&gt;Train_sens_SPD</title>
<path fill="none" stroke="#000000" d="M1564.6712,-592.8831C1376.6135,-588.5448 734.6627,-571.473 705,-540 650.1946,-481.8498 708.9787,-380.1171 742.3034,-332.2765"/>
<polygon fill="#000000" stroke="#000000" points="745.2511,-334.1707 748.1964,-323.9935 739.5474,-330.1127 745.2511,-334.1707"/>
</g>
<!-- FairSmote&#45;&gt;MI_BlackBox -->
<g id="edge126" class="edge">
<title>FairSmote-&gt;MI_BlackBox</title>
<path fill="none" stroke="#000000" d="M1564.3343,-593.8769C1317.5783,-593.0542 265.2837,-586.8074 127,-540 61.4714,-517.8194 0,-519.1807 0,-450 0,-450 0,-450 0,-162 0,-118.5807 7.0863,-102.489 38,-72 57.345,-52.9208 84.336,-40.2983 108.9515,-32.0934"/>
<polygon fill="#000000" stroke="#000000" points="110.1174,-35.3957 118.6051,-29.0547 108.0156,-28.7187 110.1174,-35.3957"/>
</g>
<!-- FairSmote&#45;&gt;Data_other_DP -->
<g id="edge111" class="edge">
<title>FairSmote-&gt;Data_other_DP</title>
<path fill="none" stroke="#000000" d="M1567.6126,-587.8816C1498.4763,-578.8766 1367.5556,-560.8482 1257,-540 1137.3192,-517.431 998.8444,-484.3406 921.4336,-465.2044"/>
<polygon fill="#000000" stroke="#000000" points="921.9317,-461.722 911.3833,-462.7135 920.2477,-468.5164 921.9317,-461.722"/>
</g>
<!-- FairSmote&#45;&gt;Data_other_SPD -->
<g id="edge112" class="edge">
<title>FairSmote-&gt;Data_other_SPD</title>
<path fill="none" stroke="#000000" d="M1564.5375,-592.6561C1443.6505,-588.9759 1132.3399,-576.4522 875,-540 868.3772,-539.0619 861.4984,-537.9087 854.651,-536.6431"/>
<polygon fill="#000000" stroke="#000000" points="855.1564,-533.1761 844.6747,-534.7203 853.8316,-540.0496 855.1564,-533.1761"/>
</g>
<!-- FairSmote&#45;&gt;Test_other_SPD -->
<g id="edge115" class="edge">
<title>FairSmote-&gt;Test_other_SPD</title>
<path fill="none" stroke="#000000" d="M1564.6469,-593.0665C1308.7906,-588.2966 182.9227,-565.8628 158,-540 -140.0658,-230.6903 843.7517,-174.0956 1145.0494,-164.0822"/>
<polygon fill="#000000" stroke="#000000" points="1145.5946,-167.5665 1155.4764,-163.7453 1145.3685,-160.5701 1145.5946,-167.5665"/>
</g>
<!-- FairSmote&#45;&gt;Train_CDS -->
<g id="edge118" class="edge">
<title>FairSmote-&gt;Train_CDS</title>
<path fill="none" stroke="#000000" d="M1584.4414,-579.7986C1526.4307,-553.6938 1402.8558,-498.0851 1337.8943,-468.8524"/>
<polygon fill="#000000" stroke="#000000" points="1339.3055,-465.6494 1328.7499,-464.7375 1336.4329,-472.0329 1339.3055,-465.6494"/>
</g>
<!-- FairSmote&#45;&gt;Test_Cons -->
<g id="edge119" class="edge">
<title>FairSmote-&gt;Test_Cons</title>
<path fill="none" stroke="#000000" d="M1667.444,-593.1675C1899.2196,-588.879 2838.7242,-565.5413 2921,-468 2993.5962,-381.9342 2946.6312,-316.0587 2895,-216 2889.6016,-205.5381 2881.8817,-195.2929 2874.3565,-186.5866"/>
<polygon fill="#000000" stroke="#000000" points="2876.868,-184.1454 2867.5725,-179.0616 2871.6689,-188.8325 2876.868,-184.1454"/>
</g>
<!-- FairSmote&#45;&gt;Test_CDS -->
<g id="edge120" class="edge">
<title>FairSmote-&gt;Test_CDS</title>
<path fill="none" stroke="#000000" d="M1667.5084,-593.7819C1871.5821,-592.6054 2623.5814,-585.2274 2857,-540 2951.3925,-521.7104 2982.0646,-522.8967 3061,-468 3180.1183,-385.1575 3215.8864,-232.6181 3101,-144 3045.3873,-101.1029 2833.7496,-160.4157 2787,-108 2776.3501,-96.0593 2778.985,-85.8477 2787,-72 2797.1159,-54.5225 2815.2649,-42.2095 2832.9362,-33.8021"/>
<polygon fill="#000000" stroke="#000000" points="2834.3583,-37.0003 2842.0885,-29.7549 2831.5273,-30.5983 2834.3583,-37.0003"/>
</g>
<!-- FairSmote&#45;&gt;AE_FGSM -->
<g id="edge124" class="edge">
<title>FairSmote-&gt;AE_FGSM</title>
<path fill="none" stroke="#000000" d="M1667.2926,-593.7207C1860.5377,-592.3357 2544.4234,-584.34 2757,-540 2941.2632,-501.5657 3110,-494.2289 3110,-306 3110,-306 3110,-306 3110,-234 3110,-66.16 2917.4995,-145.9234 2754,-108 2748.6484,-106.7587 2743.0789,-105.4069 2737.5278,-104.0202"/>
<polygon fill="#000000" stroke="#000000" points="2738.1604,-100.5699 2727.6067,-101.5028 2736.4387,-107.3549 2738.1604,-100.5699"/>
</g>
<!-- FairSmote&#45;&gt;AE_PGD -->
<g id="edge125" class="edge">
<title>FairSmote-&gt;AE_PGD</title>
<path fill="none" stroke="#000000" d="M1667.3042,-593.0425C1806.8883,-589.9458 2185.7844,-578.0808 2226,-540 2325.7675,-445.5285 2270,-371.3988 2270,-234 2270,-234 2270,-234 2270,-162 2270,-72.0979 2392.1549,-37.607 2466.7044,-24.9287"/>
<polygon fill="#000000" stroke="#000000" points="2467.5774,-28.3331 2476.8901,-23.281 2466.4595,-21.4229 2467.5774,-28.3331"/>
</g>
<!-- FairSmote&#45;&gt;Test_sens_AOD -->
<g id="edge114" class="edge">
<title>FairSmote-&gt;Test_sens_AOD</title>
<path fill="none" stroke="#000000" d="M1667.0823,-591.752C1815.2543,-584.979 2238.3474,-563.7668 2296,-540 2341.7724,-521.1307 2356.1613,-510.8276 2381,-468 2405.3437,-426.0259 2410.5978,-368.5439 2411.3723,-334.5384"/>
<polygon fill="#000000" stroke="#000000" points="2414.8739,-334.4102 2411.4849,-324.372 2407.8743,-334.3326 2414.8739,-334.4102"/>
</g>
<!-- FairSmote&#45;&gt;Test_Loss -->
<g id="edge123" class="edge">
<title>FairSmote-&gt;Test_Loss</title>
<path fill="none" stroke="#000000" d="M1611.4459,-575.869C1603.0014,-541.2092 1585.2092,-463.0303 1579,-396 1569.5306,-293.7747 1587.9063,-172.1078 1597.5797,-118.1569"/>
<polygon fill="#000000" stroke="#000000" points="1601.0269,-118.7626 1599.3875,-108.2954 1594.1416,-117.5003 1601.0269,-118.7626"/>
</g>
<!-- FairSmote&#45;&gt;Train_Loss -->
<g id="edge121" class="edge">
<title>FairSmote-&gt;Train_Loss</title>
<path fill="none" stroke="#000000" d="M1621.596,-575.6766C1624.5499,-565.303 1627.9731,-552.0335 1630,-540 1637.8318,-493.5044 1640.9783,-438.6809 1642.2191,-406.2142"/>
<polygon fill="#000000" stroke="#000000" points="1645.7209,-406.2209 1642.5709,-396.1052 1638.7251,-405.9774 1645.7209,-406.2209"/>
</g>
<!-- FairSmote&#45;&gt;Train_F1 -->
<g id="edge122" class="edge">
<title>FairSmote-&gt;Train_F1</title>
<path fill="none" stroke="#000000" d="M1667.1183,-591.9852C1819.5827,-585.7476 2269.498,-565.6228 2414,-540 2510.4749,-522.8933 2619.7657,-486.9941 2679.0489,-466.0739"/>
<polygon fill="#000000" stroke="#000000" points="2680.5729,-469.2468 2688.8235,-462.6001 2678.2287,-462.651 2680.5729,-469.2468"/>
</g>
<!-- AdDebias -->
<g id="node39" class="node">
<title>AdDebias</title>
<ellipse fill="none" stroke="#000000" cx="3198" cy="-594" rx="49.7981" ry="18"/>
<text text-anchor="middle" x="3198" y="-589.8" font-family="Times,serif" font-size="14.00" fill="#000000">AdDebias</text>
</g>
<!-- AdDebias&#45;&gt;Train_sens_AOD -->
<g id="edge127" class="edge">
<title>AdDebias-&gt;Train_sens_AOD</title>
<path fill="none" stroke="#000000" d="M3148.9999,-590.6717C2982.5478,-579.3655 2437.3717,-542.3347 2224.3699,-527.8666"/>
<polygon fill="#000000" stroke="#000000" points="2224.3894,-524.36 2214.1752,-527.1742 2223.915,-531.3439 2224.3894,-524.36"/>
</g>
<!-- AdDebias&#45;&gt;Test_TI -->
<g id="edge128" class="edge">
<title>AdDebias-&gt;Test_TI</title>
<path fill="none" stroke="#000000" d="M3176.9483,-577.5961C3102.2075,-519.3565 2849.5369,-322.4703 2764.3281,-256.0738"/>
<polygon fill="#000000" stroke="#000000" points="2766.4249,-253.2706 2756.3856,-249.8849 2762.1223,-258.7922 2766.4249,-253.2706"/>
</g>
<!-- AdDebias&#45;&gt;Train_Acc -->
<g id="edge129" class="edge">
<title>AdDebias-&gt;Train_Acc</title>
<path fill="none" stroke="#000000" d="M3154.4351,-585.2628C3030.0902,-560.3245 2673.6126,-488.8304 2535.5528,-461.1415"/>
<polygon fill="#000000" stroke="#000000" points="2536.0983,-457.6813 2525.6053,-459.1465 2534.7218,-464.5446 2536.0983,-457.6813"/>
</g>
<!-- PR -->
<g id="node40" class="node">
<title>PR</title>
<ellipse fill="none" stroke="#000000" cx="911" cy="-522" rx="27" ry="18"/>
<text text-anchor="middle" x="911" y="-517.8" font-family="Times,serif" font-size="14.00" fill="#000000">PR</text>
</g>
<!-- PR&#45;&gt;Test_sens_SPD -->
<g id="edge131" class="edge">
<title>PR-&gt;Test_sens_SPD</title>
<path fill="none" stroke="#000000" d="M931.355,-509.9662C936.3179,-507.5612 941.7218,-505.3592 947,-504 1138.6859,-454.6383 1642.2386,-503.3277 1837,-468 1919.2832,-453.0747 2010.8166,-419.127 2064.2349,-397.4549"/>
<polygon fill="#000000" stroke="#000000" points="2065.8259,-400.5856 2073.7549,-393.5584 2063.1743,-394.1072 2065.8259,-400.5856"/>
</g>
<!-- PR&#45;&gt;Test_other_AOD -->
<g id="edge132" class="edge">
<title>PR-&gt;Test_other_AOD</title>
<path fill="none" stroke="#000000" d="M889.5633,-510.5586C884.833,-508.2385 879.8,-505.9231 875,-504 824.4969,-483.7655 800.3574,-502.1445 758,-468 689.7007,-412.9436 618.0591,-352.9767 677,-288 707.5778,-254.2908 993.5999,-240.9355 1141.8266,-236.244"/>
<polygon fill="#000000" stroke="#000000" points="1142.3686,-239.729 1152.2554,-235.921 1142.1518,-232.7323 1142.3686,-239.729"/>
</g>
<!-- PR&#45;&gt;MI_BlackBox -->
<g id="edge135" class="edge">
<title>PR-&gt;MI_BlackBox</title>
<path fill="none" stroke="#000000" d="M890.628,-510.0309C885.6658,-507.6232 880.2665,-505.4038 875,-504 605.2917,-432.1072 513.0909,-555.3951 248,-468 148.267,-435.1201 76,-411.0131 76,-306 76,-306 76,-306 76,-162 76,-113.2699 114.3739,-68.3148 142.3439,-42.0201"/>
<polygon fill="#000000" stroke="#000000" points="144.8883,-44.4365 149.9164,-35.1108 140.1701,-39.2655 144.8883,-44.4365"/>
</g>
<!-- PR&#45;&gt;Train_other_SPD -->
<g id="edge130" class="edge">
<title>PR-&gt;Train_other_SPD</title>
<path fill="none" stroke="#000000" d="M932.0112,-510.638C936.8543,-508.2608 942.0415,-505.9018 947,-504 988.8983,-487.93 1037.523,-474.5029 1075.8589,-465.0573"/>
<polygon fill="#000000" stroke="#000000" points="1076.9875,-468.3849 1085.8775,-462.6214 1075.3337,-461.5831 1076.9875,-468.3849"/>
</g>
<!-- PR&#45;&gt;Train_CDS -->
<g id="edge133" class="edge">
<title>PR-&gt;Train_CDS</title>
<path fill="none" stroke="#000000" d="M931.8287,-510.1064C936.6814,-507.7568 941.9185,-505.5433 947,-504 1068.741,-467.0246 1106.2566,-493.0428 1231,-468 1235.6352,-467.0695 1240.4251,-465.9847 1245.2057,-464.8175"/>
<polygon fill="#000000" stroke="#000000" points="1246.1293,-468.1941 1254.9527,-462.329 1244.3976,-461.4116 1246.1293,-468.1941"/>
</g>
<!-- PR&#45;&gt;Test_Loss -->
<g id="edge134" class="edge">
<title>PR-&gt;Test_Loss</title>
<path fill="none" stroke="#000000" d="M890.6201,-510.0605C885.6582,-507.6517 880.261,-505.4243 875,-504 756.3441,-471.877 435.6532,-517.1973 323,-468 269.6999,-444.723 228,-436.1611 228,-378 228,-378 228,-378 228,-234 228,-166.94 1276.1704,-107.2083 1542.1935,-93.1284"/>
<polygon fill="#000000" stroke="#000000" points="1542.6305,-96.6104 1552.4323,-92.5887 1542.2619,-89.6201 1542.6305,-96.6104"/>
</g>
<!-- EGR -->
<g id="node41" class="node">
<title>EGR</title>
<ellipse fill="none" stroke="#000000" cx="1296" cy="-522" rx="30.1958" ry="18"/>
<text text-anchor="middle" x="1296" y="-517.8" font-family="Times,serif" font-size="14.00" fill="#000000">EGR</text>
</g>
<!-- EGR&#45;&gt;Train_CDS -->
<g id="edge136" class="edge">
<title>EGR-&gt;Train_CDS</title>
<path fill="none" stroke="#000000" d="M1296,-503.8314C1296,-496.131 1296,-486.9743 1296,-478.4166"/>
<polygon fill="#000000" stroke="#000000" points="1299.5001,-478.4132 1296,-468.4133 1292.5001,-478.4133 1299.5001,-478.4132"/>
</g>
<!-- EGR&#45;&gt;Test_Loss -->
<g id="edge138" class="edge">
<title>EGR-&gt;Test_Loss</title>
<path fill="none" stroke="#000000" d="M1266.9168,-516.8274C1198.8651,-504.643 1034.2223,-474.6618 1024,-468 947.146,-417.9153 883.9496,-371.0065 923,-288 965.7319,-197.1681 1004.4967,-182.9819 1097,-144 1175.9285,-110.7387 1425.5739,-96.884 1542.0501,-92.1195"/>
<polygon fill="#000000" stroke="#000000" points="1542.3718,-95.6095 1552.2239,-91.7127 1542.092,-88.6151 1542.3718,-95.6095"/>
</g>
<!-- EGR&#45;&gt;Train_Loss -->
<g id="edge137" class="edge">
<title>EGR-&gt;Train_Loss</title>
<path fill="none" stroke="#000000" d="M1326.0035,-518.1742C1386.159,-510.1291 1519.1596,-490.3473 1559,-468 1586.7284,-452.4466 1610.5938,-424.5817 1625.7237,-403.9639"/>
<polygon fill="#000000" stroke="#000000" points="1628.7097,-405.8045 1631.6589,-395.6284 1623.0075,-401.7443 1628.7097,-405.8045"/>
</g>
<!-- CEO -->
<g id="node42" class="node">
<title>CEO</title>
<ellipse fill="none" stroke="#000000" cx="2494" cy="-90" rx="30.1958" ry="18"/>
<text text-anchor="middle" x="2494" y="-85.8" font-family="Times,serif" font-size="14.00" fill="#000000">CEO</text>
</g>
<!-- CEO&#45;&gt;AE_PGD -->
<g id="edge139" class="edge">
<title>CEO-&gt;AE_PGD</title>
<path fill="none" stroke="#000000" d="M2501.1685,-72.2022C2504.445,-64.0675 2508.3993,-54.2501 2512.0371,-45.2181"/>
<polygon fill="#000000" stroke="#000000" points="2515.3238,-46.4261 2515.8134,-35.8425 2508.8307,-43.8107 2515.3238,-46.4261"/>
</g>
<!-- ROC -->
<g id="node43" class="node">
<title>ROC</title>
<ellipse fill="none" stroke="#000000" cx="2341" cy="-450" rx="30.777" ry="18"/>
<text text-anchor="middle" x="2341" y="-445.8" font-family="Times,serif" font-size="14.00" fill="#000000">ROC</text>
</g>
<!-- ROC&#45;&gt;Test_sens_SPD -->
<g id="edge140" class="edge">
<title>ROC-&gt;Test_sens_SPD</title>
<path fill="none" stroke="#000000" d="M2313.5941,-441.4579C2277.1093,-430.086 2211.7503,-409.7144 2164.9215,-395.1184"/>
<polygon fill="#000000" stroke="#000000" points="2165.8156,-391.7311 2155.2271,-392.0968 2163.7326,-398.414 2165.8156,-391.7311"/>
</g>
<!-- ROC&#45;&gt;AE_PGD -->
<g id="edge141" class="edge">
<title>ROC-&gt;AE_PGD</title>
<path fill="none" stroke="#000000" d="M2335.4563,-432.1336C2326.949,-401.8858 2313.0477,-338.9126 2327,-288 2356.4932,-180.378 2381.6457,-156.0921 2455,-72 2465.4672,-60.0006 2478.873,-48.7103 2491.0106,-39.5866"/>
<polygon fill="#000000" stroke="#000000" points="2493.1487,-42.3592 2499.1593,-33.6343 2489.0196,-36.7066 2493.1487,-42.3592"/>
</g>
</g>
</svg>